<svg xmlns="http://www.w3.org/2000/svg" viewBox="0 0 1134.1 767"><defs><style>.cls-1{fill:#30bce2;}.cls-2{fill:#9dc10a;}.cls-3{fill:#269316;}.cls-4{fill:#cbf3f5;}.cls-5{fill:#a4f7f7;}.cls-6{fill:#ccf4f6;}.cls-7{fill:#856141;}.cls-8{fill:#a07138;}.cls-9{fill:#9e704e;}.cls-10{fill:#545556;}.cls-11{fill:#e5b5a5;}.cls-12{fill:#1b3f06;}.cls-13{fill:#db8c19;}.cls-14{fill:#eda52f;}.cls-15{fill:#eab82d;}.cls-16{fill:#e27703;}.cls-17{fill:#ea5426;}.cls-18{fill:#f7bfe9;}.cls-19{fill:#0c154c;}.cls-20{fill:#3d3d3d;}.cls-21{fill:#1f4587;}.cls-22{fill:#4773a8;}.cls-23{fill:#e0ab9d;}.cls-24{fill:#282828;}.cls-25{fill:#e8c9c4;}.cls-26{fill:#d18a79;}.cls-27{fill:#e2a08f;}.cls-28{fill:#e2911b;}.cls-29{fill:#d632b3;}.cls-30{fill:#dda292;}.cls-31{fill:aqua;}</style></defs><title>깨지는지 확인</title><g id="레이어_2" data-name="레이어 2"><g id="레이어_1-2" data-name="레이어 1"><path class="cls-1" d="M431.7,623.5c26.6-1.6,51.9-14.2,78.6-14.8,23.8-.5,47.1,8.7,70.9,8.3-11.3-5.7-23.9-8.1-36.3-10.4s-24.8-4.7-37.3-4.5c-22,.4-43.1,8.5-63.3,17.2C440.3,621,436.1,622.8,431.7,623.5ZM958.3,563a332.8,332.8,0,0,1-72.4,8.9,125.5,125.5,0,0,0,14.7,3.5,81.1,81.1,0,0,0,57.7-12.3ZM284.4,580h0Zm42.2-100.3c1.3,3.7,2.5,7.4,3.7,11.2q12.9,38.9,24.5,78.1l1.5-.4q42.4.9,85.2,1.5v.4a116,116,0,0,1-62,15.1c-4.7-.2-9.5-.6-14.2-1.2-13-1.5-26-3.4-39-5.8-5-.9-10.1-1.9-15.2-1.9-8.5-.1-16.8,2.4-25.3,3.2,14.2-.9,28.5,2.3,42.6,4.9,19.5,3.5,39.2,5.7,59,7.8,5,.6,10.2,1.1,15.2.3a53.1,53.1,0,0,0,9.6-2.9,461.5,461.5,0,0,0,44.5-19.5h0c84.5,1.1,169.4,1.4,253.9.8h0a82.3,82.3,0,0,1-41.7,13.1,138.4,138.4,0,0,1-14.4-.3c-20.4-1.1-40.9-2.5-61.3-3.9l-.3,1.7c24.9,4.1,49.9,8.3,75.1,9.1a76.1,76.1,0,0,0,16.5-.8c15.1-2.8,27.8-13.4,42.5-18V571q46.2-.3,92.3-1.2v-.2a41.5,41.5,0,0,0,12.9-3.7A64.4,64.4,0,0,0,846,556c12.4-10.9,23.1-23.5,33.3-36.5,12.7-16.1,24.5-33,36-50.1l7-10.6-.4-.3c-49,8-98.5,11.9-148.1,14v-1.3l-27.8-7.3v-.7c2.1-1.7,4.1-3.5,6-5.3l.2-.8a3.8,3.8,0,0,0,1.5.1,4.4,4.4,0,0,0,1.8-1.2c2.4-2.3,4.8-4.6,7-7v-.6l2.2-.2c2.7.2,5.2,1.9,7.8,1.3a4.7,4.7,0,0,0,3.5-4.4c0-1.4-.6-2.7-.6-4a4.3,4.3,0,0,1,1.7-3.6l-.2-.2a1.2,1.2,0,0,0,.3-1.5h.7l13-11.3c1.5-1.3,3-2.7,3.5-4.6,0-.3.1-.6.1-.9h0l15.2-13.2h.1c36.1,1,71.8.8,107.4.2,72.6-1.1,144.5-3.6,217,.4V765.5l-.5,1.5H0V407.8H.2l258.6.2H410.5c-.8,10.4-1.2,20.9-1.2,31.4-.1,7.7.1,15.3-.7,22.9-.5,4.9-1.3,9.7-.7,14.6v1.6Zm380,143.9c6,.4,12,.6,17.7-1.3a54.3,54.3,0,0,0,8.4-4.1c10-5.8,20-12,31.2-14.9a110.4,110.4,0,0,1,18-2.8c12.5-1.2,25.1-2.4,37.7-1.9a174.7,174.7,0,0,0-25.6-4.8c-11.9-1.2-24.2-.5-35.4,3.7C740.4,604.4,725.6,620.4,706.6,623.6Z"/><path class="cls-2" d="M1134.1,388.8v17.6c-72.5-4-144.4-1.5-217-.4a15.1,15.1,0,0,1-.1-3c.1-5.5,1.7-10.9,3.4-16.2,2.3-7.1,4.6-14.2,7.1-21.2,1.7-4.7,3.5-9.3,4.4-14.3,7.1-1.1,14.4-1.8,21.6-2.5,26.3-2.4,53.1-4.7,78.6,1.5,3.2.8,6.3,1.7,9.4,2.7,7.3,2.3,14.4,5.1,21.5,8l70.1,27.8Z"/><path class="cls-3" d="M1134.1,308.5v80.3h-1L1063,361c-7.1-2.9-14.2-5.7-21.5-8l.4-1c8.7-2.9,16.4-8.3,24.4-12.9,3.5-2,7-3.8,10.6-5.6a598,598,0,0,1,56.7-25Z"/><path class="cls-4" d="M1134.1,0V308.5h-.5a598,598,0,0,0-56.7,25c-3.6,1.8-7.1,3.6-10.6,5.6-8,4.6-15.7,10-24.4,12.9l-.4,1c-3.1-1-6.2-1.9-9.4-2.7-25.5-6.2-52.3-3.9-78.6-1.5-7.2.7-14.5,1.4-21.6,2.5a4.3,4.3,0,0,0,.1-.5c2.4-14.9-4.3-29.7-11.9-42.8v-.9h.3c-2-1.8-5,0-7,1.7L889.1,330l-37.5-19.4c-8.2-4.3-16.7-8.5-25.8-9.3-6.4-.5-12.7.7-19,2a343,343,0,0,0-101.7,40v.2a133,133,0,0,0-54.6-6.3v-.3a82,82,0,0,0-5.7-11.5c-7.5-11.8-21.1-19.3-35-20a47,47,0,0,0-40.3,19.3l-.3.4c-17.8-11.5-36.7-21.3-57.2-26.7l-.8.3a190.9,190.9,0,0,0-14.8-30.1,9.6,9.6,0,0,0-7.8-5.4l-18-4.3a3.9,3.9,0,0,0-2.8-1.1l1.4-.4V241.8h0v-.3a5.4,5.4,0,0,0,3-1.9,16.1,16.1,0,0,0,1.9-3.1,10.6,10.6,0,0,0,1.2-3.4c.1-1.1-.3-2.5-1.4-2.6h-.3v-.6c0-.2-.1-.4-.1-.7h.5a13.6,13.6,0,0,0-.2-2h.1c.1-6.6-1.4-13.4-5.4-18.5s-10.8-8.5-17.3-7.4a30.5,30.5,0,0,0-7,2.4v.4a10.8,10.8,0,0,0-8.4,5.3,11,11,0,0,0-1,4.7c0,2.5.3,5.4,2.5,6.5v.3a35.5,35.5,0,0,1,.6,4.7,25.4,25.4,0,0,1,.1,3.9v.7a1,1,0,0,0-.9.6,2.3,2.3,0,0,0,0,2,68.4,68.4,0,0,0,5.7,11.5,14.9,14.9,0,0,0,2,2.9l-.3.6a12.7,12.7,0,0,1-2.8,8.4l.3.7-.6.4h.1a57.1,57.1,0,0,1-14.4,5.5h-.6l-.2-.3c-2.3-5.7-4.7-11.4-7.1-17-7.1-16.9-14.5-33.6-21.9-50.3-5.5-12.4-11.3-24.8-17.4-37s-12.6-24.3-19.3-36.2c-3.3-5.9-7.1-11.5-10.8-17.2-1.7-2.7-2.9-4.9-4.6-7.5a110.3,110.3,0,0,0-6.7-9c-5.1-6.6-10.3-13.1-15.7-19.6a4.1,4.1,0,0,0-2.3-1.8c-.2,0-.3-.1-.5,0s-.4.7-.2,1.2l-.6.2a310.9,310.9,0,0,0-20.7,77.4c-3.3,24.9-2.1,50.4-7.2,75.1-3.6,16.9-10,33-15.5,49.4-2.5,7.3-4.7,14.8-6.8,22.3-10.5-4.8-21.6-8.3-33.1-8.3s-24.3,4.1-36,7.9c-25.1,8-50.6,15-76.3,20.8-14.2,3.2-28.7,6.1-43.1,4.4C52.3,314,28.2,293.8,0,290.5V0H1134.1Z"/><path class="cls-5" d="M958.3,563h0a81.1,81.1,0,0,1-57.7,12.3,125.5,125.5,0,0,1-14.7-3.5A332.8,332.8,0,0,0,958.3,563Z"/><path class="cls-6" d="M920.1,308c7.6,13.1,14.3,27.9,11.9,42.8a4.3,4.3,0,0,1-.1.5l-2.6.5v-.5C917,344.7,904,337.8,891,331h.1l20.8-19.1c2.4-2.2,5-4.5,8.2-4.7Z"/><path class="cls-2" d="M929.3,351.8l2.6-.5c-.9,5-2.7,9.6-4.4,14.3-2.5,7-4.8,14.1-7.1,21.2-1.7,5.3-3.3,10.7-3.4,16.2a15.1,15.1,0,0,0,.1,3c-35.6.6-71.3.8-107.4-.2h-.1l16.1-14.3,5.6-5,.4.4c31-4.4,58.8-25.4,89.1-33.2C923.6,352.9,926.5,352.3,929.3,351.8Z"/><path class="cls-3" d="M929.2,351.3v.5c-2.8.5-5.7,1.1-8.5,1.8-30.3,7.8-58.1,28.8-89.1,33.2l-.4-.4c8.5-7.6,16.9-15.3,25.2-23l7.6-7.1c2.3-2.1,22.5-21,26.9-25.3C904,337.8,917,344.7,929.2,351.3Z"/><path class="cls-7" d="M921.9,458.5l.4.3-7,10.6h-.1c-84.8,14.2-171.1,15.4-257,16.6l-327,4.6-.9.3c-1.2-3.8-2.4-7.5-3.7-11.2l81.3-1.1,24-.4,29.1-.4,24.6-.3,174.2-2.4,19.5-.2c31.5-.5,63-1.1,94.5-2.4C823.4,470.4,872.9,466.5,921.9,458.5Z"/><path class="cls-8" d="M891.1,330.9H891l-1.9-1,24.3-21.2c2-1.7,5-3.5,7-1.7h-.3c-3.2.2-5.8,2.5-8.2,4.7Z"/><path class="cls-9" d="M915.2,469.4h.1c-11.5,17.1-23.3,34-36,50.1-10.2,13-20.9,25.6-33.3,36.5a64.4,64.4,0,0,1-13.8,9.9,41.5,41.5,0,0,1-12.9,3.7v.2q-46,.9-92.3,1.2l-16.4.2c-84.5.6-169.4.3-253.9-.8l-15.2-.3q-42.7-.6-85.2-1.5l-1.5.4q-11.6-39.3-24.5-78.1l.9-.3,327-4.6C744.1,484.8,830.4,483.6,915.2,469.4Z"/><path class="cls-8" d="M891,331h0c-4.4,4.3-24.6,23.2-26.9,25.3l-7.6,7.1c-8.3,7.7-16.7,15.4-25.2,23l-5.6,5-16.1,14.3-15.2,13.2h0c-.1-1.6-1.2-3.3-2.8-3.3v-.3l9.4-8.2,24.5-21.5L889.1,330Z"/><path class="cls-3" d="M889.1,330l-63.6,55.6-.3-.3c-5.4-.7-12.3-2-17.3-4.2s-7.1-3.4-10.7-5.2c-9.4-4.6-19.4-7.9-29.4-11.2L747,357.8v-.3a14.6,14.6,0,0,0,9.8-2c1.6-1,3.1-2.7,2.7-4.4a3.7,3.7,0,0,0-3.6-2.5,11.6,11.6,0,0,0-4.5,1.2l-5.6,2.2-.3-.9a21.1,21.1,0,0,1-4.8-6.3c-1.2-2.3-2.3-5.1-4.7-6a7.4,7.4,0,0,0-3.9-.1c-6.7,1.1-12.7,4.4-18.7,7.6l-.4.3-.3-.2c-2.5-1.1-5.1-2-7.8-2.9v-.2a343,343,0,0,1,101.7-40c6.3-1.3,12.6-2.5,19-2,9.1.8,17.6,5,25.8,9.3Z"/><path class="cls-2" d="M723.6,387.4h0a16.7,16.7,0,0,0,.5-5l8.6-.6c1.6-.1,3.5-.4,4.5-1.7s.7-2.5,1.5-3.5,2.5-1.3,3.9-1.6,3-1.2,3.1-2.6a3.2,3.2,0,0,0-.2-1.4,18,18,0,0,1,1.1-12.3l.3-.9h.1l20.8,6.9c10,3.3,20,6.6,29.4,11.2,3.6,1.8,7.1,3.7,10.7,5.2s11.9,3.5,17.3,4.2l.3.3L801,407.1l-.8-.9-70.8.4h-1a29.4,29.4,0,0,0-3-11.7l-1.3-2.5c-.7-1.7-1.2-3.4-.6-5A.1.1,0,0,1,723.6,387.4Z"/><path class="cls-5" d="M819.6,598.6c-12.6-.5-25.2.7-37.7,1.9a110.4,110.4,0,0,0-18,2.8c-11.2,2.9-21.2,9.1-31.2,14.9a54.3,54.3,0,0,1-8.4,4.1c-5.7,1.9-11.7,1.7-17.7,1.3,19-3.2,33.8-19.2,52-26.1,11.2-4.2,23.5-4.9,35.4-3.7A174.7,174.7,0,0,1,819.6,598.6Z"/><path class="cls-1" d="M800.2,406.2l.8.9-9.4,8.2v.3h-.2a5.5,5.5,0,0,0-2.6,1.4l-18.5,16.5v.6a33.1,33.1,0,0,0-7.6,2.2,76.2,76.2,0,0,1-33.1,4.1c-1.5-.2-3.2-.5-3.8-1.8a4.1,4.1,0,0,1-.4-1.9c-.1-.6-.1-1.2-.2-1.8.5-6.5,2-12.8,2.7-19.2a54.3,54.3,0,0,0,.4-9h1Z"/><path class="cls-10" d="M794.4,418.9c0,.3-.1.6-.1.9-.5,1.9-2,3.3-3.5,4.6l-13,11.3h-.7c-.1,0-.1-.1-.1-.2a3.1,3.1,0,0,0-1.5-1,8.9,8.9,0,0,0-5.1-.5v-.6L788.8,417a5.5,5.5,0,0,1,2.6-1.4h.2C793.2,415.6,794.3,417.3,794.4,418.9Z"/><path class="cls-11" d="M725.3,434.9c.1.6.1,1.2.2,1.8a4.1,4.1,0,0,0,.4,1.9c.6,1.3,2.3,1.6,3.8,1.8a76.2,76.2,0,0,0,33.1-4.1,33.1,33.1,0,0,1,7.6-2.2,8.9,8.9,0,0,1,5.1.5,3.1,3.1,0,0,1,1.5,1c0,.1,0,.2.1.2a1.2,1.2,0,0,1-.3,1.5l.2.2a4.3,4.3,0,0,0-1.7,3.6c0,1.3.6,2.6.6,4a4.7,4.7,0,0,1-3.5,4.4c-2.6.6-5.1-1.1-7.8-1.3l-2.2.2-1.4.3-12.2,2.8-20.3,4.7-3.8.8-4.1.7a46.8,46.8,0,0,1-5.3,0l-1-.2H714c-.4-.2-.6-.6-.9-1-3.9-6.2-5.6-13.5-7.1-20.6-1-4.2-1.9-8.3-2.8-12.4h0c7.1,0,14.2-.2,21-1.8l.2.8Z"/><path class="cls-12" d="M773.7,471.2v1.3c-31.5,1.3-63,1.9-94.5,2.4v-1a10.7,10.7,0,0,1-1.9-6,33.5,33.5,0,0,1,.5-6.3v-.2a181.2,181.2,0,0,0,36-3.1l.4-.8,1,.2a46.8,46.8,0,0,0,5.3,0l4.1-.7v.5c2.6,2.8,6.8,3.3,10.6,3.9l3.2.6,5.9,1.5,1.4.4Z"/><path class="cls-10" d="M762.4,448.4v.6c-2.2,2.4-4.6,4.7-7,7a4.4,4.4,0,0,1-1.8,1.2,3.8,3.8,0,0,1-1.5-.1,8.8,8.8,0,0,1-2.4-1.9,4.2,4.2,0,0,1-1.1-1.5c0-.1-.1-.2-.1-.3a2,2,0,0,1,.3-1.5v-.4l12.2-2.8Z"/><path class="cls-13" d="M746.9,357.8l-.3.9-.9-.3a99.7,99.7,0,0,0-18.9,1.5l-.5-2.7a111.1,111.1,0,0,0,19.6-5.2l5.6-2.2a11.6,11.6,0,0,1,4.5-1.2,3.7,3.7,0,0,1,3.6,2.5c.4,1.7-1.1,3.4-2.7,4.4a14.6,14.6,0,0,1-9.8,2v.3Z"/><path class="cls-10" d="M752.2,457.1l-.2.8c-1.9,1.8-3.9,3.6-6,5.3v.7l-1.4-.4-5.9-1.5.2-.5c3-2.8,6.2-5.4,9.4-8h.4c0,.1.1.2.1.3a4.2,4.2,0,0,0,1.1,1.5A8.8,8.8,0,0,0,752.2,457.1Z"/><path class="cls-1" d="M748.8,451.5v.4a2,2,0,0,0-.3,1.5h-.4c-3.2,2.6-6.4,5.2-9.4,8l-.2.5-3.2-.6c-3.8-.6-8-1.1-10.6-3.9V457l3.8-.8Z"/><path class="cls-11" d="M745.7,358.4l.9.3a18,18,0,0,0-1.1,12.3,3.2,3.2,0,0,1,.2,1.4c-.1,1.4-1.7,2.2-3.1,2.6s-3,.5-3.9,1.6-.8,2.5-1.5,3.5-2.9,1.6-4.5,1.7l-8.6.6a15.5,15.5,0,0,0-6-11.2,8.3,8.3,0,0,0-5.1-1.9v-.2c-.4-2-.6-4.3.9-5.7a5.7,5.7,0,0,1,2.5-1.1,92.2,92.2,0,0,1,10.4-2.4A99.7,99.7,0,0,1,745.7,358.4Z"/><path class="cls-13" d="M745.6,351.1l.3.9a111.1,111.1,0,0,1-19.6,5.2q-6.3,1.1-12.9,1.5v-1.1a11.9,11.9,0,0,0-.2-9.6c-.2-.4-.4-.9-.2-1.2s.1-.1.1-.2l.4-.3c6-3.2,12-6.5,18.7-7.6a7.4,7.4,0,0,1,3.9.1c2.4.9,3.5,3.7,4.7,6A21.1,21.1,0,0,0,745.6,351.1Z"/><path class="cls-14" d="M724.5,421.5l-.2-.7c-.8-8.4-1.5-16.8-2.2-25.3a9.4,9.4,0,0,0-.6-2.8l2.6-.2,1.3,2.5a29.4,29.4,0,0,1,3,11.7,54.3,54.3,0,0,1-.4,9c-.7,6.4-2.2,12.7-2.7,19.2l-.9-12.6-.2-.8Z"/><path class="cls-5" d="M727,571v1.2c-14.7,4.6-27.4,15.2-42.5,18a76.1,76.1,0,0,1-16.5.8c-25.2-.8-50.2-5-75.1-9.1l.3-1.7c20.4,1.4,40.9,2.8,61.3,3.9a138.4,138.4,0,0,0,14.4.3,82.3,82.3,0,0,0,41.7-13.1h0Z"/><path class="cls-13" d="M711.6,369.1a23.7,23.7,0,0,1-5-2c-1.8-1-3.7-2.7-3.4-4.8a4,4,0,0,1,2.7-2.9,11.3,11.3,0,0,1,4.1-.5l3.4-.2q6.6-.4,12.9-1.5l.5,2.7a92.2,92.2,0,0,0-10.4,2.4,5.7,5.7,0,0,0-2.5,1.1c-1.5,1.4-1.3,3.7-.9,5.7h-1.4Z"/><path class="cls-15" d="M724.5,421.5h-.3c-6.8,1.6-13.9,1.8-21,1.8h-2.8l-.4-.2c-.4-8.1-.9-16.1-1.3-24.2a15.5,15.5,0,0,1,.2-4.8c.9-3.6,4.4-6.1,8.1-6.7s7.5.5,10.8,2.2a7.1,7.1,0,0,1,3.7,3.1,9.4,9.4,0,0,1,.6,2.8c.7,8.5,1.4,16.9,2.2,25.3Z"/><path class="cls-14" d="M724.1,392.5l-2.6.2a7.1,7.1,0,0,0-3.7-3.1c-3.3-1.7-7.1-2.8-10.8-2.2s-7.2,3.1-8.1,6.7a15.5,15.5,0,0,0-.2,4.8c.4,8.1.9,16.1,1.3,24.2l.4.2h2.8c.9,4.1,1.8,8.2,2.8,12.4,1.5,7.1,3.2,14.4,7.1,20.6.3.4.5.8.9,1h.3l-.4.8a181.2,181.2,0,0,1-36,3.1h-.2a6.7,6.7,0,0,0-1.9-7.4,4.1,4.1,0,0,1-1.2-1.1,3.6,3.6,0,0,1-.3-2.7,214.1,214.1,0,0,1,10.2-43.4c.8-2.3,1.6-4.6,2.5-6.9a55.5,55.5,0,0,1,5.8-11.7c4.6-6.4,11.3-10.8,18-15l.2-.2.8.8c4.6,3.8,8.1,8.8,11.5,13.6h.2C722.9,389.1,723.4,390.8,724.1,392.5Z"/><path class="cls-16" d="M713,369.3a8.3,8.3,0,0,1,5.1,1.9,15.5,15.5,0,0,1,6,11.2,16.7,16.7,0,0,1-.5,5h0a.1.1,0,0,0-.1.1h-.2c-3.4-4.8-6.9-9.8-11.5-13.6l-.8-.8-.2-.3c-.1-.2-.1-.5-.2-.8a6.2,6.2,0,0,1,.2-1.9,1.4,1.4,0,0,1,.8-.9H713Z"/><path class="cls-2" d="M713.2,348a11.9,11.9,0,0,1,.2,9.6v1.1l-3.4.2a11.3,11.3,0,0,0-4.1.5,4,4,0,0,0-2.7,2.9c-.3,2.1,1.6,3.8,3.4,4.8a23.7,23.7,0,0,0,5,2,1.4,1.4,0,0,0-.8.9,6.2,6.2,0,0,0-.2,1.9c.1.3.1.6.2.8l.2.3-.2.2c-6.7,4.2-13.4,8.6-18,15a55.5,55.5,0,0,0-5.8,11.7c-.9,2.3-1.7,4.6-2.5,6.9l-1.1-.4q-96.4,1.2-193,1h-.5q.3-12.6-.3-25.2h.7c20.1-8.2,41.1-14.1,62-20l48.6-13.8,6.9-1.9c12.7-3.6,25.4-7.2,38.4-8.8l4.2-.5a133,133,0,0,1,54.6,6.3c2.7.9,5.3,1.8,7.8,2.9l.3.2c0,.1-.1.1-.1.2S713,347.6,713.2,348Z"/><path class="cls-1" d="M683.4,406.4l1.1.4a214.1,214.1,0,0,0-10.2,43.4,3.6,3.6,0,0,0,.3,2.7,4.1,4.1,0,0,0,1.2,1.1,6.7,6.7,0,0,1,1.9,7.4h.2v.2a33.5,33.5,0,0,0-.5,6.3,10.7,10.7,0,0,0,1.9,6v1l-19.5.2-174.2,2.4v-.2c-.5-10.9,1-21.7,2.1-32.5,1.3-12.4,2-24.9,2.2-37.4h.5Q586.9,407.6,683.4,406.4Z"/><path class="cls-17" d="M650.4,336.9v.3l-4.2.5c-13,1.6-25.7,5.2-38.4,8.8l-6.9,1.9-.2-.8c-10.3-7.8-20.7-15.5-31.6-22.5l.3-.4a47,47,0,0,1,40.3-19.3c13.9.7,27.5,8.2,35,20A82,82,0,0,1,650.4,336.9Z"/><path class="cls-3" d="M508.5,333.9a272.6,272.6,0,0,1-1.3-32.6v-.4l4.1-.6.5-.2-.6-1.4.8-.3c20.5,5.4,39.4,15.2,57.2,26.7,10.9,7,21.3,14.7,31.6,22.5l.2.8-48.6,13.8c-20.9,5.9-41.9,11.8-62,20h-.7c-.2-5.1-.5-10.1-.8-15.2l.2-.4a51.6,51.6,0,0,0,.5-17.1h0c5.4-3.5,10.6-7.3,15.8-11.1,1.5-1.1,3.2-2.5,3.1-4.4Z"/><path class="cls-5" d="M581.2,617c-23.8.4-47.1-8.8-70.9-8.3-26.7.6-52,13.2-78.6,14.8,4.4-.7,8.6-2.5,12.6-4.2,20.2-8.7,41.3-16.8,63.3-17.2,12.5-.2,25,2.1,37.3,4.5S569.9,611.3,581.2,617Z"/><path class="cls-18" d="M470.5,258.9l18,4.3a9.6,9.6,0,0,1,7.8,5.4,190.9,190.9,0,0,1,14.8,30.1l.6,1.4-.5.2-4.1.6c-5.9,1.2-12,3.2-17.9,4.2v.2c0,.9.1,1.9.2,3h-.2c-2,7-3.8,16.6-1.9,23.2l.5.3s.5-.5-.2.3l-3.5,3.9a60.7,60.7,0,0,1-25,15.4l-.2-.2a5.9,5.9,0,0,0-1.8,1.3l-.2-.3c-2.1-6.7-4.1-13.5-6.1-20.3a7,7,0,0,0,2.5-1.7c.7-.3,1-1.5,1-2.4a10.8,10.8,0,0,0-1.4-5.3,18.6,18.6,0,0,1-2.5-4.3c-.3-1.3-.2-2.7-1-3.7s-3-1.2-4.6-1.1h0v-.6c-6.3-16.7-12.7-33.3-18.6-50.2h.2l.2.3h.6a57.1,57.1,0,0,0,14.4-5.5h-.1l.6-.4a2.7,2.7,0,0,1,2.1.4,9.8,9.8,0,0,1,1.7,2.3,24.6,24.6,0,0,0,6.9,7.8,3.3,3.3,0,0,0,2.4.9,3.3,3.3,0,0,0,1.6-1.2l4.7-5.2a15.3,15.3,0,0,1,4.1-3.5,5.9,5.9,0,0,1,2.2-.5A3.9,3.9,0,0,1,470.5,258.9Z"/><path class="cls-11" d="M451.2,354.4h0c2.1,0,2.7.6,4.4-.6l1.5-1.2a5.9,5.9,0,0,1,1.8-1.3l.2.2a60.7,60.7,0,0,0,25-15.4l3.5-3.9c.7-.8.2-.3.2-.3l.4-.5c.5-1.4,3-2,4-3.6a3.8,3.8,0,0,0,.2-2.6c-.6-3.8-2.4-11.4-3-16.8-.1-1.1-.2-2.1-.2-3v-.2c5.9-1,12-3,17.9-4.2v.4a272.6,272.6,0,0,0,1.3,32.6h-.1c.1,1.9-1.6,3.3-3.1,4.4-5.2,3.8-10.4,7.6-15.8,11.1a141,141,0,0,1-22.1,12.3v.2a11.5,11.5,0,0,1-6.2,6.4,11.3,11.3,0,0,1-5.7.9l-1.9-.5-1-.5c-2.3-1.5-2.9-4.6-4.8-6.6s-1.4-1.3-1.8-2.2a5.6,5.6,0,0,1,.1-3.6,5.9,5.9,0,0,1,.7-2,2.2,2.2,0,0,1,1.6-.9l.7-.2.6.4C450.2,353.5,450.6,354.2,451.2,354.4Z"/><path class="cls-3" d="M492.4,325.1a3.8,3.8,0,0,1-.2,2.6c-1,1.6-3.5,2.2-4,3.6l-.4.5-.5-.3c-1.9-6.6-.1-16.2,1.9-23.2h.2C490,313.7,491.8,321.3,492.4,325.1Z"/><path class="cls-19" d="M489.6,382.2q.6,12.6.3,25.2c-.2,12.5-.9,25-2.2,37.4-1.1,10.8-2.6,21.6-2.1,32.5v.2l-24.6.3v-1.9a56.3,56.3,0,0,1-1.3-14.7c.2-4.4,1-8.7.9-13.1-.2-7-2.6-13.7-5-20.3l-4.5-12.3a1.7,1.7,0,0,0-.6-1c-.8-.4-1.7.6-2.1,1.5a238.3,238.3,0,0,0-16.5,60.4v1.8l-24,.4V477c-.6-4.9.2-9.7.7-14.6.8-7.6.6-15.2.7-22.9,0-10.5.4-21,1.2-31.4s2.1-22.6,3.8-33.8c.5-3.4,1-6.9,1.6-10.3v-.4a.8.8,0,0,1-.2-.4l6.6,2.1c9.3,2.9,19,4.3,28.7,5.8h.2l2,.3.6-.2a40.1,40.1,0,0,0,3.6,7.9,4.1,4.1,0,0,0,.7,1.1,3.7,3.7,0,0,0,1.8.5,5,5,0,0,0,3.2-.4,3.2,3.2,0,0,0,1.3-2.7,10.9,10.9,0,0,0-.7-3l-1.2-3.2h0a179.5,179.5,0,0,0,25.5-4.9l.7.5C489.1,372.1,489.4,377.1,489.6,382.2Z"/><path class="cls-18" d="M489.5,349.5a51.6,51.6,0,0,1-.5,17.1l-.2.4-.7-.5a179.5,179.5,0,0,1-25.5,4.9h0c-.5-1-.9-1.9-1.3-2.9v-.2a11.5,11.5,0,0,0,6.2-6.4v-.2a141,141,0,0,0,22.1-12.3Z"/><path class="cls-11" d="M469,241.4v.3h-.3l-7.3,6.2a13.6,13.6,0,0,1-3.2,2.1,12,12,0,0,1-3.8.3c-3.1-.2-6.5-.4-8.9-2.5l-.8-.8a14.9,14.9,0,0,1-2-2.9,68.4,68.4,0,0,1-5.7-11.5,2.3,2.3,0,0,1,0-2,1,1,0,0,1,.9-.6.8.8,0,0,1,.7.4h.4a1.2,1.2,0,0,0,1.1.5,1.3,1.3,0,0,0,.9-1.5,5.6,5.6,0,0,0-.4-1.2,8.2,8.2,0,0,1-.7-3,20.8,20.8,0,0,1,0-2.5c0-1.1.1-2.3,1-2.9s1.3-.4,1.8-.8a6,6,0,0,0,1.4-2.1,3.2,3.2,0,0,1,2.7-1.9,2,2,0,0,1,2,2.3c1,.7,2.3-.4,2.9-1.4s1.5-2.3,2.7-2.3,1.5,1,2.2,1.7,1.8,1.1,2.4.5.3-.5.6-.6.8.1,1,.5a4.2,4.2,0,0,1,.3,1.2,3,3,0,0,0,2.3,2.2,1,1,0,0,0,.2-1.4,1.8,1.8,0,0,1,2.3-.4,1.6,1.6,0,0,1,.8.6,6.3,6.3,0,0,1,1.2,3.3l1.2,10.5h.8c1.3.3,2.3-1.5,3.6-1.5h.3c1.1.1,1.5,1.5,1.4,2.6a10.6,10.6,0,0,1-1.2,3.4,16.1,16.1,0,0,1-1.9,3.1A5.4,5.4,0,0,1,469,241.4Z"/><path class="cls-20" d="M473.3,229.1c0,.3.1.5.1.7v.6c-1.3,0-2.3,1.8-3.6,1.5H469l-1.2-10.5a6.3,6.3,0,0,0-1.2-3.3,1.6,1.6,0,0,0-.8-.6l.3-.8.6.2a16.6,16.6,0,0,1,2.1.6,4.9,4.9,0,0,1,1.5,1,11.3,11.3,0,0,1,1.6,2.6,24.3,24.3,0,0,1,1.7,6,13.6,13.6,0,0,1,.2,2Z"/><path class="cls-21" d="M468.3,208.6c4,5.1,5.5,11.9,5.4,18.5h-.1a24.3,24.3,0,0,0-1.7-6,11.3,11.3,0,0,0-1.6-2.6l.3-.2c-.7-2.6-3.1-4.4-5.4-5.9l-6.9-4.7a34.8,34.8,0,0,0-3.6-2.2,17.2,17.2,0,0,0-5-1.6v.4l-1.8-.4a13.7,13.7,0,0,0-3.5.1h-.2v-.4a30.5,30.5,0,0,1,7-2.4C457.5,200.1,464.2,203.4,468.3,208.6Z"/><path class="cls-22" d="M470.6,218.3l-.3.2a4.9,4.9,0,0,0-1.5-1,16.6,16.6,0,0,0-2.1-.6l-.6-.2a9.5,9.5,0,0,1-2.7-1.7c-2-1.6-3.7-3.5-5.5-5.2l-1.6-1.5a17.6,17.6,0,0,0-6.7-4v-.4a17.2,17.2,0,0,1,5,1.6,34.8,34.8,0,0,1,3.6,2.2l6.9,4.7C467.5,213.9,469.9,215.7,470.6,218.3Z"/><path class="cls-23" d="M469.1,241.8v15.6l-1.4.4a5.9,5.9,0,0,0-2.2.5,15.3,15.3,0,0,0-4.1,3.5l-4.7,5.2a3.3,3.3,0,0,1-1.6,1.2,3.3,3.3,0,0,1-2.4-.9,24.6,24.6,0,0,1-6.9-7.8,9.8,9.8,0,0,0-1.7-2.3,2.7,2.7,0,0,0-2.1-.4l-.3-.7a12.7,12.7,0,0,0,2.8-8.4l.3-.6.8.8c2.4,2.1,5.8,2.3,8.9,2.5a12,12,0,0,0,3.8-.3,13.6,13.6,0,0,0,3.2-2.1l7.3-6.2Z"/><path class="cls-24" d="M466.1,216.7l-.3.8a1.8,1.8,0,0,0-2.3.4,1,1,0,0,1-.2,1.4,3,3,0,0,1-2.3-2.2,4.2,4.2,0,0,0-.3-1.2c-.2-.4-.7-.7-1-.5s-.4.4-.6.6-1.8.1-2.4-.5-1.3-1.6-2.2-1.7-2,1.3-2.7,2.3-1.9,2.1-2.9,1.4a2,2,0,0,0-2-2.3,3.2,3.2,0,0,0-2.7,1.9,6,6,0,0,1-1.4,2.1c-.5.4-1.3.4-1.8.8s-1,1.8-1,2.9a20.8,20.8,0,0,0,0,2.5h-2.1a35.5,35.5,0,0,0-.6-4.7v-.3l.2-.2c.4-2.9,2.3-5.4,4.2-7.7a8.6,8.6,0,0,1,1.9-1.9,7.5,7.5,0,0,1,2.5-.9c3.8-.8,7.8-.4,11.7.1h.2c1.8,1.7,3.5,3.6,5.5,5.2A9.5,9.5,0,0,0,466.1,216.7Z"/><path class="cls-8" d="M463.8,374.6a10.9,10.9,0,0,1,.7,3,3.2,3.2,0,0,1-1.3,2.7,5,5,0,0,1-3.2.4,3.7,3.7,0,0,1-1.8-.5,4.1,4.1,0,0,1-.7-1.1,40.1,40.1,0,0,1-3.6-7.9,14.6,14.6,0,0,1-.5-2l.2-.5,1.9.5a11.3,11.3,0,0,0,5.7-.9v.2c.4,1,.8,1.9,1.3,2.9Z"/><path class="cls-1" d="M461,475.9v1.9l-29.1.4v-1.8A238.3,238.3,0,0,1,448.4,416c.4-.9,1.3-1.9,2.1-1.5a1.7,1.7,0,0,1,.6,1l4.5,12.3c2.4,6.6,4.8,13.3,5,20.3.1,4.4-.7,8.7-.9,13.1A56.3,56.3,0,0,0,461,475.9Z"/><path class="cls-21" d="M457.9,209.8h-.2c-3.9-.5-7.9-.9-11.7-.1a7.5,7.5,0,0,0-2.5.9,8.6,8.6,0,0,0-1.9,1.9c-1.9,2.3-3.8,4.8-4.2,7.7l-.2.2c-2.2-1.1-2.5-4-2.5-6.5a11,11,0,0,1,1-4.7,10.8,10.8,0,0,1,8.4-5.3h.2a13.7,13.7,0,0,1,3.5-.1l1.8.4a17.6,17.6,0,0,1,6.7,4Z"/><path class="cls-8" d="M450.1,353l-5.7-18.3,5.2-2.2,1.2-.6c2,6.8,4,13.6,6.1,20.3l.2.3-1.5,1.2c-1.7,1.2-2.3.6-4.4.6h0c-.6-.2-1-.9-1.5-1.3Z"/><path class="cls-5" d="M456.7,570.4h0A461.5,461.5,0,0,1,412.2,590a53.1,53.1,0,0,1-9.6,2.9c-5,.8-10.2.3-15.2-.3-19.8-2.1-39.5-4.3-59-7.8-14.1-2.6-28.4-5.8-42.6-4.9,8.5-.8,16.8-3.3,25.3-3.2,5.1,0,10.2,1,15.2,1.9,13,2.4,26,4.3,39,5.8,4.7.6,9.5,1,14.2,1.2a116,116,0,0,0,62-15.1v-.4Z"/><path class="cls-25" d="M453.3,330.2a7,7,0,0,1-2.5,1.7l-1.2.6-5.2,2.2H444c-1.6.6-3.3,1.2-4.9.7a3.1,3.1,0,0,1-1.3-.6,11.3,11.3,0,0,1-3-3.8c-1.5-2.6-3.1-5.3-3.5-8.3l-.3-.2v-.7c.3-3.1,2.9-5.7,5.3-7.9a2.5,2.5,0,0,1,1.2-.8h1.7a34.6,34.6,0,0,0,5.6.2h0c1.6-.1,3.6-.2,4.6,1.1s.7,2.4,1,3.7a18.6,18.6,0,0,0,2.5,4.3,10.8,10.8,0,0,1,1.4,5.3C454.3,328.7,454,329.9,453.3,330.2Z"/><path class="cls-18" d="M453.9,371.2l-.6.2-2-.3h-.2c-9.7-1.5-19.4-2.9-28.7-5.8l-6.6-2.1a3.4,3.4,0,0,1,.2-2.6,37.7,37.7,0,0,0,1.4-19.1l-.2-1.4a167.4,167.4,0,0,0,20.6-5.1h0a3.1,3.1,0,0,0,1.3.6c1.6.5,3.3-.1,4.9-.7h.4l5.7,18.3h-.4l-.6-.4-.7.2a2.2,2.2,0,0,0-1.6.9,5.9,5.9,0,0,0-.7,2,5.6,5.6,0,0,0-.1,3.6c.4.9,1.2,1.4,1.8,2.2s2.5,5.1,4.8,6.6l1,.5-.2.5A14.6,14.6,0,0,0,453.9,371.2Z"/><path class="cls-8" d="M444.7,312.8v.6a34.6,34.6,0,0,1-5.6-.2h-1v-.7c-6.8-15.2-9.7-31.9-17.1-46.8h.2a51.7,51.7,0,0,0-3.3-11c-8.3-21.6-17.4-42.7-26.6-63.9l-.4-.4c-2-5.3-4.9-10.2-7.3-15.4-3.5-7.7-7.5-15.2-11.4-22.6-6.5-12.4-12.9-24.8-19.8-36.9-3.2-5.7-7-11.1-10.5-16.6s-7-10.7-10.9-15.9-6.5-8.4-9.9-12.4v-.2a11,11,0,0,1-1.4-2.1h0c-.2-.5-.2-1,.2-1.2s.3,0,.5,0a4.1,4.1,0,0,1,2.3,1.8c5.4,6.5,10.6,13,15.7,19.6a110.3,110.3,0,0,1,6.7,9c1.7,2.6,2.9,4.8,4.6,7.5,3.7,5.7,7.5,11.3,10.8,17.2,6.7,11.9,13.2,24,19.3,36.2s11.9,24.6,17.4,37c7.4,16.7,14.8,33.4,21.9,50.3,2.4,5.6,4.8,11.3,7.1,17h-.2C432,279.5,438.4,296.1,444.7,312.8Z"/><path class="cls-24" d="M439.1,230.6h-.4a.8.8,0,0,0-.7-.4v-.7a25.4,25.4,0,0,0-.1-3.9H440a8.2,8.2,0,0,0,.7,3,5.6,5.6,0,0,1,.4,1.2,1.3,1.3,0,0,1-.9,1.5A1.2,1.2,0,0,1,439.1,230.6Z"/><path class="cls-18" d="M420.1,310.5h-.4a4.1,4.1,0,0,0,.7-3v-1a40.8,40.8,0,0,1-14.5-3.7,34,34,0,0,1-6.3-3.8,2.8,2.8,0,0,1-1.6-2.2,3.7,3.7,0,0,1,.4-1.4c4.4-8.8,10.5-16.8,15-25.6.7-1.4,1.4-2.8,2.2-4.2a10.4,10.4,0,0,0,4.3-.9l.5-.3.6,1.3c7.4,14.9,10.3,31.6,17.1,46.8v.7h-.7a2.5,2.5,0,0,0-1.2.8c-2.4,2.2-5,4.8-5.3,7.9h-.6l-5.5,1.6a13.7,13.7,0,0,1-3.5.8,16.1,16.1,0,0,1-3.8,0v-.5A33.4,33.4,0,0,1,420.1,310.5Z"/><path class="cls-11" d="M407.5,324.1v.2a25.7,25.7,0,0,1,6.8-.4l3.2.4a16.1,16.1,0,0,0,3.8,0,13.7,13.7,0,0,0,3.5-.8l5.5-1.6h.6v.7l.3.2c.4,3,2,5.7,3.5,8.3a11.3,11.3,0,0,0,3,3.8h0a167.4,167.4,0,0,1-20.6,5.1l-3.4.6a19.5,19.5,0,0,1-7.6.2,8,8,0,0,1-5.8-4.3,7.3,7.3,0,0,1-.3-4.4,29.6,29.6,0,0,1,1.1-4.5,44.5,44.5,0,0,0,1.5-16.2v-.3a45.9,45.9,0,0,0,2.9-8.1l.2-.4a40.8,40.8,0,0,0,14.5,3.7v1a4.1,4.1,0,0,1-.7,3,28.2,28.2,0,0,0-1.8,2.9C415.6,318.4,411.3,321.8,407.5,324.1Z"/><path class="cls-4" d="M420.4,264.3l-.5.3a10.4,10.4,0,0,1-4.3.9c-.8,1.4-1.5,2.8-2.2,4.2-4.5,8.8-10.6,16.8-15,25.6a3.7,3.7,0,0,0-.4,1.4,2.8,2.8,0,0,0,1.6,2.2,34,34,0,0,0,6.3,3.8l-.2.4a45.9,45.9,0,0,1-2.9,8.1v.3a44.5,44.5,0,0,1-1.5,16.2,29.6,29.6,0,0,0-1.1,4.5l-1.3-.3c-12,8.3-28.2,7.1-42.3,3.2-26.7-7.5-50.2-23.1-74.6-36.2-4.2-2.2-8.5-4.4-12.9-6.4,2.1-7.5,4.3-15,6.8-22.3,5.5-16.4,11.9-32.5,15.5-49.4,5.1-24.7,3.9-50.2,7.2-75.1a310.9,310.9,0,0,1,20.7-77.4l.6-.2h0a11,11,0,0,0,1.4,2.1v.2c3.4,4,6.7,8.1,9.9,12.4s7.4,10.5,10.9,15.9,7.3,10.9,10.5,16.6c6.9,12.1,13.3,24.5,19.8,36.9,3.9,7.4,7.9,14.9,11.4,22.6,2.4,5.2,5.3,10.1,7.3,15.4l.4.4c9.2,21.2,18.3,42.3,26.6,63.9a51.7,51.7,0,0,1,3.3,11H421Z"/><path class="cls-26" d="M419.7,310.4h.4a33.4,33.4,0,0,0-2.4,13.3v.5l-3.2-.4a25.7,25.7,0,0,0-6.8.4v-.2c3.8-2.3,8.1-5.7,10.4-10.8A28.2,28.2,0,0,1,419.7,310.4Z"/><path class="cls-3" d="M415.8,363.2a.8.8,0,0,0,.2.4v.4c-.6,3.4-1.1,6.9-1.6,10.3l-1.7-.2-88.3-21.5c-14.8-3.7-29.8-7.3-45-8.6a171.5,171.5,0,0,0-20.3-.5,353.6,353.6,0,0,1,10-51c4.4,2,8.7,4.2,12.9,6.4,24.4,13.1,47.9,28.7,74.6,36.2,14.1,3.9,30.3,5.1,42.3-3.2l1.3.3a7.3,7.3,0,0,0,.3,4.4,8,8,0,0,0,5.8,4.3,19.5,19.5,0,0,0,7.6-.2l3.4-.6.2,1.4a37.7,37.7,0,0,1-1.4,19.1A3.4,3.4,0,0,0,415.8,363.2Z"/><path class="cls-2" d="M412.6,374.1l1.7.2c-1.7,11.2-3,22.5-3.8,33.8H258.8a272.9,272.9,0,0,1,.2-64.5,171.5,171.5,0,0,1,20.3.5c15.2,1.3,30.2,4.9,45,8.6Z"/><path class="cls-3" d="M269,292.5a353.6,353.6,0,0,0-10,51c-24.9.8-49.6,6.6-74,12.5-8.1,1.9-16.4,3.9-24.7,2.8s-17.1-6.2-26.1-8c-18.4-3.7-36.4,6.4-55,9-29.5,4.2-50.8-7.7-79-17.5H0V290.5c28.2,3.3,52.3,23.5,80.5,26.8,14.4,1.7,28.9-1.2,43.1-4.4,25.7-5.8,51.2-12.8,76.3-20.8,11.7-3.8,23.7-7.8,36-7.9S258.5,287.7,269,292.5Z"/><path class="cls-2" d="M259,343.5a272.9,272.9,0,0,0-.2,64.5L.2,407.8H0V342.3H.2c28.2,9.8,49.5,21.7,79,17.5,18.6-2.6,36.6-12.7,55-9,9,1.8,17.1,6.7,26.1,8s16.6-.9,24.7-2.8C209.4,350.1,234.1,344.3,259,343.5Z"/><rect class="cls-7" x="360" y="538.5" width="299.5" height="2"/><rect class="cls-7" x="358.5" y="504" width="412.1" height="2"/><path d="M988.1,540c-28.4-21.7-46.6-43.5-55.6-66.8-3.7-9.8-6-20.1-8.2-30.1l-2.9-12.7-3-13.7a64.6,64.6,0,0,1-1.8-10.7c-.1-1.1-.1-2-.1-3,.1-5.7,1.9-11.4,3.4-16.3s4.4-13.8,7.1-21.2l.5-1.3a83.3,83.3,0,0,0,3.9-12.9c0-.2.1-.4.1-.6,2.5-15.1-4.6-29.9-11.8-42.4l.9-.5c7.3,12.6,14.4,27.7,11.9,43.1,0,.2-.1.4-.1.6a84.5,84.5,0,0,1-3.9,13l-.5,1.3c-2.7,7.4-5.1,14.9-7.1,21.2s-3.3,10.4-3.4,16.1c0,.8,0,1.8.1,2.9a64.1,64.1,0,0,0,1.8,10.5l3,13.7,2.8,12.7c2.2,9.9,4.5,20.2,8.3,29.9,8.9,23.1,27,44.8,55.2,66.4Z"/><path class="cls-27" d="M723.9,382.7v-.5h.2l8.5-.6c1.7-.2,3.5-.4,4.4-1.7a5.9,5.9,0,0,0,.7-1.6,5.8,5.8,0,0,1,.8-1.8,5,5,0,0,1,3.5-1.6l.6-.2c.6-.1,2.8-.8,2.9-2.4a5.2,5.2,0,0,0-.2-1.1V371a18.3,18.3,0,0,1,1.1-12.4l.4.2a18,18,0,0,0-1,12.1h0a6.8,6.8,0,0,1,.2,1.4c-.1,1.9-2.6,2.6-3.3,2.8h-.6c-1.2.3-2.5.6-3.2,1.5a5.3,5.3,0,0,0-.8,1.7,3.6,3.6,0,0,1-.7,1.7c-1,1.5-3,1.7-4.7,1.9l-8.6.6h-.2Z"/><path class="cls-28" d="M678,461.4h-.5a6.6,6.6,0,0,0-1.9-7.1l-.3-.2a4.3,4.3,0,0,1-.9-1,3.8,3.8,0,0,1-.4-2.8,215.2,215.2,0,0,1,10.3-43.5c.8-2.3,1.6-4.6,2.5-6.9a53.2,53.2,0,0,1,5.8-11.7c4.7-6.6,11.8-11.1,18-15.1l.3.4c-6.2,4-13.3,8.5-17.9,15a50.2,50.2,0,0,0-5.7,11.6c-.9,2.3-1.8,4.6-2.5,6.8a217.5,217.5,0,0,0-10.3,43.4,3.8,3.8,0,0,0,.3,2.6l.8.8.4.3A7,7,0,0,1,678,461.4Z"/><path class="cls-27" d="M717.8,457.9h-3.5l-.3-.2a2.1,2.1,0,0,1-1-1.1c-4-6.2-5.6-13.5-7.2-20.6-.8-3.9-1.7-7.8-2.6-11.7v-.7h.2l.2.6c.8,3.9,1.7,7.8,2.6,11.7,1.5,7.1,3.2,14.4,7.1,20.6a2.2,2.2,0,0,0,.9,1h.3l.9.2a31.1,31.1,0,0,0,5.3-.1l4.1-.6,3.8-.8,20.3-4.7,12.5-2.9,1.1-.2a9,9,0,0,1,2.2-.2,13,13,0,0,1,3.3.7,8.8,8.8,0,0,0,4.5.6,4.6,4.6,0,0,0,3.4-4.3,7.1,7.1,0,0,0-.4-2,13.8,13.8,0,0,1-.3-2,4.9,4.9,0,0,1,1.8-3.7l.5-.3v.2l-.5.3a4.6,4.6,0,0,0-1.6,3.5,6.3,6.3,0,0,0,.3,1.9,7.6,7.6,0,0,1,.3,2.1,4.8,4.8,0,0,1-3.6,4.5,8.2,8.2,0,0,1-4.6-.6,16.5,16.5,0,0,0-3.2-.7l-2.2.2-1,.2H761l-12.2,2.8-20.2,4.7-3.8.9-4.1.6Z"/><path class="cls-27" d="M737.3,440.9c-2.6,0-5.1-.2-7.6-.4s-3.2-.5-4-1.9a5.3,5.3,0,0,1-.4-1.9v-.9a2.8,2.8,0,0,1-.1-.9c-.3-4.2-.6-8.4-1-12.6h.3l.9,12.6a2.2,2.2,0,0,1,.1.8c0,.4.1.7.1,1a3.7,3.7,0,0,0,.4,1.8c.6,1.3,2.2,1.6,3.7,1.7a74.1,74.1,0,0,0,33-4l.7-.3a34.9,34.9,0,0,1,7-2,9.5,9.5,0,0,1,5.1.6,2.8,2.8,0,0,1,1.6,1.1.3.3,0,0,1,.1.2,1.5,1.5,0,0,1-.3,1.6v-.2c.4-.3.3-.9.2-1.3s-.1-.1-.1-.2a3.2,3.2,0,0,0-1.4-1,9.5,9.5,0,0,0-5.1-.5,35.5,35.5,0,0,0-6.9,1.9l-.7.3A74.5,74.5,0,0,1,737.3,440.9Z"/><path d="M679.2,474a11.6,11.6,0,0,1-1.9-6.1,31.8,31.8,0,0,1,.4-6.2h.3a33.1,33.1,0,0,0-.5,6.2,12.2,12.2,0,0,0,1.9,6Z"/><path d="M738.8,461.6v-.2c3-2.7,6.1-5.4,9.4-7.9h.2C745,456.2,741.8,458.9,738.8,461.6Z"/><path class="cls-28" d="M725.5,436.6H725a10.9,10.9,0,0,1,.1-1.8,101.9,101.9,0,0,1,1.5-10.9c.4-2.7.9-5.5,1.2-8.3a45.4,45.4,0,0,0,.3-8.9,27.6,27.6,0,0,0-2.9-11.6,5.9,5.9,0,0,1-.4-.8l-.9-1.7c-.7-1.5-1.4-3.4-.6-5.2v-.2h0l.2.2h.2a.1.1,0,0,1-.1.1c-.6,1.6,0,3.4.6,4.8l.9,1.7.4.8a27.1,27.1,0,0,1,3,11.8,46.6,46.6,0,0,1-.3,9c-.3,2.8-.8,5.5-1.3,8.3s-1.2,7.2-1.4,10.9A9.7,9.7,0,0,0,725.5,436.6Z"/><path d="M407.7,477a49.9,49.9,0,0,1,.5-11.6l.3-3a173.1,173.1,0,0,0,.6-19v-3.9c.1-10.4.5-21,1.3-31.4s2-22.6,3.7-33.8c.5-3.3,1.1-6.7,1.7-10.3h.2c-.6,3.7-1.1,7-1.6,10.4-1.7,11.2-3,22.5-3.8,33.7s-1.2,21-1.2,31.4v3.9c0,6.2,0,12.7-.6,19-.1,1-.3,2-.4,3-.4,3.8-.9,7.7-.4,11.6Z"/><path d="M485.5,477.3c-.4-9.1.6-18.3,1.5-27.1l.6-5.4c1.3-12.4,2-25,2.2-37.4.1-8.3,0-16.8-.3-25.2-.2-4.9-.5-10.1-.9-15.2h.3c.4,5.1.7,10.3.9,15.2.3,8.4.4,16.9.2,25.2-.2,12.4-.9,25-2.2,37.4-.1,1.8-.3,3.6-.5,5.4-1,8.9-2,18-1.6,27.1Z"/><path d="M432,476.4h-.3A243.1,243.1,0,0,1,448.3,416a2.8,2.8,0,0,1,1.4-1.6h.9a2.6,2.6,0,0,1,.7,1.1l2.2,6.1c.7,2.1,1.5,4.1,2.2,6.2,2.4,6.5,4.8,13.2,5,20.3a54.2,54.2,0,0,1-.5,8.1c-.1,1.7-.3,3.3-.4,5a55.2,55.2,0,0,0,1.3,14.6h-.2a52.3,52.3,0,0,1-1.3-14.7c.1-1.7.2-3.4.4-5a54.9,54.9,0,0,0,.4-8.1c-.1-7-2.6-13.7-4.9-20.2-.8-2.1-1.5-4.1-2.2-6.2s-1.5-4.1-2.3-6.1a1.7,1.7,0,0,0-.6-1,.6.6,0,0,0-.6,0,2.4,2.4,0,0,0-1.2,1.4A235.5,235.5,0,0,0,432,476.4Z"/><path class="cls-29" d="M415.9,363.7l-.2-.4a4,4,0,0,1,.2-2.8,39.4,39.4,0,0,0,1.4-19h.2a37.5,37.5,0,0,1-1.4,19.1,4,4,0,0,0-.2,2.6c0,.1.1.2.2.3Z"/><path class="cls-29" d="M488,305.4v-.3h1.2c3.2-.6,6.5-1.4,9.7-2.2s5.5-1.5,8.2-2l4.1-.6v.2l-4,.7c-2.8.5-5.6,1.2-8.3,1.9s-6.5,1.7-9.7,2.2Z"/><path class="cls-29" d="M511.6,300.2a6.9,6.9,0,0,1-.5-1.3H511a190.9,190.9,0,0,0-14.8-30.1,13.5,13.5,0,0,0-2.6-3.3,13.9,13.9,0,0,0-5.2-2.1L470.5,259l-1.2-.3v-.2l1.3.3,17.9,4.3a13,13,0,0,1,5.2,2.1,11,11,0,0,1,2.7,3.4,186.7,186.7,0,0,1,14.8,30.1h.1c.2.4.3.9.5,1.3Z"/><rect class="cls-30" x="468.9" y="241.7" width="0.5" height="15.66"/><path class="cls-27" d="M455.9,250.7h-1.4c-3.4-.1-6.7-.4-9-2.5l-.9-.8a25.1,25.1,0,0,1-2-2.9,69.4,69.4,0,0,1-5.7-11.6,3.3,3.3,0,0,1-.1-2.2,1.4,1.4,0,0,1,1.2-.7.9.9,0,0,1,.9.5l-.4.2-.5-.2a.8.8,0,0,0-.7.4,2.3,2.3,0,0,0,.1,1.8,53.6,53.6,0,0,0,5.7,11.5A16,16,0,0,0,445,247l.8.8c2.2,1.9,5.4,2.2,8.8,2.3a9.5,9.5,0,0,0,3.7-.3,9.8,9.8,0,0,0,3-2l7.4-6.2.3.4-7.4,6.2a8.9,8.9,0,0,1-3.2,2.1A7.3,7.3,0,0,1,455.9,250.7Z"/><path class="cls-29" d="M469,241.5v-.2h.1a5.7,5.7,0,0,0,2.9-1.9,13.9,13.9,0,0,0,1.8-3.1A9.5,9.5,0,0,0,475,233c.1-1.1-.3-2.4-1.3-2.5h-.3a3.4,3.4,0,0,0-1.6.8,3,3,0,0,1-2,.8v-.3a2.8,2.8,0,0,0,1.9-.7,4,4,0,0,1,1.7-.9h.3c1.1.2,1.7,1.6,1.5,2.8a9.8,9.8,0,0,1-1.2,3.4,15,15,0,0,1-1.9,3.2,6.5,6.5,0,0,1-3,1.9Z"/><path d="M427.1,262.9v-.3a50.9,50.9,0,0,0,14.4-5.4h.1v.2h-.1A51.1,51.1,0,0,1,427.1,262.9Z"/><path class="cls-29" d="M421.8,306.5h-1.4a39.3,39.3,0,0,1-14.5-3.7,40.9,40.9,0,0,1-6.4-3.7,3.3,3.3,0,0,1-1.6-2.4,2.3,2.3,0,0,1,.4-1.4c2.3-4.6,5.1-9,7.7-13.3s5.1-8.1,7.3-12.4l.7-1.3a24.9,24.9,0,0,1,1.5-2.8c0-.2.1-.3.2-.5l.2.2a.5.5,0,0,0-.2.4l-1.5,2.8-.7,1.3c-2.2,4.3-4.8,8.4-7.3,12.4s-5.4,8.7-7.7,13.3a2.8,2.8,0,0,0-.4,1.3c0,.9.8,1.6,1.5,2.1a34.8,34.8,0,0,0,6.4,3.8,38.2,38.2,0,0,0,14.4,3.6h1.4Z"/><path class="cls-29" d="M417.6,323.8a33.4,33.4,0,0,1,2.4-13.3h.2a34.6,34.6,0,0,0-2.4,13.1Z"/><path d="M438.1,229.5h-.2c0-1.2,0-2.5-.1-3.9a40.3,40.3,0,0,0-.6-4.7h.3a39.3,39.3,0,0,1,.6,4.8C438.1,226.9,438.2,228.2,438.1,229.5Z"/><path d="M473.2,229.8v-.6c-.1-.6-.1-1.1-.2-1.6h.3c0,.5.1,1,.1,1.5v.7Z"/><path class="cls-31" d="M649.4,575.9c-4.2,0-8.5-.2-12.7-.6v-1a140.7,140.7,0,0,0,23.4.1v1C656.7,575.7,653,575.9,649.4,575.9Z"/><path class="cls-29" d="M489.2,366.7h-.4a53.9,53.9,0,0,0,.5-17h.5A52.4,52.4,0,0,1,489.2,366.7Z"/><path class="cls-29" d="M451.1,371.3H451c-9.5-1.4-19.4-2.9-28.7-5.8l-1.9-.6-4.7-1.4h-.6l.2-.5h.6l4.6,1.4,2,.6c9.2,2.9,19.1,4.4,28.5,5.8h.2Z"/><path d="M462.7,371.5v-.2a197.9,197.9,0,0,0,25.5-4.9v.2A187.9,187.9,0,0,1,462.7,371.5Z"/><path d="M453.3,371.5l-1.8-.3h-.2V371h.2l1.8.2Z"/><path d="M451.4,354.6h-.2l-1.1-.8-.5-.5a.6.6,0,0,0-.6-.3v-.3l.7.4.5.5a3.9,3.9,0,0,0,1,.8h.2Z"/><path d="M461.3,380.9H460a3.4,3.4,0,0,1-1.9-.5,4.1,4.1,0,0,1-.7-1.1h0a38.9,38.9,0,0,1-3.6-8,8.4,8.4,0,0,1-.5-2h.2a18,18,0,0,0,.5,1.9,45.1,45.1,0,0,0,3.6,8h0a6.1,6.1,0,0,0,.7,1,4.8,4.8,0,0,0,1.7.5,4.7,4.7,0,0,0,3.1-.4,3.5,3.5,0,0,0,1.3-2.6,8.7,8.7,0,0,0-.7-3,28.8,28.8,0,0,0-1.3-3.1l-1.2-2.9h.2c.5,1,.9,1.9,1.3,2.9l1.2,3.1a9.2,9.2,0,0,1,.7,3.1,3.1,3.1,0,0,1-1.4,2.8A3.4,3.4,0,0,1,461.3,380.9Z"/><path d="M444.6,312.9c-6.2-16.4-12.7-33.4-18.6-50.2h.2c5.9,16.8,12.4,33.8,18.6,50.2h-.2Z"/><path d="M438,312.4c-3.2-7-5.5-14.5-7.8-21.8s-5.3-17-9.3-24.9a8.3,8.3,0,0,0-.7-1.3h.3l.6,1.3c4,7.9,6.7,16.6,9.3,24.9a209.3,209.3,0,0,0,7.8,21.8Z"/><path d="M241.6,564.1l-1-.3c12.1-38.2,25.8-81.4,21.9-124.3-.6-6-1.5-12.2-2.4-18.1-.6-3.9-1.2-7.9-1.7-11.9,0-.5-.1-1-.1-1.5a273.9,273.9,0,0,1,.2-64.6,361.1,361.1,0,0,1,10-51c2.1-7.4,4.3-14.9,6.8-22.4l4.3-12.3c4.2-12,8.5-24.4,11.2-37,3-14.5,3.8-29.5,4.7-44.1.5-10.2,1.1-20.7,2.5-31a310.7,310.7,0,0,1,20.8-77.5l.9.4A307.8,307.8,0,0,0,299,145.8c-1.4,10.2-2,20.7-2.5,30.9-.9,14.6-1.7,29.6-4.8,44.2-2.6,12.6-7,25.1-11.2,37.1-1.4,4-2.9,8.2-4.2,12.3-2.5,7.5-4.8,14.9-6.8,22.3a359.8,359.8,0,0,0-10,50.9,272.2,272.2,0,0,0-.2,64.4c0,.5.1,1,.1,1.5.5,3.9,1.1,8,1.7,11.8.9,6,1.8,12.2,2.4,18.3C267.4,482.5,253.7,525.8,241.6,564.1Z"/></g></g></svg>