<svg xmlns="http://www.w3.org/2000/svg" viewBox="0 0 1134.3 667.4"><defs><style>.cls-1{fill:#30bce2;}.cls-2{fill:#9dc10a;}.cls-3{fill:#269316;}.cls-4{fill:#a4f7f7;}.cls-5{fill:#856141;}.cls-6{fill:#a07138;}.cls-7{fill:#9e704e;}.cls-8{fill:#545556;}.cls-9{fill:#e2a08f;}.cls-10{fill:#e5b5a5;}.cls-11{fill:#1b3f06;}.cls-12{fill:#db8c19;}.cls-13{fill:#e2911b;}.cls-14{fill:#eda52f;}.cls-15{fill:#eab82d;}.cls-16{fill:#e27703;}.cls-17{fill:aqua;}.cls-18{fill:#ea5426;}.cls-19{fill:#f7bfe9;}.cls-20{fill:#0c154c;}.cls-21{fill:#d632b3;}.cls-22{fill:#3d3d3d;}.cls-23{fill:#1f4587;}.cls-24{fill:#4773a8;}.cls-25{fill:#dda292;}.cls-26{fill:#e0ab9d;}.cls-27{fill:#282828;}.cls-28{fill:#e8c9c4;}.cls-29{fill:#d18a79;}</style></defs><title>청산별곡 배경 제거</title><g id="레이어_2" data-name="레이어 2"><g id="레이어_1-2" data-name="레이어 1"><path class="cls-1" d="M1134.3,340.4c.2,10.5-15.4,62.6-17.4,91.6-2.2,32-9.1,46.6-21,64s-55.1,28.3-62,34c-25.8,21.2-40,43-58,47-7.8,1.7-26,5-34,6-9.8,1.2-61,8-78,8-28.2,0-73.1,19.7-97,28-55,19-93.7,1.8-116,17-41,28-43.8,28.9-70,31-64,5-129.5-33-159-41-51-14-131,0-173-4-19.1-1.9-82.3-21.9-96-40s-23.3-38.8-43-47c-50-21-56.3-29.9-71-61-8-17-1-28-4-50C31.3,397.1-2.9,369.4.2,341H258.5c0,.5.1,1,.1,1.5.5,4,1.1,8,1.7,11.9.9,6,1.8,12.1,2.4,18.2,3.9,42.8-9.8,86.1-21.9,124.2l1,.3c12.1-38.2,25.8-81.6,21.9-124.6-.6-6.1-1.5-12.3-2.4-18.2-.6-3.9-1.2-7.9-1.7-11.9,0-.5-.1-.9-.1-1.4H410.6c-.8,10.4-1.2,21-1.3,31.5v3.8c0,6.2,0,12.7-.6,19l-.3,3a50.1,50.1,0,0,0-.5,11.6h.2v.7a.9.9,0,0,1-.9.9l-79.1,1.1h-1.3a5.6,5.6,0,0,1,.4,1.2l3.3,10c1.1,3.3,2.2,6.5,3.2,9.7,2,6.1,4,12.2,5.9,18.4q7.8,24.4,15.2,49.2a2.4,2.4,0,0,0,.2.8l.9-.2h.7c28.3.6,56.6,1.1,85.1,1.5v.3a116.1,116.1,0,0,1-62,15.2c-4.8-.2-9.5-.7-14.2-1.3q-19.5-2.2-39-5.7a97.3,97.3,0,0,0-15.2-2h-5.7l-1.2.2c-2.3.2-4.5.6-6.8,1-3.8.7-7.7,1.4-11.6,1.8a76.2,76.2,0,0,1,11.7,0h1.5l1.7.2,1.6.2H304l7.3,1.1,1.9.3,6.1,1.1,2.3.4,4.1.8,2.9.5c19.5,3.5,39.2,5.7,59,7.8,5,.6,10.2,1.2,15.2.3a46.2,46.2,0,0,0,9.6-2.9c15.1-5.7,30-12.2,44.5-19.4v-.2c84.5,1.1,169.4,1.5,253.9.8h0a83.4,83.4,0,0,1-41.7,13.2c-4.8.1-9.6-.1-14.4-.4L624,515.4l-7.6-.5-22.1-1.5h-.9v.8h0l-.2.9h.9l4.7.8,8.4,1.4,6.8,1,3.2.5,4.1.6,3.6.5c11.3,1.6,22.6,3,34,3.7l9.4.5c5.5.1,11,.2,16.5-.8,15.1-2.9,27.8-13.4,42.5-18.1v-1.1q46.2-.4,92.3-1.2v-.3a39,39,0,0,0,12.9-3.7,61.1,61.1,0,0,0,13.8-9.9c12.3-10.9,23.1-23.5,33.3-36.4,12.7-16.2,24.5-33.1,35.9-50.2,2.4-3.5,4.8-7,7.1-10.6l-.4-.3c-49,8.1-98.5,11.9-148.2,14v-1.3l-.7-.2L746.1,397v-.7c2.1-1.7,4.1-3.5,6-5.3l.2-.8a2.6,2.6,0,0,0,1.5.1,4.4,4.4,0,0,0,1.8-1.2c2.4-2.2,4.7-4.6,7-7v-.4a6,6,0,0,1,2.2-.2,11.4,11.4,0,0,1,3.2.7c1.5.4,3.1.9,4.6.5a4.7,4.7,0,0,0,3.6-4.5,12,12,0,0,0-.3-2,6.9,6.9,0,0,1-.3-2,4.8,4.8,0,0,1,1.6-3.5l.5-.3-.2-.2-.3.2a1.6,1.6,0,0,0,.2-1.5h.6l13-11.3a10.1,10.1,0,0,0,3.5-4.7,2.2,2.2,0,0,0,0-.8h.1l15.2-13.3v.2c35.9.9,71.5.7,106.9.2h0a64.6,64.6,0,0,0,1.8,10.7l3,13.7,2.8,12.6c2.3,10,4.6,20.4,8.3,30.1,9,23.3,27.2,45.2,55.6,66.9l.6-.8c-28.2-21.6-46.3-43.3-55.2-66.5-3.8-9.6-6.1-19.9-8.3-29.9l-2.8-12.7-3-13.7a62.3,62.3,0,0,1-1.8-10.5c50.6-.8,100.9-2.2,151.3-1.6h15.2l9.9.2,6.8.2,11.1.4,10.3.4,5.1.3c2,0,4,.2,6,.3A.8.8,0,0,1,1134.3,340.4ZM958.5,496.3v-.2a332.8,332.8,0,0,1-72.4,8.9,125.5,125.5,0,0,0,14.7,3.5A81.1,81.1,0,0,0,958.5,496.3ZM782.1,533.6c12.5-1.2,25.1-2.3,37.7-1.9a189,189,0,0,0-25.6-4.8c-11.9-1.2-24.2-.5-35.4,3.7-18.2,7-33,22.9-52,26.1,6,.4,12,.6,17.7-1.3a46.6,46.6,0,0,0,8.4-4.1c10-5.8,20-12,31.2-14.9A110.4,110.4,0,0,1,782.1,533.6Zm-121.6-25v-1a140.7,140.7,0,0,1-23.4-.2v1c4.2.4,8.5.6,12.7.6S656.9,508.9,660.5,508.6Zm-150,33.2c23.8-.5,47.1,8.7,70.9,8.3-11.3-5.6-23.9-8.1-36.3-10.4s-24.8-4.7-37.3-4.5c-22,.4-43.1,8.5-63.3,17.2-4.1,1.8-8.2,3.6-12.6,4.2C458.5,555.1,483.8,542.4,510.5,541.8ZM285.9,513.1h0Z"/><path class="cls-2" d="M1134.3,321.9v17.6h-.8c-2-.1-4-.3-6-.3l-5.1-.3-10.3-.4-11.1-.4-6.8-.2-9.9-.2h-15.2c-50.4-.6-100.7.8-151.3,1.6h0a14.5,14.5,0,0,1-.1-2.9c.1-5.6,1.8-11.2,3.4-16.1s4.4-13.7,7.1-21.2l.4-1.3a72.5,72.5,0,0,0,4-13v-.2c7-1.1,14.1-1.8,21.1-2.4,26.3-2.4,53.1-4.8,78.6,1.5,3.2.8,6.3,1.7,9.4,2.7,7.3,2.3,14.4,5.1,21.5,7.9l70.1,27.8Z"/><path class="cls-3" d="M1134.3,241.7v80.2h-1l-70.1-27.8c-7.1-2.8-14.2-5.6-21.5-7.9l.4-1c8.7-3,16.4-8.4,24.4-12.9,3.5-2,7-3.8,10.5-5.6a585.8,585.8,0,0,1,56.8-25Z"/><path class="cls-1" d="M1112.1,338.5l-11.1-.4Z"/><path class="cls-1" d="M1094.2,337.9l-9.9-.2Z"/><path class="cls-1" d="M1078.8,337.6h0Z"/><path d="M988.9,472.4l-.6.8c-28.4-21.7-46.6-43.6-55.6-66.9-3.7-9.7-6-20.1-8.3-30.1l-2.8-12.6-3-13.7a64.6,64.6,0,0,1-1.8-10.7h1a62.3,62.3,0,0,0,1.8,10.5l3,13.7,2.8,12.7c2.2,10,4.5,20.3,8.3,29.9C942.6,429.1,960.7,450.8,988.9,472.4Z"/><path class="cls-4" d="M958.5,496.1v.2a81.1,81.1,0,0,1-57.7,12.2,125.5,125.5,0,0,1-14.7-3.5A332.8,332.8,0,0,0,958.5,496.1Z"/><path d="M920.8,240.9c7.3,12.7,14.4,27.7,11.9,43.1,0,.2-.1.3-.1.4h-.5c0-.2.1-.4.1-.6,2.4-14.9-4.3-29.7-11.9-42.8Z"/><path d="M932.6,284.4v.2a72.5,72.5,0,0,1-4,13l-.4,1.3c-2.7,7.5-5.1,14.9-7.1,21.2s-3.3,10.5-3.4,16.1a14.5,14.5,0,0,0,.1,2.9h-.5a13.8,13.8,0,0,1-.1-2.9c.1-5.6,1.7-11,3.4-16.3,2.3-7.1,4.6-14.1,7.1-21.1a90.8,90.8,0,0,0,4.4-14.3Z"/><path d="M920.3,241.1c7.6,13.1,14.3,27.9,11.9,42.8,0,.2-.1.4-.1.6h-.5v-.2a4.3,4.3,0,0,1,.1-.5c2.5-15.2-4.6-30-11.8-42.5Z"/><path d="M931.6,284.6h.5a90.8,90.8,0,0,1-4.4,14.3c-2.5,7-4.8,14-7.1,21.1-1.7,5.3-3.3,10.7-3.4,16.3a13.8,13.8,0,0,0,.1,2.9h-.5a15.8,15.8,0,0,1-.1-3c.1-5.8,1.8-11.4,3.4-16.4s4.4-13.7,7.1-21.2l.5-1.3A81,81,0,0,0,931.6,284.6Z"/><path class="cls-2" d="M929.5,284.9l2.1-.3a81,81,0,0,1-3.9,12.7l-.5,1.3c-2.7,7.5-5.1,14.9-7.1,21.2s-3.3,10.6-3.4,16.4a15.8,15.8,0,0,0,.1,3c-35.4.5-71,.7-106.9-.2v-.2l16.1-14.3,5.6-5,.4.5c31-4.5,58.8-25.4,89.1-33.2A86.4,86.4,0,0,1,929.5,284.9Z"/><path class="cls-3" d="M929.4,284.5v.4a86.4,86.4,0,0,0-8.5,1.9c-30.3,7.8-58.1,28.7-89.1,33.2l-.4-.5c8.5-7.6,16.9-15.3,25.2-23,2.6-2.3,5.1-4.7,7.6-7.1l26.9-25.2C904.2,271,917.2,277.9,929.4,284.5Z"/><path class="cls-5" d="M922.1,391.6l.4.3c-2.3,3.6-4.7,7.1-7.1,10.6h0c-84.8,14.2-171.1,15.5-257,16.7l-327,4.5-.9.3-3.3-10a.9.9,0,0,1,.9-1.2l79.1-1.1h.9l24-.3,29.1-.4,24.6-.4L660,408.3l19.5-.3c31.5-.5,63-1.1,94.4-2.4C823.6,403.5,873.1,399.7,922.1,391.6Z"/><path class="cls-6" d="M920.6,240.2h-.3c-3.2.2-5.9,2.5-8.2,4.6l-20.8,19.2h-.1l-1.9-1L913.6,242C915.6,240.2,918.6,238.5,920.6,240.2Z"/><path class="cls-7" d="M915.4,402.5h0c-11.4,17.1-23.2,34-35.9,50.2-10.2,12.9-21,25.5-33.3,36.4a61.1,61.1,0,0,1-13.8,9.9,39,39,0,0,1-12.9,3.7v.3q-46.1.8-92.3,1.2H710.8c-84.5.7-169.4.3-253.9-.8l-15.2-.2c-28.5-.4-56.8-.9-85.1-1.5h-.7a.9.9,0,0,1-1.1-.6q-7.4-24.7-15.2-49.2c-1.9-6.2-3.9-12.3-5.9-18.4-1-3.2-2.1-6.4-3.2-9.7l.9-.3,327-4.5C744.3,418,830.6,416.7,915.4,402.5ZM770.7,439.2v-2h-412v2Zm-111,34.4v-2H360.2v2Z"/><path class="cls-6" d="M891.2,264.2h0l-26.9,25.2c-2.5,2.4-5,4.8-7.6,7.1-8.3,7.7-16.7,15.4-25.2,23l-5.6,5-16.1,14.3-15.2,13.3h-.1a3.2,3.2,0,0,0-2.7-3.4v-.3l9.4-8.1,24.5-21.5,63.6-55.6Z"/><path class="cls-3" d="M889.3,263.2l-63.6,55.6-.3-.3c-5.4-.8-12.3-2-17.3-4.2s-7.1-3.5-10.7-5.2c-9.4-4.7-19.4-8-29.4-11.3l-20.8-6.9v-.3a14.1,14.1,0,0,0,9.8-2c1.6-1,3.1-2.6,2.7-4.4a3.9,3.9,0,0,0-3.6-2.5,11.7,11.7,0,0,0-4.5,1.3l-5.6,2.2-.3-1A20.7,20.7,0,0,1,741,278c-1.2-2.4-2.3-5.2-4.7-6.1a8.6,8.6,0,0,0-3.9-.1c-6.7,1.2-12.7,4.4-18.7,7.7a.5.5,0,0,0-.4.3l-.3-.3c-2.6-1-5.1-2-7.8-2.9v-.2A342.8,342.8,0,0,1,807,236.5c6.3-1.4,12.6-2.6,18.9-2,9.2.7,17.7,5,25.9,9.2Z"/><path class="cls-2" d="M825.4,318.5l.3.3-24.5,21.5-.8-1-70.8.5h-.8a28.9,28.9,0,0,0-3-11.8,5.9,5.9,0,0,0-.4-.8l-.9-1.7a6.6,6.6,0,0,1-.6-4.8h-.1a14.1,14.1,0,0,0,.5-4.6h0l8.6-.6c1.7-.1,3.7-.4,4.7-1.8a4.5,4.5,0,0,0,.7-1.8,5.3,5.3,0,0,1,.8-1.7,5,5,0,0,1,3.2-1.4l.6-.2c.7-.1,3.2-.8,3.3-2.8a5.1,5.1,0,0,0-.2-1.3V304a18.7,18.7,0,0,1,1.1-12.1h-.2l.3-.9h.1l20.8,6.9c10,3.3,20,6.6,29.4,11.3,3.6,1.7,7.1,3.6,10.7,5.2S820,317.7,825.4,318.5Z"/><path class="cls-4" d="M819.8,531.7c-12.6-.4-25.2.7-37.7,1.9a110.4,110.4,0,0,0-18,2.8c-11.2,2.9-21.2,9.1-31.2,14.9a46.6,46.6,0,0,1-8.4,4.1c-5.7,1.9-11.7,1.7-17.7,1.3,19-3.2,33.8-19.1,52-26.1,11.2-4.2,23.5-4.9,35.4-3.7A189,189,0,0,1,819.8,531.7Z"/><path class="cls-1" d="M800.4,339.3l.8,1-9.4,8.1v.3h-.3a5.1,5.1,0,0,0-2.5,1.5l-18.5,16.4v.5h0a34.6,34.6,0,0,0-7,1.9l-.7.3a75.6,75.6,0,0,1-33,4.1c-1.5-.2-3.1-.5-3.7-1.7a4.1,4.1,0,0,1-.4-1.9c0-.3-.1-.6-.1-.9h0a2.8,2.8,0,0,1,.1-.9,101.5,101.5,0,0,1,1.4-10.9c.5-2.7,1-5.5,1.3-8.3a46.4,46.4,0,0,0,.3-9h.8Z"/><path class="cls-8" d="M794.5,352.1a2.2,2.2,0,0,1,0,.8,10.1,10.1,0,0,1-3.5,4.7l-13,11.3h-.6c0-.1-.1-.1-.1-.2a3.3,3.3,0,0,0-1.6-1.1,9.5,9.5,0,0,0-5.1-.5v-.5L789,350.2a5.1,5.1,0,0,1,2.5-1.5h.3A3.2,3.2,0,0,1,794.5,352.1Z"/><path class="cls-9" d="M777.5,370.2l.2.2-.5.3a4.8,4.8,0,0,0-1.6,3.5,6.9,6.9,0,0,0,.3,2,12,12,0,0,1,.3,2,4.7,4.7,0,0,1-3.6,4.5c-1.5.4-3.1-.1-4.6-.5a11.4,11.4,0,0,0-3.2-.7,6,6,0,0,0-2.2.2v-.2l2.2-.2c2.7.2,5.2,1.9,7.8,1.3a4.5,4.5,0,0,0,3.5-4.4c0-1.3-.6-2.6-.7-4a4.7,4.7,0,0,1,1.8-3.6h-.1c.1-.1.1-.1.1-.2Z"/><path class="cls-9" d="M777.4,368.9a1.6,1.6,0,0,1-.2,1.5.1.1,0,0,1-.1.1H777a1.4,1.4,0,0,0,.3-1.5Z"/><path class="cls-9" d="M777.4,368.9h-.1v-.2a3.3,3.3,0,0,0-1.5-1.1,9.9,9.9,0,0,0-5.1-.5h0a9.5,9.5,0,0,1,5.1.5,3.3,3.3,0,0,1,1.6,1.1C777.3,368.8,777.4,368.8,777.4,368.9Z"/><path class="cls-9" d="M777.3,369a1.4,1.4,0,0,1-.3,1.5h0a1.8,1.8,0,0,0,.2-1.4c-.1,0-.1-.1-.1-.2a3.6,3.6,0,0,0-1.5-1,10.2,10.2,0,0,0-5-.5,35.9,35.9,0,0,0-6.9,2l-.7.3a76.8,76.8,0,0,1-25.5,4.4,63.4,63.4,0,0,1-7.6-.4c-1.6-.1-3.2-.5-4-1.8a6.5,6.5,0,0,1-.4-1.9v-.2h.1c0,.1.1.1.1.2a3.7,3.7,0,0,0,.4,1.8c.6,1.3,2.3,1.6,3.8,1.8a75.6,75.6,0,0,0,33-4.1,35.5,35.5,0,0,1,7.7-2.2,9.9,9.9,0,0,1,5.1.5,3.3,3.3,0,0,1,1.5,1.1Z"/><path class="cls-10" d="M777.2,369a1.8,1.8,0,0,1-.2,1.4h.1a4.9,4.9,0,0,0-1.8,3.7,12,12,0,0,0,.3,2,7.9,7.9,0,0,1,.4,2,4.5,4.5,0,0,1-3.4,4.3,8.8,8.8,0,0,1-4.5-.6,19.4,19.4,0,0,0-3.3-.7,9,9,0,0,0-2.2.2l-1.1.2L749,384.5l-20.3,4.7-3.8.9-4.1.6a31.3,31.3,0,0,1-5.3,0h-.9l-.3-.2a2.2,2.2,0,0,1-.9-1c-4-6.2-5.6-13.5-7.1-20.5-.9-3.9-1.8-7.9-2.6-11.8l-.2-.6h-.1c7.1,0,14.1-.1,21-1.7l.2.7h-.2l.9,11.9v.7a9.7,9.7,0,0,0-.1,1.7h.3v.2a6.5,6.5,0,0,0,.4,1.9c.8,1.3,2.4,1.7,4,1.8a63.4,63.4,0,0,0,7.6.4,76.8,76.8,0,0,0,25.5-4.4l.7-.3a35.9,35.9,0,0,1,6.9-2,10.2,10.2,0,0,1,5,.5,3.6,3.6,0,0,1,1.5,1C777.1,368.9,777.1,369,777.2,369Z"/><path class="cls-9" d="M777.2,370.4c0,.1,0,.1-.1.2h0A.1.1,0,0,0,777.2,370.4Z"/><path class="cls-9" d="M777.1,370.5h.1a4.7,4.7,0,0,0-1.8,3.6c.1,1.4.7,2.7.7,4a4.5,4.5,0,0,1-3.5,4.4c-2.6.6-5.1-1.1-7.8-1.3l-2.2.2-1.4.3L749,384.6l-20.3,4.7-3.8.9c-1.3.2-2.7.5-4.1.6a23.5,23.5,0,0,1-5.3,0h-1l-.3-.2c-.4-.2-.6-.6-.9-1-3.9-6.2-5.6-13.5-7.1-20.6-1-4.1-1.9-8.3-2.8-12.4h.1l.2.6c.8,3.9,1.7,7.9,2.6,11.8,1.5,7,3.1,14.3,7.1,20.5a2.2,2.2,0,0,0,.9,1l.3.2h.9a31.3,31.3,0,0,0,5.3,0l4.1-.6,3.8-.9,20.3-4.7,12.5-2.9,1.1-.2a9,9,0,0,1,2.2-.2,19.4,19.4,0,0,1,3.3.7,8.8,8.8,0,0,0,4.5.6,4.5,4.5,0,0,0,3.4-4.3,7.9,7.9,0,0,0-.4-2,12,12,0,0,1-.3-2,4.9,4.9,0,0,1,1.8-3.7Z"/><path class="cls-11" d="M773.9,404.9v.7c-31.4,1.3-62.9,1.9-94.4,2.4v-.9h.1a11.8,11.8,0,0,1-1.9-5.9,33.5,33.5,0,0,1,.5-6.3h0a173,173,0,0,0,35.9-3.1l.4-.6h0l1,.2h2.4l3-.2,4-.6h.1v.3c2.6,2.9,6.8,3.3,10.6,3.9l3.2.7,5.9,1.4,1.4.4,27.1,7.1A.9.9,0,0,1,773.9,404.9Z"/><path class="cls-1" d="M773.9,404.3v.6a.9.9,0,0,0-.7-.8Z"/><rect class="cls-5" x="358.7" y="437.2" width="412.1" height="2"/><path class="cls-9" d="M770.6,367.1h0a35.5,35.5,0,0,0-7.7,2.2,75.6,75.6,0,0,1-33,4.1c-1.5-.2-3.2-.5-3.8-1.8a3.7,3.7,0,0,1-.4-1.8c0-.1-.1-.1-.1-.2h.1v-.8c0,.3.1.6.1.9a4.1,4.1,0,0,0,.4,1.9c.6,1.2,2.2,1.5,3.7,1.7a75.6,75.6,0,0,0,33-4.1l.7-.3a34.6,34.6,0,0,1,7-1.9Z"/><path class="cls-8" d="M762.6,381.7v.4c-2.3,2.4-4.6,4.8-7,7a4.4,4.4,0,0,1-1.8,1.2,2.6,2.6,0,0,1-1.5-.1,6.1,6.1,0,0,1-2.4-1.9,4.2,4.2,0,0,1-1.1-1.5c0-.1-.1-.1-.1-.2a1.9,1.9,0,0,1,.3-1.5v-.3l12.2-2.9h.3Z"/><path class="cls-9" d="M762.6,381.5v.2l-1.1.2h-.3L749,384.8v-.2l12.2-2.8Z"/><path class="cls-12" d="M759.8,284.2c.4,1.8-1.1,3.4-2.7,4.4a14.1,14.1,0,0,1-9.8,2v.3h-.1l-.3.9h-.2l-.7-.2A99.7,99.7,0,0,0,727,293l-.5-2.7a110.8,110.8,0,0,0,19.6-5.1l5.6-2.2a11.7,11.7,0,0,1,4.5-1.3A3.9,3.9,0,0,1,759.8,284.2Z"/><path class="cls-8" d="M752.4,390.2l-.2.8c-1.9,1.8-3.9,3.6-6,5.3v.7l-1.4-.4-5.9-1.4v-.6h.1c3-2.7,6.2-5.3,9.5-7.9h.3c0,.1.1.1.1.2a4.2,4.2,0,0,0,1.1,1.5A6.1,6.1,0,0,0,752.4,390.2Z"/><path class="cls-1" d="M749,384.8v.3a1.9,1.9,0,0,0-.3,1.5h-.5c-3.3,2.6-6.4,5.3-9.4,7.9h0v.6l-3.2-.7c-3.8-.6-8-1-10.6-3.9v-.3l3.8-.8Z"/><path class="cls-9" d="M749,384.6v.2l-20.2,4.7-3.8.8h-.1l3.8-.9Z"/><path d="M748.4,386.7h.1c-3.3,2.6-6.5,5.2-9.5,7.9h-.1C742,391.9,745.2,389.2,748.4,386.7Z"/><path d="M748.3,386.6h.1c-3.2,2.5-6.4,5.2-9.5,7.9h0C741.9,391.9,745,389.2,748.3,386.6Z"/><path class="cls-9" d="M746.8,291.8h.2a18.7,18.7,0,0,0-1.1,12.1v.2a5.1,5.1,0,0,1,.2,1.3c-.1,2-2.6,2.7-3.3,2.8l-.6.2a5,5,0,0,0-3.2,1.4,5.3,5.3,0,0,0-.8,1.7,4.5,4.5,0,0,1-.7,1.8c-1,1.4-3,1.7-4.7,1.8l-8.6.6h0v-.2l8.6-.7c1.6-.1,3.5-.3,4.5-1.7s.7-2.4,1.5-3.4,2.5-1.4,3.9-1.7,3-1.2,3.1-2.6a3.4,3.4,0,0,0-.2-1.4A18,18,0,0,1,746.8,291.8Z"/><path class="cls-9" d="M746.6,291.7h.2a18,18,0,0,0-1.1,12.3,3.4,3.4,0,0,1,.2,1.4c-.1,1.4-1.7,2.3-3.1,2.6s-3,.5-3.9,1.7-.8,2.4-1.5,3.4-2.9,1.6-4.5,1.7l-8.6.7a.4.4,0,0,1-.1-.3h.1l8.5-.6c1.7-.1,3.5-.4,4.4-1.6a7.7,7.7,0,0,0,.7-1.6,6.4,6.4,0,0,1,.8-1.9c.8-1,2.2-1.3,3.5-1.6h.6c.6-.2,2.8-.8,2.9-2.4a5,5,0,0,0-.2-1.2h0A18.6,18.6,0,0,1,746.6,291.7Z"/><path class="cls-9" d="M746.8,291.8h0Z"/><path class="cls-10" d="M745.9,291.5l.7.2a18.6,18.6,0,0,0-1.1,12.5h0a5,5,0,0,1,.2,1.2c-.1,1.6-2.3,2.2-2.9,2.4h-.6c-1.3.3-2.7.6-3.5,1.6a6.4,6.4,0,0,0-.8,1.9,7.7,7.7,0,0,1-.7,1.6c-.9,1.2-2.7,1.5-4.4,1.6l-8.5.6h-.1a15.4,15.4,0,0,0-5.9-11,8.3,8.3,0,0,0-5.1-1.9v-.2c-.4-2-.6-4.3.9-5.7a7.1,7.1,0,0,1,2.5-1.1A92.2,92.2,0,0,1,727,293,99.7,99.7,0,0,1,745.9,291.5Z"/><path class="cls-12" d="M745.8,284.2l.3,1a110.8,110.8,0,0,1-19.6,5.1,90.9,90.9,0,0,1-12.9,1.5v-1a11.9,11.9,0,0,0-.2-9.6,1.5,1.5,0,0,1-.2-1.3h.1a.5.5,0,0,1,.4-.3c6-3.3,12-6.5,18.7-7.7a8.6,8.6,0,0,1,3.9.1c2.4.9,3.5,3.7,4.7,6.1A20.7,20.7,0,0,0,745.8,284.2Z"/><path class="cls-13" d="M728.8,339.8a46.4,46.4,0,0,1-.3,9c-.3,2.8-.8,5.6-1.3,8.3a101.5,101.5,0,0,0-1.4,10.9.5.5,0,1,1-.2,0v-.8c.5-6.1,1.9-12.2,2.6-18.4a54.3,54.3,0,0,0,.4-9Z"/><path class="cls-13" d="M728.8,339.8h-.2a29.8,29.8,0,0,0-3-11.7c-.4-.8-.9-1.6-1.3-2.5s-1.2-3.3-.6-4.9c0-.1,0-.2.1-.2h.1a6.6,6.6,0,0,0,.6,4.8l.9,1.7a5.9,5.9,0,0,1,.4.8A28.9,28.9,0,0,1,728.8,339.8Z"/><path class="cls-13" d="M728.6,339.8a54.3,54.3,0,0,1-.4,9c-.7,6.2-2.1,12.3-2.6,18.4a6.6,6.6,0,0,1-.1-1.4c.3-3,.8-5.9,1.3-8.8s.9-5.5,1.2-8.2a46.4,46.4,0,0,0,.3-9,27.5,27.5,0,0,0-2.9-11.5l-.4-.8-.9-1.8h.2c.4.9.9,1.7,1.3,2.5A29.8,29.8,0,0,1,728.6,339.8Z"/><path class="cls-14" d="M728.3,339.8a46.4,46.4,0,0,1-.3,9c-.3,2.7-.8,5.5-1.2,8.2s-1,5.8-1.3,8.8c-.3-3.5-.6-6.9-.8-10.4h-.1l-.2-.7h.3l-.2-.7c-.8-8.4-1.5-16.8-2.2-25.2a8.2,8.2,0,0,0-.6-2.8l2.4-.3h0l.9,1.8.4.8A27.5,27.5,0,0,1,728.3,339.8Z"/><path class="cls-4" d="M727.2,504.2v1.1c-14.7,4.7-27.4,15.2-42.5,18.1-5.5,1-11,.9-16.5.8l-9.4-.5c-11.4-.7-22.7-2.1-34-3.7l-3.6-.5-4.1-.6-3.2-.5-6.8-1-8.4-1.4-4.7-.8a.8.8,0,0,1-.7-.9h0a1,1,0,0,1,1-.7l22.1,1.5,7.6.5,30.7,1.8c4.8.3,9.6.5,14.4.4a83.4,83.4,0,0,0,41.7-13.2h16.4Z"/><path class="cls-12" d="M726.5,290.3l.5,2.7a92.2,92.2,0,0,0-10.4,2.4,7.1,7.1,0,0,0-2.5,1.1c-1.5,1.4-1.3,3.7-.9,5.7h-1.4a23.4,23.4,0,0,1-5-1.9c-1.8-1-3.7-2.8-3.4-4.9a4.1,4.1,0,0,1,2.7-2.9,14,14,0,0,1,4.1-.5l3.4-.2A90.9,90.9,0,0,0,726.5,290.3Z"/><path class="cls-13" d="M725.7,368.9h0v.8h-.1a10.3,10.3,0,0,0-.1-1.7c0-.3.1-.5.1-.8v.8A2.8,2.8,0,0,1,725.7,368.9Z"/><path class="cls-13" d="M725.5,368a10.3,10.3,0,0,1,.1,1.7h-.1v-.8a2.8,2.8,0,0,1-.1-.9v-.7c0-.3.1-.6.1-.8Z"/><path class="cls-13" d="M725.5,365.8a6.6,6.6,0,0,0,.1,1.4c0,.3-.1.5-.1.8v-1.5A1.5,1.5,0,0,1,725.5,365.8Z"/><path class="cls-13" d="M725.5,369.7h-.3a9.7,9.7,0,0,1,.1-1.7v0a2.8,2.8,0,0,0,.1.9Z"/><path class="cls-9" d="M725.5,365.8a1.5,1.5,0,0,0-.1.7c-.3-3.7-.6-7.4-.8-11.1h.1C724.9,358.9,725.2,362.3,725.5,365.8Z"/><path class="cls-9" d="M725.4,366.5c0,.2-.1.5-.1.8l-.9-11.9h.2C724.8,359.1,725.1,362.8,725.4,366.5Z"/><path class="cls-9" d="M724.9,390.2h0l-4,.6-3,.2h-2.4l-1-.2h1a23.5,23.5,0,0,0,5.3,0C722.2,390.7,723.6,390.4,724.9,390.2Z"/><path class="cls-15" d="M724.7,354.6h-.3c-6.9,1.6-13.9,1.7-21,1.7h-3.2c-.4-8.1-.9-16.2-1.3-24.3a14.7,14.7,0,0,1,.2-4.7c.9-3.6,4.4-6.2,8.1-6.8s7.5.5,10.8,2.2a7.3,7.3,0,0,1,3.7,3.2,8.2,8.2,0,0,1,.6,2.8c.7,8.4,1.4,16.8,2.2,25.2Z"/><path class="cls-13" d="M724.3,325.6h-.2a6.2,6.2,0,0,1-.6-5h.2C723.1,322.3,723.6,324,724.3,325.6Z"/><path class="cls-16" d="M724.3,315.8a14.1,14.1,0,0,1-.5,4.6h-.3v.2c-3.4-4.9-6.9-9.9-11.5-13.7a2.7,2.7,0,0,1-.8-.7l-.2-.3c-.1-.3-.1-.6-.2-.9a6.2,6.2,0,0,1,.2-1.9,1.8,1.8,0,0,1,.8-.9h1.4v.2a8.3,8.3,0,0,1,5.1,1.9,15.4,15.4,0,0,1,5.9,11h-.1v.5h.2Z"/><path class="cls-9" d="M724.3,315.6v.2h-.2v-.5h.1A.4.4,0,0,0,724.3,315.6Z"/><path class="cls-14" d="M724.1,325.6l-2.4.3a7.3,7.3,0,0,0-3.7-3.2c-3.3-1.7-7.1-2.8-10.8-2.2s-7.2,3.2-8.1,6.8a14.7,14.7,0,0,0-.2,4.7c.4,8.1.9,16.2,1.3,24.3h3.1v.7c.9,3.9,1.8,7.8,2.6,11.7,1.6,7.1,3.2,14.4,7.2,20.7a2.6,2.6,0,0,0,1,1.1h.3l-.4.6a173,173,0,0,1-35.9,3.1,7.1,7.1,0,0,0-2-7.5l-.4-.3-.8-.8a3.5,3.5,0,0,1-.3-2.5A214.3,214.3,0,0,1,685,340c.7-2.3,1.6-4.6,2.5-6.9a54.5,54.5,0,0,1,5.7-11.6c4.6-6.5,11.7-11,17.9-14.9v-.2l.2-.2a2.7,2.7,0,0,0,.8.7c4.6,3.8,8.1,8.8,11.5,13.7h0A6.2,6.2,0,0,0,724.1,325.6Z"/><path class="cls-13" d="M723.8,320.4h0c-.1,0-.1.1-.1.2h-.2v-.2h.3Z"/><path class="cls-9" d="M714.5,390.7h-.3a2.6,2.6,0,0,1-1-1.1c-4-6.3-5.6-13.6-7.2-20.7-.8-3.9-1.7-7.8-2.6-11.7v-.7h.1c.9,4.1,1.8,8.3,2.8,12.4,1.5,7.1,3.2,14.4,7.1,20.6.3.4.5.8.9,1Z"/><path class="cls-2" d="M713.4,281.2a11.9,11.9,0,0,1,.2,9.6v1l-3.4.2a14,14,0,0,0-4.1.5,4.1,4.1,0,0,0-2.7,2.9c-.3,2.1,1.6,3.9,3.4,4.9a23.4,23.4,0,0,0,5,1.9,1.8,1.8,0,0,0-.8.9,6.2,6.2,0,0,0-.2,1.9c.1.3.1.6.2.9l.2.3-.2.2h0l-.2-.3c-6.2,4-13.4,8.6-18,15.1-2.4,3.4-4,7.2-5.8,11.7l-2.5,6.9-.9-.3q-96.5,1.2-193,1h-.4c.2-8.3.1-16.8-.2-25.1h.5c20.1-8.1,41.1-14.1,62-20l48.6-13.7,6.9-2c12.7-3.6,25.4-7.1,38.4-8.8l4.2-.5a134.7,134.7,0,0,1,54.6,6.3c2.7.9,5.2,1.9,7.8,2.9l.3.3h-.1A1.5,1.5,0,0,0,713.4,281.2Z"/><path class="cls-13" d="M711,306.4v.2c-6.2,3.9-13.3,8.4-17.9,14.9a54.5,54.5,0,0,0-5.7,11.6c-.9,2.3-1.8,4.6-2.5,6.9a214.3,214.3,0,0,0-10.3,43.4,3.5,3.5,0,0,0,.3,2.5l.8.8.4.3a7.1,7.1,0,0,1,2,7.5h-.3a6.5,6.5,0,0,0-1.9-7.3,6.8,6.8,0,0,1-1.2-1.2,3.5,3.5,0,0,1-.3-2.7,217.2,217.2,0,0,1,10.2-43.4c.8-2.3,1.6-4.6,2.5-6.9a54.7,54.7,0,0,1,5.8-11.6c4.5-6.4,11.3-10.8,18-15Z"/><path class="cls-13" d="M710.8,306.1l.2.3c-6.7,4.2-13.5,8.6-18,15a54.7,54.7,0,0,0-5.8,11.6c-.9,2.3-1.7,4.6-2.5,6.9h-.2l2.5-6.9c1.8-4.5,3.4-8.3,5.8-11.7C697.4,314.7,704.6,310.1,710.8,306.1Z"/><path class="cls-13" d="M684.5,339.8h.2a217.2,217.2,0,0,0-10.2,43.4,3.5,3.5,0,0,0,.3,2.7,6.8,6.8,0,0,0,1.2,1.2,6.5,6.5,0,0,1,1.9,7.3h-.2a6.4,6.4,0,0,0-1.9-7l-.3-.3a2.6,2.6,0,0,1-.9-.9,4.2,4.2,0,0,1-.4-2.9A216.8,216.8,0,0,1,684.5,339.8Z"/><path class="cls-1" d="M683.6,339.5l.9.3a216.8,216.8,0,0,0-10.3,43.5,4.2,4.2,0,0,0,.4,2.9,2.6,2.6,0,0,0,.9.9l.3.3a6.4,6.4,0,0,1,1.9,7h.2a33.3,33.3,0,0,0-.4,6.3,11,11,0,0,0,1.9,6h.1v.9l-19.5.3-174.2,2.3v-.2h.1c-.4-9,.6-18.2,1.6-27.1.2-1.8.3-3.6.5-5.4,1.3-12.4,2-25,2.2-37.4h.4Q587.1,340.7,683.6,339.5Z"/><path d="M679.6,407h-.1a10.9,10.9,0,0,1-1.9-6,45.8,45.8,0,0,1,.4-6.4h.2a33.5,33.5,0,0,0-.5,6.3A11.8,11.8,0,0,0,679.6,407Z"/><path d="M679.5,407.1h-.1a11,11,0,0,1-1.9-6,33.3,33.3,0,0,1,.4-6.3h.1a45.8,45.8,0,0,0-.4,6.4A10.9,10.9,0,0,0,679.5,407.1Z"/><path class="cls-13" d="M678.2,394.5h0Z"/><polygon class="cls-13" points="678.1 394.5 678.1 394.6 677.9 394.5 678.1 394.5"/><path class="cls-17" d="M660.4,507.6v1c-3.6.3-7.3.4-10.9.4s-8.5-.2-12.7-.6v-1A140.7,140.7,0,0,0,660.4,507.6Z"/><rect class="cls-5" x="360.2" y="471.6" width="299.5" height="2"/><path class="cls-18" d="M650.6,270.1v.2l-4.2.5c-13,1.7-25.7,5.2-38.4,8.8l-6.9,2-.2-.8c-10.3-7.8-20.7-15.5-31.6-22.5l.3-.5a47.5,47.5,0,0,1,40.3-19.3c13.9.8,27.5,8.3,35,20A83.1,83.1,0,0,1,650.6,270.1Z"/><path class="cls-1" d="M616.4,514.9l7.6.5Z"/><path class="cls-1" d="M613.9,518.4l3.2.5Z"/><path class="cls-1" d="M598.7,516l8.4,1.4Z"/><path class="cls-3" d="M600.9,280.8l.2.8-48.6,13.7c-20.9,5.9-41.9,11.9-62,20H490q-.3-7.5-.9-15.3H489l.2-.3h.2a55,55,0,0,0,.6-17.2h-.3v-.2c5.3-3.5,10.6-7.3,15.8-11.1,1.5-1.1,3.2-2.5,3.1-4.3h.1a274.2,274.2,0,0,1-1.3-32.6v-.3l4-.6h0l.4-.2h.2c-.2-.4-.3-.8-.5-1.3h-.1l.7-.3c20.5,5.4,39.4,15.2,57.2,26.8C580.2,265.3,590.6,273,600.9,280.8Z"/><path class="cls-1" d="M594.3,513.4a1,1,0,0,0-1,.7v-.8Z"/><path class="cls-1" d="M594,515.2h-.9l.2-.9h0A.8.8,0,0,0,594,515.2Z"/><path class="cls-4" d="M581.4,550.1c-23.8.4-47.1-8.8-70.9-8.3-26.7.6-52,13.3-78.6,14.8,4.4-.6,8.5-2.4,12.6-4.2,20.2-8.7,41.3-16.8,63.3-17.2,12.5-.2,25,2.2,37.3,4.5S570.1,544.5,581.4,550.1Z"/><path class="cls-19" d="M511.8,233.3l-.4.2v-.2l-4.1.6-8.2,2c-3.2.8-6.5,1.7-9.7,2.2l-1.2.2v.2l1.2-.2h0v.2c0,.8.1,1.8.2,2.9h-.2c-2,7-3.8,16.6-1.9,23.1l.5.3h.2l-.4.5c-1.2,1.3-2.3,2.6-3.5,3.8a60.7,60.7,0,0,1-25,15.4l-.2-.2a5.9,5.9,0,0,0-1.8,1.3l-.2-.2c-2.1-6.8-4.2-13.5-6.1-20.3a11,11,0,0,0,2.5-1.7,2.9,2.9,0,0,0,1-2.5,11,11,0,0,0-1.4-5.3,18.6,18.6,0,0,1-2.5-4.3c-.3-1.2-.2-2.7-1-3.7s-3-1.2-4.6-1.1h0V246h.1c-6.2-16.4-12.7-33.4-18.6-50.2h.1l.2.3h.6a51.1,51.1,0,0,0,14.4-5.5h.1v-.2a.5.5,0,0,1,.5-.3,2.3,2.3,0,0,1,2.1.3,9.8,9.8,0,0,1,1.7,2.3,25,25,0,0,0,6.9,7.9,3.2,3.2,0,0,0,2.4.8,2.8,2.8,0,0,0,1.6-1.2l4.7-5.1a14,14,0,0,1,4.1-3.6,5.7,5.7,0,0,1,2.2-.4,4.2,4.2,0,0,1,2.7.9l-1.1-.3v.3l1.3.3,17.9,4.3a13.7,13.7,0,0,1,5.2,2,13.5,13.5,0,0,1,2.6,3.3,190.9,190.9,0,0,1,14.8,30.1h.1A5,5,0,0,0,511.8,233.3Z"/><path class="cls-10" d="M488.2,264.8H488c.1,0,.2-.2.4-.4s3-2,4-3.6a3.4,3.4,0,0,0,.1-2.6c-.5-3.9-2.3-11.5-2.9-16.9-.1-1.1-.2-2.1-.2-2.9v-.2a84.6,84.6,0,0,0,9.7-2.2c2.7-.7,5.5-1.4,8.3-1.9v.3a274.2,274.2,0,0,0,1.3,32.6h-.1c.1,1.8-1.6,3.2-3.1,4.3-5.2,3.8-10.5,7.6-15.8,11.1a146.3,146.3,0,0,1-22.2,12.4h.1a11.5,11.5,0,0,1-6.2,6.4,11.3,11.3,0,0,1-5.7.9l-1.9-.4-1-.6c-2.3-1.5-2.9-4.6-4.8-6.6a9.6,9.6,0,0,1-1.8-2.2,5.6,5.6,0,0,1,.1-3.6,4.8,4.8,0,0,1,.7-2,2.2,2.2,0,0,1,1.6-.9h.6a.9.9,0,0,1,.6.3,1.2,1.2,0,0,1,.5.5,2.8,2.8,0,0,0,1.1.8h.2v-.2c1.8,0,2.5.5,4.1-.6l1.5-1.3a5.9,5.9,0,0,1,1.8-1.3l.2.2a60.7,60.7,0,0,0,25-15.4c1.2-1.2,2.3-2.5,3.5-3.8Z"/><path class="cls-3" d="M492.5,258.3a3.4,3.4,0,0,1-.1,2.6c-1,1.6-3.5,2.2-4,3.6s-.3.4-.4.4h0l-.5-.3c-1.9-6.5-.1-16.1,1.9-23.1h.2C490.2,246.8,492,254.4,492.5,258.3Z"/><path d="M490,315.4c.3,8.3.4,16.8.2,25.1h-.1c.2-8.4.1-16.8-.3-25.1Z"/><path d="M490.1,340.5h.1c-.2,12.4-.9,25-2.2,37.4-.2,1.8-.3,3.6-.5,5.4-1,8.9-2,18.1-1.6,27.1h-.1c-.5-10.8,1-21.7,2.1-32.5C489.2,365.5,489.9,353,490.1,340.5Z"/><path d="M489.8,315.4c.4,8.3.5,16.7.3,25.1-.2,12.5-.9,25-2.2,37.4-1.1,10.8-2.6,21.7-2.1,32.5h-.1c-.4-9,.6-18.2,1.5-27.1l.6-5.4c1.2-12.4,2-25,2.2-37.4.1-8.3,0-16.8-.3-25.1q-.3-7.5-.9-15.3h.2C489.3,305.2,489.6,310.3,489.8,315.4Z"/><path class="cls-20" d="M489.7,315.4c.3,8.3.4,16.8.3,25.1-.2,12.4-1,25-2.2,37.4l-.6,5.4c-.9,8.9-1.9,18.1-1.5,27.1h.1v.2l-24.6.4v-2h.1a56.3,56.3,0,0,1-1.3-14.7c.1-1.6.3-3.3.4-4.9a56.4,56.4,0,0,0,.5-8.2c-.2-7.1-2.6-13.8-5-20.3l-2.2-6.1c-.8-2.1-1.5-4.1-2.2-6.2-.2-.3-.3-.8-.7-1a1,1,0,0,0-.9-.1,3.2,3.2,0,0,0-1.4,1.6,238.5,238.5,0,0,0-16.6,60.4h.2v1.9l-24,.3v-1.6h.1c-.5-3.8,0-7.8.4-11.5l.3-3.1a173.3,173.3,0,0,0,.7-19v-3.8c0-10.5.4-21.1,1.2-31.5s2.1-22.5,3.8-33.7c.5-3.3,1-6.7,1.6-10.3h-.1v-.4h.1l4.2,1.3,2,.6c9.3,2.9,19.2,4.4,28.7,5.8h.1v-.2h.4l1.8.2h.5a47.2,47.2,0,0,0,3.5,7.9h.1a4.1,4.1,0,0,0,.7,1.1,4.7,4.7,0,0,0,1.9.6h1.3a3.4,3.4,0,0,0,1.9-.5,3.2,3.2,0,0,0,1.4-2.8,8.7,8.7,0,0,0-.7-3.1l-1.2-3.1a167.5,167.5,0,0,0,25.4-4.9h0l.7.5h-.2Q489.4,307.9,489.7,315.4Z"/><path d="M490,315.4h-.2c-.2-5.1-.5-10.2-.8-15.3h.1Q489.7,307.9,490,315.4Z"/><path class="cls-19" d="M489.7,282.5v.2h-.2a53.9,53.9,0,0,1-.6,17h.3l-.2.3-.7-.5h0a182.2,182.2,0,0,1-25.5,4.9h0l-1.2-2.8h-.1v-.2a11.5,11.5,0,0,0,6.2-6.4h-.1A146.3,146.3,0,0,0,489.7,282.5Z"/><path d="M488.3,299.6h0a167.5,167.5,0,0,1-25.4,4.9h0A167.5,167.5,0,0,0,488.3,299.6Z"/><path d="M488.3,299.5h0a167.5,167.5,0,0,1-25.4,4.9h0a.1.1,0,0,1-.1-.1h0A182.2,182.2,0,0,0,488.3,299.5Z"/><path class="cls-21" d="M473.9,163.4c1.1.1,1.7,1.5,1.5,2.7a10.4,10.4,0,0,1-1.2,3.5,14.4,14.4,0,0,1-1.9,3.1,5.2,5.2,0,0,1-3,1.9h-.1a5.2,5.2,0,0,0,3-1.8,33.7,33.7,0,0,0,1.9-3.2,10.6,10.6,0,0,0,1.2-3.4c.1-1.1-.3-2.4-1.4-2.6h0Z"/><path class="cls-21" d="M473.9,163.5c1.1.2,1.5,1.5,1.4,2.6a10.6,10.6,0,0,1-1.2,3.4,33.7,33.7,0,0,1-1.9,3.2,5.2,5.2,0,0,1-3,1.8h0v-.3h.1a5.6,5.6,0,0,0,2.9-1.8,16.5,16.5,0,0,0,1.8-3.1,10.9,10.9,0,0,0,1.3-3.4c.1-1.1-.4-2.3-1.3-2.5h-.3a3.4,3.4,0,0,0-1.6.8,2.6,2.6,0,0,1-2,.8h0c1.3.2,2.3-1.5,3.6-1.6Z"/><path class="cls-10" d="M473.9,163.6c.9.2,1.4,1.4,1.3,2.5a10.9,10.9,0,0,1-1.3,3.4,16.5,16.5,0,0,1-1.8,3.1,5.6,5.6,0,0,1-2.9,1.8h-.1v.3h.1v.2H469v-.2l-7.4,6.2a9.8,9.8,0,0,1-3,2,8.2,8.2,0,0,1-3.8.3c-3.3-.1-6.5-.4-8.7-2.3a3,3,0,0,1-.8-.8,13.2,13.2,0,0,1-1.9-2.9,55.2,55.2,0,0,1-5.7-11.4,2.3,2.3,0,0,1-.1-1.8.8.8,0,0,1,.7-.5.5.5,0,0,1,.5.3l.2-.2h.4a1.1,1.1,0,0,0,1.1.6,1.5,1.5,0,0,0,.9-1.6,5.6,5.6,0,0,0-.4-1.2,6.3,6.3,0,0,1-.7-3,20.9,20.9,0,0,1,0-2.5,3.5,3.5,0,0,1,1-2.9,14.2,14.2,0,0,0,1.8-.8c.7-.4,1-1.3,1.4-2.1a3.1,3.1,0,0,1,2.7-1.8,1.9,1.9,0,0,1,2,2.2c1,.7,2.3-.3,2.9-1.4s1.5-2.3,2.7-2.2,1.5.9,2.2,1.6,1.8,1.2,2.4.5l.6-.6c.3-.2.8.1,1,.5a5.3,5.3,0,0,1,.3,1.2,3.3,3.3,0,0,0,2.3,2.3,1.2,1.2,0,0,0,.2-1.5,1.8,1.8,0,0,1,2.3-.4,1.6,1.6,0,0,1,.8.6,5.8,5.8,0,0,1,1.1,3.4c.5,3.5.9,6.9,1.3,10.4h.8a2.6,2.6,0,0,0,2-.8,3.4,3.4,0,0,1,1.6-.8Z"/><path class="cls-22" d="M474,162.2h-.4c0-.6-.1-1.1-.1-1.6h-.3c.1.5.1,1.1.2,1.6v.6h.2v.5a3,3,0,0,0-1.7.8,2.5,2.5,0,0,1-1.9.8h-.8c-.4-3.5-.8-6.9-1.3-10.4a5.8,5.8,0,0,0-1.1-3.4,1.6,1.6,0,0,0-.8-.6l.3-.7.6.2a16,16,0,0,1,2.1.5,4.9,4.9,0,0,1,1.5,1,14,14,0,0,1,1.6,2.6,24.3,24.3,0,0,1,1.7,6A15,15,0,0,1,474,162.2Z"/><path class="cls-23" d="M468.5,141.7c4,5.2,5.5,11.9,5.4,18.5h-.1a24.3,24.3,0,0,0-1.7-6,14,14,0,0,0-1.6-2.6h.3c-.7-2.7-3.1-4.4-5.4-6l-6.9-4.7a34.8,34.8,0,0,0-3.6-2.2,14.5,14.5,0,0,0-5-1.5v.3l-1.8-.3a13.7,13.7,0,0,0-3.5,0h-.2v-.3a36.6,36.6,0,0,1,7-2.5C457.7,133.2,464.4,136.5,468.5,141.7Z"/><path d="M473.6,162.3v.6h-.1a1.3,1.3,0,0,1-.1-.6Z"/><path d="M473.5,160.7c0,.5.1,1,.1,1.6h-.1a1.3,1.3,0,0,0,.1.6h-.2v-.6c-.1-.5-.1-1.1-.2-1.6Z"/><path class="cls-21" d="M473.6,163.4h0c-1.3.1-2.3,1.8-3.6,1.6h0a2.5,2.5,0,0,0,1.9-.8A3,3,0,0,1,473.6,163.4Z"/><path class="cls-24" d="M470.8,151.5h-.3a4.9,4.9,0,0,0-1.5-1,16,16,0,0,0-2.1-.5l-.6-.2a12.4,12.4,0,0,1-2.7-1.7,68.8,68.8,0,0,1-5.5-5.3,10.7,10.7,0,0,0-1.6-1.4,17.9,17.9,0,0,0-6.7-4.1v-.3a14.5,14.5,0,0,1,5,1.5,34.8,34.8,0,0,1,3.6,2.2l6.9,4.7C467.7,147.1,470.1,148.8,470.8,151.5Z"/><path class="cls-25" d="M469.5,174.8v15.7h-.2V174.9h.2Z"/><path class="cls-25" d="M469.3,174.9v15.6H469V175.2h.2l-.2-.2h.3Z"/><path class="cls-25" d="M469.3,174.8h0Z"/><path class="cls-26" d="M469.3,190.5l-1.4.5a5.7,5.7,0,0,0-2.2.4,14,14,0,0,0-4.1,3.6l-4.7,5.1a2.8,2.8,0,0,1-1.6,1.2,3.2,3.2,0,0,1-2.4-.8,25,25,0,0,1-6.9-7.9,9.8,9.8,0,0,0-1.7-2.3,2.3,2.3,0,0,0-2.1-.3l-.3-.7a13.2,13.2,0,0,0,2.8-8.5l.2-.3.8.8c2.3,2,5.6,2.3,9,2.4H456a7.5,7.5,0,0,0,2.6-.4,8.9,8.9,0,0,0,3.2-2.1l7.2-6.1v15.3Z"/><path class="cls-9" d="M469,174.9l.2.2H469Z"/><path class="cls-9" d="M469,174.9v.3l-7.2,6.1a8.9,8.9,0,0,1-3.2,2.1,7.5,7.5,0,0,1-2.6.4h-1.3c-3.4-.1-6.7-.4-9-2.4l-.8-.8v-.2l.8.8c2.4,2,5.8,2.3,8.9,2.4a9.7,9.7,0,0,0,3.8-.3,11.1,11.1,0,0,0,3.2-2.1l7.3-6.2Z"/><polygon class="cls-26" points="469 174.9 469 174.9 469 174.9 469 174.9"/><path class="cls-9" d="M468.9,174.7v.2l-7.3,6.2a11.1,11.1,0,0,1-3.2,2.1,9.7,9.7,0,0,1-3.8.3c-3.1-.1-6.5-.4-8.9-2.4l-.8-.8a18.7,18.7,0,0,1-2-2.9,69.4,69.4,0,0,1-5.7-11.6,2.5,2.5,0,0,1-.1-1.9,1.1,1.1,0,0,1,1-.6.8.8,0,0,1,.7.3l-.2.2a.5.5,0,0,0-.5-.3.8.8,0,0,0-.7.5,2.3,2.3,0,0,0,.1,1.8,55.2,55.2,0,0,0,5.7,11.4,13.2,13.2,0,0,0,1.9,2.9,3,3,0,0,0,.8.8c2.2,1.9,5.4,2.2,8.7,2.3a8.2,8.2,0,0,0,3.8-.3,9.8,9.8,0,0,0,3-2Z"/><path class="cls-27" d="M466.3,149.9l-.3.7a1.8,1.8,0,0,0-2.3.4,1.2,1.2,0,0,1-.2,1.5,3.3,3.3,0,0,1-2.3-2.3,5.3,5.3,0,0,0-.3-1.2c-.2-.4-.7-.7-1-.5l-.6.6c-.6.7-1.8.2-2.4-.5s-1.3-1.5-2.2-1.6-2,1.2-2.7,2.2-1.9,2.1-2.9,1.4a1.9,1.9,0,0,0-2-2.2,3.1,3.1,0,0,0-2.7,1.8c-.4.8-.7,1.7-1.4,2.1a14.2,14.2,0,0,1-1.8.8,3.5,3.5,0,0,0-1,2.9,20.9,20.9,0,0,0,0,2.5l-1.9.2a39.3,39.3,0,0,0-.6-4.8h-.2v-.3h.2c.4-3,2.3-5.5,4.2-7.8a8.6,8.6,0,0,1,1.9-1.9,10.6,10.6,0,0,1,2.5-.9c3.8-.8,7.8-.4,11.7.2l.2-.2a68.8,68.8,0,0,0,5.5,5.3A12.4,12.4,0,0,0,466.3,149.9Z"/><path d="M464.7,310.8a10.8,10.8,0,0,0-.7-3.1l-1.2-3.1h.1l1.2,3.1a8.7,8.7,0,0,1,.7,3.1,3.2,3.2,0,0,1-1.4,2.8,3.4,3.4,0,0,1-1.9.5h-1.3a4.7,4.7,0,0,1-1.9-.6,4.1,4.1,0,0,1-.7-1.1h-.1a47.2,47.2,0,0,1-3.5-7.9h.1a37.6,37.6,0,0,0,3.6,7.9,4.1,4.1,0,0,0,.7,1.1,2.9,2.9,0,0,0,1.8.5,4.4,4.4,0,0,0,3.2-.3A3.5,3.5,0,0,0,464.7,310.8Z"/><path d="M464,307.7a10.8,10.8,0,0,1,.7,3.1,3.5,3.5,0,0,1-1.3,2.7,4.4,4.4,0,0,1-3.2.3,2.9,2.9,0,0,1-1.8-.5,4.1,4.1,0,0,1-.7-1.1,37.6,37.6,0,0,1-3.6-7.9,11.7,11.7,0,0,1-.5-2h.1a19.4,19.4,0,0,0,.5,2,47.5,47.5,0,0,0,3.6,7.9h0a3.6,3.6,0,0,0,.7,1,2.6,2.6,0,0,0,1.7.5,5.4,5.4,0,0,0,3.1-.3,3.2,3.2,0,0,0,1.2-2.6,6.5,6.5,0,0,0-.6-3,30.5,30.5,0,0,0-1.3-3.2l-1.2-2.9h.1c.4,1,.8,2,1.3,3Z"/><path class="cls-6" d="M463.9,307.8a6.5,6.5,0,0,1,.6,3,3.2,3.2,0,0,1-1.2,2.6,5.4,5.4,0,0,1-3.1.3,2.6,2.6,0,0,1-1.7-.5,3.6,3.6,0,0,1-.7-1h0a47.5,47.5,0,0,1-3.6-7.9,19.4,19.4,0,0,1-.5-2h-.1l.2-.4,1.9.4a11.3,11.3,0,0,0,5.7-.9v.2h-.1l1.2,2.9A30.5,30.5,0,0,1,463.9,307.8Z"/><path d="M462.9,304.5h0Z"/><path d="M462.9,304.5h-.1A.1.1,0,0,0,462.9,304.5Z"/><path d="M462.8,304.4h0c-.5-1-.9-2-1.3-3h.1l1.2,2.8Z"/><path d="M461.3,409h-.1a55.9,55.9,0,0,1-1.3-14.7c.2-4.4,1-8.7.9-13.1-.2-7-2.6-13.7-5-20.2l-4.5-12.3a1.7,1.7,0,0,0-.6-1c-.8-.5-1.7.6-2.1,1.4a239.4,239.4,0,0,0-16.5,60.4h-.2a238.5,238.5,0,0,1,16.6-60.4,3.2,3.2,0,0,1,1.4-1.6,1,1,0,0,1,.9.1c.4.2.5.7.7,1,.7,2.1,1.4,4.1,2.2,6.2l2.2,6.1c2.4,6.5,4.8,13.2,5,20.3a56.4,56.4,0,0,1-.5,8.2c-.1,1.6-.3,3.3-.4,4.9A56.3,56.3,0,0,0,461.3,409Z"/><path class="cls-1" d="M461.2,409v2l-29.1.4v-1.9h.1a234.8,234.8,0,0,1,16.6-60.3,2.6,2.6,0,0,1,1.2-1.5.7.7,0,0,1,.6.1,1.5,1.5,0,0,1,.6.9l2.3,6.2c.7,2,1.4,4.1,2.2,6.1,2.3,6.5,4.7,13.2,4.9,20.2a72,72,0,0,1-.4,8.1c-.2,1.7-.3,3.4-.4,5a52,52,0,0,0,1.3,14.7Z"/><path d="M461.2,409h-.1a52,52,0,0,1-1.3-14.7c.1-1.6.2-3.3.4-5a72,72,0,0,0,.4-8.1c-.2-7-2.6-13.7-4.9-20.2-.8-2-1.5-4.1-2.2-6.1l-2.3-6.2a1.5,1.5,0,0,0-.6-.9.7.7,0,0,0-.6-.1,2.6,2.6,0,0,0-1.2,1.5,234.8,234.8,0,0,0-16.6,60.3h-.1a239.4,239.4,0,0,1,16.5-60.4c.4-.8,1.3-1.9,2.1-1.4a1.7,1.7,0,0,1,.6,1l4.5,12.3c2.4,6.5,4.8,13.2,5,20.2.1,4.4-.7,8.7-.9,13.1A55.9,55.9,0,0,0,461.2,409Z"/><path class="cls-23" d="M458.1,142.9l-.2.2c-3.9-.6-7.9-1-11.7-.2a10.6,10.6,0,0,0-2.5.9,8.6,8.6,0,0,0-1.9,1.9c-1.9,2.3-3.8,4.8-4.2,7.8h-.2c-2.2-1.1-2.5-4-2.5-6.4a10.4,10.4,0,0,1,1-4.7c1.5-3,4.8-4.9,8.4-5.4h.2a13.7,13.7,0,0,1,3.5,0l1.8.3a17.9,17.9,0,0,1,6.7,4.1A10.7,10.7,0,0,1,458.1,142.9Z"/><path class="cls-6" d="M457.1,285.4l.2.2-1.5,1.3c-1.6,1.1-2.3.6-4.1.6h-.3a2.2,2.2,0,0,1-.9-.8l-.4-.4h.2l-5.7-18.3,5.2-2.1,1.2-.6C452.9,271.9,455,278.6,457.1,285.4Z"/><path class="cls-4" d="M456.9,503.5v.2c-14.5,7.2-29.4,13.7-44.5,19.4a46.2,46.2,0,0,1-9.6,2.9c-5,.9-10.2.3-15.2-.3-19.8-2.1-39.5-4.3-59-7.8l-2.9-.5-4.1-.8-2.3-.4-6.1-1.1-1.9-.3-7.3-1.1h-1.5l-1.6-.2-1.7-.2h-1.5a.9.9,0,0,1-.1-1.8c2.3-.4,4.5-.8,6.8-1l1.2-.2h5.7a97.3,97.3,0,0,1,15.2,2q19.5,3.4,39,5.7c4.7.6,9.4,1.1,14.2,1.3a116.1,116.1,0,0,0,62-15.2v-.3Z"/><path class="cls-28" d="M454.5,260.9a2.9,2.9,0,0,1-1,2.5,11,11,0,0,1-2.5,1.7l-1.2.6-5.2,2.1h-.4a7.1,7.1,0,0,1-4.9.7,3.1,3.1,0,0,1-1.3-.6,10.4,10.4,0,0,1-3-3.8c-1.5-2.6-3.1-5.3-3.5-8.3l-.3-.2v-.6c.3-3.2,2.9-5.7,5.3-7.9a2.7,2.7,0,0,1,1.2-.9h1.7a34.6,34.6,0,0,0,5.6.2h0c1.6-.1,3.6-.2,4.6,1.1s.7,2.5,1,3.7a18.6,18.6,0,0,0,2.5,4.3A11,11,0,0,1,454.5,260.9Z"/><path d="M454.1,304.3H454a9.7,9.7,0,0,1-.5-2h.1A11.7,11.7,0,0,0,454.1,304.3Z"/><path class="cls-19" d="M454,304.4h-.5l-1.8-.3h-.4v-.3h-.2c-9.4-1.4-19.3-2.8-28.5-5.8l-2-.6-4.7-1.4h0a5.3,5.3,0,0,1,.3-2.4,37.5,37.5,0,0,0,1.4-19.1h-.1l-.2-1.3a188.2,188.2,0,0,0,20.6-5.2h0a3.1,3.1,0,0,0,1.3.6,7.1,7.1,0,0,0,4.9-.7h.4l5.7,18.3H450a1.1,1.1,0,0,0-.7-.3h-.7a2.2,2.2,0,0,0-1.6.9,4.8,4.8,0,0,0-.7,2,5.6,5.6,0,0,0-.1,3.6,9.6,9.6,0,0,0,1.8,2.2c1.9,2,2.5,5.1,4.8,6.6l1,.6-.2.4h-.1A9.7,9.7,0,0,0,454,304.4Z"/><path d="M451.7,287.5h-.3c-.6-.2-1-.9-1.5-1.3h.2l.4.4a2.2,2.2,0,0,0,.9.8Z"/><path d="M451.7,287.5v.2h-.2a2.8,2.8,0,0,1-1.1-.8,1.2,1.2,0,0,0-.5-.5.9.9,0,0,0-.6-.3h.1a.9.9,0,0,1,.6.3h0c.5.4.9,1.1,1.5,1.3h.3Z"/><path class="cls-21" d="M451.4,303.9v.3c-9.7-1.4-19.4-2.9-28.7-5.8l-6.5-2h0c0-.1-.1-.1-.1-.2h0l4.7,1.4,2,.6c9.2,3,19.1,4.4,28.5,5.8Z"/><path class="cls-21" d="M451.3,304.2v.2h-.1c-9.5-1.4-19.4-2.9-28.7-5.8l-2-.6-4.2-1.3h0l-.2-.3,6.5,2C431.9,301.3,441.6,302.8,451.3,304.2Z"/><path d="M450,286.1h-.1a.9.9,0,0,0-.6-.3h0A1.1,1.1,0,0,1,450,286.1Z"/><path d="M445,245.9h-.1c-6.3-16.7-12.7-33.4-18.6-50.2h.1C432.3,212.5,438.8,229.5,445,245.9Z"/><path class="cls-9" d="M445,180.3v.2h-.1a25.1,25.1,0,0,1-2-2.9,69.4,69.4,0,0,1-5.7-11.6,3.3,3.3,0,0,1-.1-2.2,1.4,1.4,0,0,1,1.2-.7v.3a1.1,1.1,0,0,0-1,.6,2.5,2.5,0,0,0,.1,1.9,69.4,69.4,0,0,0,5.7,11.6A18.7,18.7,0,0,0,445,180.3Z"/><path class="cls-6" d="M444.9,246v.5a34.6,34.6,0,0,1-5.6-.2h-1v-.7h.1a216.2,216.2,0,0,1-7.8-21.7c-2.6-8.4-5.3-17-9.3-25h.1a53.5,53.5,0,0,0-3.3-11c-8.3-21.5-17.4-42.7-26.6-63.8l-.4-.4c-2-5.4-4.9-10.3-7.3-15.5-3.5-7.6-7.5-15.1-11.4-22.6-6.5-12.3-12.9-24.7-19.8-36.9-3.2-5.7-7-11-10.5-16.5s-7-10.8-10.9-16-6.5-8.4-9.9-12.4h.1c-.4-.7-1.1-1.4-1.4-2.1V1.2c-.2-.5-.2-1,.2-1.2h.5A4.8,4.8,0,0,1,323,1.9c5.4,6.4,10.6,12.9,15.7,19.5a96.7,96.7,0,0,1,6.7,9.1c1.7,2.6,2.9,4.8,4.6,7.4,3.7,5.7,7.5,11.4,10.8,17.3,6.7,11.9,13.1,23.9,19.3,36.2s11.9,24.5,17.4,37c7.4,16.7,14.8,33.4,21.9,50.2,2.4,5.7,4.8,11.4,7.1,17.1h-.3c5.9,16.8,12.4,33.8,18.6,50.2Z"/><path d="M444.9,246h-.1c-6.2-16.4-12.7-33.4-18.6-50.2h.1C432.2,212.6,438.6,229.3,444.9,246Z"/><path class="cls-27" d="M441.3,162.7a1.5,1.5,0,0,1-.9,1.6,1.1,1.1,0,0,1-1.1-.6h-.2a1.1,1.1,0,0,0-.9-.5v-.4h.1c.1-1.3,0-2.6,0-3.9l1.9-.2a6.3,6.3,0,0,0,.7,3A5.6,5.6,0,0,1,441.3,162.7Z"/><path class="cls-9" d="M439.1,163.5h-.2a.8.8,0,0,0-.7-.3V163A1.1,1.1,0,0,1,439.1,163.5Z"/><path d="M438.4,245.4h-.1c-6.8-15.1-9.7-31.9-17.1-46.7h.1c4,8,6.7,16.6,9.3,25A216.2,216.2,0,0,0,438.4,245.4Z"/><path d="M438.3,158.7c0,1.3.1,2.6,0,3.9h-.1c0-1.3,0-2.6-.1-3.9Z"/><path class="cls-19" d="M438.3,245.5v.7h-.7a2.7,2.7,0,0,0-1.2.9c-2.4,2.2-5,4.7-5.3,7.9h-.6l-5.5,1.7-3.5.8a24.4,24.4,0,0,1-3.8-.1v-.5h.1a35.1,35.1,0,0,1,2.4-13.2h-.5a4.5,4.5,0,0,0,.7-3v-.9H422v-.3h-1.4a38.3,38.3,0,0,1-14.4-3.7,40.9,40.9,0,0,1-6.4-3.7,2.9,2.9,0,0,1-1.5-2.2,3.3,3.3,0,0,1,.4-1.3c2.3-4.6,5.1-9,7.7-13.2s5.1-8.2,7.3-12.4c.2-.5.5-.9.7-1.4l1.5-2.8h0a10.2,10.2,0,0,0,4.2-.9l.3-.2.7,1.3c4,8,6.7,16.6,9.3,24.9s4.6,14.8,7.8,21.8Z"/><path d="M438.3,245.5h-.1c-3.2-7-5.5-14.5-7.8-21.8s-5.3-16.9-9.3-24.9l-.7-1.3h.2l.6,1.3C428.6,213.6,431.5,230.4,438.3,245.5Z"/><path d="M438.3,158.7h-.2a39.3,39.3,0,0,0-.6-4.8h.2A39.3,39.3,0,0,1,438.3,158.7Z"/><path d="M438.1,158.7c.1,1.3.1,2.6.1,3.9h-.1c0-1.3,0-2.6-.1-3.9a39.3,39.3,0,0,0-.6-4.8h.1A39.3,39.3,0,0,1,438.1,158.7Z"/><path class="cls-10" d="M438,268h0a188.2,188.2,0,0,1-20.6,5.2l-3.5.6a21,21,0,0,1-7.5.2,8,8,0,0,1-5.8-4.3,8.7,8.7,0,0,1-.4-4.5c.3-1.5.8-3,1.2-4.5a44.3,44.3,0,0,0,1.5-16.2v-.3a48,48,0,0,0,2.9-8l.2-.3a38.7,38.7,0,0,0,14.5,3.6h0v.9a4.5,4.5,0,0,1-.7,3c-.6,1-1.3,1.9-1.8,2.9-2.3,5.2-6.6,8.5-10.4,10.9h.1a25.7,25.7,0,0,1,6.8-.3l3.2.3a24.4,24.4,0,0,0,3.8.1l3.5-.8,5.5-1.7h.6v.6l.3.2c.4,3,2,5.7,3.5,8.3A10.4,10.4,0,0,0,438,268Z"/><path d="M421.3,198.7h-.1l-.6-1.3h.1Z"/><path class="cls-21" d="M420.4,243.6h0a35.1,35.1,0,0,0-2.4,13.2h-.1a32.9,32.9,0,0,1,2.4-13.2h.1Z"/><path class="cls-21" d="M420.2,243.6h.1a32.9,32.9,0,0,0-2.4,13.2h-.1A33.7,33.7,0,0,1,420.2,243.6Z"/><path class="cls-29" d="M419.9,243.5h.3a33.7,33.7,0,0,0-2.4,13.3h.1v.5l-3.2-.3a25.7,25.7,0,0,0-6.8.3h-.1c3.8-2.4,8.1-5.7,10.4-10.9C418.6,245.4,419.3,244.5,419.9,243.5Z"/><path class="cls-3" d="M417.5,274.7a39,39,0,0,1-1.4,18.9,4.2,4.2,0,0,0-.3,2.4h-.3l-.2.4h.7v.2h.1v.4H416c-.6,3.6-1.2,7-1.7,10.4l-1.5-.3-88.3-21.5c-14.8-3.6-29.8-7.3-45-8.6a163.7,163.7,0,0,0-19.8-.5,361.3,361.3,0,0,1,10-50.8c4.2,2,8.4,4.1,12.4,6.3,24.4,13,47.9,28.7,74.6,36.1,14.1,3.9,30.3,5.2,42.3-3.1l1.2.2a8.7,8.7,0,0,0,.4,4.5,8,8,0,0,0,5.8,4.3,21,21,0,0,0,7.5-.2l3.5-.6.2,1.3Z"/><path d="M416.1,297.1h.1c-.6,3.6-1.1,7-1.6,10.3-1.7,11.2-3,22.5-3.8,33.7s-1.2,21-1.2,31.5v3.8a173.3,173.3,0,0,1-.7,19l-.3,3.1c-.4,3.7-.9,7.7-.4,11.5h-.1c-.6-4.8.2-9.7.7-14.6.8-7.6.6-15.2.7-22.8q0-15.7,1.2-31.5c.8-11.3,2.1-22.5,3.7-33.7C415,304,415.5,300.6,416.1,297.1Z"/><path d="M416,297.1h.1c-.6,3.5-1.1,6.9-1.7,10.4h-.1C414.8,304.1,415.4,300.7,416,297.1Z"/><path class="cls-21" d="M415.9,296.4c0,.1,0,.1.1.2h-.7l.2-.4h.3C415.8,296.2,415.8,296.3,415.9,296.4Z"/><path d="M414.3,307.5h.1c-1.6,11.2-2.9,22.4-3.7,33.7h-.1C411.4,330,412.6,318.7,414.3,307.5Z"/><path class="cls-2" d="M412.8,307.2l1.5.3c-1.7,11.2-2.9,22.5-3.7,33.7H259.5a271.4,271.4,0,0,1,.2-64.3h0a163.7,163.7,0,0,1,19.8.5c15.2,1.3,30.2,5,45,8.6Z"/><path d="M410.6,341.2h.1q-1.2,15.8-1.2,31.5c-.1,7.6.1,15.2-.7,22.8-.5,4.9-1.3,9.8-.7,14.6h-.2a50.1,50.1,0,0,1,.5-11.6l.3-3c.6-6.3.6-12.8.6-19v-3.8C409.4,362.2,409.8,351.6,410.6,341.2Z"/><path class="cls-1" d="M355.9,501.9l-.9.2a2.4,2.4,0,0,1-.2-.8A.9.9,0,0,0,355.9,501.9Z"/><path class="cls-1" d="M339.6,452.1c-1.9-6.2-3.9-12.3-5.9-18.4C335.7,439.8,337.7,445.9,339.6,452.1Z"/><path class="cls-1" d="M330.5,424l-3.3-10Z"/><path class="cls-1" d="M326.8,412.8h1.3a.9.9,0,0,0-.9,1.2A5.6,5.6,0,0,0,326.8,412.8Z"/><path d="M319.4,1.5h.5a309,309,0,0,0-20.7,77.3c-1.4,10.2-2,20.7-2.5,30.9-.9,14.6-1.7,29.7-4.8,44.2-2.6,12.7-7,25.1-11.2,37.1-1.4,4.1-2.9,8.3-4.2,12.4-2.5,7.4-4.8,14.9-6.8,22.3h0l-.5-.2c2.1-7.5,4.3-14.9,6.8-22.3,5.5-16.4,11.9-32.5,15.4-49.4,5.2-24.6,4-50.1,7.3-75.1A310.1,310.1,0,0,1,319.4,1.5Z"/><path d="M319,1.3l.4.2a310.1,310.1,0,0,0-20.7,77.3c-3.3,25-2.1,50.5-7.3,75.1-3.5,16.9-9.9,33-15.4,49.4-2.5,7.4-4.7,14.8-6.8,22.3l-.4-.2c2-7.3,4.2-14.8,6.7-22.2,1.4-4.2,2.9-8.4,4.3-12.4,4.2-12,8.5-24.4,11.2-37,3-14.5,3.8-29.5,4.7-44,.5-10.2,1.1-20.8,2.5-31A308.4,308.4,0,0,1,319,1.3Z"/><path class="cls-1" d="M305.6,510.1l-1.2.2Z"/><path class="cls-1" d="M302.5,513.6l-1.6-.2Z"/><path class="cls-1" d="M297.6,511.3a.9.9,0,0,0,.1,1.8,76.2,76.2,0,0,0-11.7,0C289.9,512.7,293.8,512,297.6,511.3Z"/><path d="M269.2,225.6l.5.2a361.3,361.3,0,0,0-10,50.8h-.5A356.3,356.3,0,0,1,269.2,225.6Z"/><path d="M268.8,225.4l.4.2a356.3,356.3,0,0,0-10,51h-.5a359.7,359.7,0,0,1,10-51.1Z"/><path class="cls-3" d="M268.8,225.4h-.1a359.7,359.7,0,0,0-10,51.1h0c-24.7.9-49.3,6.7-73.5,12.5-8.1,2-16.5,4-24.7,2.8s-17.1-6.2-26.1-8c-18.4-3.6-36.5,6.4-55,9-29.5,4.3-50.8-7.7-79-17.4H.2V223.6c28.2,3.4,52.3,23.5,80.5,26.8,14.4,1.7,28.9-1.2,43.1-4.4,25.7-5.8,51.2-12.7,76.3-20.8,11.7-3.8,23.7-7.8,36-7.8S258.3,220.8,268.8,225.4Z"/><path d="M263.7,372.6c3.9,43-9.8,86.4-21.9,124.6l-1-.3c12.1-38.1,25.8-81.4,21.9-124.2-.6-6.1-1.5-12.2-2.4-18.2-.6-3.9-1.2-7.9-1.7-11.9,0-.5-.1-1-.1-1.5h1c0,.5.1.9.1,1.4.5,4,1.1,8,1.7,11.9C262.2,360.3,263.1,366.5,263.7,372.6Z"/><path d="M259.7,276.6h0a271.4,271.4,0,0,0-.2,64.3H259a272.9,272.9,0,0,1,.2-64.5Z"/><path d="M258.7,276.6h.5a272.9,272.9,0,0,0-.2,64.5h-.5A273,273,0,0,1,258.7,276.6Z"/><path class="cls-2" d="M258.7,276.6a273,273,0,0,0-.2,64.5H.2V275.5H.4c28.2,9.7,49.5,21.7,79,17.4,18.5-2.6,36.6-12.6,55-9,9,1.8,17.1,6.7,26.1,8s16.6-.8,24.7-2.8C209.4,283.3,234,277.5,258.7,276.6Z"/></g></g></svg>