<svg xmlns="http://www.w3.org/2000/svg" viewBox="0 0 520.7 605.8"><defs><style>.cls-1{fill:#f4e7c1;}.cls-2{fill:#efc2b6;}.cls-3{fill:#efb650;}.cls-4{fill:#592f34;}.cls-5{fill:#ed8f20;}.cls-6{fill:#ff0c00;}.cls-7{fill:#fff;}.cls-8{fill:#e5a498;}.cls-9{fill:#231815;}.cls-10{fill:#a5600e;}.cls-11{fill:#42210b;}.cls-12{fill:none;stroke:#5b241a;stroke-miterlimit:10;}.cls-13{fill:#5b241a;}.cls-14{fill:#f77c72;}</style></defs><title>검색결과가 없을 때</title><g id="레이어_2" data-name="레이어 2"><g id="레이어_1-2" data-name="레이어 1"><path class="cls-1" d="M245.4,481c-6.9-4.6-9-13.9-10.5-22.2-1.2-6.7-2.4-13.4-3.3-20.2H231c.3,8.1-.7,16.6-5.3,23.3-3.4,4.9-8.4,8.4-13.7,11.2-9.7,5.3-21.3,8.7-32,5.5a17.7,17.7,0,0,1-7.1-3.9,27.5,27.5,0,0,1-4.5-6.1c-5.8-9.6-11.5-19.7-12.4-30.9a68.8,68.8,0,0,1,.4-12c.9-8.7,2.1-17.4,3.6-26h.2c1.1,13.1,2.4,26.2,3.8,39.3a51.6,51.6,0,0,0,1.9,10.4c4.7,14.3,22.1,22,36.6,18.4a31.3,31.3,0,0,0,18.8-13.1c4.5-7,5.5-15.7,4.5-23.9-1.3-10.8-5.9-20.8-8-31.3s-4.6-23.1-7-34.6c-4.7-22.7-9.7-45.3-15.5-67.8-.4-1.5-.9-3.1-1.2-4.7l17.2-22.2c1.7-2.3,3.5-4.6,5.4-6.8l2-2.4c11.2-12.8,25.7-22.5,41.1-29.7s31.1-12,47.1-16.4h0c2.5,3.5,6.9,4.9,11,5.9a152.2,152.2,0,0,0,41.5,4.3,43.9,43.9,0,0,0,12.5-1.7c5-1.7,9.3-4.8,13.6-7.8l.2.3c33.3-2.8,67.4,12.7,87.7,39.2a79.5,79.5,0,0,1,5.3,7.6c4.5,7.4,8.1,15.3,12.5,22.7,3.3,5.6,7.1,11,10.1,16.9s6,15,8.1,22.9a334.4,334.4,0,0,1,9.1,124.4c-1.3,11.5-3.2,23.2-.9,34.5.9,4.9,2.7,10.1,1.3,14.9s-6.4,8.6-11.5,9.9a30.1,30.1,0,0,1-5.9.9,65.8,65.8,0,0,1-9.9-.6,344.8,344.8,0,0,1-46.2-8.6v-1.4l.2-.6c-3.3-4.2-4.6-9.6-5.5-15l-1.5.3a5.8,5.8,0,0,1-3.1,2.2,22.1,22.1,0,0,1-4.2.8c-9.8.9-19.6,1.7-29.3.7-5.7-.6-11.3-1.8-17-2.4a165.1,165.1,0,0,0-18.6-.6q-60,.2-119.8-2.4l-.2.2-.3-.4-.9-.9Z"/><path class="cls-2" d="M501.5,509.9v.5c-7.1,22.1-14.9,44.1-23.2,65.8h-.4a201.1,201.1,0,0,0-10.5-23.2c-2.1-4.1-4.4-8-6.9-11.9s-5.5-7.9-8-12-5-9.4-8-13.7a120,120,0,0,0,.9-14.8,344.8,344.8,0,0,0,46.2,8.6A65.8,65.8,0,0,0,501.5,509.9Z"/><path class="cls-3" d="M246.3,505.6h.6c5.2,1.7,11,.6,16.5.4s12.4.7,18.6,1.4c50.9,6.1,102.4,2.5,153.5-1.2h.5v.5a29.7,29.7,0,0,1,8.5,8.8c3,4.3,5.3,9.2,8,13.7s5.3,8,8,12,4.8,7.8,6.9,11.9a201.1,201.1,0,0,1,10.5,23.2,184.5,184.5,0,0,1,8.2,29.3v.2H199.9c5.2-20.3,10.6-40.7,20.7-59.1,2.7-4.8,5.7-9.5,8.2-14.4,4.9-9.5,8.3-20.6,17.1-26.8h.4Z"/><path class="cls-4" d="M386.1,215.1c-4.1-2.9-6.5-7.8-7.3-12.8s-.4-10.2.1-15.3c1.2-13.6,2.5-27.1,3.8-40.7h0a22.6,22.6,0,0,0,17.5-8.5c4.3-5.3,6.3-12.3,6.4-19.1a14.7,14.7,0,0,0-1.3-6.9,11.2,11.2,0,0,0-9.2-6,16.8,16.8,0,0,0-10.8,3c-1.7,1.2-4.2,2.6-5.6,1.1a3.9,3.9,0,0,1-.8-2c-1.1-5.5-.4-11.8-3.8-16.3s-7.6-5.4-11.6-7.9c-12.4-7.6-16.6-23.8-27.7-33.1a19.8,19.8,0,0,0-7.1-3.9c-4.5-1.3-9.3-.3-13.7,1-9.4,2.8-18.9,7.5-23.6,16a40.4,40.4,0,0,0-3.3,9,145.1,145.1,0,0,0-1.7,66.5c2.1,10.2,5.5,20.4,11.8,28.6a46,46,0,0,0,18.9,14.3l-.3.7a152.2,152.2,0,0,1,.7,17.9c-.1,3.4-.3,7-2.5,9.6s-4.9,3.5-7.8,4.5h-.3c-16,4.4-32.1,9.3-47.1,16.4s-29.9,16.9-41.1,29.7l-2,2.4c-10.9-14-12.6-33.8-7.5-50.8s16.4-31.9,29.2-44.4c7.8-7.7,16.7-15.3,19.9-25.8s.7-19.7-.6-29.5A154.3,154.3,0,0,1,265,42.3c2-5.9,4.4-11.7,8.4-16.4s7.4-7.1,11.6-10C296.5,7.9,309.1.2,323.1,0s25.1,6.1,37.7,9.1,28,2.9,40.8,8.4C422,26.2,433.7,48.1,438,69.8s2.5,44,4.4,66.1c.9,10.2,2.6,20.5,7.3,29.6,3,5.9,7.3,11.1,11.1,16.5,14.8,21.2,23.3,49.6,12.6,73.1h0c-20.3-26.5-54.4-42-87.7-39.2l-.2-.3.4-.3Z"/><path class="cls-5" d="M246.4,482.5l.2-.2q59.9,2.6,119.8,2.4a165.1,165.1,0,0,1,18.6.6c5.7.6,11.3,1.8,17,2.4,9.7,1,19.5.2,29.3-.7a22.1,22.1,0,0,0,4.2-.8v20c-51.1,3.7-102.6,7.3-153.5,1.2-6.2-.7-12.4-1.6-18.6-1.4s-11.3,1.3-16.5-.4h-.6v-.2a144.8,144.8,0,0,1-.7-22.8l.5-.5Z"/><path class="cls-2" d="M382.7,146.3h0c-1.3,13.6-2.6,27.1-3.8,40.7-.5,5.1-1,10.3-.1,15.3s3.2,9.9,7.3,12.8l-.2.3-.4.3c-4.3,3-8.6,6.1-13.6,7.8a43.9,43.9,0,0,1-12.5,1.7,152.2,152.2,0,0,1-41.5-4.3c-4.1-1-8.5-2.4-11-5.9h.3c2.9-1,5.9-2.1,7.8-4.5s2.4-6.2,2.5-9.6a152.2,152.2,0,0,0-.7-17.9l.3-.7a46,46,0,0,1-18.9-14.3c-6.3-8.2-9.7-18.4-11.8-28.6a145.1,145.1,0,0,1,1.7-66.5,40.4,40.4,0,0,1,3.3-9c4.7-8.5,14.2-13.2,23.6-16,4.4-1.3,9.2-2.3,13.7-1a19.8,19.8,0,0,1,7.1,3.9c11.1,9.3,15.3,25.5,27.7,33.1,4,2.5,8.8,4.1,11.6,7.9s2.7,10.8,3.8,16.3a3.9,3.9,0,0,0,.8,2c1.4,1.5,3.9.1,5.6-1.1a16.8,16.8,0,0,1,10.8-3,11.2,11.2,0,0,1,9.2,6,14.7,14.7,0,0,1,1.3,6.9c-.1,6.8-2.1,13.8-6.4,19.1A22.6,22.6,0,0,1,382.7,146.3Z"/><path class="cls-2" d="M194.1,292.5c.3,1.6.8,3.2,1.2,4.7,5.8,22.5,10.8,45.1,15.5,67.8,2.4,11.5,4.7,23,7,34.6s6.7,20.5,8,31.3c1,8.2,0,16.9-4.5,23.9a31.3,31.3,0,0,1-18.8,13.1c-14.5,3.6-31.9-4.1-36.6-18.4a51.6,51.6,0,0,1-1.9-10.4c-1.4-13.1-2.7-26.2-3.8-39.3q-3.7-43.7-5.3-87.4c-.1-5.6-.3-11.4-2.8-16.5-.5-1.1-1.2-2.2-1.8-3.3l-1.2-2.1a45.9,45.9,0,0,1-2.9-8.1c-3.6-11.7-7.2-23.6-7-35.9a109.5,109.5,0,0,0,36.3-17.7,102,102,0,0,0,9.5-7.9,100.1,100.1,0,0,1,9,52c-.5,4.3-1.2,8.6-.9,12.9A37.4,37.4,0,0,0,194.1,292.5Z"/><path class="cls-6" d="M139.2,246.5a108.3,108.3,0,0,1-29.2,4,110.1,110.1,0,1,1,75-29.6c-1.3-2.8-2.8-5.5-4.3-8.1a8.5,8.5,0,0,0-2.9-3.3c-1.3-.7-3.1-.7-4,.5s-.5,2.2-.4,3.4l2.1,15.4A109.5,109.5,0,0,1,139.2,246.5Z"/><path class="cls-2" d="M180.7,212.8c1.5,2.6,3,5.3,4.3,8.1a102,102,0,0,1-9.5,7.9l-2.1-15.4c-.1-1.2-.3-2.4.4-3.4s2.7-1.2,4-.5A8.5,8.5,0,0,1,180.7,212.8Z"/><path class="cls-7" d="M165.9,199.1a6.6,6.6,0,0,1-4.7-1.9L106,145.9,70.6,113.1,53.2,96.9a7,7,0,0,1-.4-9.9,7.1,7.1,0,0,1,9.9-.4l17.4,16.2,35.4,32.9L170.7,187a6.9,6.9,0,0,1,.4,9.8A7.1,7.1,0,0,1,165.9,199.1Z"/><path class="cls-7" d="M59,197.4a7,7,0,0,1-5.1-2.2,7.1,7.1,0,0,1,.3-9.9c17.5-16.3,34.8-33,51.6-49.5s35.5-35.2,52.7-52.8a7,7,0,1,1,10,9.7c-17.3,17.8-35.1,35.6-52.9,53.1s-34.3,33.3-51.8,49.7A6.6,6.6,0,0,1,59,197.4Z"/><path class="cls-8" d="M334.2,186a48.7,48.7,0,0,1-7.6-.6,46.8,46.8,0,0,1-9.7-2.8,45.8,45.8,0,0,1-19.1-14.5c-5.5-7.2-9.3-16.3-11.9-28.8a145.9,145.9,0,0,1,1.7-66.7,42.1,42.1,0,0,1,3.3-9.1c4-7.3,12.1-12.7,23.9-16.2,4.3-1.3,9.3-2.4,14-1.1a20.4,20.4,0,0,1,7.3,4c5.1,4.3,8.9,10.1,12.5,15.7s8.5,13.3,15.1,17.4c1.2.7,2.4,1.4,3.7,2,2.9,1.6,6,3.2,8.1,6s2.8,7.4,3.2,11.4a41.8,41.8,0,0,0,.7,5.1,3.2,3.2,0,0,0,.6,1.7c.9,1,2.5.6,5-1.1a17,17,0,0,1,11.2-3.1,12.1,12.1,0,0,1,9.6,6.2,16.7,16.7,0,0,1,1.3,7.2,31.7,31.7,0,0,1-6.5,19.4,23.1,23.1,0,0,1-17.4,8.7h-.8v-1h.3c6.2.1,12.8-3.1,17.1-8.4a30.1,30.1,0,0,0,6.3-18.7,15.4,15.4,0,0,0-1.2-6.7,10.8,10.8,0,0,0-8.8-5.7,16.1,16.1,0,0,0-10.5,2.9c-1.2.8-4.4,3-6.3,1a3.6,3.6,0,0,1-.9-2.2c-.3-1.7-.5-3.4-.7-5.2-.4-4-.7-7.9-3-10.9s-4.8-4.1-7.8-5.7a34.7,34.7,0,0,1-3.7-2.1c-6.8-4.2-11.2-11-15.5-17.7S340.5,55.2,335.5,51a22.2,22.2,0,0,0-6.9-3.9c-4.5-1.2-9.3-.1-13.5,1.1-11.6,3.4-19.4,8.7-23.3,15.7a42.2,42.2,0,0,0-3.2,8.9,145.6,145.6,0,0,0-1.8,66.3c2.6,12.3,6.4,21.3,11.8,28.4a45.2,45.2,0,0,0,28.2,16.9,45.1,45.1,0,0,0,32.2-6.7l.5.9A47,47,0,0,1,334.2,186Z"/><path class="cls-9" d="M386.3,215.3H386c-3.8-2.7-6.4-7.2-7.3-12.9s-.4-10.3,0-15.3c.7-6.8,1.3-13.6,1.9-20.4s1.3-13.5,2-20.3c0-.1,0-.1.1-.1s.1,0,.1.1c-.6,6.8-1.3,13.5-1.9,20.3s-1.3,13.6-1.9,20.4c-.5,5-1,10.2-.1,15.3s3.5,10.1,7.3,12.7h.1c.1.1.1.1,0,.2Z"/><path class="cls-9" d="M307.2,214.9h-.1c0-.1,0-.1.1-.1,2.6-.9,5.8-2.1,7.7-4.4s2.4-6.4,2.5-9.6a153.9,153.9,0,0,0-.7-17.9c0-.1,0-.1.1-.1s.1,0,.1.1a153.9,153.9,0,0,1,.7,17.9c-.1,3.3-.3,7-2.5,9.7s-5.2,3.6-7.8,4.5Z"/><path class="cls-8" d="M399.2,126.3H399a.3.3,0,0,1-.1-.5,15.8,15.8,0,0,0,2.6-5.7,6.9,6.9,0,0,0-1.5-5.7c-2.1-2.3-5.8-2.2-9-1.9-.3,0-.4-.1-.4-.4s.1-.3.3-.4c3.4-.2,7.3-.3,9.7,2.2a7.5,7.5,0,0,1,1.6,6.3,16.6,16.6,0,0,1-2.7,6Z"/><path class="cls-8" d="M161.3,295.8a24,24,0,0,1-11.2-2.9c-.1,0-.2-.3-.2-.5s.3-.2.5-.2h.1c6.7,3.4,13.6,3.7,18.4.8.1-.1.4,0,.5.1a.7.7,0,0,1-.1.6A16.4,16.4,0,0,1,161.3,295.8Z"/><path class="cls-10" d="M245.9,481.8l-.7-.4c-7.1-4.7-9.3-14.1-10.8-22.5-1.1-6.3-2.3-13.3-3.3-20.2a188.6,188.6,0,0,1-2.3-28,280.6,280.6,0,0,1,2-29.1l.2-1.5c1.1-10.7,2.3-21.4,3.4-32.1.1-.3.3-.5.6-.4s.5.2.4.5c-1.1,10.7-2.3,21.4-3.4,32.1l-.2,1.5a278.7,278.7,0,0,0-2,29,197.8,197.8,0,0,0,2.2,27.8c1,6.9,2.3,14,3.4,20.2,1.5,8.2,3.6,17.4,10.3,21.9l.7.4Z"/><path class="cls-10" d="M446.9,500.6h-.3l-1.4-1.5c-3.4-4.4-4.8-10.2-5.6-15.2a27,27,0,0,1-.4-2.8c-4-27.4-6.1-55.5-8.1-82.7-1-13.4-2-27.3-.9-41a.6.6,0,0,1,.6-.5c.2,0,.4.3.4.6-1.1,13.6-.1,27.4.9,40.8,2,27.2,4.1,55.3,8.1,82.7a25.1,25.1,0,0,0,.4,2.7c.8,5,2.1,10.6,5.4,14.8l1.3,1.4a.5.5,0,0,1,0,.7Z"/><path class="cls-10" d="M366.4,484h-.2l-21.7-14a29,29,0,0,1-5.5-4.3,14.4,14.4,0,0,1-1.8-2.5,18.5,18.5,0,0,0-2.9-3.3c-.1-.2-.2-.4,0-.6a.4.4,0,0,1,.5,0,19.9,19.9,0,0,1,3,3.5,18.8,18.8,0,0,0,1.8,2.4,26.1,26.1,0,0,0,5.2,4.1l21.8,14a.5.5,0,0,1,.1.6Z"/><path class="cls-9" d="M248.3,484.4h-.1l-2-2-.2-.2-.9-.9h.2l.9.9c.1,0,.1.1.2.2l2,1.9v.2Z"/><path class="cls-10" d="M248.9,553.5h-.1c-.2,0-.3-.3-.2-.5l11.1-33.7a10.6,10.6,0,0,0,.8-5c0-.2.1-.4.3-.4s.4.1.4.3a9.9,9.9,0,0,1-.8,5.4l-11.1,33.7A.5.5,0,0,1,248.9,553.5Z"/><path class="cls-10" d="M413.9,542a.4.4,0,0,1-.4-.4c0-8.8-4.5-17.1-8.5-24.4,0-.1,0-.4.2-.5a.4.4,0,0,1,.5.2c4,7.3,8.5,15.7,8.6,24.7C414.3,541.8,414.1,541.9,413.9,542Z"/><path class="cls-10" d="M448.3,558.9c-.2,0-.3-.1-.4-.3-.7-3.7-2.8-7.1-4.6-10.1l-10.4-17.1c-3.4-5.7-6.9-11.4-10.4-17.1-.1-.1,0-.4.2-.5a.4.4,0,0,1,.5.2c3.5,5.6,6.9,11.3,10.4,17l10.3,17.1c1.9,3,4,6.5,4.8,10.4,0,.2-.1.4-.3.4Z"/><path class="cls-11" d="M472.2,113.8a2.1,2.1,0,0,1-1.7-1,2,2,0,0,1,.6-2.7l30.8-19.6a2.1,2.1,0,0,1,2.8.6,2.1,2.1,0,0,1-.6,2.8l-30.8,19.6A2.3,2.3,0,0,1,472.2,113.8Z"/><path class="cls-11" d="M480.7,132.8a1.9,1.9,0,0,1-1.9-1.6,2,2,0,0,1,1.6-2.3c11.7-2.3,23.8-4.3,35.9-6.1a2,2,0,0,1,2.3,1.7,1.9,1.9,0,0,1-1.7,2.2c-12,1.8-24.1,3.9-35.8,6.1Z"/><path class="cls-11" d="M511.3,161.2h-.7c-9.9-3.4-20.1-6.3-30.3-8.8a1.9,1.9,0,0,1-1.5-2.4,2,2,0,0,1,2.4-1.5c10.3,2.5,20.7,5.5,30.7,8.9a2.1,2.1,0,0,1,1.3,2.6A2.1,2.1,0,0,1,511.3,161.2Z"/><path class="cls-12" d="M299.5,95.3a13.7,13.7,0,0,1,6.2-2.4,13.3,13.3,0,0,1,7.5,1.2,15.6,15.6,0,0,1,4.9,3.7"/><path class="cls-12" d="M323.9,154.9l6.3,1.2a14.4,14.4,0,0,0,6.2-.1l6.7-1.6"/><ellipse class="cls-13" cx="308.7" cy="109.4" rx="4" ry="7.4"/><ellipse class="cls-13" cx="352.9" cy="108.9" rx="3.7" ry="6.9"/><path class="cls-13" d="M327.9,120.3c-.8,2.5-1.6,5-2.3,7.5s-.6,4,.7,5.7a7.4,7.4,0,0,0,4.2,2.4c1.8.4,3.9.6,5.4-.4s.1-.9-.3-.7-3.5.8-5.1.4a6.5,6.5,0,0,1-3.9-2.6c-1.1-1.8-.4-3.9.1-5.8s1.3-4.2,1.9-6.3c.1-.5-.6-.7-.7-.2Z"/><path class="cls-12" d="M347.3,95.4a13.1,13.1,0,0,1,6.2-2.5,13.5,13.5,0,0,1,7.5,1.2,15.6,15.6,0,0,1,4.9,3.7"/><circle class="cls-14" cx="372" cy="134.3" r="6.5"/><circle class="cls-14" cx="296.5" cy="135.3" r="6.5"/></g></g></svg>