<svg id="레이어_1" data-name="레이어 1" xmlns="http://www.w3.org/2000/svg" viewBox="0 0 924.1 674.9"><defs><style>.cls-1{fill:#e9e6ef;}.cls-2{fill:#514d41;}.cls-3{fill:#fffee9;}.cls-4{fill:#f2cbb1;}.cls-5{fill:#ddb580;}.cls-6{fill:#dba85e;}.cls-7{fill:#b2b0ad;}.cls-8{fill:#dd2872;}.cls-9{fill:#e2810e;}.cls-10{fill:#eabb9b;}.cls-11{fill:#0f35f2;}.cls-12{fill:#5e5458;}.cls-13{fill:#a5a5a5;}.cls-14{fill:#fff;}.cls-15{fill:#897945;}.cls-16{fill:#1f2638;}.cls-17{fill:#62efaf;}.cls-18{fill:#2d69a0;}.cls-19{fill:#d06e57;}.cls-20{fill:#5c15cc;}.cls-21{fill:#fd9e68;}.cls-22{fill:#151616;}.cls-23{fill:#ea7b44;}.cls-24{fill:#d9ea03;}.cls-25{fill:#342e30;}.cls-26{fill:#ff1800;}.cls-27{fill:#7fc9ea;}.cls-28{fill:#444649;}.cls-29{fill:#a0a0a0;}.cls-30{fill:#6d6d6d;}.cls-31{fill:#1140c1;}.cls-32{fill:#232220;}.cls-33{fill:#aae4f9;}.cls-34{fill:#7111ef;}.cls-35,.cls-36,.cls-37,.cls-38,.cls-39,.cls-40,.cls-41,.cls-42,.cls-43,.cls-44,.cls-45,.cls-46{fill:none;stroke-miterlimit:10;}.cls-35{stroke:#e2a983;}.cls-35,.cls-37,.cls-38,.cls-40,.cls-41,.cls-44,.cls-46{stroke-width:0.5px;}.cls-36{stroke:#000;}.cls-36,.cls-42{stroke-width:0.2px;}.cls-37{stroke:#1b4ca5;}.cls-38,.cls-39{stroke:#e2a379;}.cls-39,.cls-43,.cls-45{stroke-width:0.25px;}.cls-40{stroke:#4d4d4d;}.cls-41,.cls-42,.cls-43{stroke:#1b1464;}.cls-44{stroke:#9b8353;}.cls-45,.cls-46{stroke:#e0a379;}</style></defs><title>핵인싸</title><path class="cls-1" d="M1000,589c-2.9,6.5-6.1,12.8-9.4,19.2-2.4,4.7-4.8,9.4-8.2,13.4-1.9,2.3-5,4.4-7.6,3s-2.5-3.4-2.5-5.5c0-4.8,1.9-9.3,3.4-13.8.9-2.6,1.6-5.3,2.3-7.9h0a.8.8,0,0,0,.5,1,1.9,1.9,0,0,0,1.8-.3c4.8-2.4,8.5-6.7,11.1-11.3s4.4-9.8,6.1-14.9a35.5,35.5,0,0,0,1.7-6.4l3.3,4a8.8,8.8,0,0,1,2.4,3.6c.5,1.9-.1,3.9-.8,5.8C1002.9,582.3,1001.5,585.6,1000,589Z" transform="translate(-174.7 -41.9)"/><path class="cls-1" d="M856.6,603.3c1.8,3.9,4.1,7.7,2.7,11.6s-5.4,5.4-9.3,6-9,.3-13.6.5a51.3,51.3,0,0,0-12.9,2.2c-3.6,1.1-7.1,2.5-10.7,3.1s-7.8.3-10.8-2a5.7,5.7,0,0,1-2.4-5.1,6.1,6.1,0,0,1,2.1-3.4,12.6,12.6,0,0,1,5.7-3,50.6,50.6,0,0,1,5.3-.6h.4a1.6,1.6,0,0,0-.9.7c-.7,1.3,1.2,2.2,2.6,2.4C829,617.3,845.2,612,856.6,603.3Z" transform="translate(-174.7 -41.9)"/><path class="cls-2" d="M856.6,603.3c-.4-.9-.8-1.8-1.1-2.7a25.6,25.6,0,0,1-.8-11.7H979.5q-.6,4.2-1.5,8.4c-.7,2.6-1.4,5.3-2.3,7.9-1.5,4.5-3.4,9-3.4,13.8,0,2.1.6,4.5,2.5,5.5s5.7-.7,7.6-3c3.4-4,5.8-8.7,8.2-13.4,3.3-6.4,6.5-12.7,9.4-19.2h62.5c5.7,18.5,13.4,36.3,21,54.1l15.3,35.7v.7H174.7v-.6Q195.9,634.7,213,589H402.9a36.8,36.8,0,0,1-1.2,13.2l-.3,1.3h-.8a12.4,12.4,0,0,0-1.3,11.8,10.9,10.9,0,0,1,1.3,3.4c0,1-.4,2-.5,3a2.6,2.6,0,0,0,.8,2.7,7.3,7.3,0,0,0,2.1.6,18.4,18.4,0,0,1,2.5.9,2.5,2.5,0,0,0,2.5-.6c.4-.4.5-1.1,1-1.4a2,2,0,0,1,1.6.4c2.6,1.7,4.9,3.9,7.7,5.2a23.2,23.2,0,0,0,5.1,1.6,85.4,85.4,0,0,0,19.5,1.9c1.1,0,2.4-.1,3-1s.4-2.5-.2-3.7a16.6,16.6,0,0,0-7.7-7.1h-.1a.7.7,0,0,0-.1-.5,2,2,0,0,0-.9-.7,65.2,65.2,0,0,1-15.1-11.4,15.5,15.5,0,0,1-2.4-2.8,12.8,12.8,0,0,1-1.8-4.7,41.6,41.6,0,0,1-.7-12.7h123a1.3,1.3,0,0,0,.4.7v.3a24,24,0,0,1-5.3,3.7l-1.7,1.1a31.1,31.1,0,0,0-5.2,4.4c-3.7,3.9-7.1,8.3-12,10.5a1.1,1.1,0,0,0-.7.6,1.3,1.3,0,0,0,.3,1c1.3,2,2.8,4.1,5,5a13.4,13.4,0,0,0,3.9.7c2.2,0,4.3.1,6.5,0a20.1,20.1,0,0,0,6.4-.8,25.5,25.5,0,0,0,5.5-2.7l5.8-3.4a71.7,71.7,0,0,0,6.9-4.3,12.9,12.9,0,0,0,3-2.7c2.1-3.1,1.3-7.2.3-10.8a1.3,1.3,0,0,0-.6-1h-.2v-.3c0-.5-.1-1-.1-1.5H700c-.1,2.5-.2,4.9-.4,7.4a6.9,6.9,0,0,0,.4,3.2,5.2,5.2,0,0,0,1.4,1.6c5.4,4.6,12.6,6.5,19.6,7.9s15.3,2.5,22.2-.6c1-.5,2.2-1.3,2.2-2.5s-.7-1.5-1.3-2.1c-3.6-3.2-8.2-4.9-12.5-6.9a44,44,0,0,1-5.6-3.1,19.3,19.3,0,0,1-4-3.5l-1.1-1.4H840.5a23.4,23.4,0,0,1,.3,3.8,8.9,8.9,0,0,1-.8,4.9,10.3,10.3,0,0,1-2.8,2.7c-7.3,5.4-15.1,11.1-24.1,12.2h-.4a50.6,50.6,0,0,0-5.3.6,12.6,12.6,0,0,0-5.7,3,6.1,6.1,0,0,0-2.1,3.4,5.7,5.7,0,0,0,2.4,5.1c3,2.3,7.1,2.6,10.8,2s7.1-2,10.7-3.1a51.3,51.3,0,0,1,12.9-2.2c4.6-.2,9.1.2,13.6-.5s8-2.4,9.3-6S858.4,607.2,856.6,603.3ZM1048.3,658c0-5.3-6.3-9.6-14.2-9.6s-14.1,4.3-14.1,9.6,6.3,9.6,14.1,9.6S1048.3,663.3,1048.3,658Zm-79,0c0-5.3-6.3-9.6-14.2-9.6S941,652.7,941,658s6.3,9.6,14.1,9.6S969.3,663.3,969.3,658Zm-80,0c0-5.3-6.3-9.6-14.2-9.6S861,652.7,861,658s6.3,9.6,14.1,9.6S889.3,663.3,889.3,658Zm-80.8-.4c0-5.3-6.3-9.6-14.2-9.6s-14.1,4.3-14.1,9.6,6.3,9.5,14.1,9.5S808.5,662.9,808.5,657.6Zm-78.2.4c0-5.3-6.3-9.6-14.2-9.6S702,652.7,702,658s6.3,9.6,14.1,9.6S730.3,663.3,730.3,658Zm-80,0c0-5.3-6.3-9.6-14.1-9.6S622,652.7,622,658s6.3,9.6,14.2,9.6S650.3,663.3,650.3,658Zm-79.7,0c0-5.3-6.4-9.6-14.2-9.6s-14.2,4.3-14.2,9.6,6.4,9.6,14.2,9.6S570.6,663.3,570.6,658Zm-79,0c0-5.3-6.4-9.6-14.2-9.6s-14.2,4.3-14.2,9.6,6.4,9.6,14.2,9.6S491.6,663.3,491.6,658Zm-79.8-1c0-5.3-6.3-9.6-14.2-9.6s-14.1,4.3-14.1,9.6,6.3,9.6,14.1,9.6S411.8,662.3,411.8,657Zm-79,0c0-5.3-6.3-9.6-14.2-9.6s-14.1,4.3-14.1,9.6,6.3,9.6,14.1,9.6S332.8,662.3,332.8,657Zm-80,1c0-5.3-6.3-9.6-14.2-9.6s-14.1,4.3-14.1,9.6,6.3,9.6,14.1,9.6S252.8,663.3,252.8,658Z" transform="translate(-174.7 -41.9)"/><path class="cls-3" d="M1098.8,716.6v.3H175.2V679.4h923.6Z" transform="translate(-174.7 -41.9)"/><path class="cls-4" d="M1053.5,371.6a26.1,26.1,0,0,1,2,13.2,3.7,3.7,0,0,1-.5,1.7c-.2.4-.6.7-.8,1.1a9,9,0,0,0-.3,1.6c-.2,1.9-1.8,3.4-3.2,4.7a12.6,12.6,0,0,1-1.5-7.6c-.4,3.4-.9,6.8-1.3,10.2a5.3,5.3,0,0,1-.8,2.5,1.9,1.9,0,0,1-2.4.7,2.8,2.8,0,0,1-.8-2.4l-.2-8a16.3,16.3,0,0,1-4.2,7.3,2.1,2.1,0,0,1-1,.6c-.9.1-1.5-.7-1.8-1.4-1.2-2.7-.9-5.8-.2-8.7s1.5-5.8,1.5-8.8a14.5,14.5,0,0,0-4.1-10,3.3,3.3,0,0,0-1.9-1.1c-1.3-.1-2.2,1.3-2.9,2.4a15.5,15.5,0,0,1-5.5,5.6,3.1,3.1,0,0,1-1.6.6,2.1,2.1,0,0,1-1.6-2.3,5.8,5.8,0,0,1,1.2-2.8l6.9-10.6a15.8,15.8,0,0,0,2.5-4.6,17.5,17.5,0,0,0,.6-5.6c.1-7.9.2-15.9-1.7-23.5v-.3a16.7,16.7,0,0,1,3.2-.8,62.1,62.1,0,0,1,14.3-.8c-.5,10.2-1.1,20.4-1.7,30.7a8.9,8.9,0,0,0,.1,2.3,8.5,8.5,0,0,0,1.3,2.5A73.3,73.3,0,0,1,1053.5,371.6Z" transform="translate(-174.7 -41.9)"/><path class="cls-5" d="M1047.3,324.5a62.1,62.1,0,0,0-14.3.8,16.7,16.7,0,0,0-3.2.8,11.4,11.4,0,0,0-3,1.3v-.6a156.1,156.1,0,0,1-7.4-25.9,154.4,154.4,0,0,1,31.7-3.9l.5-.2a20.8,20.8,0,0,1,.3,4.3,107.7,107.7,0,0,1-2.8,23.4h-1.8Z" transform="translate(-174.7 -41.9)"/><path class="cls-6" d="M851,540.1v.2c-5.5.4-11.1.8-16.6,1l-7.7.2c-.8-33.1-1.5-67.2,9.7-98.4,3.9-11.1,9.3-21.6,14.7-32.1,9.2-17.9,18.4-35.9,29.9-52.4,3.7-5.3,7.6-10.5,10.4-16.3l-.4-.4c-3.3-13.7-10.8-25.8-15.7-39-2.4-6.4-4.2-13.1-6.2-19.7-.4-1.1-1.4-2.6-2.5-1.9a2.2,2.2,0,0,0-.6.7c-2.4,3.7-6.6,5.7-10.6,7.5l-16.6,7.7a36,36,0,0,1-9,3.3c-5.6,1.1-11.4-.4-17-1.8l-3.6-1v-.3a52,52,0,0,0,5.9-22.1,47.3,47.3,0,0,1,.4-5.3v-.3l.8.2c2.9.7,5.9,1.8,8.8,1.1s4.5-2.4,6.4-4.2a210,210,0,0,0,20.6-23.5c4.8-6.4,9.7-13.5,17.3-16.2a48.6,48.6,0,0,1,8.6-1.8,90.9,90.9,0,0,0,15.4-3.7l5.8-2.2h1.1a6.2,6.2,0,0,0,.1,1.3,6.6,6.6,0,0,0,2.1,2.9,24.3,24.3,0,0,0,19.6,6.5,38.6,38.6,0,0,0,10.4-3c4.3-1.7,9-4,10.8-8.3h.5c3.8,0,7.7.1,11.5.4a112.6,112.6,0,0,1,48.4,15.5c4.2,2.4,8.2,5.2,12.5,7.6,9.5,5.2,20.9,8.9,26.7,18.2s3.9,22.3,7.6,33.1a21.4,21.4,0,0,1,.9,2.7c0,.1.1.3.1.4l-.5.2a154.4,154.4,0,0,0-31.7,3.9c-.8-4-1.5-8-2-12a6.5,6.5,0,0,0-.8-2.7c-.8-1.2-2.2-1.6-3.6-2a419.5,419.5,0,0,0-41.4-9.3,276.8,276.8,0,0,1-7.4,65.4H964c3.4,6.4,6.8,12.7,9.3,19.5,6,16.1,6.7,33.7,4.5,50.8s-6.9,33.6-11.8,50.1v.3c1.6,3.2,4.4,5.8,7,8.4a309.7,309.7,0,0,1,42.2,50.6h.5c-1.1,1.9-3.5,2.8-5.6,3.4-10,3.1-20,6.3-30,9.2l-17.2,4.8L950.4,541c-7.7,2.3-15.2,5.2-21.6,10-2.2,1.6-4.3,3.5-6.6,5a26.4,26.4,0,0,1-24.4,1.9c-5.2-2.2-10.2-6.3-15.8-5.2a36.6,36.6,0,0,0-4.4,1.3c-4.9,1-9.5-1.3-13.6-4.3l-4.4-3.5A43.2,43.2,0,0,0,851,540.1Z" transform="translate(-174.7 -41.9)"/><ellipse class="cls-3" cx="859.4" cy="616.1" rx="14.2" ry="9.6"/><path class="cls-4" d="M978,597.4h0q.9-4.2,1.5-8.4c.3-2.3.5-4.6.6-7a31.9,31.9,0,0,0-1.3-11.9c-2.3-6.4-7.8-11.1-13.2-15.2s-11.3-7.9-15.1-13.5V541l12.4-3.4,17.2-4.8a124.9,124.9,0,0,0,19.2,32.7,35.5,35.5,0,0,1-1.7,6.4c-1.7,5.1-3.4,10.2-6.1,14.9s-6.3,8.9-11.1,11.3a1.9,1.9,0,0,1-1.8.3A.8.8,0,0,1,978,597.4Z" transform="translate(-174.7 -41.9)"/><ellipse class="cls-3" cx="780.4" cy="616.1" rx="14.2" ry="9.6"/><path class="cls-7" d="M941.9,173h-1.8a35,35,0,0,1-6.5-.3l-1.5-.3a9.6,9.6,0,0,1-6.8-4.5c-1.4-2.6-1.5-6.3-4.1-7.7s-3.2-.6-4.7-1.1-4.3-3.7-5.2-6.4-1.6-5.7-3.6-7.8a3.7,3.7,0,0,0-1.9-1.1,3.6,3.6,0,0,0-1.8.1,11,11,0,0,0-7.8,8.9c-.2,1.4-.2,2.9-1,4a22.8,22.8,0,0,1-2.2,2.2c-2.1,2-2.3,5.3-1.9,8.1s1.2,5.8.7,8.7h-.1a14,14,0,0,0-2.5-3.5,5.8,5.8,0,0,0-3.5-1.3v-.6c-.3-3.1-3.3-5.1-4.6-7.9s-.5-7.1.6-10.5c1.6-5.1,3.3-10.4,6.9-14.3,1.6-1.6,3.7-3.1,6-3.1a12.2,12.2,0,0,0,3.3,0,9.1,9.1,0,0,0,2.3-1.5c3.8-3,8.9-4,13.7-3.5a41.3,41.3,0,0,1,13.7,4.7,11.3,11.3,0,0,0,4.6,1.5h.4a1,1,0,0,0-.6.8,3.7,3.7,0,0,0-.1,1.1,15.1,15.1,0,0,1-.2,3c0,.3-.1.6-.4.6s-.3-.2-.4-.4a17.6,17.6,0,0,1-1.4-2.3,5.3,5.3,0,0,0-2.4-2.5,4.4,4.4,0,0,0-1.6-.2,3.8,3.8,0,0,0-1,.3,1.5,1.5,0,0,0-.3,1,7.9,7.9,0,0,0,.5,3.7h-1.8a1.6,1.6,0,0,0-1.5.4c-1,.9-.4,2.6.7,3.4s2.4,1.2,3.5,2h-.1a16.3,16.3,0,0,0-3.9-1.3,3.8,3.8,0,0,0-1.5.1,1,1,0,0,0-.6,1.2c.1.3.4.4.6.6a12.1,12.1,0,0,0,4.7,1.2h1.6c-1.6,1.5-4.4,1.1-5.8,2.7a1.1,1.1,0,0,0-.4,1c.2.6.9.7,1.5.7h5c-1.4,1.6-2.8,3.8-1.9,5.7.1.2.3.5.6.5a.8.8,0,0,0,.8-.3l4.2-3.4a20.9,20.9,0,0,0,.4,3.4c.2.6.4,1.2,1,1.4a1.2,1.2,0,0,0,1.4-.6,3.8,3.8,0,0,0,.5-1.5c.2-1.1.3-2.2.5-3.2a2.9,2.9,0,0,0,3.8,2.7,2.2,2.2,0,0,0,1.4-1.4l.5.2a1.1,1.1,0,0,0-.3.8c0,.4.3.9.7.9h.7c.6.2.5,1.2.9,1.7l.9.3,2.7.2a4.1,4.1,0,0,0,2.9-.7,2.1,2.1,0,0,0,.7-1.3l.8-1.8a1.4,1.4,0,0,0,.2-.6h.2a33.8,33.8,0,0,1-.7,6.3l-2.7,16.9c-.4,2.1-.5,4.7,1.2,5.9a6.4,6.4,0,0,0,3.4.9,13.3,13.3,0,0,1,6.8,2.1,6,6,0,0,1,2.2,6.4c-.4,1.3-1.5,2.5-1.2,3.9s2.2,1.9,3.2,3,1.1,4.3-.1,6.1-3,3.1-4.4,4.8-2.5,3.5-2.1,5.5l-.4,1.3c-3.8-.3-7.7-.4-11.5-.4h-.5l-.5-.2c-3.9-1.2-7.7-2.9-10.4-6a21.3,21.3,0,0,1-3.9-8.5c-.4-2.1-.7-4.3-1-6.3s-.6-6.7,1.3-9.1h-.1c1.3-1.6,2.4-3.2,3.6-4.9a2.6,2.6,0,0,1,1.7-1.4,5.7,5.7,0,0,1,1.8.3,4.2,4.2,0,0,0,3.8-1.8,12,12,0,0,0,1.8-4A7.5,7.5,0,0,0,941.9,173Z" transform="translate(-174.7 -41.9)"/><path class="cls-7" d="M950.2,156.2H950c0-.6-.5-1-.7-1.5s0-2-.8-2.5-1.2-.1-1.9-.2a7.1,7.1,0,0,1-1.8-1.2c-.6-.5-1.5-.9-2.1-.4.5-1.3-.9-2.7-2.2-2.9a4.7,4.7,0,0,1-1.7-.4c-.4-.3-.8-.9-.4-1.4s.5-.3.9-.4l3.3-.7,1.1-.6c1.1,2.4,3.6,4.2,5,6.6A12,12,0,0,1,950.2,156.2Z" transform="translate(-174.7 -41.9)"/><path class="cls-8" d="M939.8,156.7l-.5-.2a2.9,2.9,0,0,0-.5-3.2c-.3-.3-.7-.5-.8-.8a.8.8,0,0,1,.1-1h.5a8.9,8.9,0,0,0,2.3.1,2,2,0,0,0,1.7-1.1h.1c.6-.5,1.5-.1,2.1.4a7.1,7.1,0,0,0,1.8,1.2c.7.1,1.4-.2,1.9.2s.5,1.7.8,2.5.7.9.7,1.5a1.4,1.4,0,0,1-.2.6l-.8,1.8a2.1,2.1,0,0,1-.7,1.3,4.1,4.1,0,0,1-2.9.7l-2.7-.2-.9-.3c-.4-.5-.3-1.5-.9-1.7h-.7c-.4,0-.7-.5-.7-.9A1.1,1.1,0,0,1,939.8,156.7Zm6.7-.1a1.7,1.7,0,0,0,.1-2.1,2.8,2.8,0,0,0-2.7-.7v.3a.7.7,0,0,0-.6.3,1.1,1.1,0,0,0-.3,1.1,1.9,1.9,0,0,0,.6,1.5,1.3,1.3,0,0,0,.8.3A2.3,2.3,0,0,0,946.5,156.6Z" transform="translate(-174.7 -41.9)"/><path class="cls-9" d="M943.9,154.1v-.3a2.8,2.8,0,0,1,2.7.7,1.7,1.7,0,0,1-.1,2.1,2.3,2.3,0,0,1-2.1.7,1.3,1.3,0,0,1-.8-.3,1.9,1.9,0,0,1-.6-1.5,1.1,1.1,0,0,1,.3-1.1A.7.7,0,0,1,943.9,154.1Z" transform="translate(-174.7 -41.9)"/><path class="cls-8" d="M937.3,140.1c.1.2.2.5.4.6s4.1-.6,5.2.9a4,4,0,0,1,.4,1.3,4.9,4.9,0,0,0,.4,1.1l-1.1.6-3.3.7c-.4.1-.7.1-.9.4s0,1.1.4,1.4a4.7,4.7,0,0,0,1.7.4c1.3.2,2.7,1.6,2.2,2.9h-.1a2,2,0,0,1-1.7,1.1,8.9,8.9,0,0,1-2.3-.1h-.5a.8.8,0,0,0-.1,1c.1.3.5.5.8.8a2.9,2.9,0,0,1,.5,3.2,2.2,2.2,0,0,1-1.4,1.4,2.9,2.9,0,0,1-3.8-2.7c-.2,1-.3,2.1-.5,3.2a3.8,3.8,0,0,1-.5,1.5,1.2,1.2,0,0,1-1.4.6c-.6-.2-.8-.8-1-1.4a20.9,20.9,0,0,1-.4-3.4l-4.2,3.4a.8.8,0,0,1-.8.3c-.3,0-.5-.3-.6-.5-.9-1.9.5-4.1,1.9-5.7h-5c-.6,0-1.3-.1-1.5-.7a1.1,1.1,0,0,1,.4-1c1.4-1.6,4.2-1.2,5.8-2.7h-1.6l.7-1.8h.1c-1.1-.8-2.4-1.2-3.5-2s-1.7-2.5-.7-3.4a1.6,1.6,0,0,1,1.5-.4h1.8a7.9,7.9,0,0,1-.5-3.7,1.5,1.5,0,0,1,.3-1,3.8,3.8,0,0,1,1-.3,4.4,4.4,0,0,1,1.6.2,5.3,5.3,0,0,1,2.4,2.5,17.6,17.6,0,0,0,1.4,2.3c.1.2.2.4.4.4s.4-.3.4-.6a15.1,15.1,0,0,0,.2-3,3.7,3.7,0,0,1,.1-1.1,1,1,0,0,1,.6-.8h0c1.5-.1,3.2-.5,4.1.7S936.9,139,937.3,140.1Zm-2.6,8.2a2.8,2.8,0,0,0-.2-1.8,4.8,4.8,0,0,0-2.4-2l-.3.4a3.4,3.4,0,0,0-1.9.9c-.8.8-1.5,2-1,3a2.4,2.4,0,0,0,1.3,1.3,6.2,6.2,0,0,0,1.9.2c1,.1,2.2-.2,2.5-1.1A2.8,2.8,0,0,0,934.7,148.3Z" transform="translate(-174.7 -41.9)"/><path class="cls-4" d="M942.9,218.7l.5.2c-1.8,4.3-6.5,6.6-10.8,8.3a38.6,38.6,0,0,1-10.4,3,24.3,24.3,0,0,1-19.6-6.5,6.6,6.6,0,0,1-2.1-2.9,6.2,6.2,0,0,1-.1-1.3c.1-2.3,2-4.3,3-6.5a14.9,14.9,0,0,0,.9-9.1h.2c3.5,1.6,7,3.2,10.7,3.5s8.7-1.1,12.7-2.9l.7-.2a21.3,21.3,0,0,0,3.9,8.5C935.2,215.8,939,217.5,942.9,218.7Z" transform="translate(-174.7 -41.9)"/><path class="cls-4" d="M891.7,175.9h.1c.5-2.9-.3-5.8-.7-8.7s-.2-6.1,1.9-8.1a22.8,22.8,0,0,0,2.2-2.2c.8-1.1.8-2.6,1-4A11,11,0,0,1,904,144a3.6,3.6,0,0,1,1.8-.1,3.7,3.7,0,0,1,1.9,1.1c2,2.1,2.7,5,3.6,7.8s2.5,5.5,5.2,6.4,3.3.3,4.7,1.1,2.7,5.1,4.1,7.7a9.6,9.6,0,0,0,6.8,4.5l1.5.3v1.5a2.7,2.7,0,0,0,3.1,4.2,5.4,5.4,0,0,0,2.2-2.3l1.3-2.3v-.8h1.8a7.5,7.5,0,0,1-.4,3.9,12,12,0,0,1-1.8,4,4.2,4.2,0,0,1-3.8,1.8,5.7,5.7,0,0,0-1.8-.3,2.6,2.6,0,0,0-1.7,1.4c-1.2,1.7-2.3,3.3-3.6,4.9a36.2,36.2,0,0,1-7,7.1c-4.3,3.1-9.7,5.1-15,4.2a19.1,19.1,0,0,1-3.4-1,23,23,0,0,1-10.1-9.2c-.6-.9-1.1-1.8-1.6-2.7a3.7,3.7,0,0,0-1.3-1.7c-.9-.6-2-.3-3.1-.3-3.8-.2-5.9-4.7-5.7-8.5.2-2.1,1-4.4,2.9-5.2a2.7,2.7,0,0,1,1.2-.3,5.8,5.8,0,0,1,3.5,1.3A14,14,0,0,1,891.7,175.9Z" transform="translate(-174.7 -41.9)"/><path class="cls-4" d="M933.5,174.3v-1.5a35,35,0,0,0,6.5.3v.8l-1.3,2.3a5.4,5.4,0,0,1-2.2,2.3,2.7,2.7,0,0,1-3.1-4.2Z" transform="translate(-174.7 -41.9)"/><path class="cls-9" d="M931.8,144.9l.3-.4a4.8,4.8,0,0,1,2.4,2,2.8,2.8,0,0,1,.2,1.8,2.8,2.8,0,0,1-.1.9c-.3.9-1.5,1.2-2.5,1.1a6.2,6.2,0,0,1-1.9-.2,2.4,2.4,0,0,1-1.3-1.3c-.5-1,.2-2.2,1-3A3.4,3.4,0,0,1,931.8,144.9Z" transform="translate(-174.7 -41.9)"/><path class="cls-10" d="M928.8,188.7h.1c-1.9,2.4-1.7,5.9-1.3,9.1s.6,4.2,1,6.3l-.7.2c-4,1.8-8.3,3.2-12.7,2.9s-7.2-1.9-10.7-3.5h-.2c-.2-1.7-.6-3.3-.9-4.9h0a19.1,19.1,0,0,0,3.4,1c5.3.9,10.7-1.1,15-4.2A36.2,36.2,0,0,0,928.8,188.7Z" transform="translate(-174.7 -41.9)"/><path class="cls-8" d="M925.4,146.9l-.7,1.8a12.1,12.1,0,0,1-4.7-1.2c-.2-.2-.5-.3-.6-.6a1,1,0,0,1,.6-1.2,3.8,3.8,0,0,1,1.5-.1A16.3,16.3,0,0,1,925.4,146.9Z" transform="translate(-174.7 -41.9)"/><path class="cls-7" d="M894.1,220.1a33.9,33.9,0,0,0,1.1-7.1c0-1.4-.1-2.9-1.2-3.8s-2.5-.9-3.2-1.9a3.3,3.3,0,0,1,0-2.9,12.3,12.3,0,0,0,1.2-2.6,6.2,6.2,0,0,0-.9-4.4,9,9,0,0,1-1.3-4.4c.1-1.5,1.5-3.1,3-2.8l.5-.4a23,23,0,0,0,10.1,9.2h0c.3,1.6.7,3.2.9,4.9a14.9,14.9,0,0,1-.9,9.1c-1,2.2-2.9,4.2-3,6.5h-1.1l-5.8,2.2v-.5l.5-1.1Z" transform="translate(-174.7 -41.9)"/><ellipse class="cls-3" cx="700.4" cy="616.1" rx="14.2" ry="9.6"/><path class="cls-4" d="M864,549.7l-.4.4c-2.8,10.6-5.3,21.3-7.6,32-.5,2.3-1,4.5-1.3,6.8a25.6,25.6,0,0,0,.8,11.7c.3.9.7,1.8,1.1,2.7-11.4,8.7-27.6,14-41.8,12.4-1.4-.2-3.3-1.1-2.6-2.4a1.6,1.6,0,0,1,.9-.7c9-1.1,16.8-6.8,24.1-12.2a10.3,10.3,0,0,0,2.8-2.7,8.9,8.9,0,0,0,.8-4.9,23.4,23.4,0,0,0-.3-3.8c-.4-3.6-1-7.1-1.7-10.6a311.1,311.1,0,0,1-4.3-35.9v-1.2c5.5-.2,11.1-.6,16.6-1v-.2a43.2,43.2,0,0,1,8.6,6.1Z" transform="translate(-174.7 -41.9)"/><path class="cls-11" d="M819.9,163.6c.8.6,1.8,1.8,1,2.4s-.4.2-.6.3a14.8,14.8,0,0,1-15.1-5.2c-.8-1-2.2-2.2-3.1-1.3l-.5.7-1.2,2.7-2.5-1.1c1.5-3.6,2.8-7.2,4-10.9a6.2,6.2,0,0,1,1.3-2.7c1.7-1.8,4.9-1,6.6.8s2.4,4.3,3.5,6.5A19.9,19.9,0,0,0,819.9,163.6Z" transform="translate(-174.7 -41.9)"/><path class="cls-5" d="M815.6,269.7v.3a47.3,47.3,0,0,0-.4,5.3,52,52,0,0,1-5.9,22.1v.3a186.3,186.3,0,0,1-20.5-6.3,3.6,3.6,0,0,1-1.9-1.3,3.4,3.4,0,0,1,.3-2.6c0-.1,0-.1.1-.1,2.2-5.5,4.6-11.3,4.1-17.1a2,2,0,0,1-.1-.7h.1C799.4,268.8,807.7,267.9,815.6,269.7Z" transform="translate(-174.7 -41.9)"/><path class="cls-3" d="M794.3,648c7.9,0,14.2,4.3,14.2,9.6s-6.3,9.5-14.2,9.5-14.1-4.2-14.1-9.5S786.5,648,794.3,648Z" transform="translate(-174.7 -41.9)"/><path class="cls-11" d="M792.7,173v-.6a99.3,99.3,0,0,0,5.2-10.3l2.5,1.1a68.5,68.5,0,0,0-3.4,8.5,46.8,46.8,0,0,1-2.4,7.2c-1.1,2.3-2.8,4.5-5.2,5.3s-5.5.2-6.8-2,0-6,2.5-7.6A13.4,13.4,0,0,1,792.7,173Z" transform="translate(-174.7 -41.9)"/><path class="cls-4" d="M733.3,278.2a36.2,36.2,0,0,1-10.9.2c-.6-.1-1.3-.3-1.4-.9s.8-1.4,1.7-1.5l10.8-1.9c-3.3-2.4-7.8-1.3-11.7-2a1.7,1.7,0,0,1-1.3-.8c-.5-.9.9-1.7,1.9-1.9a66.4,66.4,0,0,1,9.9-1c-1.8-2.1-5.2-1.4-7.7-2.7a1.2,1.2,0,0,1-.6-.6c-.4-.8.6-1.5,1.5-1.7a20,20,0,0,1,6.9.3,166.3,166.3,0,0,0,18.7,1.4,1.5,1.5,0,0,0,.9-.2c.9-.4.4-1.8-.1-2.6l-3.3-4.7a6.5,6.5,0,0,1-1.7-3.4,2.4,2.4,0,0,1,1.9-2.8,3.5,3.5,0,0,1,2.7,2l5,7.2a18.5,18.5,0,0,0,3.8,4.5c2.8,2.4,6.7,3,10.3,3.5a196.1,196.1,0,0,0,20.3,1.7h.4c.5,5.8-1.9,11.6-4.1,17.1l-.5-.2L770,283a46.6,46.6,0,0,0-9.8-1.6,43,43,0,0,0-6.2.4c-4,.4-8.1.6-12.2.9l-14.2,1a4.1,4.1,0,0,1-1.9-.2,1.2,1.2,0,0,1-.8-1.5,22.6,22.6,0,0,0,4.9-1.9C730.9,279.6,732.1,278.5,733.3,278.2Zm15.2-.5a10.2,10.2,0,0,0,2.2-1.4,9.8,9.8,0,0,1,4.8-1.3c1.7-.1,3.4-.1,5-.3s1.1-.4,1.1-.9a1,1,0,0,0-.8-.7c-2.1-1-4.4-1.7-6.6-1l-1.8.7-2.2,1.1a8.3,8.3,0,0,0-2.2,1.4,2.1,2.1,0,0,0-.7,1.5c.1.6.7,1.1,1.2.9Z" transform="translate(-174.7 -41.9)"/><path class="cls-10" d="M761.6,273.8c0,.5-.6.8-1.1.9s-3.3.2-5,.3a9.8,9.8,0,0,0-4.8,1.3,10.2,10.2,0,0,1-2.2,1.4h0c-.5.2-1.1-.3-1.2-.9a2.1,2.1,0,0,1,.7-1.5,8.3,8.3,0,0,1,2.2-1.4l2.2-1.1,1.8-.7c2.2-.7,4.5,0,6.6,1A1,1,0,0,1,761.6,273.8Z" transform="translate(-174.7 -41.9)"/><path class="cls-12" d="M733.8,350.3h.1a5.3,5.3,0,0,0-2.2,2.7c0,.2-.1.4,0,.5a.4.4,0,0,0,.4.2c1.3.3,2.6-.5,3.7-1.2a20.1,20.1,0,0,1,9-2.7,7.1,7.1,0,0,0,2-.2,2.3,2.3,0,0,0,1.4-1.3,2.1,2.1,0,0,0-1.7-2.4,5.6,5.6,0,0,0-3.1.3l-4.1,1.3A13.5,13.5,0,0,0,733.8,350.3Zm.8,10.2a.5.5,0,0,0,0,.5c.1.3.4.5.6.7l.9.5a2.9,2.9,0,0,0,2-.5,15.5,15.5,0,0,1,3.6-.8,32.6,32.6,0,0,0,8.1-2.3,2.1,2.1,0,0,0,1.1-1c.1-.7-.7-1.3-1.5-1.4a11.1,11.1,0,0,0-4.4.3,48.6,48.6,0,0,0-10.4,4Zm3.2,4.6a6.5,6.5,0,0,1-2.4,0c-1.6-.2-3-1.2-4.6-1.6a6.1,6.1,0,0,0-5.5,1.5h-.6a3.8,3.8,0,0,0-1-2.1,4.3,4.3,0,0,0-3.3-.8c-1,.1-2.1.7-2.2,1.7v.7c-.1.2-.4.4-.6.3s-.1-.3-.2-.4a3.9,3.9,0,0,0-3.6-3.1H713l-91.8,34a11.4,11.4,0,0,1-1-1.9,10.9,10.9,0,0,0-.8-1.5l.6-.3h.3q27.5-9.6,54.7-19.5T726.9,353v-.6c-.4-1.2.6-2.4,1.7-3.1l2.5-1.5a26.2,26.2,0,0,1,4.9-1.9l1.4-.5,2.5-.7,2-.6,1.4-.3,2.6-.8,2-.5a5.1,5.1,0,0,1,3.2.5,5.5,5.5,0,0,1,1.4,1.2,21.3,21.3,0,0,1,5.2,12.2,3.7,3.7,0,0,1-.1,1.1,3.9,3.9,0,0,1-.8,1,15.9,15.9,0,0,1-2.9,1.5l-1.2.5-2.6.9-1.1.4-4.9,1.6-1.1.3a33.7,33.7,0,0,1-3.4.9Z" transform="translate(-174.7 -41.9)"/><path class="cls-13" d="M754.1,360.6a2,2,0,0,1,.7,2.3c-.5,1.1-2,1.4-3.3,1.6H751c-.2-.1-.2-.3-.3-.5a15.5,15.5,0,0,1-.5-2.3v-.2l2.6-.9,1.2-.5Z" transform="translate(-174.7 -41.9)"/><path class="cls-13" d="M749.4,356.2c.8.1,1.6.7,1.5,1.4a2.1,2.1,0,0,1-1.1,1,32.6,32.6,0,0,1-8.1,2.3,15.5,15.5,0,0,0-3.6.8,2.9,2.9,0,0,1-2,.5l-.9-.5c-.2-.2-.5-.4-.6-.7a.5.5,0,0,1,0-.5h0a48.6,48.6,0,0,1,10.4-4A11.1,11.1,0,0,1,749.4,356.2Z" transform="translate(-174.7 -41.9)"/><path class="cls-13" d="M749,362a3.3,3.3,0,0,1,.8,2.5,2.8,2.8,0,0,1-2,1.5,3.4,3.4,0,0,1-2.6,0,1.9,1.9,0,0,1-1-2.2v-.4l4.9-1.6Z" transform="translate(-174.7 -41.9)"/><path class="cls-13" d="M733.9,350.4h-.1a13.5,13.5,0,0,1,5.5-2.7l4.1-1.3a5.6,5.6,0,0,1,3.1-.3,2.1,2.1,0,0,1,1.7,2.4,2.3,2.3,0,0,1-1.4,1.3,7.1,7.1,0,0,1-2,.2,20.1,20.1,0,0,0-9,2.7c-1.1.7-2.4,1.5-3.7,1.2a.4.4,0,0,1-.4-.2c-.1-.1,0-.3,0-.5A5.3,5.3,0,0,1,733.9,350.4Z" transform="translate(-174.7 -41.9)"/><path class="cls-13" d="M747.6,340.6c.5.4.4,1.1.3,1.7v.2l-2,.5-2.6.8v-.3a3.8,3.8,0,0,1-.7-2.1,1.3,1.3,0,0,1,.1-.6l.4-.2a11.9,11.9,0,0,1,3.3-.3A1.7,1.7,0,0,1,747.6,340.6Z" transform="translate(-174.7 -41.9)"/><path class="cls-14" d="M720.9,589l1.1,1.4-.3.7a26,26,0,0,0-6.3,3.5c-.2.1-.3.2-.3.4a.3.3,0,0,1,.1.2l1.6,1.6,1.1.9a4.6,4.6,0,0,0,4.4-.1,13.8,13.8,0,0,0,3.4-3l.3-.7a44,44,0,0,0,5.6,3.1c4.3,2,8.9,3.7,12.5,6.9.6.6,1.3,1.3,1.3,2.1s-1.2,2-2.2,2.5c-6.9,3.1-14.8,2.1-22.2.6s-14.2-3.3-19.6-7.9a5.2,5.2,0,0,1-1.4-1.6,6.9,6.9,0,0,1-.4-3.2c.2-2.5.3-4.9.4-7.4v-1.3h.5a2.6,2.6,0,0,1,2.7.9c.8.7,1.7,1.5,2.7,1.4s1.9-1.8,1.9-3.1a1.6,1.6,0,0,1,1.4-1.9l5-1.7c1.2-.3,2.6-.6,3.6.2l.2-.2c1,1.5,1.5,3.3,2.5,4.9Z" transform="translate(-174.7 -41.9)"/><path class="cls-13" d="M743.4,365.9a1.3,1.3,0,0,1-.2.8c-.1.3-.4.4-.7.6a6.9,6.9,0,0,1-2.4.5l-.8-.2-.5-.5a9.3,9.3,0,0,1-1-2l1.8-.5a33.7,33.7,0,0,0,3.4-.9v.5A4.7,4.7,0,0,1,743.4,365.9Z" transform="translate(-174.7 -41.9)"/><path class="cls-13" d="M741.8,343.7v.4l-2,.6-2.5.7v-.2l-.6-2.2a.7.7,0,0,1-.1-.6.5.5,0,0,1,.4-.3,6,6,0,0,1,2.3-.6c.7-.1,1.6-.1,2,.4S741.5,343.2,741.8,343.7Z" transform="translate(-174.7 -41.9)"/><path class="cls-13" d="M735.9,345.6v.3a26.2,26.2,0,0,0-4.9,1.9l-.3-.5a1.9,1.9,0,0,1-.9-1.4,1.7,1.7,0,0,1-.2-1.2,2.4,2.4,0,0,1,1.7-1.4l1.5-.5a2.6,2.6,0,0,1,2.1,0C735.9,343.3,736,344.6,735.9,345.6Z" transform="translate(-174.7 -41.9)"/><ellipse class="cls-3" cx="541.4" cy="616.1" rx="14.2" ry="9.6"/><path class="cls-15" d="M726,593.9l-.3.7a13.8,13.8,0,0,1-3.4,3,4.6,4.6,0,0,1-4.4.1l-1.1-.9-1.6-1.6a.3.3,0,0,0-.1-.2c0-.2.1-.3.3-.4a26,26,0,0,1,6.3-3.5l.3-.7A19.3,19.3,0,0,0,726,593.9Z" transform="translate(-174.7 -41.9)"/><path class="cls-4" d="M704.7,372.1a3.3,3.3,0,0,1-1.4-1.2v-.2c-.4-1.3.8-2.5,2.1-2.7a3.7,3.7,0,0,1,3.2,1h0a12,12,0,0,0,1.3,2.1,4.8,4.8,0,0,0,.9,1.9,6.6,6.6,0,0,0-.9-1.9c-.1-.4-.3-.7-.4-1.1a2.8,2.8,0,0,0-.9-1,11.6,11.6,0,0,1-.3-3.2,1.5,1.5,0,0,1,.1-.7c0-.3.1-.5.1-.7a1.7,1.7,0,0,1,1.1-.9,2.5,2.5,0,0,1,1.1.4,12,12,0,0,1,2.6,2.4c.1.2.2.3.2.5a19,19,0,0,1,2.1,4,10.7,10.7,0,0,0-2.3-4.5,7.3,7.3,0,0,1-.9-3.8,1.1,1.1,0,0,1,.2-.6,1,1,0,0,1,.5-.4h.7a3.9,3.9,0,0,1,3.6,3.1c.1.1.1.3.2.4s.5-.1.6-.3v-.7c.1-1,1.2-1.6,2.2-1.7a4.3,4.3,0,0,1,3.3.8,3.8,3.8,0,0,1,1,2.1l.3,1.9a7.6,7.6,0,0,1,0,3c-.2,1.4-1.3,2.8-2,4a87.2,87.2,0,0,1-6,9.7c-.7.8-1.3,1.7-2,2.4l-2.6,2.5a38.9,38.9,0,0,0-4.4,4.7l-.3.4a98.8,98.8,0,0,1-9.1-9.2l.5-.4a71.1,71.1,0,0,0,7.4-8.1,2.1,2.1,0,0,0,.6-1,.4.4,0,0,0,.1-.3,1.5,1.5,0,0,0-.1-.7,3.9,3.9,0,0,0-1.6-1.5A2,2,0,0,1,704.7,372.1Z" transform="translate(-174.7 -41.9)"/><path class="cls-16" d="M548.1,488.1h0a80.2,80.2,0,0,0,30.8-18.2c3.9-3.7,7.6-7.9,12.5-10,2.1-1,4.4-1.5,6.6-2.3,9.2-3.2,16.5-10.2,22.9-17.5l.6-.6.3.3a73.1,73.1,0,0,0,18.1-.2v.4a43.6,43.6,0,0,0,.3,10.2v.3c6,2.1,12.1,4.3,18.5,5.2,2.9.5,5.9.7,8.8,1.1a101,101,0,0,1,12.1,2.8c3.6.9,7.2,1.9,10.7,3.1a121.4,121.4,0,0,1,16.4,7.5c2.1,1.1,4.4,2.4,5.4,4.5a2,2,0,0,1,.2.8c2.9,6.5,1.5,14.3,2,21.5.3,3.6.9,7.1,1.2,10.7s.4,6.1.6,9.2c.4,10.1,1.4,20.2,2.8,30.3.7,4.6,1.7,9.1,2.4,13.6s.1,8,1.7,11.7c-2.3,1.7-5.3,1.8-8.2,1.9h-2a78.7,78.7,0,0,0-9.9,1.4l-3.3.6-1.9.2c-1.7.3-2.1.5-2.9-.8s-.7-3.8-1.1-5.3l-.9-4.8c-.7-3.3-1.4-6.6-2-9.8-2.6-13-5.2-26-7.9-39-.6-2.7-1.2-5.5-2.8-7.8-3.3-4.7-9.6-5.9-15.1-7.1a106.9,106.9,0,0,1-22.2-7.3c-2-.8-3.9-1.8-5.9-2.7a41.7,41.7,0,0,0-9-3.1,52.8,52.8,0,0,0-11.2-.8H575a2.9,2.9,0,0,0-2.1.6,2.7,2.7,0,0,0-.7,1.8c-.6,4.3-.9,8.6-1.1,12.9-.3,8.2-.1,16.4-.9,24.5q-.5,4.8-1.2,9.6c-.5,3.7-1.1,7.4-1.7,11.1l-.6,4.9a132.9,132.9,0,0,0-.7,22.7l-7.8.2-15.6.3h-4.4a3.7,3.7,0,0,1-2.3-.5,3.8,3.8,0,0,1-1.1-2.5c-.3-1.4-.5-2.8-.8-4.2a604.7,604.7,0,0,1-8.3-81.7v-.2A44.7,44.7,0,0,0,548.1,488.1Z" transform="translate(-174.7 -41.9)"/><path class="cls-17" d="M720.4,129.9c1.2,3.5,2.2,7.8-.1,10.6a5.2,5.2,0,0,1-6.7,1,4.5,4.5,0,0,1-.8-6.5c1-1.1,2.5-1.6,3.4-2.7s.8-4.3.1-6.4l-2.7-8.9c-.1-.2-.1-.4-.2-.6l2.1-.8c.8,2.1,1.5,4.2,2.2,6.3Z" transform="translate(-174.7 -41.9)"/><path class="cls-4" d="M718,583.3l-.2.2c-1-.8-2.4-.5-3.6-.2l-5,1.7a1.6,1.6,0,0,0-1.4,1.9c0,1.3-.6,2.9-1.9,3.1s-1.9-.7-2.7-1.4a2.6,2.6,0,0,0-2.7-.9H700c0-3.7-.2-7.4-.5-11.1v-.2l3.3-.6a78.7,78.7,0,0,1,9.9-1.4h2v.8a6.6,6.6,0,0,0,1.1,5.6c.5.6,1.2,1.2,1.7,1.9Z" transform="translate(-174.7 -41.9)"/><path class="cls-17" d="M712,108.5a51.9,51.9,0,0,1,3.5,7.1l-2.1.8a1.1,1.1,0,0,0-.6-.7,2,2,0,0,0-1.7,0l-15,4.3c-.5.2-1.2.4-1.4,1s-.1,1,.1,1.6c.7,2.2,1.3,4.3,2.1,6.6l-1.8.5a40.6,40.6,0,0,0-2.7-6,2,2,0,0,0-.8-1,2.5,2.5,0,0,0-2.4,0l-13.7,4.6a1.9,1.9,0,0,0-1,.5,2,2,0,0,0,.1,1.5c.3,1.1.7,2.2,1,3.3l-1.8.5c-1.5-4.7-3.9-9.3-4.8-14.2h.5a196.2,196.2,0,0,0,34-12.8c1.3-.6,2.7-1.3,4.1-1.1S711,106.9,712,108.5Z" transform="translate(-174.7 -41.9)"/><path class="cls-12" d="M713,361.4h.1a1,1,0,0,0-.5.4,1.1,1.1,0,0,0-.2.6,7.3,7.3,0,0,0,.9,3.8,12,12,0,0,0-2.6-2.4,2.5,2.5,0,0,0-1.1-.4,1.7,1.7,0,0,0-1.1.9c0,.2-.1.4-.1.7H708l-85.7,32.8a25.6,25.6,0,0,1-1.1-2.4Z" transform="translate(-174.7 -41.9)"/><path class="cls-18" d="M711.3,397l-2.8,2.8-13.6,13.6c-5.2,5.2-10.4,10.4-16.1,15.1a13.6,13.6,0,0,1-3.2,2.1,18.2,18.2,0,0,1-4.6.6c-2.3,0-4.7-.1-6.7-1.2a13.4,13.4,0,0,1-3.5-3.2c-5.5-6.5-11.2-13.4-12.8-21.8a12.7,12.7,0,0,0-1.4-4.8l-.7.2h0c6-2.4,12.1-4.6,18.2-6.5a47,47,0,0,0,6.6-2.4c2-1,3.9-2.2,5.8-3.2l.3-.2h.1c-.1,1.7-.2,3.4-.2,5a2.9,2.9,0,0,0,.3,1.6c.8,1.4,3,1,4.4.2,5-2.7,8.6-7.5,12.9-11.3a3.3,3.3,0,0,1,2.2-.9,4.2,4.2,0,0,1,1.5,1.1l.6.7a98.8,98.8,0,0,0,9.1,9.2l3.3,2.9Z" transform="translate(-174.7 -41.9)"/><path class="cls-12" d="M708,365h.4a1.5,1.5,0,0,0-.1.7,11.6,11.6,0,0,0,.3,3.2,3.7,3.7,0,0,0-3.2-1c-1.3.2-2.5,1.4-2.1,2.7v.2H703l-79.2,30.6-1.5-3.8Z" transform="translate(-174.7 -41.9)"/><path class="cls-12" d="M707.1,374a1.5,1.5,0,0,1,.1.7.4.4,0,0,1-.1.3H707c-8.8,4.9-21.2,8.2-30.2,13l-.3.2c-1.9,1-3.8,2.2-5.8,3.2a47,47,0,0,1-6.6,2.4c-6.1,1.9-12.2,4.1-18.2,6.5s-12.8,5.4-19,8.4h-.3l-.7-1.9L707,374Z" transform="translate(-174.7 -41.9)"/><path class="cls-12" d="M707.1,374H707l-81.1,33-1-2.8,79.8-32.1a2,2,0,0,0,.8.4A3.9,3.9,0,0,1,707.1,374Z" transform="translate(-174.7 -41.9)"/><path class="cls-12" d="M704.7,372.1l-79.8,32.1c-.4-.8-.7-1.7-1.1-2.6L703,371h.3A3.3,3.3,0,0,0,704.7,372.1Z" transform="translate(-174.7 -41.9)"/><path class="cls-17" d="M699.6,137.9c.9,2.7,1.7,5.5.8,8.2s-4.4,4.4-6.6,2.6-1.5-3.6-.8-5.5,1.9-3.5,2.5-5.4a12.5,12.5,0,0,0-.4-8.1l1.8-.5Z" transform="translate(-174.7 -41.9)"/><path class="cls-17" d="M680.4,150.6a5.3,5.3,0,0,1,.1,3.3,4.2,4.2,0,0,1-1.8,1.7,5.6,5.6,0,0,1-5,.5,4.2,4.2,0,0,1-2.7-4c.1-1.7,1.3-2.9,2.2-4.3,2.6-4.3,2.1-9.9.6-14.7l1.8-.5Q678.3,141.5,680.4,150.6Z" transform="translate(-174.7 -41.9)"/><path class="cls-18" d="M493.5,350c8.5-7.5,17.3-14.9,26.2-22,13.4-10.7,28.1-21.2,45.1-23.9a97.5,97.5,0,0,1,15.3-.8c8.3,0,16.5.1,24.8.4l.4.3a5.7,5.7,0,0,0-.8,1.3v.3h-.3a72,72,0,0,0,.2,10.4l.6,5.8c.2,1.4.4,2.8.5,4.2l.3,2.8c.1.8.1,1.5.2,2.3.2,2.5-.1,5.5,0,8,.2,7.3.8,14.4,1.5,21.5q.6,6.8,1.5,13.5h.3c1.7-4.1,3.3-8.2,4.8-12.4.1-.2.1-.5.2-.7s1.2-3.4,1.7-5.1c2.7-8.1,5.4-16.1,8.4-24.1h0a7.6,7.6,0,0,0,2.1-.3,2,2,0,0,0,.8-.4c.3-.2.4-.6.6-.9a19.1,19.1,0,0,0,1.2-4.7,7,7,0,0,0-.5-3.2h.4a24.4,24.4,0,0,1,1-2.4,16.3,16.3,0,0,0,1.1-3.1,12.2,12.2,0,0,0,.2-3.3l-.6-.3.3-.9h.1c8.8,4.6,17.4,9.7,25.8,15.1a28.1,28.1,0,0,1,5.1,4c2.3,2.5,3.6,5.7,4.8,8.9a159.8,159.8,0,0,1,8,31.3l.2.6q-27.3,9.9-54.7,19.5H620l-.6.3a46.9,46.9,0,0,0-4.2-6.7c-5.3-7.1-12.9-13-21.6-14.3a57.1,57.1,0,0,0-12.4,0,65.6,65.6,0,0,0-10.8,1.7c-3.8,1-7.4,2.8-11.3,3.6a49,49,0,0,1-7.7.6h-3.3a92.3,92.3,0,0,1,1.7-18.9c.6-3.1,1.4-6.3.8-9.5-.1-.6-.3-1.4-.9-1.6a2.6,2.6,0,0,0-1.5.2c-5.5,2.3-10.3,5.8-15.1,9.4l-8.2,6.1c-.3.2-.6.4-.6.7s.1.5.2.8l7.1,13.3,10,18.6a2.2,2.2,0,0,1,.3,1.6c-.1.3-.5.5-.7.8l-4.1,2.9-1.7,1.2a66.9,66.9,0,0,1-10.5,6.7l-1.6.8c-1.7.8-3.8,1.3-5.4.3a8.6,8.6,0,0,1-1.3-1.4c-1.8-2.5-3.7-4.9-5.5-7.3s-5.8-7.7-8.4-11.8a3.5,3.5,0,0,1-.5-.8c-6-9.7-10.2-20.5-11.2-31.8-.3-2.7,0-6,2.4-7.2Z" transform="translate(-174.7 -41.9)"/><path class="cls-2" d="M611.5,276.7h-.1A5.8,5.8,0,0,0,610,273a3,3,0,0,0-3.8-.5c-.2.2-.5.4-.6.7l-.5-.4c.8-2.7.5-5.6.2-8.5s-.9-5.6-.4-8.4,2.1-5.6,4.7-6.7,6.8-.2,8.9-2.5,1.2-2.6,2.3-3.3a5.9,5.9,0,0,1,2.6-.7c4-.5,8.2-.9,12.2.2s7.9,3.4,11.8,2.2c.8-.3,1.9-.6,2.4.1s.1,1.4-.1,2.1.5,3.2.8,4.9a41.3,41.3,0,0,1,.1,5c.3,3.6,2.3,6.9,2.3,10.5s-2.5,7.6-4.9,10.9h-.4a2.8,2.8,0,0,0-1.8-.6v-.4a32.9,32.9,0,0,0,.4-12.5c-.4-2.3-1.3-4.9-3.5-5.6a7.5,7.5,0,0,0-2.1-.2c-2.5-.3-4.8-1.5-7.2-2.4a14.5,14.5,0,0,0-8.5-.5,8.4,8.4,0,0,0-5.8,5.9c-.3,1.9-.1,4.5-1.9,5.2l-1.4.4a4.2,4.2,0,0,0-2.5,3.2,19.7,19.7,0,0,0,0,4.2c0,.7,0,1.6-.7,2S611.5,277.1,611.5,276.7Z" transform="translate(-174.7 -41.9)"/><path class="cls-4" d="M645.8,278.1a2.8,2.8,0,0,1,1.8.6,4.6,4.6,0,0,1,2.1,4.4c-.3,2.6-2.4,4.6-4.8,5.6l-3.6,1H641a13.4,13.4,0,0,1-9.5,10l-2.3.4a19.5,19.5,0,0,1-9.1-2c-3.5-1.6-7-4.1-8.2-7.8a7.4,7.4,0,0,1-.4-1.4c-.2-1.5-.3-3-.5-4.5a3.1,3.1,0,0,0-.5-1.2c-.7-.6-1.8-.1-2.8-.1s-3.2-1.5-3.5-3.2a9,9,0,0,1,.7-5.1,4.6,4.6,0,0,1,.7-1.6c.1-.3.4-.5.6-.7a3,3,0,0,1,3.8.5,5.8,5.8,0,0,1,1.4,3.7h.1c0,.4.7,1,1.1.7s.7-1.3.7-2a19.7,19.7,0,0,1,0-4.2,4.2,4.2,0,0,1,2.5-3.2l1.4-.4c1.8-.7,1.6-3.3,1.9-5.2a8.4,8.4,0,0,1,5.8-5.9,14.5,14.5,0,0,1,8.5.5c2.4.9,4.7,2.1,7.2,2.4a7.5,7.5,0,0,1,2.1.2c2.2.7,3.1,3.3,3.5,5.6a32.9,32.9,0,0,1-.4,12.5Z" transform="translate(-174.7 -41.9)"/><path class="cls-19" d="M624.8,537.6v-.5c-1.8-11.3-4.1-22.6-6.8-33.7H571.1c.2-4.3.5-8.6,1.1-12.9a2.7,2.7,0,0,1,.7-1.8,2.9,2.9,0,0,1,2.1-.6h41.6a52.8,52.8,0,0,1,11.2.8,41.7,41.7,0,0,1,9,3.1,55.7,55.7,0,0,1,.2,10.8.6.6,0,0,1-.1.4h-.4l-6.5.2-.2.2c.5,3.5,1.9,6.8,3,10.1a122.7,122.7,0,0,1,3.3,16c3.3,18.3,7.8,36.7,12.8,54.7h-.3a42,42,0,0,1-10,.6,2.1,2.1,0,0,1-1.7-.6,3.6,3.6,0,0,1-.4-1.1c-2.2-12-4.9-23.8-8.2-35.5h-.1l-47.9,1.1a94.9,94.9,0,0,1-11.9-.2l-1.1-.2c.6-3.7,1.2-7.4,1.7-11.1h55.8Z" transform="translate(-174.7 -41.9)"/><ellipse class="cls-3" cx="461.4" cy="616.1" rx="14.2" ry="9.6"/><path class="cls-18" d="M644.4,402.1c-.9,9.9-1.6,19.9-2,29.8a33.8,33.8,0,0,1-.7,6.3,2.7,2.7,0,0,1-.6,1c-.2.2-.6.2-.9.3h-.3a73.1,73.1,0,0,1-18.1.2l-.3-.3a20.7,20.7,0,0,0,4-5.8c1.2-3,1.3-6.3,1.4-9.5.1-5,.1-10.2.1-15.1v-.3c6.2-3,12.5-5.8,19-8.4h0A3.1,3.1,0,0,0,644.4,402.1Z" transform="translate(-174.7 -41.9)"/><path class="cls-10" d="M631.5,299.7h.1a6.2,6.2,0,0,0-2,3.6h-.4c-3.3-.4-6.5,0-9.8-.1s-6.7-.8-9.2-2.9h-.6a1.3,1.3,0,0,1,.1-.6,7,7,0,0,1,.3-1.4,38.4,38.4,0,0,0,1.5-9.5,7.4,7.4,0,0,0,.4,1.4c1.2,3.7,4.7,6.2,8.2,7.8a19.5,19.5,0,0,0,9.1,2Z" transform="translate(-174.7 -41.9)"/><path class="cls-4" d="M629.6,305.7a2.2,2.2,0,0,1,.1,1.1v.2a2.9,2.9,0,0,1-1.1,1.1l-8.3,4.8a2.8,2.8,0,0,1-2.3.5h0a.8.8,0,0,1-.4-.4,1.3,1.3,0,0,1-.6-.7l-6.3-9.5a5.3,5.3,0,0,1-1.1-2.4h.6c2.5,2.1,6,2.8,9.2,2.9s6.5-.3,9.8.1h.4A8.8,8.8,0,0,0,629.6,305.7Z" transform="translate(-174.7 -41.9)"/><path class="cls-20" d="M628.6,322.3a7,7,0,0,1,.5,3.2,19.1,19.1,0,0,1-1.2,4.7c-.2.3-.3.7-.6.9a2,2,0,0,1-.8.4,7.6,7.6,0,0,1-2.1.3,9.6,9.6,0,0,1-5-1.3h-.1a3.4,3.4,0,0,0,.5-1.4,23.2,23.2,0,0,0,.6-6.4v-.5l1.2-.4,4.7-1.3h.7a1.6,1.6,0,0,1,.8.6A5.7,5.7,0,0,1,628.6,322.3Z" transform="translate(-174.7 -41.9)"/><path class="cls-21" d="M626.6,408.9h.3v.3c0,4.9,0,10.1-.1,15.1-.1,3.2-.2,6.5-1.4,9.5a20.7,20.7,0,0,1-4,5.8l-.6.6c-6.4,7.3-13.7,14.3-22.9,17.5-2.2.8-4.5,1.3-6.6,2.3-4.9,2.1-8.6,6.3-12.5,10A80.2,80.2,0,0,1,548.1,488h0a44.7,44.7,0,0,1-22.4-.3l-2.5-.8c-3-1-5.8-2.3-8.8-3.4a20.4,20.4,0,0,1-4.5-2.1,15,15,0,0,1-2.7-2.9,104.7,104.7,0,0,1-15.5-27.2c-4-10.5-6.3-21.8-5-32.9s6.2-22.1,14.8-29.2l.7-.3a3.5,3.5,0,0,0,.5.8c2.6,4.1,5.5,8,8.4,11.8s3.7,4.8,5.5,7.3a8.6,8.6,0,0,0,1.3,1.4c1.6,1,3.7.5,5.4-.3l1.6-.8h.1a55.7,55.7,0,0,0,7.5,8.6l2.2,2.2-.3.3a20.7,20.7,0,0,0-.4,2.2c-3.5,1-6.9,2.1-10.2,3.4h-.2a8.6,8.6,0,0,0-1-1.6,2.6,2.6,0,0,0-2.3-.8,2.5,2.5,0,0,0-1.7,2.4,6.9,6.9,0,0,0,.9,3.1c1.2,2.7,2.4,5.3,3.5,8s2.3,5.1,3.4,7.7a15.5,15.5,0,0,0,2.1,3.5,3,3,0,0,0,1.7.8c1.3-.1,1.8-1.8,1.7-3.1a17,17,0,0,0-.4-2.2h.1l8-3.2c2,1.8,4.6,2.9,7.1,4.1a20.5,20.5,0,0,0,5.3,1.7,15.7,15.7,0,0,0,5.3-.2c8.3-1.5,16.1-7.2,18.6-15.2a18.7,18.7,0,0,0,.7-4L625.9,407Z" transform="translate(-174.7 -41.9)"/><path class="cls-12" d="M625.9,407l-49.3,20.1a20.5,20.5,0,0,0,0-3.5l48.3-19.4Z" transform="translate(-174.7 -41.9)"/><path class="cls-12" d="M624.9,404.2l-48.3,19.4a23.3,23.3,0,0,0-.6-3.5l47.8-18.5C624.2,402.5,624.5,403.4,624.9,404.2Z" transform="translate(-174.7 -41.9)"/><path class="cls-12" d="M623.8,401.6,576,420.1a26.7,26.7,0,0,0-1.3-4l47.6-18.3Z" transform="translate(-174.7 -41.9)"/><path class="cls-12" d="M621.2,395.4a25.6,25.6,0,0,0,1.1,2.4l-47.6,18.3a25.9,25.9,0,0,0-1.4-2.9Z" transform="translate(-174.7 -41.9)"/><path class="cls-12" d="M621.2,395.4l-47.9,17.8a23.9,23.9,0,0,0-1.3-2.1l48.2-17.6A11.4,11.4,0,0,0,621.2,395.4Z" transform="translate(-174.7 -41.9)"/><path class="cls-20" d="M620.4,322.1v.5a23.2,23.2,0,0,1-.6,6.4,3.4,3.4,0,0,1-.5,1.4l-.5.6a3.2,3.2,0,0,1-1.4.3,14.5,14.5,0,0,1-5.4-1.1c-.3-.1-.6-.2-.7-.4a1.8,1.8,0,0,1-.2-1h0c-.1-1.4,0-2.7,0-4.1a16.4,16.4,0,0,1,.2-2.2c0-.7.1-1.4.1-2.1a1.3,1.3,0,0,0,.1-.6h1a24.9,24.9,0,0,1,6.1.8,3.2,3.2,0,0,1,1.6.9A2.4,2.4,0,0,1,620.4,322.1Z" transform="translate(-174.7 -41.9)"/><path class="cls-21" d="M548.1,376.9h3.3a49,49,0,0,0,7.7-.6c3.9-.8,7.5-2.6,11.3-3.6a65.6,65.6,0,0,1,10.8-1.7,57.1,57.1,0,0,1,12.4,0c8.7,1.3,16.3,7.2,21.6,14.3a46.9,46.9,0,0,1,4.2,6.7,10.9,10.9,0,0,1,.8,1.5L572,411.1l-1.2-1.8a13.8,13.8,0,0,0-3.3-3.1,11.7,11.7,0,0,0-4.1-1.4,47.5,47.5,0,0,0-10.6-1.5,18.5,18.5,0,0,0-10.3,2.7H541a20.2,20.2,0,0,1-3.7-4.5l-.2-.2,4.1-2.9c.2-.3.6-.5.7-.8a2.2,2.2,0,0,0-.3-1.6l-10-18.6.4-.3Z" transform="translate(-174.7 -41.9)"/><path class="cls-22" d="M613.9,42.6a2.1,2.1,0,0,1,0,.8,12.9,12.9,0,0,1-14.7,8.7l.9,1.7-2,1.3a59.7,59.7,0,0,0-8-10.7l.5-1a5.9,5.9,0,0,1,4.9-1.4,42.3,42.3,0,0,1,5.1,1.3,17.4,17.4,0,0,0,10.8-1C612.3,41.9,613.6,41.7,613.9,42.6Z" transform="translate(-174.7 -41.9)"/><path class="cls-16" d="M611.4,344.9l.6-.2a2.8,2.8,0,0,1,1.1.8,2.2,2.2,0,1,1-1.7-.6Z" transform="translate(-174.7 -41.9)"/><path class="cls-16" d="M610.3,358.4l.6-.3a2,2,0,0,1,1.5,2.3,1.1,1.1,0,0,1-.2.7,2.1,2.1,0,0,1-1.8,1.1,2,2,0,0,1-1.9-1.7v-.2A2,2,0,0,1,610.3,358.4Z" transform="translate(-174.7 -41.9)"/><path class="cls-20" d="M611.3,320.4h.1c0,.7-.1,1.4-.1,2.1h-.6l-3.8-.9-1.9.2-.6-5.8C607,317,609.6,318.2,611.3,320.4Z" transform="translate(-174.7 -41.9)"/><path class="cls-20" d="M610.7,322.4h.6a16.4,16.4,0,0,0-.2,2.2h-.2a13.6,13.6,0,0,0-3.6,1l-1.8.2c-.1-1.4-.3-2.8-.5-4.2l1.9-.2Z" transform="translate(-174.7 -41.9)"/><path class="cls-20" d="M610.9,324.7h.2c0,1.4-.1,2.7,0,4.1h-.5a36.5,36.5,0,0,1-4.7-.1h-.1l-.3-2.8,1.8-.2A13.6,13.6,0,0,1,610.9,324.7Z" transform="translate(-174.7 -41.9)"/><path class="cls-22" d="M607.7,64.9c1.6,2,3.4,4.2,3.3,6.8a7.5,7.5,0,0,1-2.5,5c-1.7,1.7-4.7,2.9-6.4,1.1s-.7-3.4.1-5,2-3.1,2.1-4.9a9,9,0,0,0-1.5-4.7c-1.5-2.7-3-5.4-4.7-8.1l2-1.3A94.6,94.6,0,0,0,607.7,64.9Z" transform="translate(-174.7 -41.9)"/><path class="cls-23" d="M576.6,423.6a20.5,20.5,0,0,1,0,3.5l-10.1,4.1a1.1,1.1,0,0,0-.6-1.1l3.5-1.3c.9-.3,1.9-.8,1.9-1.7a1.5,1.5,0,0,0-.6-1.1Z" transform="translate(-174.7 -41.9)"/><path class="cls-23" d="M566.5,431.2l10.1-4.1a18.7,18.7,0,0,1-.7,4c-2.5,8-10.3,13.7-18.6,15.2a15.7,15.7,0,0,1-5.3.2,20.5,20.5,0,0,1-5.3-1.7c-2.5-1.2-5.1-2.3-7.1-4.1,6.8-2.7,13.6-5.2,20.6-7.6h3.2a4.7,4.7,0,0,0,2.6-.8A1.5,1.5,0,0,0,566.5,431.2Z" transform="translate(-174.7 -41.9)"/><path class="cls-23" d="M576,420.1a23.3,23.3,0,0,1,.6,3.5l-5.9,2.4-1.2-.6a19.5,19.5,0,0,0-4.8-1h6.2a3.2,3.2,0,0,0,2.3-.8,2.1,2.1,0,0,0-.5-2.8,6.8,6.8,0,0,0-3-1.1l-3.2-.4,8.2-3.1A26.7,26.7,0,0,1,576,420.1Z" transform="translate(-174.7 -41.9)"/><path class="cls-23" d="M574.7,416.1l-8.2,3.1a22.6,22.6,0,0,0-4.5-.2,13.7,13.7,0,0,1-3.5.1,4.9,4.9,0,0,1-1.7-.6L567,416v-.2l.3.2a2.8,2.8,0,0,0,1.8.2,2.4,2.4,0,0,0,1-2.2h.8l2.3-.8A25.9,25.9,0,0,1,574.7,416.1Z" transform="translate(-174.7 -41.9)"/><path class="cls-4" d="M560.2,433.1a34.8,34.8,0,0,1-7.3-1.2,41.1,41.1,0,0,1-6.1-2.5l-1.4-.7-2.1-1.4a24.2,24.2,0,0,1-3.6-2.7l-3.2-2.9-1.8-1.6-2.2-2.2a55.7,55.7,0,0,1-7.5-8.6h-.1a66.9,66.9,0,0,0,10.5-6.7l1.7-1.2.2.2A20.2,20.2,0,0,0,541,406a6.2,6.2,0,0,0,2.9,1.5c2.1.6,4.4,0,6.5-.4a34.9,34.9,0,0,1,10.7.2,15.9,15.9,0,0,1,5.7,1.8,8.6,8.6,0,0,1,2.8,2.9h0a7,7,0,0,1,.6,1.9h0a2.4,2.4,0,0,1-1,2.2,2.8,2.8,0,0,1-1.8-.2l-.3-.2c-1.2-.5-2.3-1.2-3.5-1.8l-.8-.4a7,7,0,0,0-5.1-.5,3.6,3.6,0,0,0-2.2,2.9,2.7,2.7,0,0,0,.2,1.3,4.3,4.3,0,0,0,1.1,1.2,4.9,4.9,0,0,0,1.7.6,13.7,13.7,0,0,0,3.5-.1,22.6,22.6,0,0,1,4.5.2l3.2.4a6.8,6.8,0,0,1,3,1.1,2.1,2.1,0,0,1,.5,2.8,3.2,3.2,0,0,1-2.3.8h-6.2a19.5,19.5,0,0,1,4.8,1l1.2.6a1.5,1.5,0,0,1,.6,1.1c0,.9-1,1.4-1.9,1.7l-3.5,1.3a1.1,1.1,0,0,1,.6,1.1,1.5,1.5,0,0,1-.5,1.2,4.7,4.7,0,0,1-2.6.8Z" transform="translate(-174.7 -41.9)"/><path class="cls-23" d="M573.3,413.2l-2.3.8h-.8a7,7,0,0,0-.6-1.9l2.4-.9A23.9,23.9,0,0,1,573.3,413.2Z" transform="translate(-174.7 -41.9)"/><path class="cls-23" d="M572,411.1l-2.4.9h0a8.6,8.6,0,0,0-2.8-2.9,15.9,15.9,0,0,0-5.7-1.8,34.9,34.9,0,0,0-10.7-.2c-2.1.4-4.4,1-6.5.4A6.2,6.2,0,0,1,541,406h1.5a18.5,18.5,0,0,1,10.3-2.7,47.5,47.5,0,0,1,10.6,1.5,11.7,11.7,0,0,1,4.1,1.4,13.8,13.8,0,0,1,3.3,3.1Z" transform="translate(-174.7 -41.9)"/><path class="cls-23" d="M567.1,415.8v.2l-10.2,2.5a4.3,4.3,0,0,1-1.1-1.2,2.7,2.7,0,0,1-.2-1.3h.7l7.4-2C564.8,414.6,565.9,415.3,567.1,415.8Z" transform="translate(-174.7 -41.9)"/><path class="cls-3" d="M556.4,648.4c7.8,0,14.2,4.3,14.2,9.6s-6.4,9.6-14.2,9.6-14.2-4.3-14.2-9.6S548.6,648.4,556.4,648.4Z" transform="translate(-174.7 -41.9)"/><path class="cls-23" d="M563.6,414l-7.4,2h-.7a3.6,3.6,0,0,1,2.2-2.9,7,7,0,0,1,5.1.5Z" transform="translate(-174.7 -41.9)"/><path class="cls-24" d="M562.3,197.7c.2.3.1.7.1,1.1s-.2,2.8-.4,4.2l-2.1-.3a3.4,3.4,0,0,0-.2-1.4,4,4,0,0,0-1.6-1.2l-3.1-1.4a1.8,1.8,0,0,0-1.2-.3,1.5,1.5,0,0,0-1,.6,9.6,9.6,0,0,0-1.4,2.1l-1.9-1a44,44,0,0,0,2.1-5c.2-.6.4-1.3,1-1.4a1.4,1.4,0,0,1,.9.1,39.7,39.7,0,0,1,8,3.3A1.6,1.6,0,0,1,562.3,197.7Z" transform="translate(-174.7 -41.9)"/><path class="cls-24" d="M559.9,202.7l2.1.3a76.7,76.7,0,0,1-2.2,10.6,3.1,3.1,0,0,1-.5,1.2,2.5,2.5,0,0,1-1.8,1,4.5,4.5,0,0,1-4.4-1.1c-1-1.2-.6-3.4.9-3.8s1.4,0,2.1-.2a3.9,3.9,0,0,0,2.1-2.4,26,26,0,0,0,1.6-4.7C559.8,203.3,559.9,203,559.9,202.7Z" transform="translate(-174.7 -41.9)"/><path class="cls-14" d="M539.9,588.5a2.4,2.4,0,0,1,.6-2.4h.2a4.9,4.9,0,0,1,2.6-1h.9c1.7-.1,3.7,0,4.7,1.4s.6,3.7,1.8,5a3.7,3.7,0,0,0,3.5.7c1.2-.3,2.3-.9,3.5-1.3h.8a1.3,1.3,0,0,1,.6,1c1,3.6,1.8,7.7-.3,10.8a12.9,12.9,0,0,1-3,2.7,71.7,71.7,0,0,1-6.9,4.3l-5.8,3.4a25.5,25.5,0,0,1-5.5,2.7,20.1,20.1,0,0,1-6.4.8c-2.2.1-4.3,0-6.5,0a13.4,13.4,0,0,1-3.9-.7c-2.2-.9-3.7-3-5-5a1.3,1.3,0,0,1-.3-1,1.1,1.1,0,0,1,.7-.6c4.9-2.2,8.3-6.6,12-10.5l.2.2a6,6,0,0,1,3.9.7,31.9,31.9,0,0,1,3.2,2.3,3.1,3.1,0,0,0,2,.7,3.7,3.7,0,0,0,1.2-.7l3.9-3.2a1.1,1.1,0,0,0,.6-1.1c0-.2-.3-.4-.5-.6a44.9,44.9,0,0,0-7.6-3.8,24,24,0,0,0,5.3-3.7v-.3A1.3,1.3,0,0,1,539.9,588.5Z" transform="translate(-174.7 -41.9)"/><path class="cls-4" d="M558.2,589c0,.5.1,1,.1,1.5v.3h-.6c-1.2.4-2.3,1-3.5,1.3a3.7,3.7,0,0,1-3.5-.7c-1.2-1.3-.7-3.5-1.8-5s-3-1.5-4.7-1.4h-.9v-1q-.2-3.2-.6-6.3v-.9l15.6-.3v.7C558.1,581.2,558.1,585.1,558.2,589Z" transform="translate(-174.7 -41.9)"/><path class="cls-23" d="M552.9,431.9a34.8,34.8,0,0,0,7.3,1.2c-7,2.4-13.8,4.9-20.6,7.6l-.5-.5a11.4,11.4,0,0,1-2.1-2.8c5.3-1.6,10.6-3.3,15.8-5.2Z" transform="translate(-174.7 -41.9)"/><path class="cls-23" d="M552.9,431.9v.3c-5.2,1.9-10.5,3.6-15.8,5.2a16.2,16.2,0,0,1-1-1.8c-.2-.6-.5-1.1-.7-1.7l11.2-4,.3-.5A41.1,41.1,0,0,0,552.9,431.9Z" transform="translate(-174.7 -41.9)"/><path class="cls-24" d="M544.8,204.9l1.9-.3a26,26,0,0,0,2.8-4.5l1.9,1a26,26,0,0,0-1,2.5,16.5,16.5,0,0,1-2.1,4.7c-1.1,1.3-2.9,2.3-4.6,1.8s-2.8-2.6-1.8-4A3.3,3.3,0,0,1,544.8,204.9Z" transform="translate(-174.7 -41.9)"/><path class="cls-23" d="M546.8,429.4l-.3.5-11.2,4c-.3-.9-.6-1.9-.8-2.8l1.3-.5,2-1a18.7,18.7,0,0,1,5.3-2l.2-.3,2.1,1.4Z" transform="translate(-174.7 -41.9)"/><path class="cls-19" d="M543.2,584v1a4.9,4.9,0,0,0-2.6,1h-.2l-.2-.3-7.3-.3a1.8,1.8,0,0,1-1.3-.4c-.8-.5-.6-1.6-.3-2.5a56.3,56.3,0,0,0,2.2-12.8h.4c.3,1.4.5,2.8.8,4.2a3.8,3.8,0,0,0,1.1,2.5,3.7,3.7,0,0,0,2.3.5h4.4v.9Q543.1,580.8,543.2,584Z" transform="translate(-174.7 -41.9)"/><path class="cls-23" d="M543.3,427.3l-.2.3a18.7,18.7,0,0,0-5.3,2l-2,1-1.3.5a17.6,17.6,0,0,1-.6-3.9l5.6-2.4.2-.2A24.2,24.2,0,0,0,543.3,427.3Z" transform="translate(-174.7 -41.9)"/><path class="cls-15" d="M543.2,597.6a1.1,1.1,0,0,1-.6,1.1l-3.9,3.2a3.7,3.7,0,0,1-1.2.7,3.1,3.1,0,0,1-2-.7,31.9,31.9,0,0,0-3.2-2.3,6,6,0,0,0-3.9-.7l-.2-.2a31.1,31.1,0,0,1,5.2-4.4l1.7-1.1a44.9,44.9,0,0,1,7.6,3.8C542.9,597.2,543.2,597.4,543.2,597.6Z" transform="translate(-174.7 -41.9)"/><path class="cls-23" d="M539.7,424.6l-.2.2-5.6,2.4a23.6,23.6,0,0,1,.1-4.6l2.1-.5.4-.4Z" transform="translate(-174.7 -41.9)"/><path class="cls-21" d="M539.1,440.2l.5.5-8,3.2h-.1a38.9,38.9,0,0,0-1.6-4.4h.3l6.8-2.1A11.4,11.4,0,0,0,539.1,440.2Z" transform="translate(-174.7 -41.9)"/><path class="cls-23" d="M536.5,421.7l-.4.4-2.1.5a20.7,20.7,0,0,1,.4-2.2l.3-.3Z" transform="translate(-174.7 -41.9)"/><path class="cls-21" d="M536,435.6a16.2,16.2,0,0,0,1,1.8l-6.8,2.1h-.3a1.7,1.7,0,0,0-.2-.5l-1.2-2.6.4-.2,6.4-2.3C535.5,434.5,535.8,435,536,435.6Z" transform="translate(-174.7 -41.9)"/><path class="cls-21" d="M535.3,433.9l-6.4,2.3-.4.2c-.4-1-.9-2-1.4-3l.7-.3,5.2-1.6,1.5-.4C534.7,432,535,433,535.3,433.9Z" transform="translate(-174.7 -41.9)"/><path class="cls-21" d="M533.9,427.2a17.6,17.6,0,0,0,.6,3.9l-1.5.4-5.2,1.6-.7.3c-.5-1-1.1-2-1.6-3.1l.4-.2Z" transform="translate(-174.7 -41.9)"/><path class="cls-21" d="M534,422.6a23.6,23.6,0,0,0-.1,4.6l-8,2.9-.4.2q-.7-1.5-1.5-3.3v-.3l-.3-.6h.2C527.1,424.7,530.5,423.6,534,422.6Z" transform="translate(-174.7 -41.9)"/><path class="cls-25" d="M531.9,446.1c.1,1.3-.4,3-1.7,3.1a3,3,0,0,1-1.7-.8,15.5,15.5,0,0,1-2.1-3.5c-1.1-2.6-2.2-5.1-3.4-7.7s-2.3-5.3-3.5-8a6.9,6.9,0,0,1-.9-3.1,2.5,2.5,0,0,1,1.7-2.4,2.6,2.6,0,0,1,2.3.8,8.6,8.6,0,0,1,1,1.6l.3.6v.3q.8,1.8,1.5,3.3c.5,1.1,1.1,2.1,1.6,3.1s1,2,1.4,3l1.2,2.6a1.7,1.7,0,0,1,.2.5,38.9,38.9,0,0,1,1.6,4.4A17,17,0,0,1,531.9,446.1Z" transform="translate(-174.7 -41.9)"/><path class="cls-26" d="M523.4,95.1c.4.3.8.7.6,1.1a.8.8,0,0,1-.5.5,7.1,7.1,0,0,1-4.9,1,4.9,4.9,0,0,1-3.8-3,13.1,13.1,0,0,0-.8-2.1c-.4-.6-1.4-1-1.9-.4s-.2.3-.3.5l-1.9-.3c.3-1.8.6-3.7,1-5.5a9.3,9.3,0,0,1,1.2-2.7,3,3,0,0,1,2.6-1.2c1.6.3,2.3,2.2,2.9,3.8A20.2,20.2,0,0,0,523.4,95.1Z" transform="translate(-174.7 -41.9)"/><path class="cls-26" d="M509.9,92.4l1.9.3v.7a23.5,23.5,0,0,1-1.9,7.8c-1.2,2.5-3.5,5.2-6.3,4.8a4.1,4.1,0,0,1-3-5.1,1.6,1.6,0,0,1,.6-.8c.3-.2.6-.1,1-.1l4.9.6V100A19.7,19.7,0,0,0,509.9,92.4Z" transform="translate(-174.7 -41.9)"/><path class="cls-27" d="M321.4,324.7a21.8,21.8,0,0,1-4.4,1.1c-4.4.8-8.8.5-13.3.3-2.2-.2-4.5-.3-6.4-1.4s-4.4-5-5.4-8.2c-5.3-16.6-2.5-34.9,4.2-50.9,2-4.9,4.4-9.7,6.8-14.5l12.4-24.5a65.7,65.7,0,0,1,7.3-12.2,33.8,33.8,0,0,1,19.6-11.7c8.9-1.6,18.3.4,27.2-1.8v.3h-.1l8.6,12.8c2.9,4.4,6,9,10.3,12s10.4,4.3,15.1,1.7a20.7,20.7,0,0,0,5.1-4.7l9-10,.5-.6h0c2.5,1.2,5.4.6,8,.9a21.9,21.9,0,0,1,6.6,2c11.9,5.1,22.3,13.4,30.8,23.2,1.5,1.8,3,3.7,4.3,5.6a55.4,55.4,0,0,1,3,5.3l6.2,11.4c.4.7,2.9.6,2.6.2h.4c.4.2.9-.1,1.2-.4a22.5,22.5,0,0,1,7-3.3l13.9-4.5v-.2l.4-.2c1.8,1.8,2.7,4.4,3.4,6.8s2,7.3,2.8,11,2.1,9.5,1.3,14.2c-1.1,6.4-5.3,11.9-10.4,16a29.6,29.6,0,0,1-4.1,2.8,26.3,26.3,0,0,1-15.6,2.8,49.3,49.3,0,0,1-15.5-4.5,55.5,55.5,0,0,1-11.4-6.4c-6.3-4.6-11.1-10.8-16-16.8a3,3,0,0,0-1.5-1.2c-.6-.2-1.4.2-1.4.8v.3c.8,20.8-1,42.2-9,61.5a15.7,15.7,0,0,1-3.1,5.3,10,10,0,0,1-4.2,2.5,28.6,28.6,0,0,1-9.7.7c-20-1.1-40-2.4-60-2.7-8.4-.2-16.9-.1-25.4,0h-.7l-.2-.2C321.6,338.4,321.6,331.5,321.4,324.7Zm12-37.1c.5,1.1,1,2.2,1.4,3.3a26.6,26.6,0,0,0,3.3,5.6,20.9,20.9,0,0,0,2.2,2l5.3,4.6c2.2-2.2,5-3.7,7.4-5.7s6.1-6.3,9.3-9.4c6.7-6.7,15.4-11.2,22.5-17.4a55.7,55.7,0,0,0,9-9.8c.5-.6.8-1.6.2-2a1,1,0,0,0-.9-.1c-3.7.6-6,4.8-9.7,5.5-.4.1-.8.1-1-.2s0-1,.4-1.4L393,251.9a4.6,4.6,0,0,0,1.5-2.6c.3-4.6-8.7,3.6-9.7,4.6s-1.4,1.2-1.9.6c2.2-2.7,4.5-5.3,6.7-7.9s3-3.8,2.6-6a48.1,48.1,0,0,0-11.8,10.7c-.8.9-2,1.9-2.9,1.3s-.5-2,0-2.9c1.9-3.4,5.1-6.1,6.4-9.7a1.7,1.7,0,0,0-.1-1.7c-.6-.6-1.5,0-2.1.5l-6.6,6.1c-2.5,2.3-5,4.7-6.4,7.8a6.3,6.3,0,0,1-1.2,2.3,1.9,1.9,0,0,1-2.3.4l.3-5.7a2.5,2.5,0,0,0-.6-2.1c-.5-.6-1.7-.1-1.5.6H363a16.5,16.5,0,0,0-2.6,8.9c-.1,3.1.2,6.3,0,9.4a5.1,5.1,0,0,1-.6,2.7,7,7,0,0,1-2.6,2.2,191.9,191.9,0,0,0-23.8,16.2Z" transform="translate(-174.7 -41.9)"/><path class="cls-4" d="M458.6,211.6h0a2.7,2.7,0,0,1-1.2-2.3,2.9,2.9,0,0,1,1.5-2.2,1.2,1.2,0,0,1,1-.2h.1a8,8,0,0,0,1.5,1.7v.2c.4.8.9,1.7,1.7,1.7l1.6,1.7.2.2h.1c6.3,6.5,13.8,13.4,17.2,17.9l.3.5a4.4,4.4,0,0,0,1.4,1.3c1.1.5,2.4-.3,3.4-1.2l1.5-1.3a1.2,1.2,0,0,0,.5-.5h.1a142.9,142.9,0,0,1,12.3,23.2v.2L488,257.2a22.5,22.5,0,0,0-7,3.3c-.3.3-.8.6-1.2.4a1.3,1.3,0,0,1-.5-.9,208,208,0,0,0-7.1-25.7,15.9,15.9,0,0,0-2.6-5c-.7-.8-1.6-1.4-2.4-2.2C462.9,223,462.2,216.4,458.6,211.6Z" transform="translate(-174.7 -41.9)"/><path class="cls-16" d="M489.7,228.6a.9.9,0,0,1-.3.6,1.2,1.2,0,0,1-.5.5l-1.5,1.3c-1,.9-2.3,1.7-3.4,1.2a4.4,4.4,0,0,1-1.4-1.3l-.3-.5.4-.2a14.3,14.3,0,0,1,5.2-3.9l.2-.2,1.2,1.7A1.2,1.2,0,0,1,489.7,228.6Z" transform="translate(-174.7 -41.9)"/><path class="cls-28" d="M485.5,222.3l2.6,3.8-.2.2a14.3,14.3,0,0,0-5.2,3.9l-.4.2c-3.4-4.5-10.9-11.4-17.2-17.9a2,2,0,0,0,2,.3,9.7,9.7,0,0,0,2.8-2.2c.9-.8,2.2-1.4,3.2-.7a12.5,12.5,0,0,0-3.9,3.7,1.8,1.8,0,0,0-.5,1.1,1.7,1.7,0,0,0,1.3,1.6,4.2,4.2,0,0,0,2.2-.2l1.9-1-.9,1.2a2.5,2.5,0,0,0-.6,2c.3,1.1,1.9,1.4,3,1.1s2-1.2,3.2-1.4a4.7,4.7,0,0,1,3.9,1.1,13.2,13.2,0,0,1,2.5,2.8Z" transform="translate(-174.7 -41.9)"/><path class="cls-3" d="M477.4,648.4c7.8,0,14.2,4.3,14.2,9.6s-6.4,9.6-14.2,9.6-14.2-4.3-14.2-9.6S469.6,648.4,477.4,648.4Z" transform="translate(-174.7 -41.9)"/><path class="cls-4" d="M484.4,212.2a17.3,17.3,0,0,1,1.9,9.5l-1.1.2a13.2,13.2,0,0,0-2.5-2.8,4.7,4.7,0,0,0-3.9-1.1c-1.2.2-2.1,1-3.2,1.4s-2.7,0-3-1.1a2.5,2.5,0,0,1,.6-2l.9-1.2a9.5,9.5,0,0,0,2.1-1.9,9.5,9.5,0,0,0-2.1,1.9l-1.9,1a4.2,4.2,0,0,1-2.2.2,1.7,1.7,0,0,1-1.3-1.6,1.8,1.8,0,0,1,.5-1.1,12.5,12.5,0,0,1,3.9-3.7c-1-.7-2.3-.1-3.2.7a9.7,9.7,0,0,1-2.8,2.2,2,2,0,0,1-2-.3H465l-.2-.2a1,1,0,0,1-.2-.9,2.6,2.6,0,0,1,.8-1.3l3.7-3.6c.5-.6,1.1-1.6.5-2.2s-1.9,1.6-3,2.2-2.6.6-3.4-.4a2.4,2.4,0,0,1,.1-2.7,8.3,8.3,0,0,1,2.3-1.9c2.2-1.4,4.6-2.8,7.1-2.4s4.6,2.8,6.3,5A58.1,58.1,0,0,1,484.4,212.2Z" transform="translate(-174.7 -41.9)"/><path class="cls-27" d="M463.4,134.7a3.4,3.4,0,0,1,.6,2.1c-.3,1.9-2.8,2.4-4.7,2.5-10.7.1-21.4-.6-32,1h-.2a112.7,112.7,0,0,0-12.8,2.9l-2.6.7-19.8,5.5-25,7L345,162.6c-6.3,1.7-12.9,3.5-19.2,1.8-1.5-.3-3.2-1.7-3-2.9h.3l13.6-4.2c9-2.7,17.9-5.5,27-8.1l13-3.7c14.9-4,30-7.6,45.2-10.6l3.8-.7a159.7,159.7,0,0,1,26.7-3.3C456.5,130.8,461.3,131.3,463.4,134.7Z" transform="translate(-174.7 -41.9)"/><path class="cls-29" d="M455.6,200.6a6.3,6.3,0,0,1-3.3.6,10.4,10.4,0,0,1-4.4-2,44.2,44.2,0,0,1-4.7-3.9h0c4.7-3.2,9.5-6.5,13.4-10.6a7.6,7.6,0,0,0,.8-1.1h.2a42,42,0,0,1,3.7,4.9c1,1.6,2,3.5,1.4,5.4a6.9,6.9,0,0,1-2.1,3A17.9,17.9,0,0,1,455.6,200.6Z" transform="translate(-174.7 -41.9)"/><path class="cls-30" d="M456.9,181.7h.2a1.2,1.2,0,0,1,.4,1.5c0,.1-.1.2-.1.3a7.6,7.6,0,0,1-.8,1.1c-3.9,4.1-8.7,7.4-13.4,10.6a.1.1,0,0,1-.1.1,1.5,1.5,0,0,1-.9.4,2.8,2.8,0,0,1-1.2-.4,11.2,11.2,0,0,1-3.6-4.2l.2-.3,1.4-1a149.6,149.6,0,0,0,14.6-11.7l.4-.3A6,6,0,0,1,456.9,181.7Z" transform="translate(-174.7 -41.9)"/><path class="cls-29" d="M453.2,177.6l.4.5A149.6,149.6,0,0,1,439,189.8l-.2-.3-4-5.1c-1.2-1.5-2.4-3.1-2.4-5a6.2,6.2,0,0,1,.1-1.3c.1-.4.3-.8.4-1.2a9.7,9.7,0,0,1,4-4.7l1.4-.8a10.8,10.8,0,0,1,7.7-.1,16.7,16.7,0,0,1,5.1,3.7Z" transform="translate(-174.7 -41.9)"/><path class="cls-31" d="M445.7,628.3c.6,1.2,1.1,2.7.2,3.7s-1.9,1-3,1a85.4,85.4,0,0,1-19.5-1.9,23.2,23.2,0,0,1-5.1-1.6c-2.8-1.3-5.1-3.5-7.7-5.2a2,2,0,0,0-1.6-.4c-.5.3-.6,1-1,1.4a2.5,2.5,0,0,1-2.5.6,18.4,18.4,0,0,0-2.5-.9,7.3,7.3,0,0,1-2.1-.6,2.6,2.6,0,0,1-.8-2.7c.1-1,.5-2,.5-3a10.9,10.9,0,0,0-1.3-3.4,12.4,12.4,0,0,1,1.3-11.8h.8a1.6,1.6,0,0,0,.2,1,2.1,2.1,0,0,0,.6,1c.7,1,1.5,1.9,2.2,2.8a34.7,34.7,0,0,0,4,4.5,31.4,31.4,0,0,0,7.7,4.6,48.3,48.3,0,0,0,9.5,3.8,48.8,48.8,0,0,0,11.5.7h.5a.9.9,0,0,0,.3-.6h.1A16.6,16.6,0,0,1,445.7,628.3Z" transform="translate(-174.7 -41.9)"/><path class="cls-4" d="M437.8,620.7a.7.7,0,0,1,.1.5.9.9,0,0,1-.3.6h-.5a48.8,48.8,0,0,1-11.5-.7,48.3,48.3,0,0,1-9.5-3.8,31.4,31.4,0,0,1-7.7-4.6,34.7,34.7,0,0,1-4-4.5c-.7-.9-1.5-1.8-2.2-2.8a2.1,2.1,0,0,1-.6-1,1.6,1.6,0,0,1-.2-1l.3-1.3a39.9,39.9,0,0,0-.3-21.4l16.7-1.4v.5a79.1,79.1,0,0,0-1.3,8.5,41.6,41.6,0,0,0,.7,12.7,12.8,12.8,0,0,0,1.8,4.7,15.5,15.5,0,0,0,2.4,2.8A65.2,65.2,0,0,0,436.9,620,2,2,0,0,1,437.8,620.7Z" transform="translate(-174.7 -41.9)"/><path class="cls-32" d="M431.4,178.4h0l-4.6,1.5a9.7,9.7,0,0,1,1.1,12.9,5.6,5.6,0,0,1-3.8,2.2c-1.9.2-3.6-.9-5.4-1.1a8.2,8.2,0,0,1-.8,6,4.4,4.4,0,0,1-5.1,2.1v-.2c0-1.7,0-3.4.1-5a31,31,0,0,1,1-6.9h0c3.3-1.8,5.4-5.3,7.1-8.6s1.8-3.8,1.4-5.8v-.7c2.5-.5,5.5-1.4,6.3-3.9a8,8,0,0,0,.1-3.1c-.1-.2-.1-.6-.2-.9h.4a4.9,4.9,0,0,1,4.2.6,9.5,9.5,0,0,1,3,3,2.2,2.2,0,0,1,.6,1.4l.2.2a9.7,9.7,0,0,0-4,4.7c-.1.4-.3.8-.4,1.2h-.1A.9.9,0,0,1,431.4,178.4Z" transform="translate(-174.7 -41.9)"/><path class="cls-32" d="M430.5,154.9c.1,3.6.1,7.5-1.8,10.6h-.4a6.3,6.3,0,0,0-2.1-3.6,5.3,5.3,0,0,1-1.5-1.1,5.6,5.6,0,0,1-.7-2.3,5.7,5.7,0,0,0-3.5-4,5.1,5.1,0,0,1-1.7-.7,5.8,5.8,0,0,1-1-1.2c-1.7-2.5-3.4-5.3-3.2-8.2l-.3-1.2a112.7,112.7,0,0,1,12.8-2.9h.2v.4C430.1,144.8,430.4,150,430.5,154.9Z" transform="translate(-174.7 -41.9)"/><path class="cls-4" d="M382.9,181h-1.2a16.8,16.8,0,0,1-6.2-2,7.5,7.5,0,0,1-3.6-5.1,6.3,6.3,0,0,1,3.1-6.4c2.2-1.4,5-1.2,7.4-2.3s4-3.3,5.5-5.4,4.2-6.1,4.1-9.6v-.6l19.8-5.5,2.6-.7.3,1.2c-.2,2.9,1.5,5.7,3.2,8.2a5.8,5.8,0,0,0,1,1.2,5.1,5.1,0,0,0,1.7.7,5.7,5.7,0,0,1,3.5,4,5.6,5.6,0,0,0,.7,2.3,5.3,5.3,0,0,0,1.5,1.1,6.3,6.3,0,0,1,2.1,3.6,7.8,7.8,0,0,1,.2,1.4c.1.3.1.7.2.9a8,8,0,0,1-.1,3.1c-.8,2.5-3.8,3.4-6.3,3.9v.7c.4,2-.5,4-1.4,5.8s-3.8,6.8-7.1,8.6h0l-.6.4a22.6,22.6,0,0,1-5.7,1.4,36,36,0,0,1-8,.6A20.1,20.1,0,0,1,382.9,181Z" transform="translate(-174.7 -41.9)"/><path class="cls-22" d="M305,439.8l-.3-.4c-1.8-13.5-1.6-27.2-.9-40.8a108.8,108.8,0,0,1,1.5-15.1,119.3,119.3,0,0,1,5.3-18.3c2.5-7.4,5.5-15.3,11.9-19.6v-.2c8.5-.1,17-.2,25.4,0,20,.3,40,1.6,60,2.7a28.6,28.6,0,0,0,9.7-.7h0c4.8,12.3,5.5,25.9,6.2,39.1.4,8.7.9,17.3,1.3,26,.6,12.5,1.3,25,1.4,37.5.2,23.6-1.4,47.1-.6,70.7.6,19,2.8,37.9,2.4,56.8h0a1.1,1.1,0,0,1-.2,1h-.3l-9.7.8-16.7,1.4-15.9,1.3h0c-7.6-32.6-3.5-66.7-5-100.1-1.2-27.2-6.1-54-11-80.7-.3-1.8-.7-3.8-2.1-5.1l-.2-.2c-3.6,2.8-4.1,8.1-4.4,12.7a219,219,0,0,1-9.6,49.5,27.7,27.7,0,0,1-3.4,7.4c-1.7,2.4-4.2,4.1-6.6,5.8C317.6,489,282.1,514.7,255,530h-.1c-2.1-3.8-4.3-7.4-6.7-11s-6-8.5-9.1-12.7c-4.4-6.1-8.8-12.2-12.6-18.7v-.3C253.4,472.9,280.6,458.4,305,439.8Z" transform="translate(-174.7 -41.9)"/><path class="cls-33" d="M425.6,133.7v.5l-3.8.7c-15.2,3-30.3,6.6-45.2,10.6l-13,3.7-.2-.7c.4-3-.8-6.1-.5-9.1s2.4-6.2,4.6-8.7c5.5-6.4,12.7-11.7,20.9-13.3a55.7,55.7,0,0,1,9.1-.6,26.9,26.9,0,0,1,7.5.6,25.9,25.9,0,0,1,6.4,3.3c2.9,1.9,5.7,4,8.6,6.2S425,130.7,425.6,133.7Z" transform="translate(-174.7 -41.9)"/><path class="cls-4" d="M412.8,202.1a14.5,14.5,0,0,0,.3,3,13.6,13.6,0,0,0,2.6,4.5l2.1,2.8h.1l-.5.6-9,10a20.7,20.7,0,0,1-5.1,4.7c-4.7,2.6-10.7,1.3-15.1-1.7s-7.4-7.6-10.3-12l-8.6-12.8h.1a13.9,13.9,0,0,0,7.9-4.8l.6-.8a16.9,16.9,0,0,0,2.8-5.3h.5a35.6,35.6,0,0,0,30.8,6.5h.9c-.1,1.6-.1,3.3-.1,5Z" transform="translate(-174.7 -41.9)"/><path class="cls-10" d="M413.3,190.4l.6-.4a31,31,0,0,0-1,6.9H412a35.6,35.6,0,0,1-30.8-6.5h-.5a20.2,20.2,0,0,0,.7-2.3,12.8,12.8,0,0,0,.3-7h1.2a20.1,20.1,0,0,0,16.7,11.4,36,36,0,0,0,8-.6A22.6,22.6,0,0,0,413.3,190.4Z" transform="translate(-174.7 -41.9)"/><ellipse class="cls-3" cx="222.9" cy="615.1" rx="14.2" ry="9.6"/><path class="cls-4" d="M384.8,253.9c1-1,10-9.2,9.7-4.6a4.6,4.6,0,0,1-1.5,2.6l-10.2,10.7c-.4.4-.8,1-.4,1.4s.6.3,1,.2c3.7-.7,6-4.9,9.7-5.5a1,1,0,0,1,.9.1c.6.4.3,1.4-.2,2a55.7,55.7,0,0,1-9,9.8c-7.1,6.2-15.8,10.7-22.5,17.4-3.2,3.1-5.9,6.7-9.3,9.4s-5.2,3.5-7.4,5.7l-5.3-4.6a20.9,20.9,0,0,1-2.2-2,26.6,26.6,0,0,1-3.3-5.6c-.4-1.1-.9-2.2-1.4-3.3h0a191.9,191.9,0,0,1,23.8-16.2,7,7,0,0,0,2.6-2.2,5.1,5.1,0,0,0,.6-2.7c.2-3.1-.1-6.3,0-9.4a16.5,16.5,0,0,1,2.6-8.9h.4c-.2-.7,1-1.2,1.5-.6a2.5,2.5,0,0,1,.6,2.1l-.3,5.7a1.9,1.9,0,0,0,2.3-.4,6.3,6.3,0,0,0,1.2-2.3c1.4-3.1,3.9-5.5,6.4-7.8l6.6-6.1c.6-.5,1.5-1.1,2.1-.5a1.7,1.7,0,0,1,.1,1.7c-1.3,3.6-4.5,6.3-6.4,9.7-.5.9-.9,2.2,0,2.9s2.1-.4,2.9-1.3a48.1,48.1,0,0,1,11.8-10.7c.4,2.2-1.1,4.3-2.6,6s-4.5,5.2-6.7,7.9C383.4,255.1,384.3,254.5,384.8,253.9Z" transform="translate(-174.7 -41.9)"/><path class="cls-32" d="M392,150.1c.1,3.5-2,6.7-4.1,9.6s-3.1,4.3-5.5,5.4-5.2.9-7.4,2.3a6.3,6.3,0,0,0-3.1,6.4,7.5,7.5,0,0,0,3.6,5.1,16.8,16.8,0,0,0,6.2,2h0a12.8,12.8,0,0,1-.3,7,20.2,20.2,0,0,1-.7,2.3,16.9,16.9,0,0,1-2.8,5.3v-.2a10.8,10.8,0,0,1-2.9,1.3,7.8,7.8,0,0,1-6.4-2.8,8.3,8.3,0,0,1-1.6-7.4c-2.3,0-4.6,0-6.7-1.1s-3.4-3.6-2.5-5.7,3.1-3.2,2.6-5.1-1.9-1.9-2.9-2.9a4.6,4.6,0,0,1-1.1-4.6,5.1,5.1,0,0,1,3.4-3.3c1.8-.6,3.8-.2,5.5-1a4.5,4.5,0,0,0,1.7-6.1v-.2l25-7Z" transform="translate(-174.7 -41.9)"/><ellipse class="cls-3" cx="143.9" cy="615.1" rx="14.2" ry="9.6"/><path class="cls-34" d="M276.9,125a83.7,83.7,0,0,1-5.1-11,2.1,2.1,0,0,1-.2-1.5,2,2,0,0,1,1-.8l9.8-4.8a2.9,2.9,0,0,1,1.6-.4c.9.2,1.5,1.2,1.9,2.1a25.7,25.7,0,0,0,2.6,4.1c1.1,1.5,2.5,2.8,3.5,4.3a6.4,6.4,0,0,1,1,5.3c-.6,1.8-2.6,3.1-4.3,2.4s-2.2-3.6-1.1-5.4a3.1,3.1,0,0,0,.5-1.2,3.6,3.6,0,0,0-.4-.9c-.5-.8-1.4-3.2-1.7-3.2s-2.7-3.2-3-3c-2,1-5,3-7,4,.9,1.7,3.7,6.1,4.4,7.9a6.5,6.5,0,0,1,0,5.6,4.7,4.7,0,0,1-6,2c-.2-.1-.5-.2-.5-.4a2.2,2.2,0,0,1-.1-.8,8.2,8.2,0,0,1,1-3A3.2,3.2,0,0,1,276.9,125Z" transform="translate(-174.7 -41.9)"/><ellipse class="cls-3" cx="63.9" cy="616.1" rx="14.2" ry="9.6"/><path class="cls-4" d="M248.2,519.1l-.4.3c-4.7,2.2-9.7,4.7-12.3,9.2s-2.3,8.9-2.2,13.5c0,2.7.1,5.5.1,8.3v.8c0,.8,0,1.7-.6,2.1s-2.3,0-3.1-.9c-7.3-7.5-8.7-18.7-9.3-29.2-.1-2.5-.2-5.2,1.2-7.3a8,8,0,0,1,3.2-2.5,22.1,22.1,0,0,1,5.7-1.7c3.3-.7,7-1.9,8.2-5l.4-.3C242.2,510.6,245.3,514.8,248.2,519.1Z" transform="translate(-174.7 -41.9)"/><path class="cls-31" d="M233.8,550.4a27.6,27.6,0,0,1-.2,13.4,2.9,2.9,0,0,1-1.4,2.1,2.8,2.8,0,0,1-2-.1c-3.8-1.4-6.7-4.7-8.9-8.1a44.9,44.9,0,0,1-6.9-22.2c0-1.1-.1-2.4-1-2.9s-1.9-.3-2.8-.5-2.7-2.7-2.3-4.5a10.6,10.6,0,0,1,2.9-4.7c3.8-4.2,7.9-8.6,13.4-9.8l.2.3a8,8,0,0,0-3.2,2.5c-1.4,2.1-1.3,4.8-1.2,7.3.6,10.5,2,21.7,9.3,29.2.8.9,2.2,1.7,3.1.9s.6-1.3.6-2.1v-.8Z" transform="translate(-174.7 -41.9)"/><path class="cls-35" d="M413.9,190c3.3-1.8,5.4-5.3,7.1-8.6s1.8-3.8,1.4-5.8" transform="translate(-174.7 -41.9)"/><path class="cls-35" d="M382.9,180.9h0a20.1,20.1,0,0,0,16.7,11.4,36,36,0,0,0,8-.6,22.6,22.6,0,0,0,5.7-1.4l.6-.4" transform="translate(-174.7 -41.9)"/><path class="cls-35" d="M414.6,144.5c-.2,2.9,1.5,5.7,3.2,8.2a5.8,5.8,0,0,0,1,1.2,5.1,5.1,0,0,0,1.7.7,5.7,5.7,0,0,1,3.5,4,5.6,5.6,0,0,0,.7,2.3,5.3,5.3,0,0,0,1.5,1.1,6.3,6.3,0,0,1,2.1,3.6,7.8,7.8,0,0,1,.2,1.4c.1.3.1.7.2.9a8,8,0,0,1-.1,3.1c-.8,2.5-3.8,3.4-6.3,3.9" transform="translate(-174.7 -41.9)"/><path class="cls-35" d="M392,150.1c.1,3.5-2,6.7-4.1,9.6s-3.1,4.3-5.5,5.4-5.2.9-7.4,2.3a6.3,6.3,0,0,0-3.1,6.4,7.5,7.5,0,0,0,3.6,5.1,16.8,16.8,0,0,0,6.2,2H383" transform="translate(-174.7 -41.9)"/><path class="cls-36" d="M431.2,178.4h.2a.9.9,0,0,0,1-.3" transform="translate(-174.7 -41.9)"/><path class="cls-36" d="M374.7,196.8c.1,0,.2,0,.2-.1a10.8,10.8,0,0,0,2.9-1.3" transform="translate(-174.7 -41.9)"/><path class="cls-37" d="M320.1,294.4a126.8,126.8,0,0,1,12.8-7.6" transform="translate(-174.7 -41.9)"/><path class="cls-36" d="M428.3,577.6a1.1,1.1,0,0,1-.2,1" transform="translate(-174.7 -41.9)"/><path class="cls-38" d="M611.4,276.8h0A5.8,5.8,0,0,0,610,273a3,3,0,0,0-3.8-.5c-.2.2-.5.4-.6.7a4.6,4.6,0,0,0-.7,1.6,9,9,0,0,0-.7,5.1c.3,1.7,1.8,3.3,3.5,3.2s2.1-.5,2.8.1a3.1,3.1,0,0,1,.5,1.2c.2,1.5.3,3,.5,4.5a7.4,7.4,0,0,0,.4,1.4c1.2,3.7,4.7,6.2,8.2,7.8a19.5,19.5,0,0,0,9.1,2l2.3-.4a13.4,13.4,0,0,0,9.5-10" transform="translate(-174.7 -41.9)"/><path class="cls-39" d="M645.4,278.1h.4a2.8,2.8,0,0,1,1.8.6,4.6,4.6,0,0,1,2.1,4.4c-.3,2.6-2.4,4.6-4.8,5.6l-3.6,1" transform="translate(-174.7 -41.9)"/><path class="cls-40" d="M609.1,299.8l-3.6,4-.2.2a5.7,5.7,0,0,0-.8,1.3v.3a4.1,4.1,0,0,0,.5,2.1c1.6,3.3,3.1,6.7,5.5,9.5a3,3,0,0,0,2,1.2h.5a2.9,2.9,0,0,0,1-1.2,11.6,11.6,0,0,1,3.3-3.7" transform="translate(-174.7 -41.9)"/><path class="cls-40" d="M617.9,313.6a23,23,0,0,1,2.1,5.7c.1.3.1.5.3.7a.8.8,0,0,0,.8.2h.5a19.6,19.6,0,0,0,6-3.6,9.8,9.8,0,0,0,3.1-3.3l.3-.9a11.5,11.5,0,0,0,.2-3.7c0-.7-.3-1.7-1-1.7" transform="translate(-174.7 -41.9)"/><path class="cls-41" d="M606.9,321.5l3.8.9" transform="translate(-174.7 -41.9)"/><path class="cls-42" d="M607.3,325.7a13.6,13.6,0,0,1,3.6-1" transform="translate(-174.7 -41.9)"/><path class="cls-43" d="M620.4,324.3l4.1-.5" transform="translate(-174.7 -41.9)"/><path class="cls-41" d="M620.6,327.3a11,11,0,0,1,4,.5" transform="translate(-174.7 -41.9)"/><path class="cls-36" d="M493.5,350h0c8.5-7.5,17.3-14.9,26.2-22,13.4-10.7,28.1-21.2,45.1-23.9a97.5,97.5,0,0,1,15.3-.8c8.3,0,16.5.1,24.8.4" transform="translate(-174.7 -41.9)"/><path class="cls-36" d="M523.9,426.7l-.3-.6a8.6,8.6,0,0,0-1-1.6,2.6,2.6,0,0,0-2.3-.8,2.5,2.5,0,0,0-1.7,2.4,6.9,6.9,0,0,0,.9,3.1c1.2,2.7,2.4,5.3,3.5,8s2.3,5.1,3.4,7.7a15.5,15.5,0,0,0,2.1,3.5,3,3,0,0,0,1.7.8c1.3-.1,1.8-1.8,1.7-3.1a17,17,0,0,0-.4-2.2,38.9,38.9,0,0,0-1.6-4.4,1.7,1.7,0,0,0-.2-.5l-1.2-2.6c-.4-1-.9-2-1.4-3s-1.1-2-1.6-3.1-1-2.1-1.5-3.3" transform="translate(-174.7 -41.9)"/><path class="cls-36" d="M559.4,429.9c2,.1,4.1.2,6.1.1" transform="translate(-174.7 -41.9)"/><path class="cls-36" d="M560.8,424l4.6.2" transform="translate(-174.7 -41.9)"/><path class="cls-36" d="M639.5,450.1l.6.3c6,2.1,12.1,4.3,18.5,5.2,2.9.5,5.9.7,8.8,1.1a101,101,0,0,1,12.1,2.8c3.6.9,7.2,1.9,10.7,3.1a121.4,121.4,0,0,1,16.4,7.5c2.1,1.1,4.4,2.4,5.4,4.5a2,2,0,0,1,.2.8c-.2.2-1-.6-.2.6" transform="translate(-174.7 -41.9)"/><path class="cls-36" d="M639.9,439.9a43.6,43.6,0,0,0,.3,10.2" transform="translate(-174.7 -41.9)"/><path class="cls-44" d="M540.3,589.2a1.3,1.3,0,0,1-.4-.7,2.4,2.4,0,0,1,.6-2.4h.2a4.9,4.9,0,0,1,2.6-1h.9c1.7-.1,3.7,0,4.7,1.4s.6,3.7,1.8,5a3.7,3.7,0,0,0,3.5.7c1.2-.3,2.3-.9,3.5-1.3h.8a1.3,1.3,0,0,1,.6,1c1,3.6,1.8,7.7-.3,10.8a12.9,12.9,0,0,1-3,2.7,71.7,71.7,0,0,1-6.9,4.3l-5.8,3.4a25.5,25.5,0,0,1-5.5,2.7,20.1,20.1,0,0,1-6.4.8c-2.2.1-4.3,0-6.5,0a13.4,13.4,0,0,1-3.9-.7c-2.2-.9-3.7-3-5-5a1.3,1.3,0,0,1-.3-1,1.1,1.1,0,0,1,.7-.6c4.9-2.2,8.3-6.6,12-10.5a31.1,31.1,0,0,1,5.2-4.4l1.7-1.1a24,24,0,0,0,5.3-3.7" transform="translate(-174.7 -41.9)"/><path class="cls-44" d="M700.5,587.7a2.6,2.6,0,0,1,2.7.9c.8.7,1.7,1.5,2.7,1.4s1.9-1.8,1.9-3.1a1.6,1.6,0,0,1,1.4-1.9l5-1.7c1.2-.3,2.6-.6,3.6.2" transform="translate(-174.7 -41.9)"/><path class="cls-45" d="M892,176.6l-.3-.7a14,14,0,0,0-2.5-3.5,5.8,5.8,0,0,0-3.5-1.3,2.7,2.7,0,0,0-1.2.3c-1.9.8-2.7,3.1-2.9,5.2-.2,3.8,1.9,8.3,5.7,8.5,1.1,0,2.2-.3,3.1.3a3.7,3.7,0,0,1,1.3,1.7c.5.9,1,1.8,1.6,2.7a23,23,0,0,0,10.1,9.2,19.1,19.1,0,0,0,3.4,1c5.3.9,10.7-1.1,15-4.2a36.2,36.2,0,0,0,7-7.1c1.3-1.6,2.4-3.2,3.6-4.9a2.6,2.6,0,0,1,1.7-1.4,5.7,5.7,0,0,1,1.8.3,4.2,4.2,0,0,0,3.8-1.8,12,12,0,0,0,1.8-4,7.5,7.5,0,0,0,.4-3.9l-.2-.4" transform="translate(-174.7 -41.9)"/><path class="cls-46" d="M933.5,174.2h0a2.7,2.7,0,0,0,3.1,4.2,5.4,5.4,0,0,0,2.2-2.3l1.3-2.3" transform="translate(-174.7 -41.9)"/><path class="cls-36" d="M720.3,589h120" transform="translate(-174.7 -41.9)"/><path class="cls-36" d="M523.8,426c3.3-1.3,6.7-2.4,10.2-3.4l2.1-.5" transform="translate(-174.7 -41.9)"/><path class="cls-36" d="M525.9,430.1l8-2.9,5.6-2.4" transform="translate(-174.7 -41.9)"/><path class="cls-36" d="M527.8,433.1l5.2-1.6,1.5-.4,1.3-.5,2-1a18.7,18.7,0,0,1,5.3-2" transform="translate(-174.7 -41.9)"/><path class="cls-36" d="M528.9,436.2l6.4-2.3,11.2-4" transform="translate(-174.7 -41.9)"/><path class="cls-36" d="M530.2,439.5l6.8-2.1c5.3-1.6,10.6-3.3,15.8-5.2" transform="translate(-174.7 -41.9)"/><path class="cls-36" d="M531.6,443.9l8-3.2c6.8-2.7,13.6-5.2,20.6-7.6h.1" transform="translate(-174.7 -41.9)"/><polyline class="cls-36" points="391.8 389.2 401.9 385.1 451.2 365.1 532.3 332.1"/><polyline class="cls-36" points="396 384.1 401.9 381.7 450.1 362.3 530 330.2 530.3 330.1"/><polyline class="cls-36" points="398.8 379.1 401.3 378.1 449.1 359.7 528.3 329.1"/><polyline class="cls-36" points="391.8 377.2 391.8 377.2 400 374.1 447.5 355.9 533.3 323.1"/><line class="cls-36" x1="382.1" y1="376.5" x2="392.3" y2="374.1"/><polyline class="cls-36" points="396.3 372.1 398.6 371.2 446.4 353.5 538.3 319.4 539.3 319.1 555.3 314.1"/><line class="cls-36" x1="381.4" y1="374.1" x2="388.9" y2="372"/><polyline class="cls-36" points="394.8 370 397.3 369.1 445.5 351.6 554.3 312.1"/><line class="cls-36" x1="542.3" y1="320.1" x2="557.3" y2="316.1"/><line class="cls-36" x1="549.3" y1="321.1" x2="557.3" y2="317.1"/><line class="cls-36" x1="549.8" y1="321.3" x2="557.3" y2="318.1"/><line class="cls-36" x1="550.3" y1="322.1" x2="558.3" y2="318.1"/></svg>