<svg id="레이어_1" data-name="레이어 1" xmlns="http://www.w3.org/2000/svg" viewBox="0 0 481 406.6"><defs><style>.cls-1{fill:#d6bdb4;}.cls-2{fill:#295105;}.cls-3{fill:#fff;}.cls-4{fill:#e9bca5;}.cls-5{fill:#6b6b6b;}.cls-6{fill:#ce696c;}.cls-7{fill:#deadb0;}.cls-8{fill:#8d6545;}.cls-9{fill:#b54d67;}.cls-10{fill:#e5b836;}.cls-11{fill:#4a126b;}.cls-12{fill:#9d0fba;}.cls-13{fill:#8f6445;}.cls-14{fill:#051951;}.cls-15{fill:#efb08f;}.cls-16{fill:#f59f56;}.cls-17{fill:#f6ad73;}.cls-18{fill:#f58356;}.cls-19{fill:#e7b736;}.cls-20{fill:#bfbfbf;}.cls-21{fill:#ed6d49;}.cls-22{fill:#31b6af;}.cls-23{fill:#493322;}.cls-24{fill:#b1846a;}.cls-25{fill:#411b1c;}.cls-26{fill:#3a4e52;}.cls-27{fill:#42210b;}.cls-28{fill:#fbb03b;}.cls-29{fill:#f7931e;}.cls-30{fill:#e6e6e6;}.cls-31{fill:#f2f2f2;}.cls-32{fill:#1b1464;}.cls-33{fill:#ccc;}.cls-34{fill:#8cc63f;}.cls-35{fill:#9e005d;}.cls-36,.cls-41{fill:#d2d85b;}.cls-37{fill:#d7dd5b;}.cls-38,.cls-40{fill:#dba197;}.cls-39{fill:#e2c6c0;}.cls-40{stroke:#dba197;stroke-width:0.25px;}.cls-40,.cls-41{stroke-miterlimit:10;}.cls-41{stroke:#adad17;stroke-width:0.5px;}.cls-42{fill:#3f2615;}.cls-43{fill:#c12398;}.cls-44{fill:#efebea;}.cls-45{fill:#9c02bc;}.cls-46{fill:#604a1a;}.cls-47{fill:#ccc3bc;}.cls-48{fill:#aa8153;}.cls-49{fill:#dbdad9;}.cls-50{fill:#c99d67;}.cls-51{fill:#022a68;}.cls-52{fill:#b7906a;}.cls-53{fill:#313233;}.cls-54{fill:#9f19dd;}.cls-55{fill:#adad17;}</style></defs><title>진짜 진짜 최종</title><ellipse class="cls-1" cx="240.5" cy="334.6" rx="240.5" ry="72"/><path class="cls-2" d="M1069.2,254.2a4,4,0,0,1-1.2,3.9c-1.8,1.4-4.3.5-6.4-.2-5-1.8-10.9-2.8-15.4-.1-2.9,1.8-4.8,4.9-7.2,7.4s-5.3,3.9-8.1,3.3l-2.1.3-1.3-.4.4-2a10.9,10.9,0,0,1-1.9-8.4,16.9,16.9,0,0,1,3.7-7.9,19.7,19.7,0,0,1,14-7.7,26.9,26.9,0,0,1,8.4,1c5.5,1.3,11.1,3,14.9,7.2A7.5,7.5,0,0,1,1069.2,254.2Z" transform="translate(-618 -105.4)"/><path class="cls-2" d="M1024.8,238l-.3-.6,2.7-1.1a15.9,15.9,0,0,1,.7-10.1,34.8,34.8,0,0,1,5.4-9.3,37.3,37.3,0,0,1,5.4-6.5,46.5,46.5,0,0,1,10.4-6.8,57.7,57.7,0,0,1,11.1-4.9,18.6,18.6,0,0,1,11.9.2,2.1,2.1,0,0,1,1,.6,2.4,2.4,0,0,1,.6,1.9c-.1,3.2-3.1,5.4-5.9,7-7.1,4.4-14.3,9-20.4,14.7a26.7,26.7,0,0,0-3.1,3.6,37.1,37.1,0,0,0-2.4,4.9,26.2,26.2,0,0,1-3.5,5.4,6,6,0,0,1-1.9,1.6c-2,.9-4.4-.4-6.6.1v.2a157.1,157.1,0,0,0-12.4,29.3c.8-4.8,1.4-9.7,2-14.5a40.1,40.1,0,0,1,2.2-10.2,25.5,25.5,0,0,1,3.1-5.5Z" transform="translate(-618 -105.4)"/><path class="cls-2" d="M1014.1,214a21.1,21.1,0,0,1-3.7-5.3l-1.5-2.8a14.9,14.9,0,0,1-2-5.3h.1c0-.3-.1-.7-.1-1-.6-5.3-1-10.8.4-15.9s4.4-9.4,7.4-13.6l7.5-10.8a52.9,52.9,0,0,1,4.7-5.9,30.4,30.4,0,0,1,3.3-2.8,72.5,72.5,0,0,1,16.6-9.6,16.7,16.7,0,0,1,6.1-1.6,3.8,3.8,0,0,1,2.3.6c1.8,1.2,1.5,3.9.8,5.9-3.4,10.4-11.5,18.5-17,28-4.2,7.2-6.7,15.3-8.8,23.3-.9,3.7-1.8,7.5-3.9,10.7s-5.4,5.8-9.2,5.8l-.2-.2a6.1,6.1,0,0,0-.7,1Z" transform="translate(-618 -105.4)"/><path class="cls-2" d="M1013.2,290.6q1-4.4,1.8-8.7h.6c-.8,11.4,3.6,22.6,3.8,34.1h.2a334.2,334.2,0,0,1,7.9-47.7l1.3.4a405.8,405.8,0,0,0-5.9,56.1l.2.3c-1,7.5-.4,15.1.2,22.7v1.2h-6.7v-1.3a75.4,75.4,0,0,0-7.1-29.9c-.2-.6-.5-1.1-.7-1.6l-2.2-.6c.5-1.9,1-3.6,1.6-5.5s.9-3.1,1.3-4.7h.4l4.2,13.8,1.6-.4a136.5,136.5,0,0,0-1.2-15.7c-.7-4.3-1.8-8.5-1.2-12.8Z" transform="translate(-618 -105.4)"/><path class="cls-3" d="M1004.3,228.9l-1.2-.5,1.9-.8c-.1-1.4,1.2-2.6,2.1-3.7a14.7,14.7,0,0,0,2.9-7.3,41.5,41.5,0,0,0,.3-7.9h.1a21.1,21.1,0,0,0,3.7,5.3l2.1.4a15.7,15.7,0,0,0-.4,2.3,47.7,47.7,0,0,1-2.5,11.8l-2.8.4a19.7,19.7,0,0,0-3.5.5h-.3l-1.3.8Z" transform="translate(-618 -105.4)"/><path class="cls-2" d="M1003.1,228.4a28.3,28.3,0,0,0-8.7-1.4v-.6a25.3,25.3,0,0,1-5.2-3.9,37.1,37.1,0,0,1-6-7.7,197.9,197.9,0,0,1-18.4-36.1c-2.3-5.9-4.3-11.9-4.6-18.2-.2-2,0-4.2,1.4-5.7a5.7,5.7,0,0,1,4.2-1.5,24.2,24.2,0,0,1,4.5,1,53.5,53.5,0,0,1,11.2,8.9,101.7,101.7,0,0,1,9.9,12.6c5.4,7.6,10.8,15.4,14.9,23.8h.6c0,.3.1.7.1,1h-.1a14.9,14.9,0,0,0,2,5.3l1.5,2.8h-.1a41.5,41.5,0,0,1-.3,7.9,14.7,14.7,0,0,1-2.9,7.3c-.9,1.1-2.2,2.3-2.1,3.7Z" transform="translate(-618 -105.4)"/><path class="cls-4" d="M936,299.4a26.6,26.6,0,0,1,9.3-.9,135.1,135.1,0,0,1,26.9,3.7l1.5.2a53.6,53.6,0,0,0,3.6-9.7l1.2-4.4c.8-3.4,1.4-6.8,2-10.2l.9-4.6c.4-2.3.8-4.6,1.3-6.9s.8-3.8,1.3-5.7.3-1.6.5-2.5l.3-1c.8-3.6,1.7-7.3,2.6-11,.2-1,.5-2,.7-2.9s1.1-4.6,1.7-6.9l1.5-6.3c0-.3.1-.5.1-.8l.7-1.3a2.1,2.1,0,0,0-.1-1.1h2.4a28.3,28.3,0,0,1,8.7,1.4l1.2.5,1.1,1.3a23.6,23.6,0,0,0-6.8,8.2c-7,13-7.4,28.4-5.8,42.9a42.4,42.4,0,0,1,.5,9.4,29.3,29.3,0,0,1-1.1,5.9c-2.4,9.7-5.2,19.3-8.5,28.8l-1.1,1.2-14.5-5.2a34.6,34.6,0,0,0-8.2-2.3,13.1,13.1,0,0,0-8.3,1.2c-4.5,2.5-6.4,7.9-7.8,12.9a134.4,134.4,0,0,0-5,25.1h-.5a67.1,67.1,0,0,0-9.6-3.1h-.6c.8-8.5,3.3-16.9,4.8-25.3a219.7,219.7,0,0,0,2.4-24.3l.3-6Z" transform="translate(-618 -105.4)"/><path class="cls-2" d="M1008.3,349.3h-9.1V349c3.2-6.1,3.2-13.3,4.3-20.1a96.3,96.3,0,0,1,3.2-13.1l2.2.6c.2.5.5,1,.7,1.6l-.6.3a196.5,196.5,0,0,0-.7,29.7Z" transform="translate(-618 -105.4)"/><path class="cls-5" d="M999.4,349.4h23.9l11.9-.2v.3a2.3,2.3,0,0,1,1.9.7v.7c-.7,5.7-.2,11.4-.2,17.1,0,15.9-4,31.6-8,47.1a28.6,28.6,0,0,1-2.7,7.4l-.5-.2c-4.6,2.8-10.2,3.6-15.6,3.3s-10.6-1.9-15.9-3.3h-.2l-5.5-18.7a15.7,15.7,0,0,1-.9-4.3l-1-.2a255.4,255.4,0,0,1,9.2-34.6c1.7-4.9,3.7-9.8,3.5-14.8Z" transform="translate(-618 -105.4)"/><path class="cls-6" d="M930.3,251.9c.7-3.7,1.4-7.3,2.2-11l2.1.4c10.8-.7,21.6.7,32.3,2.2l18.9,2.5,1.6.4c-.9,3.7-1.8,7.4-2.6,11l-.3,1-2.4-.6L945,253.1a87.5,87.5,0,0,0-13.5-.9Z" transform="translate(-618 -105.4)"/><path class="cls-7" d="M984,260.9c-.5,1.9-.9,3.8-1.3,5.7s-.9,4.6-1.3,6.9l-2-.2c-16.8-2.6-33.8-3.4-50.6-5.7l-1.4-.3c.7-4,1.5-7.9,2.2-11.9l1.2.2c17.1-1.3,34,4.3,51.2,4.9Z" transform="translate(-618 -105.4)"/><path class="cls-2" d="M980.8,224.6c-7.4-.8-14.9-1.4-22.3-1.7v-1.2c-8.5-8.9-18.8-15.8-28.5-23.5-1.9-1.5-3.9-3-5.1-5.1s-1.6-4.9-.4-7a3.5,3.5,0,0,1,1-1.1,5.2,5.2,0,0,1,1.8-.2l5,.3a24.9,24.9,0,0,1,4.7.4,31.6,31.6,0,0,1,5.2,1.7,74.4,74.4,0,0,1,36.7,32,13.9,13.9,0,0,1,2,4.7Z" transform="translate(-618 -105.4)"/><path class="cls-6" d="M978.7,278h1.8c-.6,3.4-1.2,6.8-2,10.2l-2.7-.4c-16.6-.8-33-4.4-49.7-5.2H925c.5-3.8,1-7.5,1.7-11.2l1.2.2A457.9,457.9,0,0,1,978.7,278Z" transform="translate(-618 -105.4)"/><path class="cls-7" d="M945.3,298.5a26.6,26.6,0,0,0-9.3.9h-.4l.3-5.4-.7-.3-11.3-1.1v-.8c.1-1.8.3-3.6.5-5.4H926a60.4,60.4,0,0,1,12,.6c12.3,1.4,24.5,3.2,36.7,5.3l2.6.3a53.6,53.6,0,0,1-3.6,9.7l-1.5-.2A135.1,135.1,0,0,0,945.3,298.5Z" transform="translate(-618 -105.4)"/><path class="cls-8" d="M976.3,416.5h0a137.5,137.5,0,0,1-3.1,17h-2.8l-2.6-.3-.4-.2c-.3-3.7-.5-7.5-.5-11.3l-.4-.9C969.8,419.6,973,418.1,976.3,416.5Z" transform="translate(-618 -105.4)"/><path class="cls-4" d="M940.5,368.6a2.6,2.6,0,0,0,2.4-1.9c.4-1.4,0-2.9-.1-4.3a21.4,21.4,0,0,1,.6-6.2c1.1-5.6,2.4-11.2,3.8-16.8.9-3.5,2-7.1,4.1-10s5.6-5.2,9.2-4.9a3.2,3.2,0,0,1,1.7.6c1.3,1,1,3,.4,4.6-1.9,4.7-4.6,9.2-6.8,13.8a41.2,41.2,0,0,0-2.3,5.8c-2,6-2.1,12.4-2.3,18.7l-.3,1.1a1.5,1.5,0,0,1-.1.7l-1.4-.2c-2.8,1.2-5.9,1.1-9,.9Z" transform="translate(-618 -105.4)"/><path class="cls-4" d="M951.8,426.4c-2.9,1-6.1,2-8,4.3l-.4-.2c1.6-12.8,3.4-25.6,5.6-38.3h0a39,39,0,0,0,2.1-17.9,34,34,0,0,1-.3-4.5,1.5,1.5,0,0,0,.1-.7l.3-1.1c.2-6.3.3-12.7,2.3-18.7a41.2,41.2,0,0,1,2.3-5.8h.2a6,6,0,0,1,3.6-2.8,19.4,19.4,0,0,1,5.4-.4,101.2,101.2,0,0,0,19-1.3,6.5,6.5,0,0,0,2.7-.8,6.2,6.2,0,0,0,2-2.5,81,81,0,0,0,11-35.8c.7-10-.4-19.9-.2-29.8s2.1-20.3,7.9-28.3a7.5,7.5,0,0,1,2.9-2.7c3.2-1.4,6.6,1,9.1,3.4l2.2.9a40.1,40.1,0,0,0-2.2,10.2c-.6,4.8-1.2,9.7-2,14.5s-1.5,9.1-2.4,13.7q-.7,4.4-1.8,8.7c-1.1,5-2.4,10-3.7,15-.4,1.6-.9,3.2-1.3,4.7s-1.1,3.6-1.6,5.5a96.3,96.3,0,0,0-3.2,13.1c-1.1,6.8-1.1,14-4.3,20.1v.4c.2,5-1.8,9.9-3.5,14.8a255.4,255.4,0,0,0-9.2,34.6c-1,4.4-1.8,8.7-2.7,13.1l-.7,1.1-6.8,3.5c-3.3,1.6-6.5,3.1-9.8,4.4A152.6,152.6,0,0,1,951.8,426.4Z" transform="translate(-618 -105.4)"/><path class="cls-4" d="M939.5,368.2l-.8-1.5a58.9,58.9,0,0,1,.1-8.4,134.4,134.4,0,0,1,5-25.1c1.4-5,3.3-10.4,7.8-12.9a13.1,13.1,0,0,1,8.3-1.2,34.6,34.6,0,0,1,8.2,2.3l14.5,5.2,1.1-1.2c3.3-9.5,6.1-19.1,8.5-28.8a29.3,29.3,0,0,0,1.1-5.9,42.4,42.4,0,0,0-.5-9.4c-1.6-14.5-1.2-29.9,5.8-42.9a23.6,23.6,0,0,1,6.8-8.2l1.3-.8h.3a19.7,19.7,0,0,1,3.5-.5l1.6.2a15.1,15.1,0,0,1,2.9,1.3l4,2.4c2.1,1.1,4.4,2.5,5.5,4.6l.3.6h-.1a25.5,25.5,0,0,0-3.1,5.5l-2.2-.9c-2.5-2.4-5.9-4.8-9.1-3.4a7.5,7.5,0,0,0-2.9,2.7c-5.8,8-7.6,18.3-7.9,28.3s.9,19.8.2,29.8a81,81,0,0,1-11,35.8,6.2,6.2,0,0,1-2,2.5,6.5,6.5,0,0,1-2.7.8,101.2,101.2,0,0,1-19,1.3,19.4,19.4,0,0,0-5.4.4,6,6,0,0,0-3.6,2.8h-.2c2.2-4.6,4.9-9.1,6.8-13.8.6-1.6.9-3.6-.4-4.6a3.2,3.2,0,0,0-1.7-.6c-3.6-.3-7.1,1.9-9.2,4.9s-3.2,6.5-4.1,10c-1.4,5.6-2.7,11.2-3.8,16.8a21.4,21.4,0,0,0-.6,6.2c.1,1.4.5,2.9.1,4.3a2.6,2.6,0,0,1-2.4,1.9A1.3,1.3,0,0,1,939.5,368.2Z" transform="translate(-618 -105.4)"/><path class="cls-4" d="M813.3,359.3a9.5,9.5,0,0,1,1.8-2.9l2.1.4a1.7,1.7,0,0,0-.3,1c-.2,2,2.4,2.9,4.4,3,3.9.4,7.8.5,11.7.6,35.5,1.2,70.8,6,106.2,9h1.2c3.1.2,6.2.3,9-.9l1.4.2a34,34,0,0,0,.3,4.5,39,39,0,0,1-2.1,17.9h0l-.4-.2c-10.2,3.5-21.4.9-32.1-1a248.2,248.2,0,0,0-39.4-4c-5-.1-10-.1-15-.7s-8.8-1.7-13.2-2.5a99.3,99.3,0,0,0-30.3-.7h-.1l-.7-.8c-2.5-.5-5.2-1.9-5.9-4.4a8.2,8.2,0,0,1-.1-2.7c.1-3,.3-6,.5-9A21.8,21.8,0,0,1,813.3,359.3Z" transform="translate(-618 -105.4)"/><path class="cls-8" d="M938.7,430.9v1.2c-.9,8.8-2,17.5-3.4,26.2h-6.7v-.4a209.8,209.8,0,0,1-1.6-26.3v-1.7Z" transform="translate(-618 -105.4)"/><path class="cls-4" d="M817.2,356.8a6.5,6.5,0,0,1,2.6-1.9h.6l3,.6a43.7,43.7,0,0,0,7.2.6h1.5a18.4,18.4,0,0,0,3.3-.3c2.4-.5,4.5-1.7,6.8-2.6,7.1-3,15-3.7,22.8-4.3l2.4.8a41.7,41.7,0,0,0,7.1.4,166.2,166.2,0,0,1,44.3,6.7,47.7,47.7,0,0,0,6.5,1.7l2.6-.2c0-1,.1-2.1.2-3.2h.6a67.1,67.1,0,0,1,9.6,3.1h.5a58.9,58.9,0,0,0-.1,8.4l.8,1.5a1.3,1.3,0,0,0,1,.4v1.9h-1.2c-35.4-3-70.7-7.8-106.2-9-3.9-.1-7.8-.2-11.7-.6-2-.1-4.6-1-4.4-3A1.7,1.7,0,0,1,817.2,356.8Z" transform="translate(-618 -105.4)"/><path class="cls-9" d="M875,291.8c-.3-1.4.4-3.3,1.8-3.6h.8l.6.4c3.2,2.1,7.4,2.2,11.2,2.2h4.8c9.9.3,19.8.8,29.7,1.6l11.3,1.1.7.3-.3,5.4-.3,6a219.7,219.7,0,0,1-2.4,24.3c-1.5,8.4-4,16.8-4.8,25.3-.1,1.1-.2,2.2-.2,3.2l-2.6.2a47.7,47.7,0,0,1-6.5-1.7,166.2,166.2,0,0,0-44.3-6.7,41.7,41.7,0,0,1-7.1-.4l-2.4-.8h2.4a235.7,235.7,0,0,0,6.5-30,7.8,7.8,0,0,0,.2-1.4c.4-2.8.8-5.5,1.4-8.2a42.7,42.7,0,0,0,2-8.4,9.8,9.8,0,0,0-.6-4.5c-.5-1.4-1.5-2.6-1.9-4.1Z" transform="translate(-618 -105.4)"/><path class="cls-7" d="M935.5,224.9v-.4h1c17.6,1.3,35.2,3,52.7,5.2l2.1.5-1.5,6.3c-.6,2.3-1.1,4.6-1.7,6.9l-1.7-.4c-17.1-2.3-34.1-6.5-51.4-5.8l-1.8-.4C934,232.9,934.8,228.9,935.5,224.9Z" transform="translate(-618 -105.4)"/><path class="cls-4" d="M935.5,224.5v.4c-.7,4-1.5,8-2.3,12-.2,1.3-.5,2.6-.7,4-.8,3.7-1.5,7.3-2.2,11l-.6,3.3c0,.1,0,.1-.1.2-.7,4-1.5,7.9-2.2,11.9-.3,1.4-.5,2.7-.7,4.1-.7,3.7-1.2,7.4-1.7,11.2-.2,1.2-.4,2.5-.5,3.8s-.4,3.6-.5,5.4v.8c-9.9-.8-19.8-1.3-29.7-1.6v-.5c2.7-6.1,2.7-13.1,2.5-19.8-.4-14.4-1.7-29.2,1.9-43.2a4.3,4.3,0,0,0,.1-.5h.1c2.5-2,5.7-2.4,8.9-2.5h27.7Z" transform="translate(-618 -105.4)"/><path class="cls-10" d="M906.5,171.4h-7V120.7l-.8-.5.9-.5h6.9v51.7Z" transform="translate(-618 -105.4)"/><path class="cls-11" d="M899.5,171.4h-6.4V121.1l.2-.9h5.4l.8.5v50.7Z" transform="translate(-618 -105.4)"/><path class="cls-12" d="M895.7,215.4v9.3l-.5.9a25.3,25.3,0,0,0-5.1-2.8,13.1,13.1,0,0,0-8.5-.7,11.7,11.7,0,0,0-6.5,5.7l-.6-.3H839.9v-.6c-.3-3.8-.1-7.8-.1-11.6l.8-.7h54.5Z" transform="translate(-618 -105.4)"/><path class="cls-4" d="M890.1,222.8a25.3,25.3,0,0,1,5.1,2.8l2.4,1.6,1.1.3c-3.6,14-2.3,28.8-1.9,43.2.2,6.7.2,13.7-2.5,19.8v.5h-4.8c-3.8,0-8-.1-11.2-2.2h1.7c1-3.7-.4-7.4-1.5-11a114.3,114.3,0,0,1-5.7-31.7c-.1-1.7-.1-3.5-.1-5.2s0-2.2.1-3.3a24.3,24.3,0,0,1,1.4-7.6,18.6,18.6,0,0,1,1-2,11.7,11.7,0,0,1,6.5-5.7A13.1,13.1,0,0,1,890.1,222.8Z" transform="translate(-618 -105.4)"/><path class="cls-13" d="M876.3,300.6H790v-8.3h84.3l.7-.2c.4,1.5,1.4,2.7,1.9,4.1a9.8,9.8,0,0,1,.6,4.5Z" transform="translate(-618 -105.4)"/><path class="cls-11" d="M874.1,229.8a24.3,24.3,0,0,0-1.4,7.6H830.8v-9.9h43.6l.6.3A18.6,18.6,0,0,0,874.1,229.8Z" transform="translate(-618 -105.4)"/><path class="cls-8" d="M836.7,418.9v.3c-.4,8.3-.7,16.5-1,24.8l.2.8a11.1,11.1,0,0,1-5.7.7l-.3-.5c-.9-9-1.9-18-2.9-27v-.4Z" transform="translate(-618 -105.4)"/><path class="cls-14" d="M820.3,125.2v4.2H809.7v-4.6h10.4Z" transform="translate(-618 -105.4)"/><path class="cls-4" d="M818.6,383a99.3,99.3,0,0,1,30.3.7c4.4.8,8.7,1.9,13.2,2.5s10,.6,15,.7a248.2,248.2,0,0,1,39.4,4c10.7,1.9,21.9,4.5,32.1,1l.4.2h0c-2.2,12.7-4,25.5-5.6,38.3l.4.2-.4.5h-.5l-4.2-.4-11.7-1c-22.3-2.2-44.5-5.1-66.8-8l-23-2.9h-.5l-9.6-1.3-1.1-.2h-.6a68.8,68.8,0,0,1-6.7-24.3,74.9,74.9,0,0,1-.3-8.2,13.4,13.4,0,0,0,.1-2Z" transform="translate(-618 -105.4)"/><path class="cls-13" d="M816.8,384.9h1.6a74.9,74.9,0,0,0,.3,8.2l-1.6.2H790v-8.5Z" transform="translate(-618 -105.4)"/><path class="cls-13" d="M816.8,384.9H790V300.6h87.5a42.7,42.7,0,0,1-2,8.4c-.6,2.7-1,5.4-1.4,8.2a7.8,7.8,0,0,1-.2,1.4h-.7l-21.9-5.3c-9.7-2.3-19.4-4.6-29.3-5.2a16.7,16.7,0,0,0-6.7.6,7.1,7.1,0,0,0-4.8,4.4c-1,3.2,1.1,6.4,2.8,9.3a45.6,45.6,0,0,1,5.9,24.5,30.8,30.8,0,0,0,.1,6.8l-1.3.9a6.8,6.8,0,0,0-2.9,1.8,9.5,9.5,0,0,0-1.8,2.9,21.8,21.8,0,0,0-1,6.7c-.2,3-.4,6-.5,9a8.2,8.2,0,0,0,.1,2.7c.7,2.5,3.4,3.9,5.9,4.4l.7.8h0a13.4,13.4,0,0,1-.1,2Z" transform="translate(-618 -105.4)"/><path class="cls-4" d="M814.1,314.4c.8-1.5,2.9-1.7,4.6-1.4,4.8,1.2,7.8,5.8,9.5,10.4,2.8,7.5,3.2,15.6,3.6,23.6l.3,7.8V356h-1.5a43.7,43.7,0,0,1-7.2-.6l.2-1.3c-1-5.8-1.1-11.7-1.8-17.4s-2.3-11.7-5.8-16.4C814.7,318.6,813,316.4,814.1,314.4Z" transform="translate(-618 -105.4)"/><path class="cls-4" d="M815.1,356.4a6.8,6.8,0,0,1,2.9-1.8l1.3-.9a30.8,30.8,0,0,1-.1-6.8,45.6,45.6,0,0,0-5.9-24.5c-1.7-2.9-3.8-6.1-2.8-9.3a7.1,7.1,0,0,1,4.8-4.4,16.7,16.7,0,0,1,6.7-.6c9.9.6,19.6,2.9,29.3,5.2l21.9,5.3h.7a235.7,235.7,0,0,1-6.5,30H865c-7.8.6-15.7,1.3-22.8,4.3-2.3.9-4.4,2.1-6.8,2.6a18.4,18.4,0,0,1-3.3.3v-1.2l-.3-7.8c-.4-8-.8-16.1-3.6-23.6-1.7-4.6-4.7-9.2-9.5-10.4-1.7-.3-3.8-.1-4.6,1.4s.6,4.2,1.9,5.9c3.5,4.7,5,10.6,5.8,16.4s.8,11.6,1.8,17.4l-.2,1.3-3-.6h-.6a6.5,6.5,0,0,0-2.6,1.9Z" transform="translate(-618 -105.4)"/><path class="cls-14" d="M809.7,164.6V129.4h10.6v35.2H809.7Z" transform="translate(-618 -105.4)"/><path class="cls-14" d="M809.7,164.6h10.6v6.8H809.7v-6.8Z" transform="translate(-618 -105.4)"/><path class="cls-15" d="M809.7,165.4v6h-7.2v-6h7.2Z" transform="translate(-618 -105.4)"/><path class="cls-15" d="M809.7,129.4v.8h-7.2V117.8h6.8l.3.6v11Z" transform="translate(-618 -105.4)"/><path class="cls-15" d="M809.7,164.6v.8h-7.2V130.3h7.2Z" transform="translate(-618 -105.4)"/><path class="cls-10" d="M820.6,193.8l1.5,3.8a47,47,0,0,1,3.4,14.7l1.2.5a29.2,29.2,0,0,0,2.2-13.1,7.6,7.6,0,0,0-1.3-4.1c-1.4-1.7-4-2-6.3-2.1Zm-20.7,3a5.4,5.4,0,0,1,3.7-4.4c1.6-.6,3.5-.1,5.2-.2h.7a13.6,13.6,0,0,0,.2-2l.8-.4h9.1a16,16,0,0,0,.5,2.1h.5a16.2,16.2,0,0,1,5.4.2,6.6,6.6,0,0,1,4.2,3.2,8.2,8.2,0,0,1,.6,3.4,40.2,40.2,0,0,1-3.9,17.4h-.8a48.1,48.1,0,0,1-1.2,7.6,62.6,62.6,0,0,1-4.6,13.2v.4H809.5v-.8a47.8,47.8,0,0,1-5.2-18.1l-.7-1.5a85.5,85.5,0,0,1-3.6-14.3A14.7,14.7,0,0,1,799.9,196.8Zm5.1-2.9a3.5,3.5,0,0,0-2.9,1.6,4.2,4.2,0,0,0-.5,2.2c-.3,4.7.1,9.6,2.2,13.8h1.3c-.2-5.8,2.7-11.3,4-17.1h-.7A10.2,10.2,0,0,0,805,193.9Z" transform="translate(-618 -105.4)"/><path class="cls-10" d="M801,120v10.3l-1,.2H745.1l-1-.2V120l2.5-.7H800Z" transform="translate(-618 -105.4)"/><path class="cls-16" d="M794.6,204.8v15.8H741.3V204.8h53.3Zm-16.8,11.8v-6.9l-.8-1.1H758.1v8h19.7Z" transform="translate(-618 -105.4)"/><path class="cls-13" d="M790,300.6v84.3H697.1l-1.2-.3v-84Z" transform="translate(-618 -105.4)"/><path class="cls-10" d="M782.9,155.3H762.2V143.8h20.7v11.5Z" transform="translate(-618 -105.4)"/><path class="cls-17" d="M778,225.7v7.5H758.1v-8h19.7Z" transform="translate(-618 -105.4)"/><path class="cls-16" d="M777.8,209.7v6.9H758.1v-8H777Z" transform="translate(-618 -105.4)"/><path class="cls-18" d="M777.8,193.6v6.6l-.8,1H758.6l-.5-1v-6.6l.8-.5h18.4Z" transform="translate(-618 -105.4)"/><path class="cls-10" d="M763,155.3h19.9V143.8H762.2v11.5Zm35,16.1H748.4V130.5H798v40.9Z" transform="translate(-618 -105.4)"/><path class="cls-18" d="M758.6,201.2H777l.8-1v-6.6l-.5-.5H758.9l-.8.5v6.6Zm36-10.9v14.5H741.3V189h53.1Z" transform="translate(-618 -105.4)"/><path class="cls-19" d="M756.9,268.6c0,1.9.1,3.9-.8,5.5v.8H735.9V274a6,6,0,0,1,.9-6c1.8-2.2,4.8-2.8,7.6-3.3a11.4,11.4,0,0,0,3.5-1.3,15.4,15.4,0,0,0,2.5-2.6,5,5,0,0,1,2.2-1.6h1.9a15.8,15.8,0,0,0,1.7,6.7,5,5,0,0,1,.5,1.3A3.2,3.2,0,0,1,756.9,268.6Z" transform="translate(-618 -105.4)"/><path class="cls-20" d="M744.6,292.3H709.7v-.6a1.9,1.9,0,0,0-.8-1.7l-1.8-.7a21.5,21.5,0,0,1-8.6-4.8,14.8,14.8,0,0,1-4.9-8.4v-1.2h66.3l.4.9a8.5,8.5,0,0,1-1.7,3.6,26.9,26.9,0,0,1-12.8,10l-1,.5a1.5,1.5,0,0,0-.2,1.7Z" transform="translate(-618 -105.4)"/><path class="cls-17" d="M758.1,232.4v.8H778v-7.5l-.2-.5H758.1Zm-15.8-11.8h52.3v16.8H741.3V220.6Z" transform="translate(-618 -105.4)"/><path class="cls-13" d="M735.9,251.3c-1.1-.7-2-1.6-3.1-2.2a4.2,4.2,0,0,0-3.6-.4l-.6-1.7V113.6l-.2-2.5a6.3,6.3,0,0,1,4.7-5.5l1.6-.2h173l2.6.4a5.7,5.7,0,0,1,5.7,4.3V224.2h-8.1V181.3l-1.2-.7q-84.6,1.3-169-.6l-.3,1.3v55.4l.4.7H872.7c-.1,1.1-.1,2.2-.1,3.3s0,3.5.1,5.2H737.5l-.6.5v4.4H738c-.4.5-.7.8-1.2.8A1.3,1.3,0,0,1,735.9,251.3Zm170.6-79.9V116l-.5-.3H737.2l-.3.8v54.6l.6.3h169Z" transform="translate(-618 -105.4)"/><path class="cls-21" d="M710.8,258.4a14.2,14.2,0,0,0-2.9.2v-.7a6.2,6.2,0,0,1,2.8-3.2,19.4,19.4,0,0,1,7-3.2,12.6,12.6,0,0,1,7.2.5h.3a13.9,13.9,0,0,1,3.1,1.8c2.6,1.9,5.1,4.4,5.7,7.5a10.1,10.1,0,0,1,.1,3c0,1.5,0,2.9-.1,4.3s-.2,3.9-1.4,5.3v.9H721.1v-.6a17.4,17.4,0,0,0-.6-9.6c-1.2-3-3.8-5.6-7-6.1A12.3,12.3,0,0,0,710.8,258.4Z" transform="translate(-618 -105.4)"/><path class="cls-22" d="M725.1,251.2c1.6,0,2.6-1.9,4.1-2.5a4.2,4.2,0,0,1,3.6.4c1.1.6,2,1.5,3.1,2.2a1.3,1.3,0,0,0,.9.4c.5,0,.8-.3,1.2-.8l.6-1a4.3,4.3,0,0,1,3.4-1.6,5.9,5.9,0,0,1,2.5.7,8,8,0,0,1,3.3,5.4c.1.3.1.5.3.6a1,1,0,0,0,.9,0,4.4,4.4,0,0,1,5.1,3.1l-.7.9-.8.2a5,5,0,0,0-2.2,1.6,15.4,15.4,0,0,1-2.5,2.6,11.4,11.4,0,0,1-3.5,1.3c-2.8.5-5.8,1.1-7.6,3.3a6,6,0,0,0-.9,6v.9h-3.4V274c1.2-1.4,1.3-3.4,1.4-5.3s.1-2.8.1-4.3a10.1,10.1,0,0,0-.1-3c-.6-3.1-3.1-5.6-5.7-7.5a13.9,13.9,0,0,0-3.1-1.8h-.3Z" transform="translate(-618 -105.4)"/><path class="cls-19" d="M721.1,274.9h-23V274a15.4,15.4,0,0,1-.7-7.4,6.8,6.8,0,0,0,.2-1.4,8.7,8.7,0,0,0-.8-2.6,2.7,2.7,0,0,1,.1-2.6c.8-.8,2.2-.6,3.2-.2s2.2,1,3.3.6.8-.5,1.2-.7a6.5,6.5,0,0,1,3.3-1.1,14.2,14.2,0,0,1,2.9-.2,12.3,12.3,0,0,1,2.7.2c3.2.5,5.8,3.1,7,6.1a17.4,17.4,0,0,1,.6,9.6Z" transform="translate(-618 -105.4)"/><path class="cls-23" d="M716.6,394.4c0,8.9.1,17.7.1,26.6l-.8.4a23.4,23.4,0,0,1-9.1.9l-.9-.8a181.2,181.2,0,0,1-5.1-27.4v-.7h15.8Z" transform="translate(-618 -105.4)"/><path class="cls-13" d="M697.1,384.9H790v8.5H690.1l-.6-1.5V292.3H790v8.3H695.9v84Z" transform="translate(-618 -105.4)"/><path d="M1015.5,319.1a138.3,138.3,0,0,0-1.2-15.7c-.1-.8-.3-1.6-.4-2.4-.6-3.4-1.2-6.9-.7-10.4h.2a35.6,35.6,0,0,0,.8,10.3c.1.8.3,1.6.4,2.4a140,140,0,0,1,1.2,15.7Z" transform="translate(-618 -105.4)"/><path class="cls-24" d="M999.5,349.2l-.7-.4c2.3-4.5,2.9-9.7,3.5-14.8.3-1.7.5-3.5.7-5.2a119.2,119.2,0,0,1,3.2-13.2l.7-2.3.9-3.1c.4-1.5.9-3.1,1.3-4.7,1.3-4.9,2.6-10,3.7-15,.6-2.8,1.2-5.6,1.8-8.7s1.7-9,2.4-13.6,1.4-9.6,2-14.6a39.8,39.8,0,0,1,2.2-10.2,25.7,25.7,0,0,1,3.1-5.6l.7.4a22.9,22.9,0,0,0-3,5.5,34.7,34.7,0,0,0-2.2,10c-.6,5-1.2,9.9-2,14.6s-1.5,9.2-2.4,13.6-1.2,6-1.8,8.8c-1.1,5-2.4,10.1-3.7,15-.5,1.6-.9,3.2-1.4,4.8l-.9,3.1-.6,2.3a111.3,111.3,0,0,0-3.2,13c-.2,1.8-.5,3.5-.7,5.2C1002.5,339.2,1001.9,344.5,999.5,349.2Z" transform="translate(-618 -105.4)"/><path class="cls-24" d="M984.2,411.9h-.8c.7-3.6,1.7-8.3,2.7-13.1a253.8,253.8,0,0,1,9.2-34.7l.5-1.3c1.6-4.3,3.2-8.8,3-13.3v-.2h.8v.2c.2,4.7-1.5,9.2-3.1,13.6l-.4,1.3a249,249,0,0,0-9.2,34.6C985.9,403.7,984.9,408.4,984.2,411.9Z" transform="translate(-618 -105.4)"/><path class="cls-24" d="M943.7,431.4l-.6-.4a1,1,0,0,1,.4-.5c2-2.4,5.2-3.5,8.1-4.4h.1q7.5-2.4,14.7-5.4c3.2-1.4,6.5-2.9,9.7-4.5l6.8-3.5.4.7-6.9,3.5c-3.2,1.6-6.5,3.1-9.7,4.5-4.8,2-9.8,3.9-14.8,5.5h-.1c-2.9,1-5.9,2-7.7,4.2C943.9,431.1,943.8,431.3,943.7,431.4Z" transform="translate(-618 -105.4)"/><path class="cls-24" d="M942.9,431.7l-4.2-.4-11.7-1c-22-2.1-44.3-5-65.9-7.8l-24.4-3.2L827,418l-1-.2V417l1,.2,9.7,1.3,24.4,3.2c21.6,2.8,43.9,5.7,65.9,7.8l11.6,1,4.3.4Z" transform="translate(-618 -105.4)"/><path class="cls-24" d="M825.1,417.7a66.9,66.9,0,0,1-6.8-24.4,59,59,0,0,1-.3-8.4,12.1,12.1,0,0,0,.1-1.9h.8c0,.7-.1,1.3-.1,2a56.2,56.2,0,0,0,.3,8.2,67.7,67.7,0,0,0,6.7,24.2Z" transform="translate(-618 -105.4)"/><path class="cls-24" d="M943.8,430.5H943c1.5-12.6,3.4-25.5,5.6-38.2V392l.8.2h0C947.2,405,945.3,417.9,943.8,430.5Z" transform="translate(-618 -105.4)"/><path class="cls-24" d="M937.4,394c-6,0-12.2-1.1-18.2-2.2l-2.7-.5a248.2,248.2,0,0,0-39.4-4h-2.7a103,103,0,0,1-12.4-.6c-2.8-.4-5.6-1-8.4-1.6l-4.8-.9a98,98,0,0,0-30.1-.7v-.8a100,100,0,0,1,30.4.7l4.8,1c2.7.5,5.5,1.1,8.3,1.5a102.3,102.3,0,0,0,12.3.6h2.7a249.5,249.5,0,0,1,39.5,4l2.8.5c9.7,1.8,19.8,3.7,29.1.6l.2.7A33.7,33.7,0,0,1,937.4,394Z" transform="translate(-618 -105.4)"/><path class="cls-24" d="M949.4,392.4l-.8-.3a38.6,38.6,0,0,0,2.1-17.8v-.8a23.6,23.6,0,0,1-.2-3.8,1.3,1.3,0,0,0,.1-.6h.8c0,.2-.1.4-.1.6a21.7,21.7,0,0,0,.2,3.6v.8A40.3,40.3,0,0,1,949.4,392.4Z" transform="translate(-618 -105.4)"/><path class="cls-24" d="M943.4,371h-4.3c-11.7-1-23.6-2.2-35.2-3.4-23.2-2.4-47.2-4.8-70.9-5.6h-1.6c-3.4-.1-6.8-.2-10.2-.5s-4.9-1.2-4.7-3.4a2.4,2.4,0,0,1,.3-1.2,5.8,5.8,0,0,1,2.8-2l.3.7a5.3,5.3,0,0,0-2.4,1.7l-.3.8c-.1,1.8,2.5,2.5,4.1,2.6,3.3.3,6.8.4,10.1.5H833c23.8.8,47.8,3.2,71,5.6,11.5,1.2,23.5,2.4,35.2,3.4h1.2c3.5.3,6.3.2,8.9-.9l.3.8A16.5,16.5,0,0,1,943.4,371Z" transform="translate(-618 -105.4)"/><path class="cls-24" d="M817.7,382.5c-3.3-.6-5.6-2.4-6.2-4.7a9.2,9.2,0,0,1-.1-2.9c.1-2.7.3-5.5.4-8.2V366a19.4,19.4,0,0,1,1.1-6.8,8.7,8.7,0,0,1,1.8-3.1,6.7,6.7,0,0,1,3.1-1.9l.2.8a5.6,5.6,0,0,0-2.7,1.7,7.8,7.8,0,0,0-1.7,2.8,20.1,20.1,0,0,0-1,6.5v.7c-.1,2.8-.3,5.5-.4,8.3a7.5,7.5,0,0,0,.1,2.6c.8,3,4.5,3.9,5.6,4.1Z" transform="translate(-618 -105.4)"/><path class="cls-24" d="M831.4,356.4h-.8a42,42,0,0,1-7.2-.6l-3.1-.6.2-.8,3,.6a41.7,41.7,0,0,0,7.1.6h1.5a15.1,15.1,0,0,0,3.2-.3,29.8,29.8,0,0,0,5-1.8l1.7-.8c7.1-3,14.9-3.7,22.9-4.3h1.6v.8H865c-7.9.6-15.7,1.3-22.7,4.2l-1.7.8a28.2,28.2,0,0,1-5.1,1.9,17.9,17.9,0,0,1-3.4.3Z" transform="translate(-618 -105.4)"/><path class="cls-24" d="M938.1,358.6a70.6,70.6,0,0,0-9.5-3.2l.2-.7a76.8,76.8,0,0,1,9.6,3.1Z" transform="translate(-618 -105.4)"/><path class="cls-24" d="M940.5,369a2.1,2.1,0,0,1-1.3-.5l.6-.6c.7.7,2.3-.1,2.7-1.3a6.5,6.5,0,0,0,0-3.1c0-.4-.1-.7-.1-1.1a19.5,19.5,0,0,1,.6-6.3c1.1-5.6,2.4-11.2,3.8-16.8,1-3.6,2-7.2,4.2-10.1s5.4-5.4,9.6-5.1a5.2,5.2,0,0,1,1.9.6c1.6,1.3,1,3.7.5,5.1a89.5,89.5,0,0,1-4.3,8.8l-2.5,5.1a37,37,0,0,0-2.4,5.7c-1.9,6-2.1,12.4-2.2,18.6h-.8c.1-6.3.3-12.8,2.3-18.8a50.6,50.6,0,0,1,2.3-5.9l2.6-5a78.5,78.5,0,0,0,4.2-8.8c.4-.9,1.1-3.2-.2-4.1a3,3,0,0,0-1.5-.5c-3.8-.3-7.1,2.2-8.9,4.7s-3,6.3-4,9.9c-1.4,5.6-2.7,11.2-3.8,16.7a18.9,18.9,0,0,0-.6,6.1c0,.4.1.7.1,1.1a7.8,7.8,0,0,1,0,3.4A3.2,3.2,0,0,1,940.5,369Z" transform="translate(-618 -105.4)"/><path class="cls-24" d="M956.1,344.3l-.8-.2.3-.7a6.4,6.4,0,0,1,3.9-3,21.9,21.9,0,0,1,5.1-.4h.4a99.6,99.6,0,0,0,18.9-1.3,8.4,8.4,0,0,0,2.6-.7,7.8,7.8,0,0,0,1.9-2.4,81.8,81.8,0,0,0,10.9-35.7,155.1,155.1,0,0,0,0-16.7c-.1-4.3-.3-8.7-.2-13.1.3-12.2,3-21.5,8-28.5a8.4,8.4,0,0,1,3.1-2.8c3.4-1.6,7.1,1.2,9.5,3.5l-.5.6c-2.3-2.1-5.7-4.7-8.7-3.3a7.2,7.2,0,0,0-2.7,2.5c-5,6.9-7.6,16-7.9,28.1-.1,4.3.1,8.7.2,13a156.9,156.9,0,0,1,0,16.8,81.8,81.8,0,0,1-11,36,6.3,6.3,0,0,1-2.2,2.6,6.5,6.5,0,0,1-2.9.9,101.7,101.7,0,0,1-19.1,1.3h-.3a20.3,20.3,0,0,0-4.9.4,5.7,5.7,0,0,0-3.4,2.6C956.2,343.9,956.2,344.1,956.1,344.3Z" transform="translate(-618 -105.4)"/><path class="cls-24" d="M831.7,354.8v-.7l-.3-7.1c-.4-7.8-.8-15.9-3.5-23.4-1.2-3.3-4-8.9-9.3-10.2-1.6-.3-3.4-.1-4.2,1.2s.7,3.8,1.9,5.4c3.1,4.1,4.9,9.4,5.9,16.6.3,2.4.5,4.8.7,7.2A88.3,88.3,0,0,0,824,354h-.8a90.7,90.7,0,0,1-1.1-10.2c-.2-2.4-.4-4.8-.7-7.2-.9-7.1-2.7-12.2-5.7-16.1-1.4-1.9-3.1-4.2-2-6.3s3.2-2.1,5.1-1.6c5.6,1.3,8.6,7.2,9.8,10.6,2.8,7.6,3.2,15.8,3.5,23.7.2,2.4.3,4.7.4,7.1v.7Z" transform="translate(-618 -105.4)"/><path class="cls-24" d="M938.3,366.7a60.5,60.5,0,0,1,.1-8.5,128.2,128.2,0,0,1,5-25.1c1.4-5,3.3-10.5,8-13.1a13.4,13.4,0,0,1,8.5-1.3,34.1,34.1,0,0,1,8.3,2.3l8.3,2.9,6.2,2.3-.3.7-6.2-2.2-8.2-3a39.8,39.8,0,0,0-8.2-2.2,13.1,13.1,0,0,0-8,1.2c-4.5,2.4-6.3,7.8-7.6,12.6a127.1,127.1,0,0,0-5,25,58.9,58.9,0,0,0-.1,8.4Z" transform="translate(-618 -105.4)"/><path class="cls-24" d="M984.1,325.5l-.8-.3c3.2-9.3,6.1-19,8.5-28.7a26.9,26.9,0,0,0,1.1-5.9,33,33,0,0,0-.4-8.3v-.9c-2-18.1-.1-32.2,5.8-43.1,2.1-3.9,4.4-6.7,7-8.4a10.1,10.1,0,0,1,1.3-.9l.4.7-1.3.8a22.3,22.3,0,0,0-6.7,8.1c-5.8,10.9-7.7,24.8-5.7,42.7v.9a34.4,34.4,0,0,1,.4,8.5,35.6,35.6,0,0,1-1.1,6C990.2,306.4,987.3,316.1,984.1,325.5Z" transform="translate(-618 -105.4)"/><path class="cls-24" d="M1024.5,238.4v-.3l-.3-.5c-1-2-3.1-3.2-5.3-4.5l-4-2.3a14.3,14.3,0,0,0-2.8-1.3,13.7,13.7,0,0,0-4.9.3l-.2-.7a14.2,14.2,0,0,1,3.6-.5h1.7a13.8,13.8,0,0,1,3,1.4l4,2.3c2.3,1.3,4.5,2.7,5.6,4.8l.3.6c.1.1.1.2.2.4Z" transform="translate(-618 -105.4)"/><path class="cls-24" d="M899.2,227.2l-.5-.6c2.6-2.1,6-2.5,9.1-2.6h27.1v.8H907.8C904.9,224.9,901.6,225.2,899.2,227.2Z" transform="translate(-618 -105.4)"/><path class="cls-24" d="M1004.2,229.3l-1.2-.5a26.3,26.3,0,0,0-10.1-1.4v-.8a26.8,26.8,0,0,1,10.5,1.5l1.2.4Z" transform="translate(-618 -105.4)"/><path class="cls-25" d="M992.2,228.2h-.1a1.6,1.6,0,0,0-.2-1,2.4,2.4,0,0,0-1-1,6.1,6.1,0,0,0-2.4-.7l-7.7-.9c-7.6-.8-15.1-1.3-22.3-1.6s-13.1-.4-19.7-.3a5.1,5.1,0,0,0-2.5.6,1.4,1.4,0,0,0-.7,1.2h0v.4a.8.8,0,0,0,.2.5h-.1l-.3-.5v-.5h0a2.2,2.2,0,0,1,.8-1.3,5.8,5.8,0,0,1,2.6-.5c6.6-.1,13.3,0,19.7.3s14.8.8,22.3,1.6c2.6.2,5.2.5,7.7.9a6.1,6.1,0,0,1,2.5.6,3.5,3.5,0,0,1,1,1.1A1.5,1.5,0,0,1,992.2,228.2Z" transform="translate(-618 -105.4)"/><path class="cls-24" d="M894.6,290.6l-.7-.3c2.7-6,2.7-13,2.5-19.6,0-2.1-.1-4.1-.2-6.2-.5-12.3-1-25,2.1-37.1h0a.6.6,0,0,0,.1-.4l.8.2v.4h0c-3.1,12-2.6,24.6-2.1,36.9.1,2,.2,4.1.2,6.2C897.4,277.4,897.4,284.5,894.6,290.6Z" transform="translate(-618 -105.4)"/><path class="cls-25" d="M972.2,302.3a129.1,129.1,0,0,0-26.9-3.7,27.2,27.2,0,0,0-9.3.9v-.2a27.8,27.8,0,0,1,9.4-.9,136.1,136.1,0,0,1,26.9,3.7Z" transform="translate(-618 -105.4)"/><path class="cls-25" d="M973.8,302.5h-.2a57.7,57.7,0,0,0,3.6-9.7c.4-1.3.8-2.7,1.2-4.4.8-3.5,1.5-7,2.1-10.3l.3-2.1c.2-.8.3-1.6.5-2.4.5-2.7.9-4.9,1.3-6.9s.8-3.7,1.3-5.7l.6-2.5a.9.9,0,0,1,.1-.5c0-.2.1-.3.1-.5.9-3.6,1.8-7.3,2.6-11a7.5,7.5,0,0,0,.4-1.6l.3-1.3.9-3.5c.2-1.1.5-2.3.8-3.4s.5-2.1.7-3.2.5-2.1.8-3.1l.2-.8h.1l-.2.7c-.2,1.1-.5,2.1-.7,3.2s-.5,2.1-.8,3.1-.5,2.3-.8,3.5-.5,2.3-.8,3.4a7.4,7.4,0,0,1-.4,1.4l-.3,1.5-2.7,11.1a.6.6,0,0,1-.1.4.7.7,0,0,1-.1.5l-.6,2.5c-.4,2-.9,3.9-1.3,5.8l-1.3,6.8c-.1.8-.3,1.6-.4,2.4s-.3,1.4-.4,2.2c-.6,3.2-1.2,6.7-2.1,10.2-.4,1.7-.7,3.2-1.1,4.5A72.8,72.8,0,0,1,973.8,302.5Z" transform="translate(-618 -105.4)"/><path class="cls-25" d="M924,291.8h-.1c.1-1.9.3-3.7.5-5.4s.3-2.7.5-3.8c.4-3.4,1-7.1,1.7-11.2.2-1.3.4-2.6.7-4.1.7-3.9,1.5-7.7,2.3-11.9v-.2l.6-3.3c.4-1.8.7-3.7,1.1-5.5s.7-3.7,1.1-5.6a12.9,12.9,0,0,1,.4-1.9l.3-2c.5-2.4,1-4.8,1.4-7.2l.9-4.8h.2l-.9,4.7c-.5,2.4-1,4.8-1.4,7.2-.1.7-.3,1.3-.4,2s-.3,1.3-.4,2-.7,3.7-1,5.5-.8,3.7-1.1,5.6l-.7,3.4c-.8,4.2-1.5,8-2.2,11.9-.3,1.5-.5,2.8-.7,4.1-.8,4.2-1.3,7.8-1.8,11.2-.1,1.1-.3,2.4-.4,3.8S924.2,290,924,291.8Z" transform="translate(-618 -105.4)"/><path class="cls-24" d="M880.3,288.7l-.8-.2c1-3.4-.2-6.9-1.3-10.3l-.2-.5a115,115,0,0,1-5.7-31.8c-.1-1.7-.1-3.5-.1-5.2s0-2.2.1-3.3a24.6,24.6,0,0,1,1.5-7.8c.2-.6.6-1.3.9-2a12.9,12.9,0,0,1,6.8-5.9c3.3-1,6.6-.1,8.8.7a45.7,45.7,0,0,1,5.1,2.8l2.3,1.7-.4.7-2.4-1.7a27.3,27.3,0,0,0-4.9-2.7,12.6,12.6,0,0,0-8.3-.7,11.9,11.9,0,0,0-6.3,5.5l-.9,1.9a22.9,22.9,0,0,0-1.4,7.6c-.1,1.1-.1,2.2-.1,3.2s0,3.5.1,5.2a112.2,112.2,0,0,0,5.7,31.5v.6C880.1,281.5,881.3,285.1,880.3,288.7Z" transform="translate(-618 -105.4)"/><path d="M819.2,353.7a20.3,20.3,0,0,1-.2-5.5c0-.4.1-.9.1-1.3a45.2,45.2,0,0,0-6-24.4l-.3-.6c-1.6-2.7-3.4-5.8-2.4-8.9a7.2,7.2,0,0,1,4.8-4.5,17.3,17.3,0,0,1,6.8-.5c9.9.5,19.7,2.9,29.2,5.1h.2l21.8,5.2v.3l-21.8-5.2h-.1c-9.5-2.3-19.4-4.6-29.2-5.1a16.8,16.8,0,0,0-6.7.5,7.2,7.2,0,0,0-4.7,4.3c-.8,2.9.9,6,2.5,8.7l.3.5a46.1,46.1,0,0,1,6,24.6c0,.4-.1.9-.1,1.3a20.3,20.3,0,0,0,.2,5.5Z" transform="translate(-618 -105.4)"/><path d="M1036.9,349.9c-.3-.4-1-.5-1.7-.6V349a2.8,2.8,0,0,1,2,.8Z" transform="translate(-618 -105.4)"/><path class="cls-26" d="M1014,228.7l-1.4-.4a51.9,51.9,0,0,0,2.5-11.7,10,10,0,0,1,.4-2.4,5.7,5.7,0,0,1,.8-1.3l.2-.2.9,1.3-.5-.7.6.5v.2c-.2.1-.3.4-.5.7a12,12,0,0,0-.3,2A53.5,53.5,0,0,1,1014,228.7Z" transform="translate(-618 -105.4)"/><rect class="cls-27" x="289.4" y="75.9" width="0.8" height="41.87"/><rect class="cls-28" x="127.1" y="24.6" width="54.9" height="1"/><rect class="cls-29" x="143.7" y="38.1" width="1" height="11.75"/><rect class="cls-29" x="164.4" y="38.6" width="1" height="10.98"/><rect class="cls-29" x="145" y="49.4" width="20.2" height="1"/><rect class="cls-29" x="144.7" y="37.9" width="20.2" height="1"/><rect class="cls-30" x="139.6" y="88.2" width="1" height="6.64"/><rect class="cls-30" x="140.6" y="95.3" width="18.4" height="1"/><rect class="cls-30" x="140.9" y="87.2" width="18.4" height="1"/><rect class="cls-30" x="159.3" y="88.2" width="1" height="6.64"/><rect class="cls-30" x="139.6" y="103.2" width="1" height="7.91"/><rect class="cls-30" x="140.6" y="102.7" width="18.4" height="1"/><rect class="cls-30" x="159.3" y="104.3" width="1" height="7.4"/><rect class="cls-30" x="140.9" y="110.6" width="18.1" height="1"/><rect class="cls-30" x="139.9" y="127.2" width="20.2" height="1"/><rect class="cls-30" x="139.6" y="119.8" width="1" height="7.15"/><rect class="cls-30" x="140.6" y="119.3" width="19.2" height="1"/><rect class="cls-30" x="159.5" y="120.3" width="1" height="7.15"/><rect class="cls-31" x="192.3" y="59" width="9.6" height="0.2"/><rect class="cls-32" x="192.5" y="60.2" width="8.6" height="0.3"/><rect class="cls-32" x="192.6" y="61.3" width="8.9" height="0.3"/><rect class="cls-33" x="193.2" y="23.8" width="8" height="0.3"/><rect class="cls-32" x="193.4" y="25" width="7.7" height="0.5"/><rect class="cls-27" x="77.4" y="194.8" width="180.9" height="0.8"/><rect class="cls-27" x="77.5" y="196.1" width="0.8" height="83.06"/><rect class="cls-27" x="79.1" y="279.1" width="119.7" height="0.8"/><rect class="cls-23" x="171" y="188.6" width="2" height="97.19"/><path class="cls-27" d="M781.6,358.7c-1.1-.3-2.4-1.4-2.5-4.8v-1.6c0-6-.1-11.9-.2-17.8a6.7,6.7,0,0,1,.7-3.5,3.2,3.2,0,0,1,2-1.4,2.1,2.1,0,0,1,1.9.3l-1.1,1.7H782a1.9,1.9,0,0,0-.7.6,4.5,4.5,0,0,0-.4,2.4c.1,5.9.2,11.8.2,17.8v1.6c0,1,.2,2.6,1.1,2.9Z" transform="translate(-618 -105.4)"/><path class="cls-27" d="M798.4,358.5l-.5-1.9a1.7,1.7,0,0,0,1.1-1.2,7.8,7.8,0,0,0,.2-2.2l-.4-18.4a4,4,0,0,0-.4-2.2.7.7,0,0,0-.6-.5h-.4l-1-1.7a2.7,2.7,0,0,1,1.8-.3,3,3,0,0,1,1.9,1.4,5.7,5.7,0,0,1,.7,3.2l.4,18.3a9.9,9.9,0,0,1-.3,3A3.7,3.7,0,0,1,798.4,358.5Z" transform="translate(-618 -105.4)"/><path class="cls-34" d="M1000.8,222.9l-6.7-20.8c-2.3-6.8-4.6-14-8.5-20.2-1.2-1.8-2.5-3.6-3.8-5.3-2.5-3.4-5-6.8-6.5-10.8l.9-.3c1.5,3.8,4,7.2,6.4,10.5,1.3,1.7,2.6,3.5,3.8,5.4,4,6.3,6.3,13.5,8.6,20.4l6.7,20.8Z" transform="translate(-618 -105.4)"/><path class="cls-34" d="M1016.4,209.1c-.1-7.7,2.4-15.2,5-22.2s4.8-12.5,8.7-18.5l3.5-4.9,5.5-7.4a16.4,16.4,0,0,1,3.8-4.1l.3.5a13.8,13.8,0,0,0-3.6,4c-1.9,2.4-3.7,4.9-5.5,7.4s-2.4,3.3-3.5,4.9a91.3,91.3,0,0,0-8.6,18.3c-2.6,6.9-5.1,14.4-5,21.9Z" transform="translate(-618 -105.4)"/><path class="cls-34" d="M1030.8,232.9l-.5-.3,1-1.6,2.5-4.1h0a40.8,40.8,0,0,1,5.5-7.6,36.6,36.6,0,0,1,7.5-5.6l11.8-7.5.3.5-11.8,7.5a39.5,39.5,0,0,0-7.4,5.5,44.6,44.6,0,0,0-5.4,7.5h0l-2.5,4.1Z" transform="translate(-618 -105.4)"/><path class="cls-34" d="M1031.1,262.7h-.6a18.1,18.1,0,0,1,9.5-12.5,17.9,17.9,0,0,1,15.8.1l-.3.5a17,17,0,0,0-24.4,12Z" transform="translate(-618 -105.4)"/><path class="cls-3" d="M988.1,233c-4.2-1.4-8.8-1.6-13.2-1.9l-7-.5-5.9-1-2.5-.4a123.4,123.4,0,0,0-23.5-1.7v-.7a124.8,124.8,0,0,1,23.7,1.6l2.6.5,5.8.9c2.3.3,4.7.4,7,.6a54.6,54.6,0,0,1,13.3,1.8Z" transform="translate(-618 -105.4)"/><rect class="cls-35" x="184.7" y="26.7" width="6.4" height="0.3"/><rect class="cls-35" x="184.7" y="59.9" width="6.9" height="0.3"/><rect class="cls-35" x="185.3" y="61.7" width="5.9" height="0.3"/><rect class="cls-35" x="185" y="24.7" width="6.6" height="0.3"/><path class="cls-34" d="M934.9,190.5c4.1-.3,7.5,2.3,10.5,4.6s6.2,4.8,9.1,7.3c5.8,4.9,11.1,10.4,14.7,17.1a.4.4,0,0,0,.7-.4c-3.8-7-9.5-12.7-15.5-17.8-3-2.5-6.1-4.9-9.2-7.3s-6.4-4.6-10.3-4.2c-.5,0-.5.8,0,.7Z" transform="translate(-618 -105.4)"/><path class="cls-36" d="M938.6,284.3c4.3,8.9,5.5,18.4,3.4,26.6a14.4,14.4,0,0,1-2.5,5.7c-2.2,2.9-5.7,4.4-8.8,5.7h-.1c3.3-1.4,6.7-2.9,8.9-5.8a15.6,15.6,0,0,0,2.4-5.6c2.2-8.9.6-18.3-3.4-26.6a103.7,103.7,0,0,0-7.1-11.9l-13.5-20.6a1.6,1.6,0,0,0-.7-.7,1,1,0,0,0-.9-.1h0a1,1,0,0,1,.9.1c.4.1.6.5.8.8l6.7,10.2,6.8,10.3v.2A107.7,107.7,0,0,1,938.6,284.3Z" transform="translate(-618 -105.4)"/><path class="cls-36" d="M938.5,284.3c4,8.3,5.6,17.7,3.4,26.6a15.6,15.6,0,0,1-2.4,5.6c-2.2,2.9-5.6,4.4-8.9,5.8l-.7.3a119.5,119.5,0,0,0-11.4,5.5h-.1c3.8-2,7.6-3.9,11.5-5.5l.3-.2h.4c3.1-1.4,6.6-2.9,8.8-5.7a16,16,0,0,0,2.4-5.7c2.1-8.1.9-17.5-3.3-26.4a126.3,126.3,0,0,0-7-11.8l-.2-.2c-2.2-3.4-4.5-6.8-6.7-10.3l-6.8-10.2a1.6,1.6,0,0,0-.7-.7.6.6,0,0,0-.7-.1h-.2a7.7,7.7,0,0,0-5.8,5.2h-.2a7.9,7.9,0,0,1,5.9-5.4h.2a1,1,0,0,1,.9.1,1.6,1.6,0,0,1,.7.7l13.5,20.6A103.7,103.7,0,0,1,938.5,284.3Z" transform="translate(-618 -105.4)"/><path class="cls-37" d="M938.5,284.4c4.2,8.9,5.4,18.3,3.3,26.4a16,16,0,0,1-2.4,5.7c-2.2,2.8-5.7,4.3-8.8,5.7h-.4l-.3.2c-3.9,1.6-7.7,3.5-11.5,5.5h.1l-.2.2h0l-1.7-.5a21.3,21.3,0,0,1-11.6-8.6l-.2-.3a4.7,4.7,0,0,1-.9-2.5,5.3,5.3,0,0,1,.8-2.2c3.5-6.2,9.3-11,14.4-15.3H919c-5.1,4.2-10.9,9-14.5,15.2a6.8,6.8,0,0,0-.8,2.4,5,5,0,0,0,.9,2.6h0l-.4.4v-.2a67.8,67.8,0,0,1-18-.3v-.2l-.9-1.4a.9.9,0,0,1-.3-.6c.1-.3.5-.4.9-.5a41.7,41.7,0,0,1,5,0,10.9,10.9,0,0,0-2.6-7.7c-2.8-3.6-6.9-6-11-7.9-9-4.2-19.3-6.8-28.8-3.9a32.5,32.5,0,0,0-4.3,1.8l-.6.3-1.2-2.4h.4a1.6,1.6,0,0,0,.9-.9c2.9-4.9,5.8-10,8.5-15.4.6-1.1,1.1-2.2,1.6-3.3,2.2-4.4,4.4-9,7.5-12.9a58.1,58.1,0,0,1,5.9-6.2c5.3-5,11.8-10.3,19.6-12.2v.3h-.1c1.7,2.3,3.4,3.3,5.2,3.4h0a7.8,7.8,0,0,0,2.1-.4c2.5-.7,5.4-1.7,7.5-3.8h0l.2-.5a30.9,30.9,0,0,0,4.6,1.4l1.2.3,4.2,1.2a9.4,9.4,0,0,1,4.3,3.4h.1v.5h-.2a7.9,7.9,0,0,0-5.9,5.4h.2a7.7,7.7,0,0,1,5.8-5.2h.2a.6.6,0,0,1,.7.1,1.6,1.6,0,0,1,.7.7l6.8,10.2c2.2,3.5,4.5,6.9,6.7,10.3l.2.2A126.3,126.3,0,0,1,938.5,284.4Zm-20.8,4.3v-.2a6.2,6.2,0,0,1-2.3-3.5,135.1,135.1,0,0,1-4.9-17.9c-.2-1.1-.4-2.2-.5-3.3a15.4,15.4,0,0,1,.2-4.3h-.2a20.3,20.3,0,0,0-.2,4.3c.1,1.1.3,2.2.5,3.3a126.5,126.5,0,0,0,5,18C915.9,286.5,916.4,287.9,917.7,288.7Zm-8.6-1.1-.2-.2a3.7,3.7,0,0,1-2.2,1.8,7.8,7.8,0,0,1-3,.4h-2.5c-1-.1-2.4-.3-3-1.3H898c.6,1.1,2.1,1.3,3.2,1.4h2.5a7.5,7.5,0,0,0,3-.4A3.8,3.8,0,0,0,909.1,287.6Zm-32.9-35.7H876a16.1,16.1,0,0,0-2.3,9.8h.2A15.8,15.8,0,0,1,876.2,251.9Zm-.7,39.5v-.2a14.8,14.8,0,0,1-4.7-2.5,7.3,7.3,0,0,1-2.8-4.4,10,10,0,0,1,1-5.8l1.3-2.3a29.6,29.6,0,0,0,1.5-3.1A17.1,17.1,0,0,0,873,266h-.2a16.5,16.5,0,0,1-1.2,6.9,29.6,29.6,0,0,1-1.5,3.1,16.7,16.7,0,0,0-1.2,2.3,9.9,9.9,0,0,0-1.1,6,7.5,7.5,0,0,0,2.9,4.5A14.3,14.3,0,0,0,875.5,291.4Zm-6.1-3.5h-.2a9.4,9.4,0,0,0-.8,3.3,8.6,8.6,0,0,1-.5,2.3,1.6,1.6,0,0,1-.3.9,10.8,10.8,0,0,0-.5,2.1h.3a7.8,7.8,0,0,1,.4-2.1l.3-.8a10.3,10.3,0,0,0,.5-2.4A11.6,11.6,0,0,1,869.4,287.9Z" transform="translate(-618 -105.4)"/><path class="cls-36" d="M938.1,341c1.2,7.3-.6,14.3-4.8,18.7a26,26,0,0,1-6.8,5c-2.1,1.2-4.2,2.5-6.5,3.6a65,65,0,0,1-29,6.8h-3.6a65.5,65.5,0,0,0,32.6-6.7c2.2-1.1,4.3-2.3,6.4-3.6a30.3,30.3,0,0,0,6.9-5c4.5-4.8,5.8-12.1,4.7-18.6s-4.1-12.6-7.3-18.5h.1C934.1,328.5,937,334.5,938.1,341Z" transform="translate(-618 -105.4)"/><path class="cls-36" d="M938,341c1.1,6.5-.2,13.8-4.7,18.6a30.3,30.3,0,0,1-6.9,5c-2.1,1.3-4.2,2.5-6.4,3.6a65.5,65.5,0,0,1-32.6,6.7h0a65.8,65.8,0,0,0,32.6-6.7c2.2-1.1,4.3-2.4,6.4-3.5a37.2,37.2,0,0,0,6.8-5c4.1-4.4,5.9-11.3,4.7-18.6s-4-12.4-7.3-18.4h.1C933.9,328.4,936.9,334.4,938,341Z" transform="translate(-618 -105.4)"/><path class="cls-37" d="M937.9,341c1.2,7.3-.6,14.2-4.7,18.6a37.2,37.2,0,0,1-6.8,5c-2.1,1.1-4.2,2.4-6.4,3.5a65.8,65.8,0,0,1-32.6,6.7h-.5A246.7,246.7,0,0,1,880,401h-.3l-1.7.2-1.8.2h-.3l-3.1.4c-1,.1-2.2.3-3.3.3a46,46,0,0,1-5.2-.1l-6.1-.4H858l-3.5-.3a26.1,26.1,0,0,1-6.1-1.6h-.2l-12.8-68h0a44.6,44.6,0,0,1,9.6-6.4h0l.2-.3c8.8,7.4,20.8,10,32.2,9h.2c0,.1-.1.2-.1.3s.9,1,1.7,1h3.6l3-.2,3.8-.5,7.6-1.3h.1c5.4-1,10.9-1.9,16.3-3.2a5.2,5.2,0,0,0,3-1.6h-.1l1.8.5h0l.2-.2h0c3.8-2,7.6-3.9,11.4-5.5l.4-.2.4-.2v.2h-.1C933.9,328.6,936.9,334.6,937.9,341Zm-82.4-.2v-.2c-3.1,2.4-4.5,6.2-5.4,9.2a89.2,89.2,0,0,0-2.5,10.2v.4l-.9,4.6h.1c.4-1.5.7-3.1,1-4.6V360c.7-3.4,1.4-6.8,2.4-10.2S852.5,343.2,855.5,340.8Z" transform="translate(-618 -105.4)"/><path class="cls-36" d="M930.6,322.3h.1l-.4.2-.4.2c-3.8,1.6-7.6,3.5-11.4,5.5h0a119.5,119.5,0,0,1,11.4-5.5Z" transform="translate(-618 -105.4)"/><path class="cls-36" d="M919,298.7h.1c-5.1,4.3-10.9,9.1-14.4,15.3a5.3,5.3,0,0,0-.8,2.2,4.7,4.7,0,0,0,.9,2.5l.2.3a21.3,21.3,0,0,0,11.6,8.6l1.7.5h0l-1.8-.5a21.3,21.3,0,0,1-11.6-8.6l-.2-.3h-.1a5,5,0,0,1-.9-2.6,6.8,6.8,0,0,1,.8-2.4C908.1,307.7,913.9,302.9,919,298.7Z" transform="translate(-618 -105.4)"/><path class="cls-36" d="M918.3,328.3h0l-1.8-.5h0Z" transform="translate(-618 -105.4)"/><path class="cls-36" d="M917.8,288.5v.2c-1.3-.8-1.8-2.2-2.3-3.6a126.5,126.5,0,0,1-5-18c-.2-1.1-.4-2.2-.5-3.3a20.3,20.3,0,0,1,.2-4.3h.2a15.4,15.4,0,0,0-.2,4.3c.1,1.1.3,2.2.5,3.3a135.1,135.1,0,0,0,4.9,17.9A6.2,6.2,0,0,0,917.8,288.5Z" transform="translate(-618 -105.4)"/><path class="cls-38" d="M916.5,328h.1a5.2,5.2,0,0,1-3,1.6c-5.4,1.3-10.9,2.2-16.3,3.2h-.1l-7.6,1.3-3.8.5-3,.2h-3.6c-.8,0-1.6-.3-1.7-1s.1-.2.1-.3h.2c-.1,0-.1.1-.1.2s.9.9,1.6.9h3.5l3-.2,3.8-.5,7.6-1.3c5.5-1,11-1.9,16.4-3.2A4.9,4.9,0,0,0,916.5,328Z" transform="translate(-618 -105.4)"/><path class="cls-36" d="M916.5,327.8h0a21.5,21.5,0,0,1-11.7-8.6c-.1-.2-.1-.3-.2-.4h.1l.2.3A21.3,21.3,0,0,0,916.5,327.8Z" transform="translate(-618 -105.4)"/><path class="cls-39" d="M916.5,327.9h-.1a4.3,4.3,0,0,1-2.9,1.5c-5.3,1.4-10.9,2.3-16.2,3.2h-.1l-7.6,1.3-3.8.6h-6.5c-.7.1-1.5-.1-1.5-.7a.3.3,0,0,1,.1-.2,3.9,3.9,0,0,1,1.7-.6h0a10.9,10.9,0,0,0,10.4-5.7c.3-.7.9-2,.2-3a2.6,2.6,0,0,0-2.1-1.1h-2.2a6.5,6.5,0,0,1-3-2.1h-.1l-.9-1-1.1-1.4c-.1-.1,0-.6.2-1l.3-.2.8.4h.2a11.4,11.4,0,0,0,3.6,1h.2a.1.1,0,0,0,.1.1,77.5,77.5,0,0,0,18,.3h0l.4-.4c.1.1.1.2.2.4A21.5,21.5,0,0,0,916.5,327.9Z" transform="translate(-618 -105.4)"/><path class="cls-40" d="M916.5,328a4.9,4.9,0,0,1-2.9,1.6c-5.4,1.3-10.9,2.2-16.4,3.2l-7.6,1.3-3.8.5-3,.2h-3.5c-.7,0-1.6-.2-1.6-.9s0-.2.1-.2a3.7,3.7,0,0,1,1.8-.7,11.1,11.1,0,0,0,10.3-5.7,3,3,0,0,0,.2-2.9,2.8,2.8,0,0,0-2-1h-2.3a6.3,6.3,0,0,1-3-2.1l-.9-1-1.2-1.4c-.2-.3.2-1.5.6-1.4a1.9,1.9,0,0,1,1,.5,11.3,11.3,0,0,0,3.7,1h.2a72.3,72.3,0,0,0,18,.4h0a77.5,77.5,0,0,1-18-.3.1.1,0,0,1-.1-.1h-.2a11.4,11.4,0,0,1-3.6-1h-.2l-.8-.4-.3.2c-.2.4-.3.9-.2,1l1.1,1.4.9,1h.1a6.5,6.5,0,0,0,3,2.1h2.2a2.6,2.6,0,0,1,2.1,1.1c.7,1,.1,2.3-.2,3a10.9,10.9,0,0,1-10.4,5.7h0a3.9,3.9,0,0,0-1.7.6.3.3,0,0,0-.1.2c0,.6.8.8,1.5.7h6.5l3.8-.6,7.6-1.3h.1c5.3-.9,10.9-1.8,16.2-3.2a4.3,4.3,0,0,0,2.9-1.5Z" transform="translate(-618 -105.4)"/><path class="cls-36" d="M916.3,250.4h0a10.7,10.7,0,0,0-4.4-3.4,47.7,47.7,0,0,0-5.4-1.5,40.3,40.3,0,0,1-4.6-1.4l-.5-.2h.5a35,35,0,0,0,4.6,1.4l1.3.3,4.2,1.2A9.6,9.6,0,0,1,916.3,250.4Z" transform="translate(-618 -105.4)"/><path class="cls-36" d="M916.3,250.4h-.1a9.4,9.4,0,0,0-4.3-3.4l-4.2-1.2-1.2-.3a30.9,30.9,0,0,1-4.6-1.4h0a40.3,40.3,0,0,0,4.6,1.4,47.7,47.7,0,0,1,5.4,1.5A10.7,10.7,0,0,1,916.3,250.4Z" transform="translate(-618 -105.4)"/><path class="cls-41" d="M908.9,287.4l.2.2a3.8,3.8,0,0,1-2.4,1.8,7.5,7.5,0,0,1-3,.4h-2.5c-1.1-.1-2.6-.3-3.2-1.4h.2c.6,1,2,1.2,3,1.3h2.5a7.8,7.8,0,0,0,3-.4A3.7,3.7,0,0,0,908.9,287.4Z" transform="translate(-618 -105.4)"/><path class="cls-38" d="M904.2,319.1v.2a72.3,72.3,0,0,1-18-.4h0A67.8,67.8,0,0,0,904.2,319.1Z" transform="translate(-618 -105.4)"/><path class="cls-42" d="M901.7,214.3c1.3,4.5,2.2,9.2,1.4,13.8a11.2,11.2,0,0,1-1.2,3.5,17.7,17.7,0,0,1-3.3,3.4,27.9,27.9,0,0,1-1.5-3H897a11.6,11.6,0,0,0,.1-8.4c-1.2,3.3-2.5,6.5-3.7,9.8a8.2,8.2,0,0,0-.1-4.1,7.5,7.5,0,0,0-4.9-6.9l-6.6-3.7-1.3-.6-1.6-.2H873a32,32,0,0,1,.1,4.4c-.1.7-.3,1.5-.9,1.7h-.1a4.1,4.1,0,0,1-2.9-2.9,8.9,8.9,0,0,1,.1-4.3c.5-2.4,1.4-4.8,3.3-6.3a17.1,17.1,0,0,1,2.3-1.3,12.5,12.5,0,0,1,7.1-1.4h1a12.7,12.7,0,0,0,9-.3v.2h0v.2l.4.3.5.2a8,8,0,0,0,1.6.8h.8l.9-.2h.3l.2-.2h.9a11.8,11.8,0,0,1,3,2.9A16.2,16.2,0,0,1,901.7,214.3Z" transform="translate(-618 -105.4)"/><path class="cls-36" d="M901.9,244.1h-.5Z" transform="translate(-618 -105.4)"/><path class="cls-39" d="M901.9,244.2l-.2.5h-.1c-2.1,2-5,3-7.5,3.7a6.5,6.5,0,0,1-2,.4h0c-1.7-.1-3.3-1.1-5-3.3H887v-.3l1.1-.3h.3v-.2H888c-.2-.5-.3-1-.5-1.5v-.3a8.5,8.5,0,0,0,4.7-3.1,18.9,18.9,0,0,0,2.1-4.8h-.1l-.7-1.6c1.2-3.3,2.5-6.5,3.7-9.8a11.6,11.6,0,0,1-.1,8.4h0l1.5,3h.1l-.2.6h-.2l2.5,8h1.2Z" transform="translate(-618 -105.4)"/><path class="cls-36" d="M901.7,244.7h0c-2.1,2.1-5,3.1-7.5,3.8a7.8,7.8,0,0,1-2.1.4h0c-1.8-.1-3.5-1.1-5.2-3.4h.1c1.3,1.6,3,3.2,5.1,3.3a6.5,6.5,0,0,0,2-.4A17.6,17.6,0,0,0,901.7,244.7Z" transform="translate(-618 -105.4)"/><path class="cls-36" d="M901.6,244.7h.1a17.6,17.6,0,0,1-7.6,3.8,6.5,6.5,0,0,1-2,.4c-2.1-.1-3.8-1.7-5.1-3.3h.1c1.7,2.2,3.3,3.2,5,3.3h0a6.5,6.5,0,0,0,2-.4C896.6,247.7,899.5,246.7,901.6,244.7Z" transform="translate(-618 -105.4)"/><path class="cls-38" d="M900.9,243.7h-.1c-.8-2.7-1.7-5.3-2.4-8h.1C899.3,238.6,900.1,241.2,900.9,243.7Z" transform="translate(-618 -105.4)"/><path class="cls-38" d="M900.8,243.8h-.1l-2.5-8h.2C899.1,238.5,900,241.1,900.8,243.8Z" transform="translate(-618 -105.4)"/><path d="M898.6,235h0Z" transform="translate(-618 -105.4)"/><path d="M897,232h.1a27.9,27.9,0,0,0,1.5,3h-.1l-1.5-3Z" transform="translate(-618 -105.4)"/><path d="M898.5,235.1h0l-1.5-3h0Z" transform="translate(-618 -105.4)"/><path class="cls-33" d="M897.1,206.8a1.4,1.4,0,0,1,.1,1.1,1.8,1.8,0,0,1-.5.7h-.3a2.2,2.2,0,0,0,.5-.8,1.1,1.1,0,0,0,0-.8l-.3-.4h-.2l-.3-.2h0l-.2-.2h-2.1v-.5h2l.6.4.5.5Z" transform="translate(-618 -105.4)"/><polygon points="279.1 126.6 279.1 126.6 279 126.6 279.1 126.6"/><path class="cls-33" d="M896.9,207a1.1,1.1,0,0,1,0,.8,2.2,2.2,0,0,1-.5.8h-.3v-.2h.2l.5-.6a.8.8,0,0,0,0-.7l-.3-.3h.2Z" transform="translate(-618 -105.4)"/><path class="cls-33" d="M896.7,208.6l-.2.2h-.3l-.9.2h-.8a8,8,0,0,1-1.6-.8l-.5-.2-.4-.3v-.2l.9.5a5.1,5.1,0,0,0,1.5.7,2.2,2.2,0,0,0,1.6,0h.6Z" transform="translate(-618 -105.4)"/><path class="cls-43" d="M896.7,207.1a.8.8,0,0,1,0,.7l-.5.6H896v-.2c0-.2,0-.3.1-.3h0a.8.8,0,0,0,.1-.4,2,2,0,0,0,.1-.7h.2Z" transform="translate(-618 -105.4)"/><path d="M896.5,206.7h0Z" transform="translate(-618 -105.4)"/><path d="M896.5,206.7Z" transform="translate(-618 -105.4)"/><path d="M896.4,206.8Z" transform="translate(-618 -105.4)"/><path d="M896.4,206.7h0Z" transform="translate(-618 -105.4)"/><path class="cls-42" d="M897,197.8a6.5,6.5,0,0,1-.9,3l-.6.2h0l-.8.2a6.8,6.8,0,0,0-2.8,1.8,8.8,8.8,0,0,0-1.2,3.2v.2a26.5,26.5,0,0,1-6.8.6c-.5,0-.7-.4-1.1-.8h-.3c.6-1.7,1.2-3.3,1.9-4.9s2.8-5.6,5.7-6.6a7.5,7.5,0,0,1,3-.3,4.1,4.1,0,0,1,2.4.6A3.4,3.4,0,0,1,897,197.8Z" transform="translate(-618 -105.4)"/><path class="cls-43" d="M896.2,201.5a.9.9,0,0,1-.1.7,7.7,7.7,0,0,1-1.4,2.5,4.1,4.1,0,0,1-1,.9,3.7,3.7,0,0,1-1.4.7h-1.5v-.2a8.8,8.8,0,0,1,1.2-3.2,6.8,6.8,0,0,1,2.8-1.8l.8-.2h0A.8.8,0,0,1,896.2,201.5Zm-1.4,1.9a.4.4,0,0,0,0-.5.5.5,0,0,0-.5-.3,1.3,1.3,0,0,0-1.1.5,2.4,2.4,0,0,0-.6,1.1l-.6,1.2c0,.1-.1.3-.1.4h.1l2.4-2A.8.8,0,0,0,894.8,203.4Z" transform="translate(-618 -105.4)"/><path class="cls-33" d="M896.2,206.9a2,2,0,0,1-.1.7.8.8,0,0,1-.1.4h-.3a.5.5,0,0,0,.2-.4c0-.2.1-.4,0-.6h.3Z" transform="translate(-618 -105.4)"/><path d="M896.2,206.9Z" transform="translate(-618 -105.4)"/><path d="M896.2,206.8Z" transform="translate(-618 -105.4)"/><path class="cls-33" d="M896.2,206.8h-.3c.1.2,0,.4,0,.6a.5.5,0,0,1-.2.4h.2v.3h-.6l-1.8-.2-.2-.2-.5-.3h-.3v-.3a6.6,6.6,0,0,0,2.7.6h.3a.5.5,0,0,0,.1-.3,1.3,1.3,0,0,0,.1-.6.4.4,0,0,0-.1-.3H895l-.6.2-.4.2a4.2,4.2,0,0,1-1.2.3v-.5l.9-.3.5-.2.8-.2h.7l.2.2h.2C896.1,206.6,896.2,206.7,896.2,206.8Z" transform="translate(-618 -105.4)"/><path class="cls-33" d="M896,208.6v.2a2.2,2.2,0,0,1-1.6,0,5.1,5.1,0,0,1-1.5-.7l-.9-.5h0v-.2h.2v.2l1.1.4,1.2.5H896Z" transform="translate(-618 -105.4)"/><path class="cls-33" d="M896.1,206.4h-.2l-.2-.2h.2Z" transform="translate(-618 -105.4)"/><path d="M896,208.5h0Z" transform="translate(-618 -105.4)"/><path d="M896,208.5h0c-.1-.1-.2-.2-.1-.4h.1c-.1,0-.1.1-.1.3Z" transform="translate(-618 -105.4)"/><path d="M896,208.6Z" transform="translate(-618 -105.4)"/><path d="M896,207.9h-.1Z" transform="translate(-618 -105.4)"/><path d="M896,208.5h-.1v-.3h.1C895.8,208.3,895.9,208.4,896,208.5Z" transform="translate(-618 -105.4)"/><path d="M895.9,207.9h0Z" transform="translate(-618 -105.4)"/><path d="M895.9,207.9h.1v.2h-.1Z" transform="translate(-618 -105.4)"/><path class="cls-38" d="M894.1,235h.1a18.9,18.9,0,0,1-2.1,4.8,8.5,8.5,0,0,1-4.7,3.1h0a9,9,0,0,0,4.6-3.1A19.9,19.9,0,0,0,894.1,235Z" transform="translate(-618 -105.4)"/><path class="cls-39" d="M893.4,233.4l.7,1.6h-.2a14.6,14.6,0,0,1-2,4.6,8.5,8.5,0,0,1-4.7,3.1l-2.3.3h0a10.8,10.8,0,0,1-7.3-3,13.5,13.5,0,0,1-3.7-7.1,4.5,4.5,0,0,1-.3-1.6c-.1-.4-.1-.8-.2-1.1s-.3-1.3-.4-1.8a27.6,27.6,0,0,1-.6-4h-.1l-.2-.4h.1c.6-.2.8-1,.9-1.7a32,32,0,0,0-.1-4.4h5.9l1.6.2,1.3.6,6.6,3.7a7.5,7.5,0,0,1,4.9,6.9A8.2,8.2,0,0,1,893.4,233.4Z" transform="translate(-618 -105.4)"/><path class="cls-38" d="M893.9,235h.2a19.9,19.9,0,0,1-2.1,4.7,9,9,0,0,1-4.6,3.1h0a.1.1,0,0,1-.1-.1h-.2a8.3,8.3,0,0,1-2.2.3,10.8,10.8,0,0,1-7.4-3.1,14.1,14.1,0,0,1-3.8-7.1c-.2-1-.3-1.9-.4-2.8a30.7,30.7,0,0,1-1-5.8h.1a27.6,27.6,0,0,0,.6,4c.1.5.3,1.2.4,1.8s.1.7.2,1.1a4.5,4.5,0,0,0,.3,1.6,13.5,13.5,0,0,0,3.7,7.1,10.8,10.8,0,0,0,7.3,3h0l2.3-.3a8.5,8.5,0,0,0,4.7-3.1A14.6,14.6,0,0,0,893.9,235Z" transform="translate(-618 -105.4)"/><path class="cls-33" d="M893.2,207.9l.2.2-1.1-.4v-.2h.3Z" transform="translate(-618 -105.4)"/><path class="cls-43" d="M892.3,207.2v.2H892a12.7,12.7,0,0,1-9,.3l-.5-.2h-.3l.4-1.2h.3c.4.4.6.8,1.1.8a26.5,26.5,0,0,0,6.8-.6H892C892.2,206.5,892.3,206.9,892.3,207.2Z" transform="translate(-618 -105.4)"/><path class="cls-44" d="M888.4,308.4a10.9,10.9,0,0,1,2.6,7.7,41.7,41.7,0,0,0-5,0c-.4.1-.8.2-.9.5a.9.9,0,0,0,.3.6l.9,1.4v.2H886a8.9,8.9,0,0,1-3.6-1.1h-.1a1.8,1.8,0,0,0-1-.4c-.1-.1-.3,0-.5.3s-.4,1-.2,1.3l1.2,1.4h-.2a.9.9,0,0,0-.8.7c0,.1,0,.2-.1.2s-.2.2-.4.2h-1.5a.3.3,0,0,0-.4,0l-.4.3a2.4,2.4,0,0,0-.2,2.3,1.9,1.9,0,0,0,1.5.9v.3c0,.5.6.8,1.1.8H882l1.5.4a2.2,2.2,0,0,0,1.9-.9,7.5,7.5,0,0,0,1-2v-.2h1.7a2.6,2.6,0,0,1,1.9,1c.6.9.1,2.1-.2,2.8a11,11,0,0,1-10.2,5.6h0a3.7,3.7,0,0,0-1.9.7h-.3c-11.4,1-23.4-1.6-32.2-9l-.5-.4c-.2-.2-.4-.3-.5-.5a21.3,21.3,0,0,1-6.7-10.3c-1.1-4.3-.3-9.2,2.8-12.3a16.6,16.6,0,0,1,3.4-2.5l.6-.3a32.5,32.5,0,0,1,4.3-1.8c9.5-2.9,19.8-.3,28.8,3.9C881.5,302.4,885.6,304.8,888.4,308.4Z" transform="translate(-618 -105.4)"/><path class="cls-38" d="M890.1,324.5a3,3,0,0,1-.2,2.9,11.1,11.1,0,0,1-10.3,5.7,3.7,3.7,0,0,0-1.8.7h-.1a3.7,3.7,0,0,1,1.9-.7h0a11,11,0,0,0,10.2-5.6c.3-.7.8-1.9.2-2.8a2.6,2.6,0,0,0-1.9-1h0A2.8,2.8,0,0,1,890.1,324.5Z" transform="translate(-618 -105.4)"/><path class="cls-36" d="M888.3,244.8v.2H888l-1.1.3h0l1-.3h.4Z" transform="translate(-618 -105.4)"/><path class="cls-38" d="M888,244.7h-.1l-.6-1.7h.1v.3C887.7,243.7,887.8,244.2,888,244.7Z" transform="translate(-618 -105.4)"/><path class="cls-36" d="M887.9,244.8h0l-1,.3c-7.5,1.8-13.9,6.9-19.6,12.2a58.2,58.2,0,0,0-6,6.2c-3.8,4.9-6.3,10.7-9.1,16.3s-5.6,10.3-8.5,15.3a2,2,0,0,1-.8,1h-.5c-.6,0-1.3-.7-1.8-1.3l-6.1-7.8h.1c2,2.7,4,5.3,6.1,7.9.4.5,1.1,1.2,1.7,1.2h.5a3.1,3.1,0,0,0,.7-.9c2.9-4.9,5.9-10,8.5-15.4l1.7-3.3c2.1-4.4,4.3-9,7.4-12.9a59.2,59.2,0,0,1,6-6.2c5.3-5.1,11.9-10.4,19.7-12.3Z" transform="translate(-618 -105.4)"/><path class="cls-38" d="M887.3,243l.6,1.7h-.1a5.8,5.8,0,0,1-.5-1.4V243Z" transform="translate(-618 -105.4)"/><path class="cls-38" d="M887.4,242.8h0Z" transform="translate(-618 -105.4)"/><path class="cls-38" d="M887.4,242.8h-.1A.1.1,0,0,0,887.4,242.8Z" transform="translate(-618 -105.4)"/><path class="cls-38" d="M887.2,242.9h0Z" transform="translate(-618 -105.4)"/><path class="cls-38" d="M887.1,242.9h.1l-2.3.3h0a11,11,0,0,1-7.5-3.1,14,14,0,0,1-3.8-7.2l-.3-1.7a4.3,4.3,0,0,0-.2-1.1l-.3-1.8a18.4,18.4,0,0,1-.6-4h.1a30.7,30.7,0,0,0,1,5.8c.1.9.2,1.8.4,2.8a14.1,14.1,0,0,0,3.8,7.1,10.8,10.8,0,0,0,7.4,3.1,8.3,8.3,0,0,0,2.2-.3Z" transform="translate(-618 -105.4)"/><path class="cls-36" d="M887.1,374.8H887a236.4,236.4,0,0,1-6.9,26.3H880a246.7,246.7,0,0,0,6.9-26.2h.2Z" transform="translate(-618 -105.4)"/><path class="cls-36" d="M887.1,374.9h0a253.2,253.2,0,0,1-6.9,26.2h-.1a236.4,236.4,0,0,0,6.9-26.3Z" transform="translate(-618 -105.4)"/><path class="cls-36" d="M886.9,245.2h0c-7.8,1.9-14.3,7.2-19.6,12.2a58.1,58.1,0,0,0-5.9,6.2c-3.1,3.9-5.3,8.5-7.5,12.9-.5,1.1-1,2.2-1.6,3.3-2.7,5.4-5.6,10.5-8.5,15.4a1.6,1.6,0,0,1-.9.9h0a2,2,0,0,0,.8-1c2.9-5,5.9-10.1,8.5-15.3s5.3-11.4,9.1-16.3a58.2,58.2,0,0,1,6-6.2C873,252.1,879.4,247,886.9,245.2Z" transform="translate(-618 -105.4)"/><path class="cls-38" d="M886.4,323.4h-.6a6.9,6.9,0,0,1-3.1-2.1h-.1l-.8-.9h.1l.9,1a6.3,6.3,0,0,0,3,2.1Z" transform="translate(-618 -105.4)"/><path class="cls-45" d="M886.4,323.5v.2a7.5,7.5,0,0,1-1,2,2.2,2.2,0,0,1-1.9.9l-1.5-.4h-1.5c-.5,0-1.1-.3-1.1-.8V325a1.9,1.9,0,0,1-1.5-.9,2.4,2.4,0,0,1,.2-2.3l.4-.3a.3.3,0,0,1,.4,0h1.5c.2,0,.3,0,.4-.2s.1-.1.1-.2a.9.9,0,0,1,.8-.7h.2l.8.9h.1a6.9,6.9,0,0,0,3.1,2.1Z" transform="translate(-618 -105.4)"/><path class="cls-38" d="M886.2,318.8H886a11.3,11.3,0,0,1-3.7-1,1.9,1.9,0,0,0-1-.5c-.4-.1-.8,1.1-.6,1.4l1.2,1.4h-.1l-1.2-1.4c-.2-.3,0-1,.2-1.3s.4-.4.5-.3a1.8,1.8,0,0,1,1,.4h.1a8.9,8.9,0,0,0,3.6,1.1h.2Z" transform="translate(-618 -105.4)"/><path class="cls-36" d="M879.7,401h0l-1.7.2-1.8.2h0Z" transform="translate(-618 -105.4)"/><path class="cls-36" d="M879.7,400.9h0l-3.5.4-3.4.4-3.3.3a45.1,45.1,0,0,1-5.2-.1l-6.3-.5-3.5-.3a26.1,26.1,0,0,1-6.1-1.6h0a26.1,26.1,0,0,0,6.1,1.6l3.5.3h.2l6.1.4a46,46,0,0,0,5.2.1c1.1,0,2.3-.2,3.3-.3l3.1-.4h.3l1.8-.2Z" transform="translate(-618 -105.4)"/><path class="cls-41" d="M876,251.8h.2a15.8,15.8,0,0,0-2.3,9.7h-.2A16.1,16.1,0,0,1,876,251.8Z" transform="translate(-618 -105.4)"/><path class="cls-39" d="M876.2,401.5h0a35.7,35.7,0,0,1-1.6,7.9c-.6,2-1.4,4-2,6s-.6,2.6-1,3.8a23.9,23.9,0,0,1-1.3,2.8A231.7,231.7,0,0,0,858,452.2a6.5,6.5,0,0,0-.5,3.6v.2a.1.1,0,0,1-.1.1,13.7,13.7,0,0,1-5.1,3.5,42.7,42.7,0,0,1-6,2.1h-.5l-1.4-7.9h.2c.9-10,1.6-20,2.2-30,.2-1.8.2-3.6.3-5.4v-4.6h.3l.2,1.2,2.8-2.8-2.3-12.6h.2a24.9,24.9,0,0,0,6.1,1.6l3.5.3h.2l6.1.4,4,.2h1.2l3.3-.3,3.1-.4Z" transform="translate(-618 -105.4)"/><path class="cls-36" d="M876.2,401.4h-.3l-3.1.4-3.3.3h-1.2l-4-.2-6.1-.4H858l-3.5-.3a24.9,24.9,0,0,1-6.1-1.6h0a26.1,26.1,0,0,0,6.1,1.6l3.5.3,6.3.5a45.1,45.1,0,0,0,5.2.1l3.3-.3Z" transform="translate(-618 -105.4)"/><path class="cls-36" d="M875.5,291.2v.2a14.3,14.3,0,0,1-4.8-2.5,7.5,7.5,0,0,1-2.9-4.5,9.9,9.9,0,0,1,1.1-6,16.7,16.7,0,0,1,1.2-2.3,29.6,29.6,0,0,0,1.5-3.1,16.5,16.5,0,0,0,1.2-6.9h.2a17.1,17.1,0,0,1-1.2,7.1,29.6,29.6,0,0,1-1.5,3.1l-1.3,2.3a10,10,0,0,0-1,5.8,7.3,7.3,0,0,0,2.8,4.4A14.8,14.8,0,0,0,875.5,291.2Z" transform="translate(-618 -105.4)"/><path class="cls-36" d="M869.2,287.8h.2a11.6,11.6,0,0,0-.8,3.2,10.3,10.3,0,0,1-.5,2.4l-.3.8a7.8,7.8,0,0,0-.4,2.1h-.3a10.8,10.8,0,0,1,.5-2.1,1.6,1.6,0,0,0,.3-.9,8.6,8.6,0,0,0,.5-2.3A9.4,9.4,0,0,1,869.2,287.8Z" transform="translate(-618 -105.4)"/><path class="cls-46" d="M857.5,456.2a2.4,2.4,0,0,1,0,3.1,6.8,6.8,0,0,1-2.7,2l-3.8,1.5-4.1,1.6h-.6l-.5-2.8h.5a42.7,42.7,0,0,0,6-2.1,13.7,13.7,0,0,0,5.1-3.5Z" transform="translate(-618 -105.4)"/><path class="cls-41" d="M855.4,340.6v.2c-3,2.4-4.4,6.1-5.4,9s-1.7,6.8-2.4,10.2v.4c-.3,1.5-.6,3.1-1,4.6h-.1l.9-4.6V360a89.2,89.2,0,0,1,2.5-10.2C850.9,346.8,852.3,343,855.4,340.6Z" transform="translate(-618 -105.4)"/><polygon class="cls-47" points="230.2 294.2 232.5 306.8 229.7 309.6 229.4 308.4 230 308.6 232 306.6 229.7 294.3 230.2 294.2"/><polygon class="cls-47" points="229.7 294.3 232 306.6 230 308.6 210 208.7 210.4 208.8 210.5 208.7 230.3 307.6 231.5 306.4 212.7 206.6 213.1 206.2 213.4 207.8 216.9 226.3 229.7 294.3"/><polygon class="cls-47" points="212.7 206.6 231.5 306.4 230.3 307.6 210.5 208.7 212.7 206.6"/><path class="cls-47" d="M835.4,331.6l12.8,68h-.5l-12.8-68h.2l.3-.3Z" transform="translate(-618 -105.4)"/><polygon class="cls-47" points="210 208.7 230 308.6 229.4 308.4 209.5 208.7 209.9 208.6 210 208.6 210 208.7"/><polygon class="cls-48" points="228.3 359.1 230 368.6 227 372.6 195 183.6 197 181.6 200.6 201.7 201.2 204.7 201.2 204.7 200.8 205.7 201.4 205.8 206 231.6 210 254.6 216 287.6 219 305.1 223.5 331.8 224 334.6 226.4 348.4 227.8 356.3 228.3 359.1"/><polygon class="cls-49" points="209.5 208.7 229.4 308.4 229.2 308.4 219 305.1 216 287.6 210 254.6 206 231.6 201.4 205.8 209.9 208.6 209.5 208.7"/><path class="cls-39" d="M847.2,413.8v4.6h-.2c-1.7,6.2-3.3,12.5-5,18.8h-.4L837,410.5Z" transform="translate(-618 -105.4)"/><path class="cls-36" d="M845,325h0a44.6,44.6,0,0,0-9.6,6.4h0A44.6,44.6,0,0,1,845,325Z" transform="translate(-618 -105.4)"/><path class="cls-36" d="M845,324.9h0a44.6,44.6,0,0,0-9.6,6.4h-.1A45.3,45.3,0,0,1,845,324.9Z" transform="translate(-618 -105.4)"/><polygon class="cls-50" points="195 183.6 227 372.6 222 369.6 220.7 362.2 220.2 359.3 219 352.6 219 352.5 218.4 349 217.2 341.9 216.8 339.5 211 304.6 210.7 302.8 208 288.6 202 252.6 197 223.6 195.3 213.8 194.1 206.8 193.5 203.4 192.7 198.5 190 182.6 195 183.6"/><path class="cls-37" d="M844.2,323.8h-.1A23.8,23.8,0,0,1,831.9,313h0l-.4-1.9.4-.4-2.5-.9h.1a77.4,77.4,0,0,1-6.7-12.3h-.1l-.2-.4h.2a23.3,23.3,0,0,1,4.1-6.1,13.8,13.8,0,0,1,6.5-3.5l1.1-.2h.1l6,7.9a3.2,3.2,0,0,0,1.9,1.3h.1l1.2,2.4a16.6,16.6,0,0,0-3.4,2.5c-3.1,3.1-3.9,8-2.8,12.3A21.3,21.3,0,0,0,844.2,323.8Z" transform="translate(-618 -105.4)"/><path class="cls-36" d="M844.1,323.8h0a24.5,24.5,0,0,1-12.2-10.7h0A23.8,23.8,0,0,0,844.1,323.8Z" transform="translate(-618 -105.4)"/><path class="cls-36" d="M844.1,323.9H844a24.1,24.1,0,0,1-12-10.5v-.3A24.5,24.5,0,0,0,844.1,323.9Z" transform="translate(-618 -105.4)"/><path class="cls-36" d="M842.5,296.3h-.1a3.2,3.2,0,0,1-1.9-1.3l-6-7.9h0l6.1,7.8c.5.6,1.2,1.3,1.8,1.3Z" transform="translate(-618 -105.4)"/><path class="cls-46" d="M838.2,464.7l.5,2.9h-.2c-4.7,2.2-10.2,1.8-15.3.9-.2-.1-.5-.1-.6-.3a1,1,0,0,1-.1-.9c.7-2,2.6-3.3,4.4-4.4l3-1.9a13.5,13.5,0,0,1,3.8-1.9h.6a9.5,9.5,0,0,0-2,2,2.6,2.6,0,0,0-.4,1.9,2.1,2.1,0,0,0,1.4,1.2,10.7,10.7,0,0,0,4.3.6Z" transform="translate(-618 -105.4)"/><path class="cls-39" d="M837,458l1.2,6.7h-.6a10.7,10.7,0,0,1-4.3-.6,2.1,2.1,0,0,1-1.4-1.2,2.6,2.6,0,0,1,.4-1.9,9.5,9.5,0,0,1,2-2,9.6,9.6,0,0,1,2.5-1.2h.2Z" transform="translate(-618 -105.4)"/><polygon class="cls-50" points="217.2 341.9 218.4 349 215.6 347.7 211.7 345.9 202.8 341.7 174.9 328.6 174.8 328.6 174.9 322 186.9 328.1 187 328.6 192 330.6 217.2 341.9"/><path class="cls-36" d="M835.4,331.4h0l-.3.3H835Z" transform="translate(-618 -105.4)"/><path class="cls-36" d="M835.3,331.3h.1l-.4.3h0Z" transform="translate(-618 -105.4)"/><path class="cls-47" d="M832,313.5l3.3,17.8-.3.3h-.1l-3.5-18.5h.4A.5.5,0,0,0,832,313.5Z" transform="translate(-618 -105.4)"/><polygon class="cls-48" points="216.8 339.5 217.2 341.9 192 330.6 194 328.6 207.2 334.9 216.8 339.5"/><path class="cls-39" d="M829,410l5.8,34.9-9.6-4.6V440c-.8-5.7.4-11.5.2-17.2,0-1.4-.1-2.9,0-4.3a13.6,13.6,0,0,1,.2-2,86.5,86.5,0,0,0,.5-8.8l.2-.4,2.3.9Z" transform="translate(-618 -105.4)"/><path class="cls-36" d="M834.4,287.2h0l-1.1.2a13.8,13.8,0,0,0-6.5,3.5,23.3,23.3,0,0,0-4.1,6.1h-.1a25.7,25.7,0,0,1,4.1-6.2,14.1,14.1,0,0,1,6.6-3.5Z" transform="translate(-618 -105.4)"/><path class="cls-36" d="M834.4,287.1h0l-1.1.2h0Z" transform="translate(-618 -105.4)"/><path class="cls-46" d="M829.7,451.3l3.9,1.8c-2.9,1-7.1,3.1-9.9,4-6.1,1.9-12.3,3.9-18.6,2.8-.3,0-.7-.1-.8-.4s0-.9.3-1.2a41.3,41.3,0,0,1,10.9-8.8l.2.4a9.6,9.6,0,0,0-1.8,1.7,2.8,2.8,0,0,0-.4,2.3,2.9,2.9,0,0,0,1.6,1.5,5.5,5.5,0,0,0,2.2.1,17,17,0,0,0,5.5-1.3C825.1,453.2,827.3,451.7,829.7,451.3Z" transform="translate(-618 -105.4)"/><path class="cls-36" d="M833.3,287.3h0a14.1,14.1,0,0,0-6.6,3.5,25.7,25.7,0,0,0-4.1,6.2h-.1a23.8,23.8,0,0,1,4.2-6.1A13,13,0,0,1,833.3,287.3Z" transform="translate(-618 -105.4)"/><path class="cls-39" d="M833.1,286.7l.2.6a13,13,0,0,0-6.6,3.6,23.8,23.8,0,0,0-4.2,6.1h0l-.5-.3h0c-2.4-2.1-3.7-5.2-4.9-8.3l-.8-1.8h0a20.1,20.1,0,0,0-3.9-6.8,2.9,2.9,0,0,0-1.2-1l-.9-.4-.5-.2a8.3,8.3,0,0,1-1.6-.9h-.1l-1-.7-.9-.6a2.3,2.3,0,0,1-1.1-1.1,1.1,1.1,0,0,1,0-1.2l.4.4a12.3,12.3,0,0,0,2.6,1.2v-.3a7.1,7.1,0,0,1-2.5-1.1l-.4-.4h-.1a1.6,1.6,0,0,1-.4-.7l-.3-.8-.2-.5a2.4,2.4,0,0,1-.2-.8.6.6,0,0,1,.2-.7c.2-.2.5-.2.6,0h.1l2.3,2.2,1,.9h.2l-1-1-2.3-2.2a.8.8,0,0,1-.4-.4v-.5l.3-1.3a1.6,1.6,0,0,1,.7-.7h.1a2,2,0,0,0-.1.7h0a1.3,1.3,0,0,0,.9.7h0a4.7,4.7,0,0,0,4.2,3h0l.8-.2h0a25.6,25.6,0,0,0,2.2,3.5,3.8,3.8,0,0,0,1.4,1.4c.3,0,.9.1,1.1-.4h.6v-.2h-.5a5.4,5.4,0,0,1-2.4-2.3l-.6-1.2a10.9,10.9,0,0,0-1.4-2.3,3,3,0,0,0-.8-.8l-1-1.1h0a1.8,1.8,0,0,1-.3-2l.2-.2a1.8,1.8,0,0,1,1.3-.4,4.1,4.1,0,0,1,1.5.7,10.6,10.6,0,0,1,2.9,2.7l.2-.2a9.7,9.7,0,0,0-3-2.7,3.9,3.9,0,0,0-1.6-.7,2.1,2.1,0,0,0-1.4.4h0a7.5,7.5,0,0,1-.7-1.2,8.2,8.2,0,0,1,4.6,1,17.7,17.7,0,0,1,4.1,3.1c.8.9,1.5,1.9,2.2,2.8C824.4,275.9,828.7,281.4,833.1,286.7Z" transform="translate(-618 -105.4)"/><path class="cls-36" d="M832,313.5a.5.5,0,0,1-.2-.4h.1Z" transform="translate(-618 -105.4)"/><polygon class="cls-47" points="213.9 205.4 213.5 205.8 213.5 205.5 213 205.6 211.2 205 211.4 204.5 213.9 205.4"/><path class="cls-36" d="M831.9,313.1h0Z" transform="translate(-618 -105.4)"/><polygon class="cls-47" points="213.5 205.8 213.9 207.7 213.8 207.7 213.4 207.8 213.1 206.2 213.5 205.8"/><polygon class="cls-47" points="213.5 205.5 213.5 205.8 213.1 206.2 213 205.6 213.5 205.5"/><polygon class="cls-47" points="213 205.6 213.1 206.2 212.7 206.6 212.6 206 213 205.6"/><polygon class="cls-47" points="213 205.6 212.6 206 212.5 205.7 213 205.6"/><polygon class="cls-47" points="213 205.6 212.5 205.7 212.6 206 210.3 208.2 210.1 208.2 201.3 205.3 201.2 204.7 201.4 204.8 210.2 207.6 212.1 205.8 200.8 202.1 201 201.6 211.2 205 213 205.6"/><polygon class="cls-47" points="212.6 206 212.7 206.6 210.5 208.7 210.5 208.5 210 208.6 210.1 208.2 210.3 208.2 212.6 206"/><polygon class="cls-47" points="212.1 205.8 210.2 207.6 201.4 204.8 201.2 204.7 200.6 201.7 201 201.6 200.8 202.1 212.1 205.8"/><path class="cls-39" d="M820.8,447.1l8.9,4.2c-2.4.4-4.6,1.9-6.9,2.9a17,17,0,0,1-5.5,1.3,5.5,5.5,0,0,1-2.2-.1,2.9,2.9,0,0,1-1.6-1.5,2.8,2.8,0,0,1,.4-2.3,9.6,9.6,0,0,1,1.8-1.7l-.2-.4A31,31,0,0,1,820.8,447.1Z" transform="translate(-618 -105.4)"/><path class="cls-36" d="M829.5,309.8h-.1a87.4,87.4,0,0,1-6.7-12.4h.1A77.4,77.4,0,0,0,829.5,309.8Z" transform="translate(-618 -105.4)"/><path class="cls-36" d="M829.4,309.9h-.1a92.2,92.2,0,0,1-6.7-12.3h.1A87.4,87.4,0,0,0,829.4,309.9Z" transform="translate(-618 -105.4)"/><polygon class="cls-47" points="211.4 204.5 211.2 205 201 201.6 201.2 201.1 211.4 204.5"/><polygon class="cls-49" points="208 288.6 210.7 302.8 208.3 301.9 189.2 294.6 176.8 206.9 195.3 213.8 197 223.6 202 252.6 208 288.6"/><polygon class="cls-47" points="210.5 208.5 210.5 208.7 210.4 208.8 210 208.7 210 208.6 210.5 208.5"/><polygon class="cls-47" points="210.1 208.2 210 208.6 209.9 208.6 201.4 205.8 201.3 205.3 210.1 208.2"/><polygon class="cls-47" points="210 208.7 210 208.6 209.9 208.6 210 208.6 210 208.7"/><path class="cls-36" d="M822.6,297.1h0Z" transform="translate(-618 -105.4)"/><path class="cls-38" d="M822,296.6h0c-2.5-2.1-3.9-5.3-5-8.3-.3-.6-.5-1.3-.8-1.9a21.4,21.4,0,0,0-3.9-6.7,2.9,2.9,0,0,0-1.2-1l-1.4-.6a7.5,7.5,0,0,1-1.7-1l-1.9-1.3a3.8,3.8,0,0,1-1.1-1.1,1.2,1.2,0,0,1,0-1.4h.1a1.1,1.1,0,0,0,0,1.2,2.3,2.3,0,0,0,1.1,1.1l.9.6,1,.7h.1a8.3,8.3,0,0,0,1.6.9l.5.2.9.4a2.9,2.9,0,0,1,1.2,1,20.1,20.1,0,0,1,3.9,6.8h0l.8,1.8C818.3,291.4,819.6,294.5,822,296.6Z" transform="translate(-618 -105.4)"/><path class="cls-38" d="M822,296.7h-.1c-2.5-2.2-3.9-5.3-5.1-8.4a13.4,13.4,0,0,0-.7-1.8h0a21.4,21.4,0,0,0-3.9-6.7,3.5,3.5,0,0,0-1.1-1l-.8-.3-.7-.3a6,6,0,0,1-1.5-.9H808l-1-.6-1-.7a4.6,4.6,0,0,1-1.2-1.2,1.4,1.4,0,0,1,.2-1.5h0a1.2,1.2,0,0,0,0,1.4,3.8,3.8,0,0,0,1.1,1.1l1.9,1.3a7.5,7.5,0,0,0,1.7,1l1.4.6a2.9,2.9,0,0,1,1.2,1,21.4,21.4,0,0,1,3.9,6.7c.3.6.5,1.3.8,1.9C818.1,291.4,819.5,294.6,822,296.7Z" transform="translate(-618 -105.4)"/><polygon class="cls-47" points="201.3 205.3 201.4 205.8 200.8 205.7 201.2 204.7 201.2 204.7 201.3 205.3"/><path class="cls-38" d="M817,274.9v.2h-.6a.1.1,0,0,1,.1-.1,5.1,5.1,0,0,1-2.5-2.3,19.9,19.9,0,0,0-2-3.5c-.5-.7-1.3-1.2-1.8-2h0a2.2,2.2,0,0,1-.3-2.2l.3-.2h-.1a2.1,2.1,0,0,1,1.4-.4,3.9,3.9,0,0,1,1.6.7,9.7,9.7,0,0,1,3,2.7l-.2.2a10.6,10.6,0,0,0-2.9-2.7,4.1,4.1,0,0,0-1.5-.7,1.8,1.8,0,0,0-1.3.4l-.2.2a1.8,1.8,0,0,0,.3,2h0l1,1.1a3,3,0,0,1,.8.8,10.9,10.9,0,0,1,1.4,2.3l.6,1.2a5.4,5.4,0,0,0,2.4,2.3Z" transform="translate(-618 -105.4)"/><path class="cls-38" d="M816.5,274.9a.1.1,0,0,0-.1.1,4.9,4.9,0,0,1-2.5-2.4l-.7-1.2a6.1,6.1,0,0,0-1.3-2.2l-.8-.9-1-1.1h.1c.5.8,1.3,1.3,1.8,2a19.9,19.9,0,0,1,2,3.5A5.1,5.1,0,0,0,816.5,274.9Z" transform="translate(-618 -105.4)"/><path class="cls-51" d="M816.4,275c-.2.5-.8.4-1.1.4a3.8,3.8,0,0,1-1.4-1.4,25.6,25.6,0,0,1-2.2-3.5,24.4,24.4,0,0,1-1.4-2.8l-.2-.4h0l1,1.1.8.9a6.1,6.1,0,0,1,1.3,2.2l.7,1.2A4.9,4.9,0,0,0,816.4,275Z" transform="translate(-618 -105.4)"/><polygon class="cls-50" points="197 181.6 195 183.6 190 182.6 192 180.6 197 181.6"/><polygon class="cls-50" points="194.1 206.8 195.3 213.8 176.8 206.9 171.5 204.9 153 198 152 197.6 151.4 191.8 151.4 191.7 170 198.6 169.5 194.5 169 190.6 166 165.6 170 167.6 175.1 200.3 193.9 206.9 194.1 206.8"/><path class="cls-52" d="M811.5,308.8l.6,3.5h-.2l-18.8-6.6L788,273l2-2,3.5,27.6.5,4.4Z" transform="translate(-618 -105.4)"/><polygon class="cls-50" points="189.2 294.6 194 328.6 192 330.6 186.9 293.7 189.2 294.6"/><path class="cls-38" d="M811.7,270.6h0l-.8.2h0a4.7,4.7,0,0,1-4.2-3h.1a4.6,4.6,0,0,0,4.1,2.8Z" transform="translate(-618 -105.4)"/><path class="cls-39" d="M811.7,270.5h0v-.2a.8.8,0,0,1-.7.2,4.2,4.2,0,0,1-3.9-2.7h0l.8-.2h.1a5.2,5.2,0,0,1,2.1-.4h.1l.2.4A24.4,24.4,0,0,0,811.7,270.5Z" transform="translate(-618 -105.4)"/><path class="cls-38" d="M811.6,270.4v.2h-.8a4.6,4.6,0,0,1-4.1-2.8h.2a4.2,4.2,0,0,0,3.9,2.7A.8.8,0,0,0,811.6,270.4Z" transform="translate(-618 -105.4)"/><path class="cls-47" d="M810.7,303.9l.8,4.9L794,303l-.5-4.4h.5Z" transform="translate(-618 -105.4)"/><path class="cls-38" d="M810.2,267.1H810a2,2,0,0,1-.2-2.1l.3-.3h.1l-.3.2A2.2,2.2,0,0,0,810.2,267.1Z" transform="translate(-618 -105.4)"/><path class="cls-38" d="M810.1,267.2h0c0-.1-.1-.1-.1-.2h.1Z" transform="translate(-618 -105.4)"/><path class="cls-38" d="M810.1,267.1h0Z" transform="translate(-618 -105.4)"/><path class="cls-38" d="M810.1,267h0c-.1,0-.1,0-.1-.1h.1Z" transform="translate(-618 -105.4)"/><path class="cls-38" d="M810,267c0,.1,0,.1.1.1H810Z" transform="translate(-618 -105.4)"/><path class="cls-38" d="M810,267.1c0,.1.1.1.1.2H810a5.2,5.2,0,0,0-2.1.4h-.1l-.8.2h0a1.6,1.6,0,0,0,.9-.3Z" transform="translate(-618 -105.4)"/><path class="cls-51" d="M810.1,264.6h0l-.3.3a2,2,0,0,0,.2,2.1h0l-.4-.7c-.6-.8-1.4-1.4-1.4-2.4h-.1l.8-.3h.5A7.5,7.5,0,0,0,810.1,264.6Z" transform="translate(-618 -105.4)"/><path class="cls-38" d="M810,267h0l-2.1.4a1.6,1.6,0,0,1-.9.3h-.2a1.3,1.3,0,0,1-.9-.7h.1a1.6,1.6,0,0,0,.8.6h.2l.7-.2h.2A7.1,7.1,0,0,1,810,267Z" transform="translate(-618 -105.4)"/><polygon class="cls-48" points="186.9 293.7 192 330.6 187 328.6 186.9 328.1 186.7 325.9 183.3 292.4 186.9 293.7"/><path class="cls-39" d="M809.6,266.3l.4.7a7.1,7.1,0,0,0-2.1.4h-.2l-.7.2h-.2a1.6,1.6,0,0,1-.8-.6h-.2a2,2,0,0,1,.1-.7,3.5,3.5,0,0,1,2.1-2.5h.2C808.2,264.9,809,265.5,809.6,266.3Z" transform="translate(-618 -105.4)"/><path class="cls-51" d="M809.4,263.4h-.5l-.8.3H808v-.2a20.2,20.2,0,0,1-2.4-4l-1.1-2.4-1.2-1.8c-1.8-2.9-3.7-5.9-5.3-9a24,24,0,0,0-3.1-5.1h-.1c.1-.1.1-.2.1-.4v-.5a.7.7,0,0,1,.5-.6l1.1-.3c2.8,5.4,6,11.2,8.8,16.5C806.6,258.5,807.9,261,809.4,263.4Z" transform="translate(-618 -105.4)"/><path class="cls-38" d="M808.5,272.6h-.2l-1-.9-2.3-2.2h0l-.3-.4a.6.6,0,0,1,0-.6,5.3,5.3,0,0,1,.3-1.2c.2-.4.4-.7.8-.8h0a1.6,1.6,0,0,0-.7.7l-.3,1.3v.5a.8.8,0,0,0,.4.4l2.3,2.2Z" transform="translate(-618 -105.4)"/><path class="cls-38" d="M808.2,274.8v.3a12.3,12.3,0,0,1-2.6-1.2l-.4-.4H805l-.3-.7-.5-1.2-.3-.9a1.1,1.1,0,0,1,.3-.8.6.6,0,0,1,.7-.1h0a.1.1,0,0,0,.1.1h-.1c-.1-.2-.4-.2-.6,0a.6.6,0,0,0-.2.7,2.4,2.4,0,0,0,.2.8l.2.5.3.8a1.6,1.6,0,0,0,.4.7h.1l.4.4A7.1,7.1,0,0,0,808.2,274.8Z" transform="translate(-618 -105.4)"/><polygon class="cls-50" points="176.8 206.9 189.2 294.6 186.9 293.7 176.6 219.3 176.6 219.1 176.8 206.9"/><path class="cls-38" d="M806.9,267.8h0Z" transform="translate(-618 -105.4)"/><path class="cls-38" d="M806.8,267.9Z" transform="translate(-618 -105.4)"/><path class="cls-38" d="M806.8,267.8h-.1a1.3,1.3,0,0,1-.9-.7h.1A1.3,1.3,0,0,0,806.8,267.8Z" transform="translate(-618 -105.4)"/><path class="cls-38" d="M805.7,266.3h.1c-.4.1-.6.4-.8.8a5.3,5.3,0,0,0-.3,1.2.6.6,0,0,0,0,.6l.3.4h-.3c0-.1-.1-.1-.1-.2a.8.8,0,0,1,0-.7,3.5,3.5,0,0,1,.3-1.3A1.3,1.3,0,0,1,805.7,266.3Z" transform="translate(-618 -105.4)"/><path class="cls-38" d="M805.2,273.3h0Z" transform="translate(-618 -105.4)"/><path class="cls-38" d="M805.1,269.5Z" transform="translate(-618 -105.4)"/><path class="cls-38" d="M805,273.2h0Z" transform="translate(-618 -105.4)"/><path class="cls-38" d="M805.1,269.5h-.2l-.2-.2h.4Z" transform="translate(-618 -105.4)"/><path class="cls-38" d="M805,273.2h0a2.5,2.5,0,0,1-.4-.7l-.3-.8-.2-.5a3.2,3.2,0,0,1-.3-.9,1.2,1.2,0,0,1,.3-.9l.6-.2.2.2a.6.6,0,0,0-.7.1,1.1,1.1,0,0,0-.3.8l.3.9.5,1.2Z" transform="translate(-618 -105.4)"/><path class="cls-38" d="M805,269.6h0a.1.1,0,0,1-.1-.1Z" transform="translate(-618 -105.4)"/><polygon class="cls-48" points="186.7 325.9 186.9 328.1 174.9 322 174.9 320.2 186.7 325.9"/><polygon class="cls-48" points="176.6 219.3 186.9 293.7 183.3 292.4 177 231.6 176.4 231.6 176.6 219.3"/><polygon class="cls-49" points="177 231.6 183.3 292.4 175.4 289.4 176.4 231.6 177 231.6"/><path class="cls-53" d="M796.5,239.5h0l-1.1.3a.7.7,0,0,0-.5.6v.5c0,.2,0,.3-.1.4a16.9,16.9,0,0,0-1.7-2.9.8.8,0,0,0,.8-.5,3.6,3.6,0,0,0,.4-1.1v-.3h.2a4.2,4.2,0,0,0,.8,1.8Z" transform="translate(-618 -105.4)"/><polygon class="cls-50" points="176.8 206.9 176.6 219.1 176.6 219.3 176.4 231.6 175.4 289.4 169.4 287 171.5 204.9 176.8 206.9"/><path class="cls-54" d="M794,235.2a1.8,1.8,0,0,1,.3,1.3v.3a3.6,3.6,0,0,1-.4,1.1.8.8,0,0,1-.8.5h-.2c-.3-.1-.4-.5-.6-.7s-1.3-1-1.7-1.6a3.7,3.7,0,0,1-.6-2.1,1.1,1.1,0,0,1,0-.8.5.5,0,0,1,.4-.5h0a10,10,0,0,0,1.3,1.5,1.8,1.8,0,0,0,.7.5C792.9,234.9,793.5,234.8,794,235.2Z" transform="translate(-618 -105.4)"/><polygon class="cls-50" points="175.4 289.4 175 315.6 175 315.6 172.4 381.1 172 381.6 167 378.6 168.4 325.6 168.5 319.6 168.6 318 169.4 287 175.4 289.4"/><polygon class="cls-48" points="175 315.6 174.9 320.2 174.9 322 174.8 328.6 174 378.6 172.4 381.1 175 315.6 175 315.6"/><polygon class="cls-50" points="172 165.6 170 167.6 166 165.6 168 163.6 172 165.6"/><polygon class="cls-49" points="171.5 204.9 169.4 287 157.6 282.5 155 230.6 153 198 171.5 204.9"/><polygon class="cls-52" points="169.5 194.5 170 198.6 151.4 191.7 151.3 191.7 151.3 191.7 151.5 191.1 153 189.6 152.9 188.9 153 188.9 169 194.6 169.5 194.5"/><polygon class="cls-47" points="169 190.6 169.5 194.5 169 194.6 153 188.9 152.9 188.9 152.7 185.6 153 185.6 169 190.6 169 190.6"/><polygon class="cls-48" points="168.6 318 168.5 319.6 158 314.6 159 313.6 168.6 318"/><polygon class="cls-50" points="168.5 319.6 168.4 325.6 168 325.6 160.1 322.4 158 321.6 158 314.6 168.5 319.6"/><polygon class="cls-48" points="160.1 322.4 161 342.6 161 342.6 158 344.6 156.9 321.6 158 321.6 160.1 322.4"/><polygon class="cls-48" points="158 290.6 159 313.6 158 314.6 158 321.6 156.9 321.6 155 279.6 151 219.6 149.9 191.5 150.7 191.5 151.3 191.7 151.3 191.7 151.4 191.7 151.4 191.8 152 197.6 153 198 155 230.6 157.6 282.5 158 290.6"/><path class="cls-50" d="M774.9,427l1.1,23-5-3v-1l-2-32-1.2-29L765,321l-1.7-30-.2-3-.4-6.8,4.5,1.7h.2l.5,13.9L769,325l4,60Z" transform="translate(-618 -105.4)"/><path class="cls-48" d="M771,294.3v.7l-1.5,1.5-.2.6-.6-.2h-.8l-.5-13.9,2.6-2.7.7,10.7Z" transform="translate(-618 -105.4)"/><path class="cls-50" d="M770,280v.3l-2.6,2.7h-.2l-4.5-1.7-.2-.2c1-.7,1.7-2.1,2.5-3h0Z" transform="translate(-618 -105.4)"/><polygon class="cls-49" points="147 215.6 149.8 279.6 143 277.6 127 178.6 145 185.6 145.3 185.6 147 215.6"/><polygon class="cls-47" points="145.1 182.6 145.3 185.6 145 185.6 127 178.6 129 176.6 145 182.6 145.1 182.6"/><path class="cls-55" d="M868.3,402.5l-4-.2h-.7l-5.4-.4H858l-3.5-.3a27.2,27.2,0,0,1-6.2-1.7H848l.3-.6h.2a26.1,26.1,0,0,0,6.1,1.6l3.5.3h.1l6.1.4,5.2.2,3.2-.3,5.3-.6.9-.2h1v.7h-.3l-1.7.2-1.8.3h-.3l-3.1.3-3.3.4Z" transform="translate(-618 -105.4)"/><path class="cls-55" d="M880.4,401.4l-.7-.2V401c2.7-8.7,5.1-17.5,6.9-26.2v-.4l.7.2v.3h0c-1.9,8.7-4.2,17.5-7,26.2Z" transform="translate(-618 -105.4)"/><path class="cls-55" d="M835.1,332.1l-.5-.5.3-.3.3-.2a44.6,44.6,0,0,1,9.6-6.4h.2l.4.6h-.2a45.3,45.3,0,0,0-9.7,6.4h0a.2.2,0,0,1-.2.2Z" transform="translate(-618 -105.4)"/><path class="cls-55" d="M891,375.4h-3.9v-.7h.2a64.8,64.8,0,0,0,32.4-6.7,63.4,63.4,0,0,0,6.4-3.6,29.4,29.4,0,0,0,6.8-4.9c4.1-4.3,5.8-11.2,4.7-18.4s-4.1-12.3-7.3-18.3v-.2l.6-.4.2.2c3.2,6.1,6.2,12.1,7.2,18.6s-.6,14.5-4.8,19a34.8,34.8,0,0,1-6.9,5c-2,1.2-4.2,2.5-6.4,3.6A66.3,66.3,0,0,1,891,375.4Z" transform="translate(-618 -105.4)"/><path class="cls-55" d="M918.5,328.7h-.3l-1.8-.4a22.1,22.1,0,0,1-11.8-8.8h0a.1.1,0,0,1-.1-.1h-.1V319a4.2,4.2,0,0,1-.9-2.7,5.3,5.3,0,0,1,.8-2.5c3.6-6.2,9.4-11.1,14.5-15.3l.3-.2.4.6h-.2c-5.1,4.2-10.9,9-14.4,15.2a4.8,4.8,0,0,0-.7,2.1,3.8,3.8,0,0,0,.8,2.4c0,.1.1.2.2.3a21.2,21.2,0,0,0,11.4,8.5l1.8.4h.2Z" transform="translate(-618 -105.4)"/><path class="cls-55" d="M844.2,324.3h-.3a24.1,24.1,0,0,1-12.1-10.6l-.3-.3V313l.6-.3.2.2a24.1,24.1,0,0,0,12,10.7h.3Z" transform="translate(-618 -105.4)"/><path class="cls-55" d="M829.2,310.2V310a98.4,98.4,0,0,1-6.8-12.3v-.3l.7-.2v.2a86.4,86.4,0,0,0,6.7,12.3v.2Z" transform="translate(-618 -105.4)"/><path class="cls-55" d="M822.9,297.5l-.5-.2-.3-.2.2-.3a23,23,0,0,1,4.2-6.1,14.3,14.3,0,0,1,6.7-3.7h.1l1-.2h.3v.7h-.3l-1,.2a13,13,0,0,0-6.4,3.5,22.9,22.9,0,0,0-4.1,6h0Z" transform="translate(-618 -105.4)"/><path class="cls-55" d="M842.4,296.5a3.1,3.1,0,0,1-2-1.3c-2-2.5-4-5.2-6-7.9h-.1l.4-.3h0l6.1,7.9c.3.4,1,1.1,1.6,1.1h.4c.3-.1.5-.5.7-.8v-.2c2.9-4.8,5.8-9.9,8.4-15.1l1.6-3.3h.1c2.1-4.4,4.3-9,7.4-12.9a59.2,59.2,0,0,1,6-6.2c5.3-5.1,11.9-10.4,19.7-12.4l1.1-.2h.4v.5h-.5l-.9.2c-7.8,1.9-14.3,7.2-19.6,12.2a58.1,58.1,0,0,0-5.9,6.2c-3.1,3.9-5.3,8.4-7.5,12.9-.5,1.2-1.1,2.3-1.6,3.3-2.6,5.3-5.6,10.4-8.5,15.3h0a3.1,3.1,0,0,1-.9,1.1h-.6Z" transform="translate(-618 -105.4)"/><path class="cls-55" d="M892.1,249.2c-1.9,0-3.6-1.1-5.4-3.4v-.2l.5-.4h.2c1.6,2.2,3.2,3.2,4.8,3.2a9.5,9.5,0,0,0,1.9-.3c2.5-.7,5.4-1.7,7.4-3.7l.2-.2.5.5-.2.2c-2.1,2.1-5.1,3.1-7.7,3.9h-.1A12,12,0,0,1,892.1,249.2Z" transform="translate(-618 -105.4)"/><path class="cls-55" d="M916.1,250.7h0a9.4,9.4,0,0,0-4.3-3.4,40,40,0,0,0-4.1-1.2l-1.2-.3a32.3,32.3,0,0,1-4.7-1.4h-.6v-.4h.7a42.1,42.1,0,0,0,4.6,1.4l1.2.3h.1c1.4.4,2.8.7,4.1,1.2a9.9,9.9,0,0,1,4.4,3.5h.1Z" transform="translate(-618 -105.4)"/><path class="cls-55" d="M918.4,328.5l-.3-.6h.2a121.4,121.4,0,0,1,11.5-5.6h.7c3.1-1.3,6.6-2.8,8.7-5.6a14.9,14.9,0,0,0,2.4-5.5c2-8.2.8-17.5-3.4-26.3a84.5,84.5,0,0,0-6.9-11.6l-.2-.4-4.1-6.2-4.3-6.5-5.1-7.8c-.2-.2-.3-.5-.6-.6h-.8a7,7,0,0,0-5.5,5v.3l-.7-.3v-.2a7.8,7.8,0,0,1,6.1-5.5h1.2a2.6,2.6,0,0,1,.9.9l3.3,5,3.4,5.3,5.1,7.7,1.8,2.8a108.5,108.5,0,0,1,7.1,11.8c4.2,9,5.5,18.5,3.4,26.7a18,18,0,0,1-2.6,5.9c-2.2,2.9-5.8,4.4-8.9,5.8h-.4l-.4.2c-3.8,1.6-7.6,3.5-11.4,5.5Z" transform="translate(-618 -105.4)"/><path class="cls-55" d="M917.7,289h-.2c-1.3-.8-1.9-2.4-2.4-3.8a135.1,135.1,0,0,1-4.9-17.9,22.1,22.1,0,0,1-.6-3.4,16,16,0,0,1,.3-4.4v-.2h.7v.3a13.9,13.9,0,0,0-.3,4.1,22.1,22.1,0,0,0,.6,3.4,123.6,123.6,0,0,0,4.9,17.8c.5,1.4,1,2.7,2.1,3.4l.2.2Z" transform="translate(-618 -105.4)"/><path class="cls-55" d="M875.6,291.7h-.2a16,16,0,0,1-4.9-2.5,8.2,8.2,0,0,1-2.9-4.7,10,10,0,0,1,1-6.1l1.3-2.3v-.4a17.1,17.1,0,0,0,1.4-2.7,14.4,14.4,0,0,0,1.1-6.8v-.3h.7v.2a15,15,0,0,1-1.2,7.2c-.4,1-1,2-1.5,3v.2l-1.1,2.2a9.8,9.8,0,0,0-1.1,5.7,7.3,7.3,0,0,0,2.8,4.2,13.2,13.2,0,0,0,4.6,2.5h.2Z" transform="translate(-618 -105.4)"/><path class="cls-55" d="M867.6,296.6h-.7v-.2a7.9,7.9,0,0,1,.5-2.2l.3-.8a20,20,0,0,0,.4-2.4,14.8,14.8,0,0,1,.9-3.3v-.2l.6.3v.2a14.1,14.1,0,0,0-.8,3.1,18.7,18.7,0,0,1-.4,2.5l-.3.8H868a5.8,5.8,0,0,0-.4,1.9Z" transform="translate(-618 -105.4)"/></svg>