<svg xmlns="http://www.w3.org/2000/svg" viewBox="0 0 180 202.8"><defs><style>.cls-1{fill:#ffc200;}.cls-2{fill:#665851;}.cls-3{fill:#f2d9c9;}.cls-4{fill:#070606;}.cls-5{fill:#e5bca5;}.cls-6{fill:#020202;}</style></defs><title>여자 프로필 1</title><g id="레이어_2" data-name="레이어 2"><g id="레이어_2-2" data-name="레이어 2"><path class="cls-1" d="M69.4,121.2h.3A80.2,80.2,0,0,1,86,130.5a6.6,6.6,0,0,0,3.7,1.7c1.8,0,3.3-1.5,4.5-2.9a42.2,42.2,0,0,1,16.7-10.9l1.3-.4.3-1.1,20.9,7.5a76.3,76.3,0,0,1,13.1,5.7c9.7,5.8,16.2,15.5,21,25.9,1.4,3.1,2.7,6.3,3.9,9.5,5.2,14,5.9,19,8.6,33.7A1395,1395,0,0,1,5.3,200.9v-.2c-.2-13.6,3.9-26.9,8.6-39.7a50.4,50.4,0,0,1,3.1-7.2l1.2-2a37.7,37.7,0,0,1,6-6.6A103.8,103.8,0,0,1,69.4,121.2Z"/><path class="cls-2" d="M139.8,58.8a117.8,117.8,0,0,0,1.4,16.8c3.8,21.5,18.4,39.2,27.9,58.8a29.8,29.8,0,0,1,3.5,10.8c.2,3.8-1,7.9-4,10.3l-1.1.5c-4.8-10.4-11.3-20.1-21-25.9a76.3,76.3,0,0,0-13.1-5.7l-20.9-7.5-.3,1.1-1.3.4v-.8a23,23,0,0,1-3.7-6.9,17.6,17.6,0,0,1-.6-4,22.1,22.1,0,0,1,.3-8.5,9.2,9.2,0,0,1,4-5.6l-.3-.4c6.4-3.7,11.5-10,12.9-17.2l1,.2c3.8-.7,6.5-4,8.9-7.1s4.2-5.8,4.2-9.3Z"/><path class="cls-2" d="M69.5,121.1h-.1a103.8,103.8,0,0,0-45.2,24,37.7,37.7,0,0,0-6,6.6l-1.2,2h-.2C9,152.8,2.6,146.1.7,138.4s.1-15.8,3.8-22.7,9-12.9,14.2-18.7C27.6,87.1,34.1,73.2,43,63.3h.1c1.2,3.2,3.8,5.6,6.3,7.8s5,4.3,8,3.8H58c1.1,6.6,5.5,12.3,11,16a26,26,0,0,0,3.6,2.1l-.2.3a35.1,35.1,0,0,1,3.1,9.3A21.8,21.8,0,0,1,69.5,121.1Z"/><path class="cls-2" d="M139.8,58.8h-2.3a15.4,15.4,0,0,0-1.4-5.5,4.7,4.7,0,0,0-.7-1.2,2.5,2.5,0,0,0-1.3-.5,9.6,9.6,0,0,0-5.8.8l-.5-1.1c.6-3.1-1.4-6.1-4-7.8s-5.8-2.3-8.8-3.1a67.4,67.4,0,0,1-13.2-4.9c-5.1-2.4-10.1-5.8-12.4-11A133.9,133.9,0,0,1,61.7,42.1a5.4,5.4,0,0,0-2.8,2.1,3.9,3.9,0,0,0-.6,1.9l-1.5,8.2-2,.3-2.3-1.4a13.8,13.8,0,0,0-4.6-2.5l-1.3-.2,1.4-.2c2-12,2.2-22.9,7-33,1.7-3.6,5-6.5,8-9a28.4,28.4,0,0,1,10-6A64.1,64.1,0,0,1,95.2.2a44.9,44.9,0,0,1,15.8,5C120.2,9.7,128.9,16,133.9,25S139.5,47,139.8,58.8Z"/><path class="cls-3" d="M69.7,121.1h-.2a21.8,21.8,0,0,0,6-18.6,35.1,35.1,0,0,0-3.1-9.3l.2-.3a42.1,42.1,0,0,0,15.3,3.9c7.7.5,15.6-.7,22.3-4.4l.3-.2.3.4a9.2,9.2,0,0,0-4,5.6,22.1,22.1,0,0,0-.3,8.5,17.6,17.6,0,0,0,.6,4,23,23,0,0,0,3.7,6.9v.8a42.2,42.2,0,0,0-16.7,10.9c-1.2,1.4-2.7,2.9-4.5,2.9a6.6,6.6,0,0,1-3.7-1.7A80.2,80.2,0,0,0,69.7,121.1Z"/><path class="cls-3" d="M57.4,74.8c-3,.5-5.8-1.7-8-3.8s-5.1-4.6-6.3-7.8a.4.4,0,0,0-.1-.3c-.8-2.4-.7-5.2-.6-7.8a6,6,0,0,1,.8-2.9,4.1,4.1,0,0,1,3.4-1.7l1.3.2a13.8,13.8,0,0,1,4.6,2.5l2.3,1.4,2-.3,1.5-8.2a3.9,3.9,0,0,1,.6-1.9,5.4,5.4,0,0,1,2.8-2.1A133.9,133.9,0,0,0,89.4,24.5c2.3,5.2,7.3,8.6,12.4,11A67.4,67.4,0,0,0,115,40.4c3,.8,6.1,1.4,8.8,3.1s4.6,4.7,4,7.8l.5,1.1a9.6,9.6,0,0,1,5.8-.8,2.5,2.5,0,0,1,1.3.5,4.7,4.7,0,0,1,.7,1.2,15.4,15.4,0,0,1,1.4,5.5c0,3.5-2.1,6.6-4.2,9.3s-5.1,6.4-8.9,7.1l-1-.2c-1.4,7.2-6.5,13.5-12.9,17.2l-.3.2c-6.7,3.7-14.6,4.9-22.3,4.4a42.1,42.1,0,0,1-15.3-3.9A26,26,0,0,1,69,90.8c-5.5-3.7-9.9-9.4-11-16Zm52.9-20a4,4,0,0,0-7.9,0,4,4,0,0,0,7.9,0Zm-33.1.1A3.9,3.9,0,0,0,73.3,51a4,4,0,0,0-3.9,3.9,3.9,3.9,0,0,0,3.9,3.9A3.8,3.8,0,0,0,77.2,54.9Z"/><path class="cls-4" d="M106.4,50.9a3.9,3.9,0,0,1,3.9,3.9,4,4,0,0,1-7.9,0A3.9,3.9,0,0,1,106.4,50.9Z"/><path class="cls-4" d="M73.3,51a3.9,3.9,0,0,1,3.9,3.9,3.8,3.8,0,0,1-3.9,3.9,3.9,3.9,0,0,1-3.9-3.9A4,4,0,0,1,73.3,51Z"/><path class="cls-5" d="M91.4,97.4H87.9a39.8,39.8,0,0,1-15.5-4,30.7,30.7,0,0,1-3.6-2c-6.1-4.1-10.2-10-11.3-16.4l1-.2A26.2,26.2,0,0,0,72.8,92.4,40,40,0,0,0,88,96.3c8.2.6,15.8-.9,22-4.4h.2c6.7-3.9,11.4-10.2,12.7-16.9v-.5l1,.2v.5c-1.4,7-6.3,13.5-13.1,17.5l-.4.2A39,39,0,0,1,91.4,97.4Z"/><path class="cls-5" d="M56.4,61.8a6.1,6.1,0,0,0-4-3.1,5.9,5.9,0,0,0-4.9.9l-.6-.8a6.9,6.9,0,0,1,5.8-1,7,7,0,0,1,4.6,3.6Z"/><path class="cls-5" d="M125.3,64.4l-.8-.7a5.6,5.6,0,0,0,1.2-2l.8-1.6a6.1,6.1,0,0,1,7.7-1.9l-.4.9a5,5,0,0,0-6.4,1.6,6.4,6.4,0,0,0-.8,1.4A10.5,10.5,0,0,1,125.3,64.4Z"/><path d="M67.7,45.6l-.2-.8a63.4,63.4,0,0,1,13-1.1v.7A68.5,68.5,0,0,0,67.7,45.6Z"/><path d="M115.5,46.2a79.3,79.3,0,0,0-12.9-1.1v-.7a62.3,62.3,0,0,1,13,1.1Z"/><path class="cls-6" d="M89.3,68.8l-1.5-.7-1.6-.7a1.7,1.7,0,0,1-1-.7c-.5-.8.2-1.9.4-2.2s1.5-2.3,2.2-3.3l.4.3c-.7,1-1.5,2.1-2.2,3.3s-.6,1.3-.3,1.7.4.3.8.5l1.5.7,1.5.7Z"/><path class="cls-6" d="M90,79.5a30.4,30.4,0,0,1-10.8-2l.3-.7a28.7,28.7,0,0,0,20,.3l.3.7A27.3,27.3,0,0,1,90,79.5Z"/></g></g></svg>