<svg xmlns="http://www.w3.org/2000/svg" viewBox="0 0 196.1 244.8"><defs><style>.cls-1{fill:#99af56;}.cls-2{fill:#5b5b5b;}.cls-3{fill:#f2d9c9;}.cls-4{fill:#070707;}.cls-5{fill:#e5bca5;}.cls-6{fill:#231815;}</style></defs><title>남자 프로필 2</title><g id="레이어_2" data-name="레이어 2"><g id="레이어_2-2" data-name="레이어 2"><path class="cls-1" d="M131.7,149.7h.1l11.6,3.2c6.4,1.8,13,3.6,18.2,7.7s7.5,8.2,10.3,12.9c12.4,20.8,21.5,44.6,24.2,68.6l-.3,1.2c-51.6,1.6-103.3,3.2-154.6-1.5-13.7-1.2-27.3-2.9-40.9-2.1H0c1.9-14,2.7-27.7,6.4-41.3s8-26.2,18.2-34.7,21.9-10.4,33.9-12.6l.2-.2c7.5,7.2,18.1,10.5,28.4,10.8s20.7-1.9,30.8-4.6c5-1.3,10.5-3.1,13.3-7.5Z"/><path class="cls-2" d="M129.4,70.1a112.5,112.5,0,0,0-.3-23.2c-.3-2.4-1-5.3-3.4-6.1a6.7,6.7,0,0,0-3.7.2c-8.2,2.1-16.8,4.4-25,2.2s-16.4-10.3-25.7-11a12.4,12.4,0,0,0-4.7.5C59.9,34.6,57,42.6,56,49.6a48.9,48.9,0,0,0,0,16.2l-4.8-7.7c-3.5-5.7-7.2-12.2-5.8-18.8s5-9.3,7.1-14.1,2.4-8.2,5.4-11a16.4,16.4,0,0,1,4.7-3C72.6,6.3,83,1.8,94.1.4s23,.7,31.7,7.7c5.3,4.2,9.1,10,14.5,14.1a5.7,5.7,0,0,1-3.3,2.2,32.5,32.5,0,0,1,5.7,3.3,10.7,10.7,0,0,1-3.7,2.2c.1,1.3,2.1,1.6,2.6,2.9s-.8,2.2-1.9,2.6-2.4.6-3.2,1.5-.8,3.1-.5,4.8a35.5,35.5,0,0,1-4.9,25.2l.8.6A10.3,10.3,0,0,0,129.4,70.1Z"/><path class="cls-3" d="M119.8,143.3c2.9,1.7,8.1,4.2,11.4,6.1-2.8,4.4-8.3,6.2-13.3,7.5-10.1,2.7-20.4,5-30.8,4.6s-20.9-3.6-28.4-10.8h-.1l.6-.6c7.7-2.9,15-9.5,16.8-17.6a35.7,35.7,0,0,0,.6-11.3,18.2,18.2,0,0,0-1.7-7.3,35.2,35.2,0,0,0,14.2,5.7,24,24,0,0,0,12.5-.9,38.9,38.9,0,0,0,7.2-4l4-2.8.2.4a44.8,44.8,0,0,0,2.4,26.1,7.3,7.3,0,0,0,1.4,2.6A11.7,11.7,0,0,0,119.8,143.3Z"/><path class="cls-3" d="M74.9,113.8A37.1,37.1,0,0,1,60.8,96.2a7,7,0,0,0-2-3.3,9.4,9.4,0,0,0-2.8-1c-2.5-1-4-3.6-5.2-6s-3.6-7.5-5.2-11.4-1.9-6,0-8.1A5.3,5.3,0,0,1,51,65.3a14.2,14.2,0,0,1,5,3l.5-.4a16,16,0,0,1-.5-2.1,48.9,48.9,0,0,1,0-16.2c1-7,3.9-15,10.6-16.9a12.4,12.4,0,0,1,4.7-.5c9.3.7,16.6,8.5,25.7,11s16.8-.1,25-2.2a6.7,6.7,0,0,1,3.7-.2c2.4.8,3.1,3.7,3.4,6.1a112.5,112.5,0,0,1,.3,23.2,10.3,10.3,0,0,1,2.5-2.6,5.7,5.7,0,0,1,4.8-1.3,6.1,6.1,0,0,1,4.4,5,12.6,12.6,0,0,1-.9,6.9,57.1,57.1,0,0,1-5.6,9.9,11.8,11.8,0,0,1-3,3.3c-1.8,1-4,1-6.1.9v1.2c-.2,4.7-2.6,9.1-5.7,12.5a39.1,39.1,0,0,1-7,5.9l-4,2.8a38.9,38.9,0,0,1-7.2,4,24,24,0,0,1-12.5.9A35.2,35.2,0,0,1,74.9,113.8Zm39.6-45.3c0-2.8-1.4-5-3.2-5s-3.2,2.2-3.2,5,1.4,5.1,3.2,5.1S114.5,71.3,114.5,68.5ZM78.9,69c0-2.8-1.5-5-3.2-5s-3.2,2.2-3.2,5,1.4,5,3.2,5S78.9,71.8,78.9,69Z"/><ellipse class="cls-4" cx="111.3" cy="68.5" rx="3.2" ry="5"/><ellipse class="cls-4" cx="75.7" cy="69" rx="3.2" ry="5"/><path class="cls-5" d="M94,120.4a29.6,29.6,0,0,1-5-.4,35.5,35.5,0,0,1-14.3-5.8A37.6,37.6,0,0,1,60.3,96.3v-.2a5.9,5.9,0,0,0-1.6-2.8,4.9,4.9,0,0,0-1.7-.6l-1.1-.4c-2.7-1-4.2-3.7-5.4-6.2s-3.7-7.6-5.2-11.4-2.2-6.2,0-8.6a5.7,5.7,0,0,1,6-1.3,16,16,0,0,1,5.2,3.1l-.7.8a16.1,16.1,0,0,0-4.8-3c-1.6-.4-3.7-.3-4.9,1.1s-1.4,3.9.1,7.5,3.3,7.6,5.1,11.4,2.6,4.8,5,5.7l.9.3a7,7,0,0,1,2,.8,7.2,7.2,0,0,1,2.1,3.3V96a36.3,36.3,0,0,0,13.9,17.4,35.3,35.3,0,0,0,14,5.6c4.6.7,8.8.5,12.3-.9a32.1,32.1,0,0,0,7-3.9l.4-.3,3.6-2.5a42.8,42.8,0,0,0,6.9-5.8A19.7,19.7,0,0,0,125,93.4h1c-.2,4.4-2.2,8.9-5.9,12.9a44.8,44.8,0,0,1-7,5.9l-3.6,2.5-.5.3a36.3,36.3,0,0,1-7.2,4.1A21.3,21.3,0,0,1,94,120.4Z"/><path class="cls-5" d="M127.2,92.6h-1.7v-.7h.2c2.1.1,4.2.1,5.8-.9a10.7,10.7,0,0,0,2.9-3.1,57.3,57.3,0,0,0,5.5-9.8,13,13,0,0,0,1-6.7,6.2,6.2,0,0,0-4.2-4.8,5.9,5.9,0,0,0-4.5,1.2,9.6,9.6,0,0,0-2.3,2.6v.2a.5.5,0,0,0-.2.4l-.7-.4a.8.8,0,0,0,.2-.4v-.2a10.9,10.9,0,0,1,2.5-2.7,6.2,6.2,0,0,1,5.2-1.4,6.6,6.6,0,0,1,4.7,5.3,12.4,12.4,0,0,1-1,7.1,47.7,47.7,0,0,1-5.6,10,11,11,0,0,1-3.1,3.4A8.7,8.7,0,0,1,127.2,92.6Z"/><path class="cls-5" d="M58.9,81.5a17.3,17.3,0,0,0-3.6-4.8,5.6,5.6,0,0,0-5.4-1.1l-.3-.7a6.1,6.1,0,0,1,6.1,1.2,16.6,16.6,0,0,1,3.8,5Z"/><path class="cls-5" d="M127.8,82.1a3.9,3.9,0,0,1,.2-4.3,10.4,10.4,0,0,1,3-2.9,7.7,7.7,0,0,1,3-1.5,2.7,2.7,0,0,1,3.1,1.6l-.7.2a2,2,0,0,0-2.3-1,6.4,6.4,0,0,0-2.6,1.3,10.7,10.7,0,0,0-2.9,2.7,3.4,3.4,0,0,0-.2,3.5Z"/><path d="M68.9,59.7l-1.5-1.4A10.6,10.6,0,0,1,73,55c3.5-.7,7.7.8,8.5,1.1L80.8,58c-.4-.2-4.4-1.6-7.4-1A8.3,8.3,0,0,0,68.9,59.7Z"/><path d="M118.2,57.7a8.3,8.3,0,0,0-4.5-2.7c-3.2-.7-7.3.8-7.4.9l-.7-1.9c.4-.1,4.8-1.7,8.5-1a10.3,10.3,0,0,1,5.5,3.3Z"/><path class="cls-6" d="M92.9,81.8a12.1,12.1,0,0,1-3-2,.6.6,0,0,1-.3-.6.8.8,0,0,1,.2-.5,7.5,7.5,0,0,0,1.9-5.3h.5a8.2,8.2,0,0,1-2,5.6v.4a11.2,11.2,0,0,0,2.9,1.9Z"/><path class="cls-6" d="M93.2,94.4H92.1a27.5,27.5,0,0,1-11.9-3.8l.2-.4a28.3,28.3,0,0,0,11.8,3.7,17.3,17.3,0,0,0,11.5-3.5l.3.4A17.1,17.1,0,0,1,93.2,94.4Z"/></g></g></svg>