<svg height="423pt" viewBox="-39 0 423 423.2931" width="423pt" xmlns="http://www.w3.org/2000/svg"><path d="m263.394531 163.898438c-8.453125-4.601563-19.035156-1.484376-23.640625 6.972656l-12.949218 23.5625-72.367188-36.953125 29.171875-53.570313c5.371094-9.859375 1.730469-22.210937-8.128906-27.582031-9.863281-5.371094-22.214844-1.726563-27.582031 8.132813l-23.617188 43.367187-1.390625 2.550781-31.957031 58.667969-28.441406-24.730469c-12.71875-12.847656-33.449219-12.953125-46.300782-.234375-3.109375 3.078125-3.132812 8.101563-.054687 11.207031l15.960937 16.125c22.746094 22.980469 27.363282 31.824219 22.953125 60.289063l-6.703125 39.835937 112.238282 61.125 14.027343-25.753906c12.441407-.933594 24.167969-7.933594 30.578125-19.707031l59.617188-109.460937 5.558594-10.207032c4.601562-8.449218 1.480468-19.03125-6.972657-23.636718" fill="#ffd578"/><path d="m263.394531 163.898438 3.265625-5.996094c-3.664062-1.996094-7.667968-2.960938-11.585937-2.957032-8.578125-.007812-16.914063 4.585938-21.316407 12.660157l.011719-.023438-9.757812 17.761719-60.226563-30.757812 25.820313-47.414063c2.238281-4.101563 3.3125-8.582031 3.308593-12.96875.011719-9.609375-5.132812-18.941406-14.167968-23.871094l-.003906-.003906c-4.101563-2.234375-8.578126-3.3125-12.96875-3.308594-9.609376-.007812-18.945313 5.136719-23.871094 14.175781l-23.617188 43.367188v-.003906l-1.390625 2.550781-27.890625 51.210937-22.035156-19.15625-4.476562 5.152344 4.851562-4.804687c-7.722656-7.800781-17.949219-11.738281-28.117188-11.726563-10.039062-.011718-20.140624 3.824219-27.835937 11.445313-2.90625 2.867187-4.382813 6.707031-4.375 10.484375-.003906 3.726562 1.433594 7.519531 4.269531 10.378906l15.960938 16.125c8.777344 8.847656 14.523437 15.363281 17.839844 21.082031 3.300781 5.746094 4.59375 10.625 4.640624 18.113281.003907 4.203126-.480468 9.1875-1.421874 15.246094l6.746093 1.042969-6.730469-1.132813-6.703124 39.835938c-.484376 2.867188.914062 5.738281 3.464843 7.128906l112.242188 61.125c3.308593 1.804688 7.457031.582032 9.257812-2.730468l14.027344-25.753907-5.996094-3.265625.511719 6.808594c14.640625-1.089844 28.503906-9.367188 36.0625-23.253906l59.613281-109.457032 5.558594-10.203124c1.996094-3.664063 2.960937-7.667969 2.957031-11.585938.011719-8.578125-4.585937-16.917969-12.65625-21.316406l-6.53125 11.992187c3.542969 1.921875 5.527344 5.550781 5.535156 9.324219 0 1.714844-.40625 3.425781-1.292968 5.054688l-5.558594 10.203124-59.617188 109.460938c-5.261718 9.664062-14.851562 15.386719-25.09375 16.167969-2.320312.175781-4.371093 1.5-5.480468 3.542969l-10.765625 19.757812-101.96875-55.535156 5.898437-35.035156.011719-.085938c1-6.464844 1.582031-12.101562 1.585937-17.335938.046876-9.257812-2.015624-17.414062-6.507812-25.003906-4.472656-7.609375-10.957031-14.71875-19.925781-23.796875l-15.964844-16.125-.316406-.773437.324219-.777344v-.003906c5.070312-5.015625 11.621093-7.488282 18.230468-7.496094 6.699219.007812 13.332032 2.550781 18.414063 7.679688l.375.351562 28.441406 24.730469c1.566406 1.359375 3.648437 1.933593 5.691406 1.566406 2.039063-.367187 3.792969-1.632813 4.785157-3.457031l31.953124-58.667969 1.390626-2.546875v-.003906l23.617187-43.367188c2.449219-4.507812 7.078125-7.039062 11.882813-7.050781 2.183593.003906 4.371093.523437 6.441406 1.652344v-.003907c4.507812 2.453126 7.039062 7.082032 7.050781 11.882813-.003906 2.183594-.523437 4.371094-1.652344 6.441406l-29.171875 53.570313c-.882812 1.625-1.074218 3.515625-.527344 5.28125.546876 1.765625 1.769532 3.21875 3.417969 4.0625l72.367188 36.953125c3.285156 1.675781 7.3125.4375 9.089843-2.792969l12.945313-23.5625.011719-.023438c1.925781-3.542968 5.554687-5.527343 9.324218-5.535156 1.714844 0 3.425782.40625 5.058594 1.292969z" fill="#54596e"/><path d="m179.035156 197.335938 56.957032-104.589844c5.375-9.859375 1.734374-22.210938-8.128907-27.578125-9.863281-5.371094-22.210937-1.730469-27.582031 8.132812l-56.957031 104.585938" fill="#ffd578"/><path d="m185.027344 200.601562 56.960937-104.589843h-.003906c2.242187-4.105469 3.316406-8.582031 3.316406-12.972657.007813-9.609374-5.136719-18.945312-14.175781-23.871093-4.105469-2.234375-8.582031-3.3125-12.96875-3.308594-9.609375-.011719-18.945312 5.136719-23.871094 14.175781l-56.960937 104.585938c-1.800781 3.308594-.578125 7.457031 2.730469 9.261718 3.3125 1.800782 7.457031.578126 9.261718-2.734374l56.960938-104.585938c2.453125-4.507812 7.078125-7.039062 11.878906-7.050781 2.183594.003906 4.371094.523437 6.445312 1.648437 4.503907 2.453125 7.039063 7.078125 7.046876 11.878906 0 2.179688-.519532 4.371094-1.648438 6.4375l-.003906.003907-56.957032 104.589843c-1.804687 3.308594-.582031 7.457032 2.730469 9.261719 3.308594 1.800781 7.457031.582031 9.257813-2.730469zm0 0" fill="#54596e"/><path d="m167.859375 355.246094-33.34375 61.222656-127.546875-69.460938 33.34375-61.226562z" fill="#fff"/><path d="m167.859375 355.246094-5.996094-3.265625-30.078125 55.226562-115.554687-62.933593 26.8125-49.230469 121.550781 66.199219 3.265625-5.996094-5.996094-3.265625 5.996094 3.265625 3.265625-5.996094-127.546875-69.460938c-3.308594-1.804687-7.457031-.582031-9.261719 2.730469l-33.339844 61.222657c-.863281 1.578124-1.0624995 3.46875-.554687 5.195312.507813 1.722656 1.707031 3.203125 3.285156 4.0625l127.542969 69.464844c1.582031.859375 3.472656 1.0625 5.195312.550781 1.726563-.507813 3.207032-1.703125 4.066407-3.28125l33.34375-61.222656c.859375-1.578125 1.0625-3.472657.554687-5.195313-.511718-1.726562-1.707031-3.207031-3.285156-4.066406z" fill="#54596e"/><path d="m65.386719 329.78125c-1.816407-6.152344-8.277344-9.671875-14.429688-7.859375-6.15625 1.816406-9.675781 8.273437-7.863281 14.429687 1.816406 6.15625 8.277344 9.675782 14.429688 7.859376 6.15625-1.8125 9.675781-8.273438 7.863281-14.429688zm0 0" fill="#54596e"/><path d="m329.246094 192.582031c-7.402344-6.152343-18.386719-5.148437-24.542969 2.253907l-17.273437 20.609374-63.832032-50.292968 39.011719-46.894532c7.179687-8.632812 6.003906-21.449218-2.628906-28.632812-8.632813-7.179688-21.453125-6.003906-28.632813 2.628906l-31.582031 37.960938-1.855469 2.230468-42.722656 51.363282-23.113281-29.777344c-9.984375-15.074219-30.300781-19.191406-45.375-9.207031-3.644531 2.414062-4.644531 7.335937-2.226563 10.984375l12.53125 18.914062c17.859375 26.953125 20.671875 36.523438 10.824219 63.59375l-14.296875 37.78125 98.253906 81.734375 18.753906-22.546875c12.386719 1.496094 25.246094-3.097656 33.820313-13.402344l79.707031-95.820312 7.433594-8.929688c6.15625-7.40625 5.144531-18.394531-2.253906-24.550781" fill="#ffd578"/><path d="m329.246094 192.582031 4.363281-5.25c-4.511719-3.757812-10.046875-5.613281-15.5-5.605469-6.929687-.007812-13.871094 2.988282-18.65625 8.742188l.015625-.019531-13.019531 15.535156-53.117188-41.851563 34.523438-41.503906c4.210937-5.058594 6.285156-11.253906 6.28125-17.359375.007812-7.765625-3.347657-15.535156-9.789063-20.890625v-.003906c-5.054687-4.207031-11.253906-6.285156-17.359375-6.277344-7.765625-.007812-15.535156 3.347656-20.894531 9.792969l.003906-.003906-31.582031 37.960937-1.859375 2.234375h.003906l-37.292968 44.828125-17.898438-23.066406-5.394531 4.1875 5.691406-3.773438c-7.605469-11.480468-20.210937-17.722656-33.011719-17.710937-7.5-.003906-15.121094 2.140625-21.828125 6.585937-4.273437 2.835938-6.609375 7.550782-6.597656 12.304688-.003906 2.792969.800781 5.652344 2.453125 8.140625l12.53125 18.914063c5.507812 8.308593 9.429688 14.78125 11.855469 20.234374 2.425781 5.484376 3.425781 9.804688 3.445312 14.648438.011719 5.804688-1.601562 12.746094-5.199219 22.605469l6.414063 2.335937-6.386719-2.417968-14.296875 37.785156c-1.03125 2.71875-.214843 5.804687 2.015625 7.664062l98.257813 81.734375c1.382812 1.148438 3.199219 1.710938 4.992187 1.546875 1.789063-.160156 3.472656-1.046875 4.621094-2.429687l18.753906-22.546875-5.25-4.367188-.816406 6.777344c1.800781.21875 3.605469.324219 5.410156.324219 12.820313.011719 25.621094-5.488281 34.476563-16.140625l79.710937-95.820313 7.429688-8.929687c3.757812-4.515625 5.617187-10.050782 5.609375-15.503906.007812-6.933594-2.992188-13.875-8.746094-18.660157l-4.363281 5.25-4.367188 5.246094c2.535156 2.113281 3.816406 5.097656 3.824219 8.164063-.003906 2.40625-.792969 4.769531-2.453125 6.769531h.003906l-7.433594 8.929687-79.707031 95.820313c-6.179687 7.421875-15.003906 11.210937-23.980469 11.21875-1.261718 0-2.519531-.074219-3.773437-.226563-2.3125-.277344-4.578125.621094-6.066406 2.410156l-14.386719 17.296876-89.265625-74.253907 12.574219-33.230469.03125-.082031c3.800781-10.472656 6.007812-18.929687 6.023437-27.277343.015625-6.925782-1.625-13.511719-4.628906-20.207032-3.003906-6.722656-7.300781-13.6875-12.945313-22.214844l-12.53125-18.914062-.179687-.597656.488281-.921875c4.425782-2.929688 9.359375-4.3125 14.285156-4.316407 8.421876.007813 16.636719 4.0625 21.628907 11.601563l.300781.414063 23.109375 29.777343c1.269531 1.636719 3.203125 2.601563 5.277344 2.640625 2.070312.035156 4.039062-.867187 5.363281-2.460937l42.722656-51.359375.003906-.003906 1.855469-2.234376-.003906.003907 31.582031-37.960938c2.683594-3.222656 6.492188-4.859375 10.394532-4.867187 3.0625.003906 6.085937 1.011718 8.628906 3.121094h-.003906c3.222656 2.683593 4.859374 6.496093 4.867187 10.394531-.003906 3.0625-1.011719 6.085937-3.121094 8.628906l-39.011719 46.890625c-1.179687 1.421875-1.730468 3.242188-1.539062 5.082031.191406 1.839844 1.109375 3.503907 2.566406 4.648438l63.828125 50.292969c2.894531 2.28125 7.085938 1.847656 9.457031-.980469l17.273438-20.609375.015625-.019532c2.109375-2.53125 5.089844-3.8125 8.160156-3.820312 2.40625.003906 4.769531.789062 6.769531 2.453125v-.003906z" fill="#54596e"/><path d="m240.003906 209.023438 76.160156-91.554688c7.183594-8.632812 6.003907-21.453125-2.628906-28.632812-8.632812-7.183594-21.453125-6.003907-28.636718 2.628906l-76.160157 91.554687" fill="#ffd578"/><path d="m245.25 213.390625 76.160156-91.554687c4.210938-5.054688 6.289063-11.253907 6.28125-17.359376.007813-7.765624-3.34375-15.535156-9.789062-20.890624v.003906c-5.050782-4.210938-11.25-6.289063-17.359375-6.285156-7.761719-.007813-15.53125 3.347656-20.890625 9.789062v.003906l-76.160156 91.554688c-2.410157 2.898437-2.015626 7.203125.882812 9.613281s7.199219 2.015625 9.613281-.882813l76.160157-91.558593-.003907.003906c2.6875-3.226563 6.5-4.863281 10.398438-4.871094 3.0625.007813 6.085937 1.011719 8.628906 3.125 3.222656 2.683594 4.859375 6.492188 4.867187 10.394531-.003906 3.058594-1.011718 6.082032-3.121093 8.625l-76.160157 91.554688c-2.414062 2.898438-2.015624 7.203125.878907 9.617188 2.898437 2.410156 7.203125 2.015624 9.613281-.882813zm0 0" fill="#54596e"/><path d="m272.570312 233.308594 63.5625-76.410156c5.929688-7.132813 3.742188-18.730469-4.890624-25.914063-8.632813-7.179687-20.445313-7.21875-26.371094-.09375l-63.566406 76.410156" fill="#ffd578"/><path d="m277.816406 237.675781 63.5625-76.410156h.003906c3.359376-4.03125 4.925782-9.050781 4.914063-13.949219-.03125-8.015625-3.898437-15.910156-10.6875-21.582031-5.519531-4.582031-12.128906-6.980469-18.632813-6.988281-6.402343-.027344-12.945312 2.46875-17.355468 7.78125l-63.5625 76.410156c-2.410156 2.894531-2.015625 7.199219.882812 9.613281 2.898438 2.410157 7.203125 2.015625 9.613282-.882812l63.5625-76.410157c1.496093-1.785156 3.769531-2.835937 6.859374-2.863281 3.082032-.007812 6.746094 1.203125 9.898438 3.835938v-.003907c3.914062 3.234376 5.792969 7.640626 5.765625 11.085938-.015625 2.132812-.613281 3.824219-1.757813 5.21875l-63.5625 76.410156c-2.410156 2.898438-2.015624 7.199219.882813 9.613282 2.898437 2.414062 7.203125 2.019531 9.613281-.878907zm0 0" fill="#54596e"/><path d="m198.414062 361.773438-44.582031 53.59375-111.652343-92.882813 44.582031-53.59375z" fill="#fff"/><path d="m198.414062 361.773438-5.246093-4.367188-40.21875 48.34375-101.15625-84.148438 35.851562-43.097656 106.40625 88.515625 4.363281-5.246093-5.246093-4.367188 5.246093 4.367188 4.367188-5.25-111.652344-92.878907c-2.898437-2.414062-7.203125-2.015625-9.613281.882813l-44.585937 53.589844c-1.148438 1.382812-1.714844 3.203124-1.546876 4.992187.164063 1.789063 1.046876 3.472656 2.429688 4.625l111.65625 92.878906c2.894531 2.414063 7.199219 2.015625 9.613281-.882812l44.582031-53.589844c1.148438-1.382813 1.714844-3.203125 1.550782-4.992187-.164063-1.789063-1.050782-3.472657-2.433594-4.625z" fill="#54596e"/><path d="m160.796875 340.703125-35.1875 42.304687 27.339844 22.742188 35.1875-42.296875z" fill="#e6e6e9"/><path d="m188.136719 363.453125-35.1875 42.296875-27.339844-22.742188-1.96875 2.359376 31.265625 26.007812 37.152344-44.664062z" fill="#54596e"/><path d="m102.847656 316.90625c-.585937-6.390625-6.242187-11.097656-12.632812-10.511719-6.390625.589844-11.09375 6.246094-10.507813 12.636719.585938 6.390625 6.242188 11.09375 12.632813 10.507812 6.390625-.585937 11.09375-6.242187 10.507812-12.632812zm0 0" fill="#54596e"/><g fill="#55a6ff"><path d="m122.792969 65.28125-41.53125-13.625c-3.582031-1.175781-7.441407.777344-8.617188 4.359375s.777344 7.441406 4.359375 8.617187l41.535156 13.625c3.582032 1.175782 7.4375-.777343 8.613282-4.359374 1.175781-3.582032-.777344-7.441407-4.359375-8.617188"/><path d="m136.050781 45.398438-18.679687-28.566407c-2.066406-3.15625-6.296875-4.042969-9.449219-1.980469-3.15625 2.066407-4.042969 6.296876-1.980469 9.449219l18.679688 28.566407c2.0625 3.15625 6.292968 4.042968 9.449218 1.980468 3.15625-2.066406 4.042969-6.296875 1.980469-9.449218"/><path d="m161.628906 50.75 8.902344-42.523438c.773438-3.6875-1.59375-7.308593-5.285156-8.082031-3.6875-.769531-7.308594 1.59375-8.082032 5.285157l-8.898437 42.523437c-.773437 3.691406 1.59375 7.308594 5.285156 8.082031 3.691407.769532 7.308594-1.59375 8.078125-5.285156"/></g></svg>