<svg height="512" viewBox="0 0 64 64" width="512" xmlns="http://www.w3.org/2000/svg"><g id="Layer_33" data-name="Layer 33"><path d="m49 61h-26l1-8h24z" fill="#57a4ff"/><path d="m49 61h-.37l-.63-5h-24l-.62 5h-.38l1-8h24z" fill="#006df0"/><path d="m60.99 29.64-14.99 19.36v4h-20v-4l-1.66-2.66c-.53-.92-1.96-2.64-2.34-3.34v-27a3 3 0 0 1 6 0v-5a3 3 0 0 1 6 0v-5a3 3 0 0 1 6 0v5a3 3 0 0 1 6 0v25l7.7-9.24a4 4 0 0 1 5.29-.77l1.41.94a2.007 2.007 0 0 1 .59 2.71z" fill="#ffdaaa"/><g fill="#ffc477"><path d="m60.99 29.64-14.99 19.36v4h-4v-4l14.99-19.36a2.007 2.007 0 0 0 -.59-2.71l-1.41-.94a2.392 2.392 0 0 0 -.21-.13 4 4 0 0 1 4.21.13l1.41.94a2.007 2.007 0 0 1 .59 2.71z"/><path d="m43 8a3 3 0 0 1 3 3v20a0 0 0 0 1 0 0h-3a0 0 0 0 1 0 0v-23a0 0 0 0 1 0 0z"/><path d="m37 3a3 3 0 0 1 3 3v25a0 0 0 0 1 0 0h-3a0 0 0 0 1 0 0v-28a0 0 0 0 1 0 0z"/><path d="m31 8a3 3 0 0 1 3 3v20a0 0 0 0 1 0 0h-3a0 0 0 0 1 0 0v-23a0 0 0 0 1 0 0z"/><path d="m25 13a3 3 0 0 1 3 3v15a0 0 0 0 1 0 0h-3a0 0 0 0 1 0 0v-18a0 0 0 0 1 0 0z"/></g><path d="m48 53 1 8h-26l1-8h2 20z" fill="#57a4ff"/><circle cx="16" cy="33" fill="#ffde55" r="13"/><path d="m29 33a13 13 0 0 1 -23.97 6.97 13 13 0 0 0 17.94-17.94 12.967 12.967 0 0 1 6.03 10.97z" fill="#ffcd00"/><path d="m23.78 29.46-3.54 3.54 3.54 3.54-4.24 4.24-3.54-3.54-3.54 3.54-4.24-4.24 3.54-3.54-3.54-3.54 4.24-4.24 3.54 3.54 3.54-3.54z" fill="#ff3051"/></g><g id="Layer_34" data-name="Layer 34"><g id="touchless"><path d="m60.95 26.1-1.4-.94a5 5 0 0 0 -6.62.96l-5.93 7.12v-22.24a4 4 0 0 0 -4-4 3.906 3.906 0 0 0 -2 .56v-1.56a4 4 0 0 0 -8 0v1.56a3.906 3.906 0 0 0 -2-.56 4 4 0 0 0 -4 4v1.56a3.906 3.906 0 0 0 -2-.56 3.995 3.995 0 0 0 -4 4v3.94a13.992 13.992 0 1 0 1.59 25.41c.07.13.15.25.23.39.21.34.43.7.67 1.13l1.51 2.42v2.71h-1a1 1 0 0 0 -.99.88l-1 8a.968.968 0 0 0 .24.78.981.981 0 0 0 .75.34h26a.981.981 0 0 0 .75-.34.968.968 0 0 0 .24-.78l-1-8a1 1 0 0 0 -.99-.88h-1v-2.66l14.78-19.09a.555.555 0 0 0 .06-.08 2.99 2.99 0 0 0 -.89-4.07zm-37.95-10.1a2.015 2.015 0 0 1 2-2 2.006 2.006 0 0 1 2 2v8.37a14.194 14.194 0 0 0 -4-3.48zm-7 29a12 12 0 1 1 12-12 12.01 12.01 0 0 1 -12 12zm31.12 9 .75 6h-23.74l.75-6zm13.04-24.92-14.95 19.31a.961.961 0 0 0 -.21.61v3h-18v-3a.988.988 0 0 0 -.15-.53l-1.64-2.63c-.24-.41-.47-.78-.68-1.13-.09-.16-.17-.3-.25-.44a13.935 13.935 0 0 0 4.72-16.44v-16.83a2 2 0 0 1 4 0v20h2v-25a2 2 0 0 1 4 0v25h2v-20a2 2 0 0 1 4 0v24h-2a6 6 0 0 0 -6 6h2a4 4 0 0 1 4-4h3a1 1 0 0 0 .76-.37l.01.01 7.7-9.24a2.987 2.987 0 0 1 3.97-.57l1.4.93a1 1 0 0 1 .32 1.32z"/><path d="m21.66 33 2.83-2.83a1 1 0 0 0 0-1.41l-4.25-4.25a1.034 1.034 0 0 0 -1.41 0l-2.83 2.83-2.83-2.83a1.034 1.034 0 0 0 -1.41 0l-4.25 4.25a1 1 0 0 0 0 1.41l2.83 2.83-2.83 2.83a1 1 0 0 0 0 1.41l4.25 4.25a1.034 1.034 0 0 0 1.41 0l2.83-2.83 2.83 2.83a1.033 1.033 0 0 0 .71.29 1.009 1.009 0 0 0 .7-.29l4.25-4.25a1 1 0 0 0 0-1.41zm-2.12 6.36-2.83-2.82a.99.99 0 0 0 -1.42 0l-2.83 2.82-2.82-2.82 2.82-2.83a.99.99 0 0 0 0-1.42l-2.82-2.83 2.82-2.82 2.83 2.82a1.027 1.027 0 0 0 1.42 0l2.83-2.82 2.82 2.82-2.82 2.83a.99.99 0 0 0 0 1.42l2.82 2.83z"/></g></g></svg>