<svg xmlns="http://www.w3.org/2000/svg" viewBox="0 0 479.1 474.5"><defs><style>.cls-1{fill:#072475;}.cls-2{fill:#8c8c8c;}.cls-3{fill:#595959;}.cls-4{fill:#d7f1f7;}.cls-5{fill:#fff;}</style></defs><title>검색중</title><g id="레이어_2" data-name="레이어 2"><g id="레이어_1-2" data-name="레이어 1"><path class="cls-1" d="M478.8,431.7c1.9,6.9-5.7,17.9-9.5,23.1-6.7,9.3-15.6,16.5-26.9,19.2a14.1,14.1,0,0,1-5.4.4c-2.7-.5-4.9-2.4-7-4.1-26.5-22.6-50.3-49-74.9-73.6q-23.6-23.4-47-47l-1.9-1.9h1.3l45.4-43.7.6-.4,5.2,5.8c7.5,8.2,15.4,16.1,23.3,23.9l90.1,89C474.9,425.1,477.7,428,478.8,431.7Z"/><path class="cls-2" d="M353.5,303.7l-.6.4-45.4,43.7h-1.3c-11.4-10.9-31.5-26.7-24.4-43.3a22.7,22.7,0,0,1,1.9-3.4,9.6,9.6,0,0,0,1.6-2.5c1.3-3.3-1.3-6.7-3.7-9.3L259,265.2l-1.7-1.8c3.8-3.2,7.5-6.6,11-10.1l.7.7a204.5,204.5,0,0,1,28.8,29.3c10.1-6.7,24-4.7,34.5,1.5C340.5,289.6,347,296.6,353.5,303.7Z"/><path class="cls-3" d="M311,150c0,40-16.2,76.4-42.7,103.3-3.5,3.5-7.2,6.9-11,10.1A158.4,158.4,0,0,1,155.5,300C69.6,300,0,232.8,0,150S69.6,0,155.5,0,311,67.2,311,150Zm-20,2A135,135,0,1,0,156,287,134.9,134.9,0,0,0,291,152Z"/><circle class="cls-4" cx="156" cy="152" r="125"/><path class="cls-5" d="M218.4,81.9c-10.1-7.3-20.6-14.8-32.2-19.2-24.7-9.2-54.6-2.3-72.8,16.7l-6.5-6.2c20.6-21.5,54.5-29.3,82.4-18.9C202.1,59.1,213,67,223.6,74.6Z"/></g></g></svg>